<?xml version="1.0" encoding="utf-8" standalone="no"?>
<!DOCTYPE svg PUBLIC "-//W3C//DTD SVG 1.1//EN"
  "http://www.w3.org/Graphics/SVG/1.1/DTD/svg11.dtd">
<svg xmlns:xlink="http://www.w3.org/1999/xlink" width="576pt" height="144pt" viewBox="0 0 576 144" xmlns="http://www.w3.org/2000/svg" version="1.1">
 <metadata>
  <rdf:RDF xmlns:dc="http://purl.org/dc/elements/1.1/" xmlns:cc="http://creativecommons.org/ns#" xmlns:rdf="http://www.w3.org/1999/02/22-rdf-syntax-ns#">
   <cc:Work>
    <dc:type rdf:resource="http://purl.org/dc/dcmitype/StillImage"/>
    <dc:date>2025-12-01T14:24:09.257635</dc:date>
    <dc:format>image/svg+xml</dc:format>
    <dc:creator>
     <cc:Agent>
      <dc:title>Matplotlib v3.10.7, https://matplotlib.org/</dc:title>
     </cc:Agent>
    </dc:creator>
   </cc:Work>
  </rdf:RDF>
 </metadata>
 <defs>
  <style type="text/css">*{stroke-linejoin: round; stroke-linecap: butt}</style>
 </defs>
 <g id="figure_1">
  <g id="patch_1">
   <path d="M 0 144 
L 576 144 
L 576 0 
L 0 0 
z
" style="fill: #ffffff"/>
  </g>
  <g id="axes_1">
   <g id="patch_2">
    <path d="M 32.75 112.96 
L 148.485 112.96 
L 148.485 20.4 
L 32.75 20.4 
z
" style="fill: #ffffff"/>
   </g>
   <g id="matplotlib.axis_1">
    <g id="xtick_1">
     <g id="line2d_1">
      <defs>
       <path id="md2c997692d" d="M 0 0 
L 0 2 
" style="stroke: #262626; stroke-width: 1.25"/>
      </defs>
      <g>
       <use xlink:href="#md2c997692d" x="38.010682" y="112.96" style="fill: #262626; stroke: #262626; stroke-width: 1.25"/>
      </g>
     </g>
     <g id="text_1">
      <text style="font-size: 8px; font-family: 'Arial'; text-anchor: middle; fill: #262626" x="38.010682" y="122.68625" transform="rotate(-0 38.010682 122.68625)">−2</text>
     </g>
    </g>
    <g id="xtick_2">
     <g id="line2d_2">
      <g>
       <use xlink:href="#md2c997692d" x="90.6175" y="112.96" style="fill: #262626; stroke: #262626; stroke-width: 1.25"/>
      </g>
     </g>
     <g id="text_2">
      <text style="font-size: 8px; font-family: 'Arial'; text-anchor: middle; fill: #262626" x="90.6175" y="122.68625" transform="rotate(-0 90.6175 122.68625)">0</text>
     </g>
    </g>
    <g id="xtick_3">
     <g id="line2d_3">
      <g>
       <use xlink:href="#md2c997692d" x="143.224318" y="112.96" style="fill: #262626; stroke: #262626; stroke-width: 1.25"/>
      </g>
     </g>
     <g id="text_3">
      <text style="font-size: 8px; font-family: 'Arial'; text-anchor: middle; fill: #262626" x="143.224318" y="122.68625" transform="rotate(-0 143.224318 122.68625)">2</text>
     </g>
    </g>
    <g id="text_4">
     <text style="font-size: 8px; font-family: 'Arial'; text-anchor: middle; fill: #262626" x="90.6175" y="134.0025" transform="rotate(-0 90.6175 134.0025)">x</text>
    </g>
   </g>
   <g id="matplotlib.axis_2">
    <g id="ytick_1">
     <g id="line2d_4">
      <defs>
       <path id="mc6f60d2664" d="M 0 0 
L -2 0 
" style="stroke: #262626; stroke-width: 1.25"/>
      </defs>
      <g>
       <use xlink:href="#mc6f60d2664" x="32.75" y="112.96" style="fill: #262626; stroke: #262626; stroke-width: 1.25"/>
      </g>
     </g>
     <g id="text_5">
      <text style="font-size: 8px; font-family: 'Arial'; text-anchor: end; fill: #262626" x="28.75" y="115.823125" transform="rotate(-0 28.75 115.823125)">0</text>
     </g>
    </g>
    <g id="ytick_2">
     <g id="line2d_5">
      <g>
       <use xlink:href="#mc6f60d2664" x="32.75" y="87.006246" style="fill: #262626; stroke: #262626; stroke-width: 1.25"/>
      </g>
     </g>
     <g id="text_6">
      <text style="font-size: 8px; font-family: 'Arial'; text-anchor: end; fill: #262626" x="28.75" y="89.869371" transform="rotate(-0 28.75 89.869371)">5</text>
     </g>
    </g>
    <g id="ytick_3">
     <g id="line2d_6">
      <g>
       <use xlink:href="#mc6f60d2664" x="32.75" y="61.052493" style="fill: #262626; stroke: #262626; stroke-width: 1.25"/>
      </g>
     </g>
     <g id="text_7">
      <text style="font-size: 8px; font-family: 'Arial'; text-anchor: end; fill: #262626" x="28.75" y="63.915618" transform="rotate(-0 28.75 63.915618)">10</text>
     </g>
    </g>
    <g id="ytick_4">
     <g id="line2d_7">
      <g>
       <use xlink:href="#mc6f60d2664" x="32.75" y="35.098739" style="fill: #262626; stroke: #262626; stroke-width: 1.25"/>
      </g>
     </g>
     <g id="text_8">
      <text style="font-size: 8px; font-family: 'Arial'; text-anchor: end; fill: #262626" x="28.75" y="37.961864" transform="rotate(-0 28.75 37.961864)">15</text>
     </g>
    </g>
    <g id="text_9">
     <text style="font-size: 8px; font-family: 'Arial'; text-anchor: middle; fill: #262626" x="14.16875" y="66.68" transform="rotate(-90 14.16875 66.68)">p(x)</text>
    </g>
   </g>
   <g id="FillBetweenPolyCollection_1"/>
   <g id="FillBetweenPolyCollection_2"/>
   <g id="FillBetweenPolyCollection_3"/>
   <g id="patch_3">
    <path d="M 71.232449 112.96 
L 71.232449 111.884971 
L 71.970852 111.884971 
L 71.970852 112.96 
L 72.709255 112.96 
L 72.709255 112.96 
L 73.447658 112.96 
L 73.447658 112.96 
L 74.186061 112.96 
L 74.186061 112.96 
L 74.924465 112.96 
L 74.924465 112.96 
L 75.662868 112.96 
L 75.662868 112.96 
L 76.401271 112.96 
L 76.401271 112.96 
L 77.139674 112.96 
L 77.139674 112.96 
L 77.878077 112.96 
L 77.878077 112.96 
L 78.616481 112.96 
L 78.616481 112.96 
L 79.354884 112.96 
L 79.354884 112.96 
L 80.093287 112.96 
L 80.093287 112.96 
L 80.83169 112.96 
L 80.83169 111.884971 
L 81.570093 111.884971 
L 81.570093 112.96 
L 82.308497 112.96 
L 82.308497 112.96 
L 83.0469 112.96 
L 83.0469 111.884971 
L 83.785303 111.884971 
L 83.785303 109.734913 
L 84.523706 109.734913 
L 84.523706 110.809942 
L 85.262109 110.809942 
L 85.262109 110.809942 
L 86.000513 110.809942 
L 86.000513 110.809942 
L 86.738916 110.809942 
L 86.738916 110.809942 
L 87.477319 110.809942 
L 87.477319 111.884971 
L 88.215722 111.884971 
L 88.215722 111.884971 
L 88.954125 111.884971 
L 88.954125 105.434797 
L 89.692529 105.434797 
L 89.692529 77.484042 
L 90.430932 77.484042 
L 90.430932 24.807619 
L 91.169335 24.807619 
L 91.169335 83.934216 
L 91.907738 83.934216 
L 91.907738 107.584855 
L 92.646141 107.584855 
L 92.646141 110.809942 
L 93.384545 110.809942 
L 93.384545 112.96 
L 92.646141 112.96 
L 92.646141 112.96 
L 91.907738 112.96 
L 91.907738 112.96 
L 91.169335 112.96 
L 91.169335 112.96 
L 90.430932 112.96 
L 90.430932 112.96 
L 89.692529 112.96 
L 89.692529 112.96 
L 88.954125 112.96 
L 88.954125 112.96 
L 88.215722 112.96 
L 88.215722 112.96 
L 87.477319 112.96 
L 87.477319 112.96 
L 86.738916 112.96 
L 86.738916 112.96 
L 86.000513 112.96 
L 86.000513 112.96 
L 85.262109 112.96 
L 85.262109 112.96 
L 84.523706 112.96 
L 84.523706 112.96 
L 83.785303 112.96 
L 83.785303 112.96 
L 83.0469 112.96 
L 83.0469 112.96 
L 82.308497 112.96 
L 82.308497 112.96 
L 81.570093 112.96 
L 81.570093 112.96 
L 80.83169 112.96 
L 80.83169 112.96 
L 80.093287 112.96 
L 80.093287 112.96 
L 79.354884 112.96 
L 79.354884 112.96 
L 78.616481 112.96 
L 78.616481 112.96 
L 77.878077 112.96 
L 77.878077 112.96 
L 77.139674 112.96 
L 77.139674 112.96 
L 76.401271 112.96 
L 76.401271 112.96 
L 75.662868 112.96 
L 75.662868 112.96 
L 74.924465 112.96 
L 74.924465 112.96 
L 74.186061 112.96 
L 74.186061 112.96 
L 73.447658 112.96 
L 73.447658 112.96 
L 72.709255 112.96 
L 72.709255 112.96 
L 71.970852 112.96 
L 71.970852 112.96 
z
" clip-path="url(#p8195286c1c)" style="fill: #cccccc; stroke: #ffffff; stroke-linejoin: miter"/>
   </g>
   <g id="line2d_8">
    <path d="M 38.010682 112.96 
L 88.464005 112.87748 
L 89.079289 111.018196 
L 89.694573 95.583227 
L 90.309858 53.824381 
L 90.925142 36.427582 
L 91.540427 75.293263 
L 92.155711 105.910037 
L 92.770995 112.458199 
L 93.38628 112.946417 
L 98.92384 112.96 
L 143.224318 112.96 
L 143.224318 112.96 
" clip-path="url(#p8195286c1c)" style="fill: none; stroke: #edd1cb; stroke-width: 1.5; stroke-linecap: round"/>
   </g>
   <g id="line2d_9">
    <path d="M 38.010682 112.96 
L 80.465307 112.867004 
L 81.695876 112.588406 
L 82.926445 111.941305 
L 84.772298 110.678582 
L 85.387582 110.487643 
L 86.002867 110.52157 
L 86.618151 110.771218 
L 89.694573 112.649503 
L 90.925142 112.886472 
L 93.38628 112.958668 
L 143.224318 112.96 
L 143.224318 112.96 
" clip-path="url(#p8195286c1c)" style="fill: none; stroke: #a9678f; stroke-width: 1.5; stroke-linecap: round"/>
   </g>
   <g id="line2d_10">
    <path d="M 38.010682 112.96 
L 70.620756 112.96 
L 71.236041 101.032149 
L 71.851325 112.96 
L 143.224318 112.96 
L 143.224318 112.96 
" clip-path="url(#p8195286c1c)" style="fill: none; stroke: #2d1e3e; stroke-width: 1.5; stroke-linecap: round"/>
   </g>
   <g id="line2d_11">
    <path d="M 89.192816 112.96 
L 89.192816 20.4 
" clip-path="url(#p8195286c1c)" style="fill: none; stroke-dasharray: 5.55,2.4; stroke-dashoffset: 0; stroke: #808080; stroke-width: 1.5"/>
   </g>
   <g id="line2d_12">
    <path clip-path="url(#p8195286c1c)" style="fill: none; stroke-dasharray: 5.55,2.4; stroke-dashoffset: 0; stroke: #808080; stroke-width: 1.5"/>
   </g>
   <g id="patch_4">
    <path d="M 32.75 112.96 
L 32.75 20.4 
" style="fill: none; stroke: #262626; stroke-width: 1.25; stroke-linejoin: miter; stroke-linecap: square"/>
   </g>
   <g id="patch_5">
    <path d="M 148.485 112.96 
L 148.485 20.4 
" style="fill: none; stroke: #262626; stroke-width: 1.25; stroke-linejoin: miter; stroke-linecap: square"/>
   </g>
   <g id="patch_6">
    <path d="M 32.75 112.96 
L 148.485 112.96 
" style="fill: none; stroke: #262626; stroke-width: 1.25; stroke-linejoin: miter; stroke-linecap: square"/>
   </g>
   <g id="patch_7">
    <path d="M 32.75 20.4 
L 148.485 20.4 
" style="fill: none; stroke: #262626; stroke-width: 1.25; stroke-linejoin: miter; stroke-linecap: square"/>
   </g>
   <g id="text_10">
    <text style="font-size: 8px; font-family: 'Arial'; text-anchor: middle; fill: #262626" x="90.6175" y="14.4" transform="rotate(-0 90.6175 14.4)">None</text>
   </g>
  </g>
  <g id="axes_2">
   <g id="patch_8">
    <path d="M 172.375 112.96 
L 288.11 112.96 
L 288.11 20.4 
L 172.375 20.4 
z
" style="fill: #ffffff"/>
   </g>
   <g id="matplotlib.axis_3">
    <g id="xtick_4">
     <g id="line2d_13">
      <g>
       <use xlink:href="#md2c997692d" x="177.635682" y="112.96" style="fill: #262626; stroke: #262626; stroke-width: 1.25"/>
      </g>
     </g>
     <g id="text_11">
      <text style="font-size: 8px; font-family: 'Arial'; text-anchor: middle; fill: #262626" x="177.635682" y="122.68625" transform="rotate(-0 177.635682 122.68625)">−2</text>
     </g>
    </g>
    <g id="xtick_5">
     <g id="line2d_14">
      <g>
       <use xlink:href="#md2c997692d" x="230.2425" y="112.96" style="fill: #262626; stroke: #262626; stroke-width: 1.25"/>
      </g>
     </g>
     <g id="text_12">
      <text style="font-size: 8px; font-family: 'Arial'; text-anchor: middle; fill: #262626" x="230.2425" y="122.68625" transform="rotate(-0 230.2425 122.68625)">0</text>
     </g>
    </g>
    <g id="xtick_6">
     <g id="line2d_15">
      <g>
       <use xlink:href="#md2c997692d" x="282.849318" y="112.96" style="fill: #262626; stroke: #262626; stroke-width: 1.25"/>
      </g>
     </g>
     <g id="text_13">
      <text style="font-size: 8px; font-family: 'Arial'; text-anchor: middle; fill: #262626" x="282.849318" y="122.68625" transform="rotate(-0 282.849318 122.68625)">2</text>
     </g>
    </g>
    <g id="text_14">
     <text style="font-size: 8px; font-family: 'Arial'; text-anchor: middle; fill: #262626" x="230.2425" y="134.0025" transform="rotate(-0 230.2425 134.0025)">x</text>
    </g>
   </g>
   <g id="matplotlib.axis_4">
    <g id="ytick_5">
     <g id="line2d_16">
      <g>
       <use xlink:href="#mc6f60d2664" x="172.375" y="112.96" style="fill: #262626; stroke: #262626; stroke-width: 1.25"/>
      </g>
     </g>
     <g id="text_15">
      <text style="font-size: 8px; font-family: 'Arial'; text-anchor: end; fill: #262626" x="168.375" y="115.823125" transform="rotate(-0 168.375 115.823125)">0</text>
     </g>
    </g>
    <g id="ytick_6">
     <g id="line2d_17">
      <g>
       <use xlink:href="#mc6f60d2664" x="172.375" y="84.532817" style="fill: #262626; stroke: #262626; stroke-width: 1.25"/>
      </g>
     </g>
     <g id="text_16">
      <text style="font-size: 8px; font-family: 'Arial'; text-anchor: end; fill: #262626" x="168.375" y="87.395942" transform="rotate(-0 168.375 87.395942)">1</text>
     </g>
    </g>
    <g id="ytick_7">
     <g id="line2d_18">
      <g>
       <use xlink:href="#mc6f60d2664" x="172.375" y="56.105634" style="fill: #262626; stroke: #262626; stroke-width: 1.25"/>
      </g>
     </g>
     <g id="text_17">
      <text style="font-size: 8px; font-family: 'Arial'; text-anchor: end; fill: #262626" x="168.375" y="58.968759" transform="rotate(-0 168.375 58.968759)">2</text>
     </g>
    </g>
    <g id="ytick_8">
     <g id="line2d_19">
      <g>
       <use xlink:href="#mc6f60d2664" x="172.375" y="27.678451" style="fill: #262626; stroke: #262626; stroke-width: 1.25"/>
      </g>
     </g>
     <g id="text_18">
      <text style="font-size: 8px; font-family: 'Arial'; text-anchor: end; fill: #262626" x="168.375" y="30.541576" transform="rotate(-0 168.375 30.541576)">3</text>
     </g>
    </g>
   </g>
   <g id="FillBetweenPolyCollection_4"/>
   <g id="FillBetweenPolyCollection_5"/>
   <g id="FillBetweenPolyCollection_6"/>
   <g id="patch_9">
    <path d="M 217.529208 112.96 
L 217.529208 104.996034 
L 219.166813 104.996034 
L 219.166813 112.96 
L 220.804419 112.96 
L 220.804419 104.996034 
L 222.442025 104.996034 
L 222.442025 94.377414 
L 224.07963 94.377414 
L 224.07963 97.032069 
L 225.717236 97.032069 
L 225.717236 81.104138 
L 227.354841 81.104138 
L 227.354841 81.104138 
L 228.992447 81.104138 
L 228.992447 86.413448 
L 230.630052 86.413448 
L 230.630052 91.722758 
L 232.267658 91.722758 
L 232.267658 89.068103 
L 233.905263 89.068103 
L 233.905263 97.032069 
L 235.542869 97.032069 
L 235.542869 104.996034 
L 237.180474 104.996034 
L 237.180474 110.305345 
L 238.81808 110.305345 
L 238.81808 107.65069 
L 240.455686 107.65069 
L 240.455686 107.65069 
L 242.093291 107.65069 
L 242.093291 104.996034 
L 243.730897 104.996034 
L 243.730897 110.305345 
L 245.368502 110.305345 
L 245.368502 104.996034 
L 247.006108 104.996034 
L 247.006108 104.996034 
L 248.643713 104.996034 
L 248.643713 110.305345 
L 250.281319 110.305345 
L 250.281319 110.305345 
L 251.918924 110.305345 
L 251.918924 110.305345 
L 253.55653 110.305345 
L 253.55653 104.996034 
L 255.194135 104.996034 
L 255.194135 104.996034 
L 256.831741 104.996034 
L 256.831741 104.996034 
L 258.469347 104.996034 
L 258.469347 94.377414 
L 260.106952 94.377414 
L 260.106952 102.341379 
L 261.744558 102.341379 
L 261.744558 86.413448 
L 263.382163 86.413448 
L 263.382163 30.665689 
L 265.019769 30.665689 
L 265.019769 75.794827 
L 266.657374 75.794827 
L 266.657374 112.96 
L 265.019769 112.96 
L 265.019769 112.96 
L 263.382163 112.96 
L 263.382163 112.96 
L 261.744558 112.96 
L 261.744558 112.96 
L 260.106952 112.96 
L 260.106952 112.96 
L 258.469347 112.96 
L 258.469347 112.96 
L 256.831741 112.96 
L 256.831741 112.96 
L 255.194135 112.96 
L 255.194135 112.96 
L 253.55653 112.96 
L 253.55653 112.96 
L 251.918924 112.96 
L 251.918924 112.96 
L 250.281319 112.96 
L 250.281319 112.96 
L 248.643713 112.96 
L 248.643713 112.96 
L 247.006108 112.96 
L 247.006108 112.96 
L 245.368502 112.96 
L 245.368502 112.96 
L 243.730897 112.96 
L 243.730897 112.96 
L 242.093291 112.96 
L 242.093291 112.96 
L 240.455686 112.96 
L 240.455686 112.96 
L 238.81808 112.96 
L 238.81808 112.96 
L 237.180474 112.96 
L 237.180474 112.96 
L 235.542869 112.96 
L 235.542869 112.96 
L 233.905263 112.96 
L 233.905263 112.96 
L 232.267658 112.96 
L 232.267658 112.96 
L 230.630052 112.96 
L 230.630052 112.96 
L 228.992447 112.96 
L 228.992447 112.96 
L 227.354841 112.96 
L 227.354841 112.96 
L 225.717236 112.96 
L 225.717236 112.96 
L 224.07963 112.96 
L 224.07963 112.96 
L 222.442025 112.96 
L 222.442025 112.96 
L 220.804419 112.96 
L 220.804419 112.96 
L 219.166813 112.96 
L 219.166813 112.96 
z
" clip-path="url(#p1d0a7a99ed)" style="fill: #cccccc; stroke: #ffffff; stroke-linejoin: miter"/>
   </g>
   <g id="line2d_20">
    <path d="M 177.635682 112.96 
L 212.706894 112.869646 
L 214.552747 112.647094 
L 215.783316 112.300881 
L 217.013885 111.660914 
L 218.244454 110.564282 
L 218.859738 109.786737 
L 220.090307 107.663491 
L 221.320876 104.688254 
L 222.551445 100.872721 
L 225.012582 91.817182 
L 226.243151 87.651533 
L 226.858436 85.952227 
L 227.47372 84.613941 
L 228.089005 83.699781 
L 228.704289 83.254052 
L 229.319573 83.298697 
L 229.934858 83.831507 
L 230.550142 84.826306 
L 231.165427 86.235075 
L 232.395995 90.017601 
L 236.087702 103.22022 
L 237.318271 106.551344 
L 238.54884 109.01444 
L 239.779409 110.687132 
L 241.009977 111.734922 
L 242.240546 112.342158 
L 243.471115 112.668449 
L 245.316968 112.876569 
L 249.008675 112.955638 
L 282.849318 112.96 
L 282.849318 112.96 
" clip-path="url(#p1d0a7a99ed)" style="fill: none; stroke: #edd1cb; stroke-width: 1.5; stroke-linecap: round"/>
   </g>
   <g id="line2d_21">
    <path d="M 177.635682 112.96 
L 260.699079 112.854228 
L 261.314363 112.11563 
L 261.929648 108.362169 
L 262.544932 95.882144 
L 263.160217 69.691322 
L 263.775501 38.181997 
L 264.390785 24.807619 
L 265.00607 42.075026 
L 265.621354 74.079282 
L 266.236639 98.412971 
L 266.851923 109.247433 
L 267.467208 112.3137 
L 268.082492 112.883254 
L 269.313061 112.959657 
L 282.849318 112.96 
L 282.849318 112.96 
" clip-path="url(#p1d0a7a99ed)" style="fill: none; stroke: #a9678f; stroke-width: 1.5; stroke-linecap: round"/>
   </g>
   <g id="line2d_22">
    <path d="M 177.635682 112.96 
L 231.780711 112.852075 
L 234.857133 112.621419 
L 237.318271 112.21214 
L 239.164124 111.698237 
L 241.009977 110.957383 
L 242.855831 109.969937 
L 245.316968 108.32009 
L 249.623959 105.252054 
L 251.469813 104.306758 
L 252.700381 103.924978 
L 253.93095 103.779104 
L 255.161519 103.880824 
L 256.392088 104.221975 
L 257.622657 104.775623 
L 259.46851 105.909345 
L 266.236639 110.540386 
L 268.082492 111.392716 
L 269.928345 112.004982 
L 271.774199 112.412558 
L 274.235336 112.722958 
L 277.927043 112.904907 
L 282.849318 112.954617 
L 282.849318 112.954617 
" clip-path="url(#p1d0a7a99ed)" style="fill: none; stroke: #2d1e3e; stroke-width: 1.5; stroke-linecap: round"/>
   </g>
   <g id="line2d_23">
    <path d="M 240.630431 112.96 
L 240.630431 20.4 
" clip-path="url(#p1d0a7a99ed)" style="fill: none; stroke-dasharray: 5.55,2.4; stroke-dashoffset: 0; stroke: #808080; stroke-width: 1.5"/>
   </g>
   <g id="line2d_24">
    <path d="M 262.170598 112.96 
L 262.170598 20.4 
" clip-path="url(#p1d0a7a99ed)" style="fill: none; stroke-dasharray: 5.55,2.4; stroke-dashoffset: 0; stroke: #808080; stroke-width: 1.5"/>
   </g>
   <g id="patch_10">
    <path d="M 172.375 112.96 
L 172.375 20.4 
" style="fill: none; stroke: #262626; stroke-width: 1.25; stroke-linejoin: miter; stroke-linecap: square"/>
   </g>
   <g id="patch_11">
    <path d="M 288.11 112.96 
L 288.11 20.4 
" style="fill: none; stroke: #262626; stroke-width: 1.25; stroke-linejoin: miter; stroke-linecap: square"/>
   </g>
   <g id="patch_12">
    <path d="M 172.375 112.96 
L 288.11 112.96 
" style="fill: none; stroke: #262626; stroke-width: 1.25; stroke-linejoin: miter; stroke-linecap: square"/>
   </g>
   <g id="patch_13">
    <path d="M 172.375 20.4 
L 288.11 20.4 
" style="fill: none; stroke: #262626; stroke-width: 1.25; stroke-linejoin: miter; stroke-linecap: square"/>
   </g>
   <g id="text_19">
    <text style="font-size: 8px; font-family: 'Arial'; text-anchor: middle; fill: #262626" x="230.2425" y="14.4" transform="rotate(-0 230.2425 14.4)">Anidulafungin</text>
   </g>
  </g>
  <g id="axes_3">
   <g id="patch_14">
    <path d="M 312 112.96 
L 427.735 112.96 
L 427.735 20.4 
L 312 20.4 
z
" style="fill: #ffffff"/>
   </g>
   <g id="matplotlib.axis_5">
    <g id="xtick_7">
     <g id="line2d_25">
      <g>
       <use xlink:href="#md2c997692d" x="317.260682" y="112.96" style="fill: #262626; stroke: #262626; stroke-width: 1.25"/>
      </g>
     </g>
     <g id="text_20">
      <text style="font-size: 8px; font-family: 'Arial'; text-anchor: middle; fill: #262626" x="317.260682" y="122.68625" transform="rotate(-0 317.260682 122.68625)">−2</text>
     </g>
    </g>
    <g id="xtick_8">
     <g id="line2d_26">
      <g>
       <use xlink:href="#md2c997692d" x="369.8675" y="112.96" style="fill: #262626; stroke: #262626; stroke-width: 1.25"/>
      </g>
     </g>
     <g id="text_21">
      <text style="font-size: 8px; font-family: 'Arial'; text-anchor: middle; fill: #262626" x="369.8675" y="122.68625" transform="rotate(-0 369.8675 122.68625)">0</text>
     </g>
    </g>
    <g id="xtick_9">
     <g id="line2d_27">
      <g>
       <use xlink:href="#md2c997692d" x="422.474318" y="112.96" style="fill: #262626; stroke: #262626; stroke-width: 1.25"/>
      </g>
     </g>
     <g id="text_22">
      <text style="font-size: 8px; font-family: 'Arial'; text-anchor: middle; fill: #262626" x="422.474318" y="122.68625" transform="rotate(-0 422.474318 122.68625)">2</text>
     </g>
    </g>
    <g id="text_23">
     <text style="font-size: 8px; font-family: 'Arial'; text-anchor: middle; fill: #262626" x="369.8675" y="134.0025" transform="rotate(-0 369.8675 134.0025)">x</text>
    </g>
   </g>
   <g id="matplotlib.axis_6">
    <g id="ytick_9">
     <g id="line2d_28">
      <g>
       <use xlink:href="#mc6f60d2664" x="312" y="112.96" style="fill: #262626; stroke: #262626; stroke-width: 1.25"/>
      </g>
     </g>
     <g id="text_24">
      <text style="font-size: 8px; font-family: 'Arial'; text-anchor: end; fill: #262626" x="308" y="115.823125" transform="rotate(-0 308 115.823125)">0</text>
     </g>
    </g>
    <g id="ytick_10">
     <g id="line2d_29">
      <g>
       <use xlink:href="#mc6f60d2664" x="312" y="83.464061" style="fill: #262626; stroke: #262626; stroke-width: 1.25"/>
      </g>
     </g>
     <g id="text_25">
      <text style="font-size: 8px; font-family: 'Arial'; text-anchor: end; fill: #262626" x="308" y="86.327186" transform="rotate(-0 308 86.327186)">1</text>
     </g>
    </g>
    <g id="ytick_11">
     <g id="line2d_30">
      <g>
       <use xlink:href="#mc6f60d2664" x="312" y="53.968121" style="fill: #262626; stroke: #262626; stroke-width: 1.25"/>
      </g>
     </g>
     <g id="text_26">
      <text style="font-size: 8px; font-family: 'Arial'; text-anchor: end; fill: #262626" x="308" y="56.831246" transform="rotate(-0 308 56.831246)">2</text>
     </g>
    </g>
    <g id="ytick_12">
     <g id="line2d_31">
      <g>
       <use xlink:href="#mc6f60d2664" x="312" y="24.472182" style="fill: #262626; stroke: #262626; stroke-width: 1.25"/>
      </g>
     </g>
     <g id="text_27">
      <text style="font-size: 8px; font-family: 'Arial'; text-anchor: end; fill: #262626" x="308" y="27.335307" transform="rotate(-0 308 27.335307)">3</text>
     </g>
    </g>
   </g>
   <g id="FillBetweenPolyCollection_7"/>
   <g id="FillBetweenPolyCollection_8"/>
   <g id="FillBetweenPolyCollection_9"/>
   <g id="patch_15">
    <path d="M 359.423136 112.96 
L 359.423136 104.144762 
L 360.958223 104.144762 
L 360.958223 107.083175 
L 362.49331 107.083175 
L 362.49331 104.144762 
L 364.028398 104.144762 
L 364.028398 104.144762 
L 365.563485 104.144762 
L 365.563485 95.329524 
L 367.098572 95.329524 
L 367.098572 89.452698 
L 368.633659 89.452698 
L 368.633659 63.006984 
L 370.168746 63.006984 
L 370.168746 74.760635 
L 371.703833 74.760635 
L 371.703833 89.452698 
L 373.23892 89.452698 
L 373.23892 98.267937 
L 374.774007 98.267937 
L 374.774007 98.267937 
L 376.309095 98.267937 
L 376.309095 104.144762 
L 377.844182 104.144762 
L 377.844182 107.083175 
L 379.379269 107.083175 
L 379.379269 110.021587 
L 380.914356 110.021587 
L 380.914356 112.96 
L 382.449443 112.96 
L 382.449443 110.021587 
L 383.98453 110.021587 
L 383.98453 112.96 
L 385.519617 112.96 
L 385.519617 107.083175 
L 387.054705 107.083175 
L 387.054705 101.206349 
L 388.589792 101.206349 
L 388.589792 110.021587 
L 390.124879 110.021587 
L 390.124879 112.96 
L 391.659966 112.96 
L 391.659966 110.021587 
L 393.195053 110.021587 
L 393.195053 107.083175 
L 394.73014 107.083175 
L 394.73014 92.391111 
L 396.265227 92.391111 
L 396.265227 110.021587 
L 397.800314 110.021587 
L 397.800314 110.021587 
L 399.335402 110.021587 
L 399.335402 74.760635 
L 400.870489 74.760635 
L 400.870489 80.63746 
L 402.405576 80.63746 
L 402.405576 24.807619 
L 403.940663 24.807619 
L 403.940663 57.130159 
L 405.47575 57.130159 
L 405.47575 112.96 
L 403.940663 112.96 
L 403.940663 112.96 
L 402.405576 112.96 
L 402.405576 112.96 
L 400.870489 112.96 
L 400.870489 112.96 
L 399.335402 112.96 
L 399.335402 112.96 
L 397.800314 112.96 
L 397.800314 112.96 
L 396.265227 112.96 
L 396.265227 112.96 
L 394.73014 112.96 
L 394.73014 112.96 
L 393.195053 112.96 
L 393.195053 112.96 
L 391.659966 112.96 
L 391.659966 112.96 
L 390.124879 112.96 
L 390.124879 112.96 
L 388.589792 112.96 
L 388.589792 112.96 
L 387.054705 112.96 
L 387.054705 112.96 
L 385.519617 112.96 
L 385.519617 112.96 
L 383.98453 112.96 
L 383.98453 112.96 
L 382.449443 112.96 
L 382.449443 112.96 
L 380.914356 112.96 
L 380.914356 112.96 
L 379.379269 112.96 
L 379.379269 112.96 
L 377.844182 112.96 
L 377.844182 112.96 
L 376.309095 112.96 
L 376.309095 112.96 
L 374.774007 112.96 
L 374.774007 112.96 
L 373.23892 112.96 
L 373.23892 112.96 
L 371.703833 112.96 
L 371.703833 112.96 
L 370.168746 112.96 
L 370.168746 112.96 
L 368.633659 112.96 
L 368.633659 112.96 
L 367.098572 112.96 
L 367.098572 112.96 
L 365.563485 112.96 
L 365.563485 112.96 
L 364.028398 112.96 
L 364.028398 112.96 
L 362.49331 112.96 
L 362.49331 112.96 
L 360.958223 112.96 
L 360.958223 112.96 
z
" clip-path="url(#pddb2a85db5)" style="fill: #cccccc; stroke: #ffffff; stroke-linejoin: miter"/>
   </g>
   <g id="line2d_32">
    <path d="M 317.260682 112.96 
L 376.943271 112.859961 
L 379.404409 112.626669 
L 381.250262 112.235128 
L 383.096115 111.54483 
L 384.326684 110.877978 
L 386.172537 109.563997 
L 391.094813 105.570756 
L 392.325381 104.999046 
L 393.55595 104.784524 
L 394.786519 104.957166 
L 396.017088 105.492807 
L 397.247657 106.318689 
L 399.708795 108.41017 
L 401.554648 109.938962 
L 403.400501 111.159146 
L 404.63107 111.758643 
L 406.476923 112.361685 
L 408.322776 112.692484 
L 410.783914 112.882664 
L 415.70619 112.956364 
L 422.474318 112.959984 
L 422.474318 112.959984 
" clip-path="url(#pddb2a85db5)" style="fill: none; stroke: #edd1cb; stroke-width: 1.5; stroke-linecap: round"/>
   </g>
   <g id="line2d_33">
    <path d="M 317.260682 112.96 
L 397.247657 112.888896 
L 397.862941 112.657243 
L 398.478226 111.868906 
L 399.09351 109.631908 
L 399.708795 104.368012 
L 400.324079 94.185974 
L 400.939363 78.239454 
L 402.169932 40.958607 
L 402.785217 32.224205 
L 403.400501 36.33743 
L 404.015785 51.41218 
L 405.246354 88.881985 
L 405.861639 101.233383 
L 406.476923 108.126184 
L 407.092208 111.273552 
L 407.707492 112.462009 
L 408.322776 112.835539 
L 409.553345 112.955286 
L 422.474318 112.96 
L 422.474318 112.96 
" clip-path="url(#pddb2a85db5)" style="fill: none; stroke: #a9678f; stroke-width: 1.5; stroke-linecap: round"/>
   </g>
   <g id="line2d_34">
    <path d="M 317.260682 112.96 
L 354.793032 112.891391 
L 356.638885 112.674966 
L 357.869454 112.295811 
L 359.100023 111.535289 
L 359.715307 110.93717 
L 360.330591 110.14679 
L 360.945876 109.127741 
L 361.56116 107.846508 
L 362.791729 104.403953 
L 364.022298 99.781412 
L 365.868151 91.390618 
L 367.09872 85.949429 
L 367.714005 83.658028 
L 368.329289 81.823487 
L 368.944573 80.551933 
L 369.559858 79.919522 
L 370.175142 79.964893 
L 370.790427 80.685256 
L 371.405711 82.036681 
L 372.020995 83.938529 
L 373.251564 88.937611 
L 375.712702 100.121031 
L 376.943271 104.670138 
L 378.17384 108.03275 
L 378.789124 109.277453 
L 379.404409 110.26411 
L 380.019693 111.026849 
L 381.250262 112.025835 
L 382.480831 112.544452 
L 383.7114 112.789839 
L 386.172537 112.937744 
L 394.171235 112.959997 
L 422.474318 112.96 
L 422.474318 112.96 
" clip-path="url(#pddb2a85db5)" style="fill: none; stroke: #2d1e3e; stroke-width: 1.5; stroke-linecap: round"/>
   </g>
   <g id="line2d_35">
    <path d="M 380.661812 112.96 
L 380.661812 20.4 
" clip-path="url(#pddb2a85db5)" style="fill: none; stroke-dasharray: 5.55,2.4; stroke-dashoffset: 0; stroke: #808080; stroke-width: 1.5"/>
   </g>
   <g id="line2d_36">
    <path d="M 398.719322 112.96 
L 398.719322 20.4 
" clip-path="url(#pddb2a85db5)" style="fill: none; stroke-dasharray: 5.55,2.4; stroke-dashoffset: 0; stroke: #808080; stroke-width: 1.5"/>
   </g>
   <g id="patch_16">
    <path d="M 312 112.96 
L 312 20.4 
" style="fill: none; stroke: #262626; stroke-width: 1.25; stroke-linejoin: miter; stroke-linecap: square"/>
   </g>
   <g id="patch_17">
    <path d="M 427.735 112.96 
L 427.735 20.4 
" style="fill: none; stroke: #262626; stroke-width: 1.25; stroke-linejoin: miter; stroke-linecap: square"/>
   </g>
   <g id="patch_18">
    <path d="M 312 112.96 
L 427.735 112.96 
" style="fill: none; stroke: #262626; stroke-width: 1.25; stroke-linejoin: miter; stroke-linecap: square"/>
   </g>
   <g id="patch_19">
    <path d="M 312 20.4 
L 427.735 20.4 
" style="fill: none; stroke: #262626; stroke-width: 1.25; stroke-linejoin: miter; stroke-linecap: square"/>
   </g>
   <g id="text_28">
    <text style="font-size: 8px; font-family: 'Arial'; text-anchor: middle; fill: #262626" x="369.8675" y="14.4" transform="rotate(-0 369.8675 14.4)">Caspofungin</text>
   </g>
  </g>
  <g id="axes_4">
   <g id="patch_20">
    <path d="M 451.625 112.96 
L 567.36 112.96 
L 567.36 20.4 
L 451.625 20.4 
z
" style="fill: #ffffff"/>
   </g>
   <g id="matplotlib.axis_7">
    <g id="xtick_10">
     <g id="line2d_37">
      <g>
       <use xlink:href="#md2c997692d" x="456.885682" y="112.96" style="fill: #262626; stroke: #262626; stroke-width: 1.25"/>
      </g>
     </g>
     <g id="text_29">
      <text style="font-size: 8px; font-family: 'Arial'; text-anchor: middle; fill: #262626" x="456.885682" y="122.68625" transform="rotate(-0 456.885682 122.68625)">−2</text>
     </g>
    </g>
    <g id="xtick_11">
     <g id="line2d_38">
      <g>
       <use xlink:href="#md2c997692d" x="509.4925" y="112.96" style="fill: #262626; stroke: #262626; stroke-width: 1.25"/>
      </g>
     </g>
     <g id="text_30">
      <text style="font-size: 8px; font-family: 'Arial'; text-anchor: middle; fill: #262626" x="509.4925" y="122.68625" transform="rotate(-0 509.4925 122.68625)">0</text>
     </g>
    </g>
    <g id="xtick_12">
     <g id="line2d_39">
      <g>
       <use xlink:href="#md2c997692d" x="562.099318" y="112.96" style="fill: #262626; stroke: #262626; stroke-width: 1.25"/>
      </g>
     </g>
     <g id="text_31">
      <text style="font-size: 8px; font-family: 'Arial'; text-anchor: middle; fill: #262626" x="562.099318" y="122.68625" transform="rotate(-0 562.099318 122.68625)">2</text>
     </g>
    </g>
    <g id="text_32">
     <text style="font-size: 8px; font-family: 'Arial'; text-anchor: middle; fill: #262626" x="509.4925" y="134.0025" transform="rotate(-0 509.4925 134.0025)">x</text>
    </g>
   </g>
   <g id="matplotlib.axis_8">
    <g id="ytick_13">
     <g id="line2d_40">
      <g>
       <use xlink:href="#mc6f60d2664" x="451.625" y="112.96" style="fill: #262626; stroke: #262626; stroke-width: 1.25"/>
      </g>
     </g>
     <g id="text_33">
      <text style="font-size: 8px; font-family: 'Arial'; text-anchor: end; fill: #262626" x="447.625" y="115.823125" transform="rotate(-0 447.625 115.823125)">0</text>
     </g>
    </g>
    <g id="ytick_14">
     <g id="line2d_41">
      <g>
       <use xlink:href="#mc6f60d2664" x="451.625" y="79.216118" style="fill: #262626; stroke: #262626; stroke-width: 1.25"/>
      </g>
     </g>
     <g id="text_34">
      <text style="font-size: 8px; font-family: 'Arial'; text-anchor: end; fill: #262626" x="447.625" y="82.079243" transform="rotate(-0 447.625 82.079243)">1</text>
     </g>
    </g>
    <g id="ytick_15">
     <g id="line2d_42">
      <g>
       <use xlink:href="#mc6f60d2664" x="451.625" y="45.472236" style="fill: #262626; stroke: #262626; stroke-width: 1.25"/>
      </g>
     </g>
     <g id="text_35">
      <text style="font-size: 8px; font-family: 'Arial'; text-anchor: end; fill: #262626" x="447.625" y="48.335361" transform="rotate(-0 447.625 48.335361)">2</text>
     </g>
    </g>
   </g>
   <g id="FillBetweenPolyCollection_10"/>
   <g id="FillBetweenPolyCollection_11"/>
   <g id="FillBetweenPolyCollection_12"/>
   <g id="patch_21">
    <path d="M 496.930849 112.96 
L 496.930849 97.950059 
L 498.649824 97.950059 
L 498.649824 109.958012 
L 500.3688 109.958012 
L 500.3688 103.954035 
L 502.087775 103.954035 
L 502.087775 100.952047 
L 503.806751 100.952047 
L 503.806751 64.928189 
L 505.525726 64.928189 
L 505.525726 70.932165 
L 507.244701 70.932165 
L 507.244701 73.934154 
L 508.963677 73.934154 
L 508.963677 94.948071 
L 510.682652 94.948071 
L 510.682652 79.93813 
L 512.401627 79.93813 
L 512.401627 97.950059 
L 514.120603 97.950059 
L 514.120603 106.956024 
L 515.839578 106.956024 
L 515.839578 97.950059 
L 517.558554 97.950059 
L 517.558554 106.956024 
L 519.277529 106.956024 
L 519.277529 109.958012 
L 520.996504 109.958012 
L 520.996504 106.956024 
L 522.71548 106.956024 
L 522.71548 100.952047 
L 524.434455 100.952047 
L 524.434455 112.96 
L 526.15343 112.96 
L 526.15343 109.958012 
L 527.872406 109.958012 
L 527.872406 103.954035 
L 529.591381 103.954035 
L 529.591381 106.956024 
L 531.310357 106.956024 
L 531.310357 109.958012 
L 533.029332 109.958012 
L 533.029332 100.952047 
L 534.748307 100.952047 
L 534.748307 94.948071 
L 536.467283 94.948071 
L 536.467283 100.952047 
L 538.186258 100.952047 
L 538.186258 106.956024 
L 539.905233 106.956024 
L 539.905233 103.954035 
L 541.624209 103.954035 
L 541.624209 91.946083 
L 543.343184 91.946083 
L 543.343184 97.950059 
L 545.06216 97.950059 
L 545.06216 58.924213 
L 546.781135 58.924213 
L 546.781135 46.91626 
L 548.50011 46.91626 
L 548.50011 112.96 
L 546.781135 112.96 
L 546.781135 112.96 
L 545.06216 112.96 
L 545.06216 112.96 
L 543.343184 112.96 
L 543.343184 112.96 
L 541.624209 112.96 
L 541.624209 112.96 
L 539.905233 112.96 
L 539.905233 112.96 
L 538.186258 112.96 
L 538.186258 112.96 
L 536.467283 112.96 
L 536.467283 112.96 
L 534.748307 112.96 
L 534.748307 112.96 
L 533.029332 112.96 
L 533.029332 112.96 
L 531.310357 112.96 
L 531.310357 112.96 
L 529.591381 112.96 
L 529.591381 112.96 
L 527.872406 112.96 
L 527.872406 112.96 
L 526.15343 112.96 
L 526.15343 112.96 
L 524.434455 112.96 
L 524.434455 112.96 
L 522.71548 112.96 
L 522.71548 112.96 
L 520.996504 112.96 
L 520.996504 112.96 
L 519.277529 112.96 
L 519.277529 112.96 
L 517.558554 112.96 
L 517.558554 112.96 
L 515.839578 112.96 
L 515.839578 112.96 
L 514.120603 112.96 
L 514.120603 112.96 
L 512.401627 112.96 
L 512.401627 112.96 
L 510.682652 112.96 
L 510.682652 112.96 
L 508.963677 112.96 
L 508.963677 112.96 
L 507.244701 112.96 
L 507.244701 112.96 
L 505.525726 112.96 
L 505.525726 112.96 
L 503.806751 112.96 
L 503.806751 112.96 
L 502.087775 112.96 
L 502.087775 112.96 
L 500.3688 112.96 
L 500.3688 112.96 
L 498.649824 112.96 
L 498.649824 112.96 
z
" clip-path="url(#p61e3a93f58)" style="fill: #cccccc; stroke: #ffffff; stroke-linejoin: miter"/>
   </g>
   <g id="line2d_43">
    <path d="M 456.885682 112.96 
L 490.111041 112.877853 
L 491.956894 112.690007 
L 493.187463 112.404653 
L 494.418032 111.8817 
L 495.6486 110.983592 
L 496.879169 109.540392 
L 498.109738 107.374802 
L 499.340307 104.348807 
L 500.570876 100.427127 
L 501.801445 95.741294 
L 504.877867 83.356964 
L 506.108436 79.720461 
L 506.72372 78.491268 
L 507.339005 77.728084 
L 507.954289 77.463311 
L 508.569573 77.708299 
L 509.184858 78.452545 
L 509.800142 79.664433 
L 510.415427 81.293465 
L 511.645995 85.528428 
L 515.952986 102.419622 
L 517.183555 105.915702 
L 518.414124 108.51592 
L 519.644693 110.313399 
L 520.875262 111.472155 
L 522.105831 112.170432 
L 523.3364 112.564466 
L 525.182253 112.834128 
L 528.258675 112.946005 
L 542.410217 112.96 
L 562.099318 112.96 
L 562.099318 112.96 
" clip-path="url(#p61e3a93f58)" style="fill: none; stroke: #edd1cb; stroke-width: 1.5; stroke-linecap: round"/>
   </g>
   <g id="line2d_44">
    <path d="M 456.885682 112.96 
L 543.025501 112.943477 
L 543.640785 112.733313 
L 544.25607 111.026681 
L 544.871354 102.710035 
L 545.486639 79.178122 
L 546.101923 43.747 
L 546.717208 24.807619 
L 547.332492 43.165226 
L 547.947776 78.607825 
L 548.563061 102.449386 
L 549.178345 110.960855 
L 549.79363 112.723624 
L 550.408914 112.942626 
L 554.715905 112.96 
L 562.099318 112.96 
L 562.099318 112.96 
" clip-path="url(#p61e3a93f58)" style="fill: none; stroke: #a9678f; stroke-width: 1.5; stroke-linecap: round"/>
   </g>
   <g id="line2d_45">
    <path d="M 456.885682 112.96 
L 513.491849 112.851018 
L 516.568271 112.593255 
L 518.414124 112.262599 
L 520.259977 111.716096 
L 522.105831 110.878981 
L 523.951684 109.694494 
L 525.797537 108.15371 
L 528.258675 105.676249 
L 531.335097 102.524834 
L 532.565666 101.49634 
L 533.796235 100.719898 
L 535.026804 100.257633 
L 536.257372 100.147847 
L 537.487941 100.399776 
L 538.71851 100.992304 
L 539.949079 101.876894 
L 541.794932 103.596054 
L 546.717208 108.592145 
L 548.563061 110.04205 
L 550.408914 111.131594 
L 552.254767 111.885386 
L 554.100621 112.367597 
L 556.561758 112.717616 
L 559.63818 112.892419 
L 562.099318 112.938598 
L 562.099318 112.938598 
" clip-path="url(#p61e3a93f58)" style="fill: none; stroke: #2d1e3e; stroke-width: 1.5; stroke-linecap: round"/>
   </g>
   <g id="line2d_46">
    <path d="M 520.346401 112.96 
L 520.346401 20.4 
" clip-path="url(#p61e3a93f58)" style="fill: none; stroke-dasharray: 5.55,2.4; stroke-dashoffset: 0; stroke: #808080; stroke-width: 1.5"/>
   </g>
   <g id="line2d_47">
    <path d="M 544.725654 112.96 
L 544.725654 20.4 
" clip-path="url(#p61e3a93f58)" style="fill: none; stroke-dasharray: 5.55,2.4; stroke-dashoffset: 0; stroke: #808080; stroke-width: 1.5"/>
   </g>
   <g id="patch_22">
    <path d="M 451.625 112.96 
L 451.625 20.4 
" style="fill: none; stroke: #262626; stroke-width: 1.25; stroke-linejoin: miter; stroke-linecap: square"/>
   </g>
   <g id="patch_23">
    <path d="M 567.36 112.96 
L 567.36 20.4 
" style="fill: none; stroke: #262626; stroke-width: 1.25; stroke-linejoin: miter; stroke-linecap: square"/>
   </g>
   <g id="patch_24">
    <path d="M 451.625 112.96 
L 567.36 112.96 
" style="fill: none; stroke: #262626; stroke-width: 1.25; stroke-linejoin: miter; stroke-linecap: square"/>
   </g>
   <g id="patch_25">
    <path d="M 451.625 20.4 
L 567.36 20.4 
" style="fill: none; stroke: #262626; stroke-width: 1.25; stroke-linejoin: miter; stroke-linecap: square"/>
   </g>
   <g id="text_36">
    <text style="font-size: 8px; font-family: 'Arial'; text-anchor: middle; fill: #262626" x="509.4925" y="14.4" transform="rotate(-0 509.4925 14.4)">Micafungin</text>
   </g>
  </g>
 </g>
 <defs>
  <clipPath id="p8195286c1c">
   <rect x="32.75" y="20.4" width="115.735" height="92.56"/>
  </clipPath>
  <clipPath id="p1d0a7a99ed">
   <rect x="172.375" y="20.4" width="115.735" height="92.56"/>
  </clipPath>
  <clipPath id="pddb2a85db5">
   <rect x="312" y="20.4" width="115.735" height="92.56"/>
  </clipPath>
  <clipPath id="p61e3a93f58">
   <rect x="451.625" y="20.4" width="115.735" height="92.56"/>
  </clipPath>
 </defs>
</svg>
