<?xml version="1.0" encoding="utf-8" standalone="no"?>
<!DOCTYPE svg PUBLIC "-//W3C//DTD SVG 1.1//EN"
  "http://www.w3.org/Graphics/SVG/1.1/DTD/svg11.dtd">
<svg xmlns:xlink="http://www.w3.org/1999/xlink" width="576pt" height="144pt" viewBox="0 0 576 144" xmlns="http://www.w3.org/2000/svg" version="1.1">
 <metadata>
  <rdf:RDF xmlns:dc="http://purl.org/dc/elements/1.1/" xmlns:cc="http://creativecommons.org/ns#" xmlns:rdf="http://www.w3.org/1999/02/22-rdf-syntax-ns#">
   <cc:Work>
    <dc:type rdf:resource="http://purl.org/dc/dcmitype/StillImage"/>
    <dc:date>2025-11-25T11:28:53.862051</dc:date>
    <dc:format>image/svg+xml</dc:format>
    <dc:creator>
     <cc:Agent>
      <dc:title>Matplotlib v3.10.7, https://matplotlib.org/</dc:title>
     </cc:Agent>
    </dc:creator>
   </cc:Work>
  </rdf:RDF>
 </metadata>
 <defs>
  <style type="text/css">*{stroke-linejoin: round; stroke-linecap: butt}</style>
 </defs>
 <g id="figure_1">
  <g id="patch_1">
   <path d="M 0 144 
L 576 144 
L 576 0 
L 0 0 
z
" style="fill: #ffffff"/>
  </g>
  <g id="axes_1">
   <g id="patch_2">
    <path d="M 28.34 112.96 
L 145.1775 112.96 
L 145.1775 20.4 
L 28.34 20.4 
z
" style="fill: #ffffff"/>
   </g>
   <g id="matplotlib.axis_1">
    <g id="xtick_1">
     <g id="line2d_1">
      <defs>
       <path id="md7a74c09bf" d="M 0 0 
L 0 2 
" style="stroke: #262626; stroke-width: 1.25"/>
      </defs>
      <g>
       <use xlink:href="#md7a74c09bf" x="33.650795" y="112.96" style="fill: #262626; stroke: #262626; stroke-width: 1.25"/>
      </g>
     </g>
     <g id="text_1">
      <text style="font-size: 8px; font-family: 'Arial'; text-anchor: middle; fill: #262626" x="33.650795" y="122.68625" transform="rotate(-0 33.650795 122.68625)">−2</text>
     </g>
    </g>
    <g id="xtick_2">
     <g id="line2d_2">
      <g>
       <use xlink:href="#md7a74c09bf" x="69.056098" y="112.96" style="fill: #262626; stroke: #262626; stroke-width: 1.25"/>
      </g>
     </g>
     <g id="text_2">
      <text style="font-size: 8px; font-family: 'Arial'; text-anchor: middle; fill: #262626" x="69.056098" y="122.68625" transform="rotate(-0 69.056098 122.68625)">0</text>
     </g>
    </g>
    <g id="xtick_3">
     <g id="line2d_3">
      <g>
       <use xlink:href="#md7a74c09bf" x="104.461402" y="112.96" style="fill: #262626; stroke: #262626; stroke-width: 1.25"/>
      </g>
     </g>
     <g id="text_3">
      <text style="font-size: 8px; font-family: 'Arial'; text-anchor: middle; fill: #262626" x="104.461402" y="122.68625" transform="rotate(-0 104.461402 122.68625)">2</text>
     </g>
    </g>
    <g id="xtick_4">
     <g id="line2d_4">
      <g>
       <use xlink:href="#md7a74c09bf" x="139.866705" y="112.96" style="fill: #262626; stroke: #262626; stroke-width: 1.25"/>
      </g>
     </g>
     <g id="text_4">
      <text style="font-size: 8px; font-family: 'Arial'; text-anchor: middle; fill: #262626" x="139.866705" y="122.68625" transform="rotate(-0 139.866705 122.68625)">4</text>
     </g>
    </g>
    <g id="text_5">
     <text style="font-size: 8px; font-family: 'Arial'; text-anchor: middle; fill: #262626" x="86.75875" y="134.0025" transform="rotate(-0 86.75875 134.0025)">x</text>
    </g>
   </g>
   <g id="matplotlib.axis_2">
    <g id="ytick_1">
     <g id="line2d_5">
      <defs>
       <path id="mf6a99040cb" d="M 0 0 
L -2 0 
" style="stroke: #262626; stroke-width: 1.25"/>
      </defs>
      <g>
       <use xlink:href="#mf6a99040cb" x="28.34" y="112.96" style="fill: #262626; stroke: #262626; stroke-width: 1.25"/>
      </g>
     </g>
     <g id="text_6">
      <text style="font-size: 8px; font-family: 'Arial'; text-anchor: end; fill: #262626" x="24.34" y="115.823125" transform="rotate(-0 24.34 115.823125)">0</text>
     </g>
    </g>
    <g id="ytick_2">
     <g id="line2d_6">
      <g>
       <use xlink:href="#mf6a99040cb" x="28.34" y="88.465776" style="fill: #262626; stroke: #262626; stroke-width: 1.25"/>
      </g>
     </g>
     <g id="text_7">
      <text style="font-size: 8px; font-family: 'Arial'; text-anchor: end; fill: #262626" x="24.34" y="91.328901" transform="rotate(-0 24.34 91.328901)">2</text>
     </g>
    </g>
    <g id="ytick_3">
     <g id="line2d_7">
      <g>
       <use xlink:href="#mf6a99040cb" x="28.34" y="63.971553" style="fill: #262626; stroke: #262626; stroke-width: 1.25"/>
      </g>
     </g>
     <g id="text_8">
      <text style="font-size: 8px; font-family: 'Arial'; text-anchor: end; fill: #262626" x="24.34" y="66.834678" transform="rotate(-0 24.34 66.834678)">4</text>
     </g>
    </g>
    <g id="ytick_4">
     <g id="line2d_8">
      <g>
       <use xlink:href="#mf6a99040cb" x="28.34" y="39.477329" style="fill: #262626; stroke: #262626; stroke-width: 1.25"/>
      </g>
     </g>
     <g id="text_9">
      <text style="font-size: 8px; font-family: 'Arial'; text-anchor: end; fill: #262626" x="24.34" y="42.340454" transform="rotate(-0 24.34 42.340454)">6</text>
     </g>
    </g>
    <g id="text_10">
     <text style="font-size: 8px; font-family: 'Arial'; text-anchor: middle; fill: #262626" x="14.2075" y="66.68" transform="rotate(-90 14.2075 66.68)">p(x)</text>
    </g>
   </g>
   <g id="FillBetweenPolyCollection_1"/>
   <g id="FillBetweenPolyCollection_2"/>
   <g id="FillBetweenPolyCollection_3"/>
   <g id="patch_3">
    <path d="M 66.502689 112.96 
L 66.502689 104.946147 
L 66.75553 104.946147 
L 66.75553 112.96 
L 67.00837 112.96 
L 67.00837 104.946147 
L 67.261211 104.946147 
L 67.261211 112.96 
L 67.514052 112.96 
L 67.514052 104.946147 
L 67.766892 104.946147 
L 67.766892 88.918442 
L 68.019733 88.918442 
L 68.019733 112.96 
L 68.272573 112.96 
L 68.272573 112.96 
L 68.525414 112.96 
L 68.525414 96.932294 
L 68.778255 96.932294 
L 68.778255 88.918442 
L 69.031095 88.918442 
L 69.031095 32.821472 
L 69.283936 32.821472 
L 69.283936 88.918442 
L 69.536777 88.918442 
L 69.536777 48.849177 
L 69.789617 48.849177 
L 69.789617 40.835325 
L 70.042458 40.835325 
L 70.042458 24.807619 
L 70.295298 24.807619 
L 70.295298 56.86303 
L 70.548139 56.86303 
L 70.548139 56.86303 
L 70.80098 56.86303 
L 70.80098 24.807619 
L 71.05382 24.807619 
L 71.05382 96.932294 
L 71.306661 96.932294 
L 71.306661 80.904589 
L 71.559502 80.904589 
L 71.559502 56.86303 
L 71.812342 56.86303 
L 71.812342 56.86303 
L 72.065183 56.86303 
L 72.065183 88.918442 
L 72.318024 88.918442 
L 72.318024 88.918442 
L 72.570864 88.918442 
L 72.570864 104.946147 
L 72.823705 104.946147 
L 72.823705 112.96 
L 73.076545 112.96 
L 73.076545 112.96 
L 73.329386 112.96 
L 73.329386 104.946147 
L 73.582227 104.946147 
L 73.582227 104.946147 
L 73.835067 104.946147 
L 73.835067 104.946147 
L 74.087908 104.946147 
L 74.087908 112.96 
L 73.835067 112.96 
L 73.835067 112.96 
L 73.582227 112.96 
L 73.582227 112.96 
L 73.329386 112.96 
L 73.329386 112.96 
L 73.076545 112.96 
L 73.076545 112.96 
L 72.823705 112.96 
L 72.823705 112.96 
L 72.570864 112.96 
L 72.570864 112.96 
L 72.318024 112.96 
L 72.318024 112.96 
L 72.065183 112.96 
L 72.065183 112.96 
L 71.812342 112.96 
L 71.812342 112.96 
L 71.559502 112.96 
L 71.559502 112.96 
L 71.306661 112.96 
L 71.306661 112.96 
L 71.05382 112.96 
L 71.05382 112.96 
L 70.80098 112.96 
L 70.80098 112.96 
L 70.548139 112.96 
L 70.548139 112.96 
L 70.295298 112.96 
L 70.295298 112.96 
L 70.042458 112.96 
L 70.042458 112.96 
L 69.789617 112.96 
L 69.789617 112.96 
L 69.536777 112.96 
L 69.536777 112.96 
L 69.283936 112.96 
L 69.283936 112.96 
L 69.031095 112.96 
L 69.031095 112.96 
L 68.778255 112.96 
L 68.778255 112.96 
L 68.525414 112.96 
L 68.525414 112.96 
L 68.272573 112.96 
L 68.272573 112.96 
L 68.019733 112.96 
L 68.019733 112.96 
L 67.766892 112.96 
L 67.766892 112.96 
L 67.514052 112.96 
L 67.514052 112.96 
L 67.261211 112.96 
L 67.261211 112.96 
L 67.00837 112.96 
L 67.00837 112.96 
L 66.75553 112.96 
L 66.75553 112.96 
z
" clip-path="url(#p70549831a4)" style="fill: #cccccc; stroke: #ffffff; stroke-linejoin: miter"/>
   </g>
   <g id="line2d_9">
    <path d="M 33.650795 112.96 
L 34.652832 112.96 
L 35.654869 112.96 
L 36.656906 112.96 
L 37.658943 112.96 
L 38.66098 112.96 
L 39.663017 112.96 
L 40.665054 112.96 
L 41.66709 112.96 
L 42.669127 112.96 
L 43.671164 112.96 
L 44.673201 112.96 
L 45.675238 112.96 
L 46.677275 112.96 
L 47.679312 112.96 
L 48.681349 112.96 
L 49.683386 112.96 
L 50.685422 112.96 
L 51.687459 112.96 
L 52.689496 112.96 
L 53.691533 112.96 
L 54.69357 112.96 
L 55.695607 112.96 
L 56.697644 112.96 
L 57.699681 112.96 
L 58.701717 112.96 
L 59.703754 112.96 
L 60.705791 112.96 
L 61.707828 112.96 
L 62.709865 112.96 
L 63.711902 112.96 
L 64.713939 112.96 
L 65.715976 112.96 
L 66.718012 112.959998 
L 67.720049 112.959416 
L 68.722086 112.898164 
L 69.724123 111.170181 
L 70.72616 98.804227 
L 71.728197 82.367718 
L 72.730234 94.894747 
L 73.732271 110.045057 
L 74.734307 112.83148 
L 75.736344 112.958452 
L 76.738381 112.959995 
L 77.740418 112.96 
L 78.742455 112.96 
L 79.744492 112.96 
L 80.746529 112.96 
L 81.748566 112.96 
L 82.750602 112.96 
L 83.752639 112.96 
L 84.754676 112.96 
L 85.756713 112.96 
L 86.75875 112.96 
L 87.760787 112.96 
L 88.762824 112.96 
L 89.764861 112.96 
L 90.766898 112.96 
L 91.768934 112.96 
L 92.770971 112.96 
L 93.773008 112.96 
L 94.775045 112.96 
L 95.777082 112.96 
L 96.779119 112.96 
L 97.781156 112.96 
L 98.783193 112.96 
L 99.785229 112.96 
L 100.787266 112.96 
L 101.789303 112.96 
L 102.79134 112.96 
L 103.793377 112.96 
L 104.795414 112.96 
L 105.797451 112.96 
L 106.799488 112.96 
L 107.801524 112.96 
L 108.803561 112.96 
L 109.805598 112.96 
L 110.807635 112.96 
L 111.809672 112.96 
L 112.811709 112.96 
L 113.813746 112.96 
L 114.815783 112.96 
L 115.817819 112.96 
L 116.819856 112.96 
L 117.821893 112.96 
L 118.82393 112.96 
L 119.825967 112.96 
L 120.828004 112.96 
L 121.830041 112.96 
L 122.832078 112.96 
L 123.834114 112.96 
L 124.836151 112.96 
L 125.838188 112.96 
L 126.840225 112.96 
L 127.842262 112.96 
L 128.844299 112.96 
L 129.846336 112.96 
L 130.848373 112.96 
L 131.85041 112.96 
L 132.852446 112.96 
L 133.854483 112.96 
L 134.85652 112.96 
L 135.858557 112.96 
L 136.860594 112.96 
L 137.862631 112.96 
L 138.864668 112.96 
L 139.866705 112.96 
" clip-path="url(#p70549831a4)" style="fill: none; stroke: #edd1cb; stroke-width: 1.5; stroke-linecap: round"/>
   </g>
   <g id="line2d_10">
    <path d="M 33.650795 112.96 
L 34.652832 112.96 
L 35.654869 112.96 
L 36.656906 112.96 
L 37.658943 112.96 
L 38.66098 112.96 
L 39.663017 112.96 
L 40.665054 112.96 
L 41.66709 112.96 
L 42.669127 112.96 
L 43.671164 112.96 
L 44.673201 112.96 
L 45.675238 112.96 
L 46.677275 112.96 
L 47.679312 112.96 
L 48.681349 112.96 
L 49.683386 112.96 
L 50.685422 112.96 
L 51.687459 112.96 
L 52.689496 112.96 
L 53.691533 112.96 
L 54.69357 112.96 
L 55.695607 112.96 
L 56.697644 112.96 
L 57.699681 112.96 
L 58.701717 112.96 
L 59.703754 112.96 
L 60.705791 112.96 
L 61.707828 112.96 
L 62.709865 112.96 
L 63.711902 112.96 
L 64.713939 112.96 
L 65.715976 112.96 
L 66.718012 112.959953 
L 67.720049 112.903487 
L 68.722086 107.093424 
L 69.724123 59.881281 
L 70.72616 71.104174 
L 71.728197 110.083323 
L 72.730234 112.942768 
L 73.732271 112.959991 
L 74.734307 112.96 
L 75.736344 112.96 
L 76.738381 112.96 
L 77.740418 112.96 
L 78.742455 112.96 
L 79.744492 112.96 
L 80.746529 112.96 
L 81.748566 112.96 
L 82.750602 112.96 
L 83.752639 112.96 
L 84.754676 112.96 
L 85.756713 112.96 
L 86.75875 112.96 
L 87.760787 112.96 
L 88.762824 112.96 
L 89.764861 112.96 
L 90.766898 112.96 
L 91.768934 112.96 
L 92.770971 112.96 
L 93.773008 112.96 
L 94.775045 112.96 
L 95.777082 112.96 
L 96.779119 112.96 
L 97.781156 112.96 
L 98.783193 112.96 
L 99.785229 112.96 
L 100.787266 112.96 
L 101.789303 112.96 
L 102.79134 112.96 
L 103.793377 112.96 
L 104.795414 112.96 
L 105.797451 112.96 
L 106.799488 112.96 
L 107.801524 112.96 
L 108.803561 112.96 
L 109.805598 112.96 
L 110.807635 112.96 
L 111.809672 112.96 
L 112.811709 112.96 
L 113.813746 112.96 
L 114.815783 112.96 
L 115.817819 112.96 
L 116.819856 112.96 
L 117.821893 112.96 
L 118.82393 112.96 
L 119.825967 112.96 
L 120.828004 112.96 
L 121.830041 112.96 
L 122.832078 112.96 
L 123.834114 112.96 
L 124.836151 112.96 
L 125.838188 112.96 
L 126.840225 112.96 
L 127.842262 112.96 
L 128.844299 112.96 
L 129.846336 112.96 
L 130.848373 112.96 
L 131.85041 112.96 
L 132.852446 112.96 
L 133.854483 112.96 
L 134.85652 112.96 
L 135.858557 112.96 
L 136.860594 112.96 
L 137.862631 112.96 
L 138.864668 112.96 
L 139.866705 112.96 
" clip-path="url(#p70549831a4)" style="fill: none; stroke: #a9678f; stroke-width: 1.5; stroke-linecap: round"/>
   </g>
   <g id="line2d_11">
    <path d="M 33.650795 112.96 
L 34.652832 112.96 
L 35.654869 112.96 
L 36.656906 112.96 
L 37.658943 112.96 
L 38.66098 112.96 
L 39.663017 112.96 
L 40.665054 112.96 
L 41.66709 112.96 
L 42.669127 112.96 
L 43.671164 112.96 
L 44.673201 112.96 
L 45.675238 112.96 
L 46.677275 112.96 
L 47.679312 112.96 
L 48.681349 112.96 
L 49.683386 112.96 
L 50.685422 112.96 
L 51.687459 112.96 
L 52.689496 112.96 
L 53.691533 112.96 
L 54.69357 112.96 
L 55.695607 112.96 
L 56.697644 112.96 
L 57.699681 112.96 
L 58.701717 112.96 
L 59.703754 112.96 
L 60.705791 112.96 
L 61.707828 112.96 
L 62.709865 112.959984 
L 63.711902 112.95914 
L 64.713939 112.936692 
L 65.715976 112.639666 
L 66.718012 110.728042 
L 67.720049 105.075751 
L 68.722086 98.840299 
L 69.724123 100.140191 
L 70.72616 107.058961 
L 71.728197 111.582897 
L 72.730234 112.797072 
L 73.732271 112.950227 
L 74.734307 112.959703 
L 75.736344 112.959995 
L 76.738381 112.96 
L 77.740418 112.96 
L 78.742455 112.96 
L 79.744492 112.96 
L 80.746529 112.96 
L 81.748566 112.96 
L 82.750602 112.96 
L 83.752639 112.96 
L 84.754676 112.96 
L 85.756713 112.96 
L 86.75875 112.96 
L 87.760787 112.96 
L 88.762824 112.96 
L 89.764861 112.96 
L 90.766898 112.96 
L 91.768934 112.96 
L 92.770971 112.96 
L 93.773008 112.96 
L 94.775045 112.96 
L 95.777082 112.96 
L 96.779119 112.96 
L 97.781156 112.96 
L 98.783193 112.96 
L 99.785229 112.96 
L 100.787266 112.96 
L 101.789303 112.96 
L 102.79134 112.96 
L 103.793377 112.96 
L 104.795414 112.96 
L 105.797451 112.96 
L 106.799488 112.96 
L 107.801524 112.96 
L 108.803561 112.96 
L 109.805598 112.96 
L 110.807635 112.96 
L 111.809672 112.96 
L 112.811709 112.96 
L 113.813746 112.96 
L 114.815783 112.96 
L 115.817819 112.96 
L 116.819856 112.96 
L 117.821893 112.96 
L 118.82393 112.96 
L 119.825967 112.96 
L 120.828004 112.96 
L 121.830041 112.96 
L 122.832078 112.96 
L 123.834114 112.96 
L 124.836151 112.96 
L 125.838188 112.96 
L 126.840225 112.96 
L 127.842262 112.96 
L 128.844299 112.96 
L 129.846336 112.96 
L 130.848373 112.96 
L 131.85041 112.96 
L 132.852446 112.96 
L 133.854483 112.96 
L 134.85652 112.96 
L 135.858557 112.96 
L 136.860594 112.96 
L 137.862631 112.96 
L 138.864668 112.96 
L 139.866705 112.96 
" clip-path="url(#p70549831a4)" style="fill: none; stroke: #2d1e3e; stroke-width: 1.5; stroke-linecap: round"/>
   </g>
   <g id="line2d_12">
    <path d="M 67.095841 112.96 
L 67.095841 20.4 
" clip-path="url(#p70549831a4)" style="fill: none; stroke-dasharray: 5.55,2.4; stroke-dashoffset: 0; stroke: #808080; stroke-width: 1.5"/>
   </g>
   <g id="line2d_13">
    <path clip-path="url(#p70549831a4)" style="fill: none; stroke-dasharray: 5.55,2.4; stroke-dashoffset: 0; stroke: #808080; stroke-width: 1.5"/>
   </g>
   <g id="patch_4">
    <path d="M 28.34 112.96 
L 28.34 20.4 
" style="fill: none; stroke: #262626; stroke-width: 1.25; stroke-linejoin: miter; stroke-linecap: square"/>
   </g>
   <g id="patch_5">
    <path d="M 145.1775 112.96 
L 145.1775 20.4 
" style="fill: none; stroke: #262626; stroke-width: 1.25; stroke-linejoin: miter; stroke-linecap: square"/>
   </g>
   <g id="patch_6">
    <path d="M 28.34 112.96 
L 145.1775 112.96 
" style="fill: none; stroke: #262626; stroke-width: 1.25; stroke-linejoin: miter; stroke-linecap: square"/>
   </g>
   <g id="patch_7">
    <path d="M 28.34 20.4 
L 145.1775 20.4 
" style="fill: none; stroke: #262626; stroke-width: 1.25; stroke-linejoin: miter; stroke-linecap: square"/>
   </g>
   <g id="text_11">
    <text style="font-size: 8px; font-family: 'Arial'; text-anchor: middle; fill: #262626" x="86.75875" y="14.4" transform="rotate(-0 86.75875 14.4)">None</text>
   </g>
  </g>
  <g id="axes_2">
   <g id="patch_8">
    <path d="M 169.0675 112.96 
L 285.905 112.96 
L 285.905 20.4 
L 169.0675 20.4 
z
" style="fill: #ffffff"/>
   </g>
   <g id="matplotlib.axis_3">
    <g id="xtick_5">
     <g id="line2d_14">
      <g>
       <use xlink:href="#md7a74c09bf" x="174.378295" y="112.96" style="fill: #262626; stroke: #262626; stroke-width: 1.25"/>
      </g>
     </g>
     <g id="text_12">
      <text style="font-size: 8px; font-family: 'Arial'; text-anchor: middle; fill: #262626" x="174.378295" y="122.68625" transform="rotate(-0 174.378295 122.68625)">−2</text>
     </g>
    </g>
    <g id="xtick_6">
     <g id="line2d_15">
      <g>
       <use xlink:href="#md7a74c09bf" x="209.783598" y="112.96" style="fill: #262626; stroke: #262626; stroke-width: 1.25"/>
      </g>
     </g>
     <g id="text_13">
      <text style="font-size: 8px; font-family: 'Arial'; text-anchor: middle; fill: #262626" x="209.783598" y="122.68625" transform="rotate(-0 209.783598 122.68625)">0</text>
     </g>
    </g>
    <g id="xtick_7">
     <g id="line2d_16">
      <g>
       <use xlink:href="#md7a74c09bf" x="245.188902" y="112.96" style="fill: #262626; stroke: #262626; stroke-width: 1.25"/>
      </g>
     </g>
     <g id="text_14">
      <text style="font-size: 8px; font-family: 'Arial'; text-anchor: middle; fill: #262626" x="245.188902" y="122.68625" transform="rotate(-0 245.188902 122.68625)">2</text>
     </g>
    </g>
    <g id="xtick_8">
     <g id="line2d_17">
      <g>
       <use xlink:href="#md7a74c09bf" x="280.594205" y="112.96" style="fill: #262626; stroke: #262626; stroke-width: 1.25"/>
      </g>
     </g>
     <g id="text_15">
      <text style="font-size: 8px; font-family: 'Arial'; text-anchor: middle; fill: #262626" x="280.594205" y="122.68625" transform="rotate(-0 280.594205 122.68625)">4</text>
     </g>
    </g>
    <g id="text_16">
     <text style="font-size: 8px; font-family: 'Arial'; text-anchor: middle; fill: #262626" x="227.48625" y="134.0025" transform="rotate(-0 227.48625 134.0025)">x</text>
    </g>
   </g>
   <g id="matplotlib.axis_4">
    <g id="ytick_5">
     <g id="line2d_18">
      <g>
       <use xlink:href="#mf6a99040cb" x="169.0675" y="112.96" style="fill: #262626; stroke: #262626; stroke-width: 1.25"/>
      </g>
     </g>
     <g id="text_17">
      <text style="font-size: 8px; font-family: 'Arial'; text-anchor: end; fill: #262626" x="165.0675" y="115.823125" transform="rotate(-0 165.0675 115.823125)">0.0</text>
     </g>
    </g>
    <g id="ytick_6">
     <g id="line2d_19">
      <g>
       <use xlink:href="#mf6a99040cb" x="169.0675" y="85.142009" style="fill: #262626; stroke: #262626; stroke-width: 1.25"/>
      </g>
     </g>
     <g id="text_18">
      <text style="font-size: 8px; font-family: 'Arial'; text-anchor: end; fill: #262626" x="165.0675" y="88.005134" transform="rotate(-0 165.0675 88.005134)">0.5</text>
     </g>
    </g>
    <g id="ytick_7">
     <g id="line2d_20">
      <g>
       <use xlink:href="#mf6a99040cb" x="169.0675" y="57.324018" style="fill: #262626; stroke: #262626; stroke-width: 1.25"/>
      </g>
     </g>
     <g id="text_19">
      <text style="font-size: 8px; font-family: 'Arial'; text-anchor: end; fill: #262626" x="165.0675" y="60.187143" transform="rotate(-0 165.0675 60.187143)">1.0</text>
     </g>
    </g>
    <g id="ytick_8">
     <g id="line2d_21">
      <g>
       <use xlink:href="#mf6a99040cb" x="169.0675" y="29.506027" style="fill: #262626; stroke: #262626; stroke-width: 1.25"/>
      </g>
     </g>
     <g id="text_20">
      <text style="font-size: 8px; font-family: 'Arial'; text-anchor: end; fill: #262626" x="165.0675" y="32.369152" transform="rotate(-0 165.0675 32.369152)">1.5</text>
     </g>
    </g>
   </g>
   <g id="FillBetweenPolyCollection_4"/>
   <g id="FillBetweenPolyCollection_5"/>
   <g id="FillBetweenPolyCollection_6"/>
   <g id="patch_9">
    <path d="M 190.838558 112.96 
L 190.838558 103.763795 
L 192.840409 103.763795 
L 192.840409 48.586566 
L 194.84226 48.586566 
L 194.84226 25.596054 
L 196.84411 25.596054 
L 196.84411 25.596054 
L 198.845961 25.596054 
L 198.845961 76.175181 
L 200.847811 76.175181 
L 200.847811 80.773283 
L 202.849662 80.773283 
L 202.849662 99.165693 
L 204.851512 99.165693 
L 204.851512 112.96 
L 206.853363 112.96 
L 206.853363 103.763795 
L 208.855214 103.763795 
L 208.855214 99.165693 
L 210.857064 99.165693 
L 210.857064 112.96 
L 212.858915 112.96 
L 212.858915 108.361898 
L 214.860765 108.361898 
L 214.860765 99.165693 
L 216.862616 99.165693 
L 216.862616 103.763795 
L 218.864466 103.763795 
L 218.864466 112.96 
L 220.866317 112.96 
L 220.866317 112.96 
L 222.868168 112.96 
L 222.868168 108.361898 
L 224.870018 108.361898 
L 224.870018 112.96 
L 226.871869 112.96 
L 226.871869 112.96 
L 228.873719 112.96 
L 228.873719 108.361898 
L 230.87557 108.361898 
L 230.87557 103.763795 
L 232.87742 103.763795 
L 232.87742 108.361898 
L 234.879271 108.361898 
L 234.879271 112.96 
L 236.881122 112.96 
L 236.881122 94.56759 
L 238.882972 94.56759 
L 238.882972 108.361898 
L 240.884823 108.361898 
L 240.884823 103.763795 
L 242.886673 103.763795 
L 242.886673 94.56759 
L 244.888524 94.56759 
L 244.888524 103.763795 
L 246.890374 103.763795 
L 246.890374 94.56759 
L 248.892225 94.56759 
L 248.892225 103.763795 
L 250.894076 103.763795 
L 250.894076 112.96 
L 248.892225 112.96 
L 248.892225 112.96 
L 246.890374 112.96 
L 246.890374 112.96 
L 244.888524 112.96 
L 244.888524 112.96 
L 242.886673 112.96 
L 242.886673 112.96 
L 240.884823 112.96 
L 240.884823 112.96 
L 238.882972 112.96 
L 238.882972 112.96 
L 236.881122 112.96 
L 236.881122 112.96 
L 234.879271 112.96 
L 234.879271 112.96 
L 232.87742 112.96 
L 232.87742 112.96 
L 230.87557 112.96 
L 230.87557 112.96 
L 228.873719 112.96 
L 228.873719 112.96 
L 226.871869 112.96 
L 226.871869 112.96 
L 224.870018 112.96 
L 224.870018 112.96 
L 222.868168 112.96 
L 222.868168 112.96 
L 220.866317 112.96 
L 220.866317 112.96 
L 218.864466 112.96 
L 218.864466 112.96 
L 216.862616 112.96 
L 216.862616 112.96 
L 214.860765 112.96 
L 214.860765 112.96 
L 212.858915 112.96 
L 212.858915 112.96 
L 210.857064 112.96 
L 210.857064 112.96 
L 208.855214 112.96 
L 208.855214 112.96 
L 206.853363 112.96 
L 206.853363 112.96 
L 204.851512 112.96 
L 204.851512 112.96 
L 202.849662 112.96 
L 202.849662 112.96 
L 200.847811 112.96 
L 200.847811 112.96 
L 198.845961 112.96 
L 198.845961 112.96 
L 196.84411 112.96 
L 196.84411 112.96 
L 194.84226 112.96 
L 194.84226 112.96 
L 192.840409 112.96 
L 192.840409 112.96 
z
" clip-path="url(#p393005f832)" style="fill: #cccccc; stroke: #ffffff; stroke-linejoin: miter"/>
   </g>
   <g id="line2d_22">
    <path d="M 174.378295 112.96 
L 175.380332 112.96 
L 176.382369 112.96 
L 177.384406 112.96 
L 178.386443 112.96 
L 179.38848 112.959999 
L 180.390517 112.95999 
L 181.392554 112.959936 
L 182.39459 112.959631 
L 183.396627 112.958108 
L 184.398664 112.951365 
L 185.400701 112.92489 
L 186.402738 112.832808 
L 187.404775 112.54945 
L 188.406812 111.779299 
L 189.408849 109.934596 
L 190.410886 106.05289 
L 191.412922 98.909916 
L 192.414959 87.495744 
L 193.416996 71.84005 
L 194.419033 53.797888 
L 195.42107 37.118959 
L 196.423107 26.336763 
L 197.425144 24.807619 
L 198.427181 33.031217 
L 199.429217 48.388353 
L 200.431254 66.481721 
L 201.433291 83.15235 
L 202.435328 95.927636 
L 203.437365 104.288551 
L 204.439402 109.026511 
L 205.441439 111.370232 
L 206.443476 112.387522 
L 207.445512 112.776323 
L 208.447549 112.907493 
L 209.449586 112.946626 
L 210.451623 112.956965 
L 211.45366 112.959386 
L 212.455697 112.959889 
L 213.457734 112.959982 
L 214.459771 112.959997 
L 215.461807 112.96 
L 216.463844 112.96 
L 217.465881 112.96 
L 218.467918 112.96 
L 219.469955 112.96 
L 220.471992 112.96 
L 221.474029 112.96 
L 222.476066 112.96 
L 223.478102 112.96 
L 224.480139 112.96 
L 225.482176 112.96 
L 226.484213 112.96 
L 227.48625 112.96 
L 228.488287 112.96 
L 229.490324 112.96 
L 230.492361 112.96 
L 231.494398 112.96 
L 232.496434 112.96 
L 233.498471 112.96 
L 234.500508 112.96 
L 235.502545 112.96 
L 236.504582 112.96 
L 237.506619 112.96 
L 238.508656 112.96 
L 239.510693 112.96 
L 240.512729 112.96 
L 241.514766 112.96 
L 242.516803 112.96 
L 243.51884 112.96 
L 244.520877 112.96 
L 245.522914 112.96 
L 246.524951 112.96 
L 247.526988 112.96 
L 248.529024 112.96 
L 249.531061 112.96 
L 250.533098 112.96 
L 251.535135 112.96 
L 252.537172 112.96 
L 253.539209 112.96 
L 254.541246 112.96 
L 255.543283 112.96 
L 256.545319 112.96 
L 257.547356 112.96 
L 258.549393 112.96 
L 259.55143 112.96 
L 260.553467 112.96 
L 261.555504 112.96 
L 262.557541 112.96 
L 263.559578 112.96 
L 264.561614 112.96 
L 265.563651 112.96 
L 266.565688 112.96 
L 267.567725 112.96 
L 268.569762 112.96 
L 269.571799 112.96 
L 270.573836 112.96 
L 271.575873 112.96 
L 272.57791 112.96 
L 273.579946 112.96 
L 274.581983 112.96 
L 275.58402 112.96 
L 276.586057 112.96 
L 277.588094 112.96 
L 278.590131 112.96 
L 279.592168 112.96 
L 280.594205 112.96 
" clip-path="url(#p393005f832)" style="fill: none; stroke: #edd1cb; stroke-width: 1.5; stroke-linecap: round"/>
   </g>
   <g id="line2d_23">
    <path d="M 174.378295 112.96 
L 175.380332 112.96 
L 176.382369 112.96 
L 177.384406 112.96 
L 178.386443 112.96 
L 179.38848 112.96 
L 180.390517 112.96 
L 181.392554 112.96 
L 182.39459 112.96 
L 183.396627 112.96 
L 184.398664 112.96 
L 185.400701 112.96 
L 186.402738 112.96 
L 187.404775 112.96 
L 188.406812 112.96 
L 189.408849 112.96 
L 190.410886 112.96 
L 191.412922 112.96 
L 192.414959 112.96 
L 193.416996 112.96 
L 194.419033 112.96 
L 195.42107 112.96 
L 196.423107 112.96 
L 197.425144 112.96 
L 198.427181 112.96 
L 199.429217 112.96 
L 200.431254 112.96 
L 201.433291 112.96 
L 202.435328 112.96 
L 203.437365 112.96 
L 204.439402 112.96 
L 205.441439 112.96 
L 206.443476 112.959999 
L 207.445512 112.959998 
L 208.447549 112.959996 
L 209.449586 112.959991 
L 210.451623 112.959978 
L 211.45366 112.959949 
L 212.455697 112.959884 
L 213.457734 112.959745 
L 214.459771 112.959455 
L 215.461807 112.958867 
L 216.463844 112.957709 
L 217.465881 112.955491 
L 218.467918 112.951365 
L 219.469955 112.943912 
L 220.471992 112.930833 
L 221.474029 112.908549 
L 222.476066 112.87169 
L 223.478102 112.812513 
L 224.480139 112.72033 
L 225.482176 112.581038 
L 226.484213 112.376962 
L 227.48625 112.087194 
L 228.488287 111.688669 
L 229.490324 111.158146 
L 230.492361 110.475149 
L 231.494398 109.625726 
L 232.496434 108.606666 
L 233.498471 107.429523 
L 234.500508 106.123668 
L 235.502545 104.737504 
L 236.504582 103.337141 
L 237.506619 102.002172 
L 238.508656 100.818712 
L 239.510693 99.870442 
L 240.512729 99.228907 
L 241.514766 98.94461 
L 242.516803 99.04045 
L 243.51884 99.508673 
L 244.520877 100.311909 
L 245.522914 101.388097 
L 246.524951 102.658405 
L 247.526988 104.036728 
L 248.529024 105.439206 
L 249.531061 106.792301 
L 250.533098 108.038442 
L 251.535135 109.138781 
L 252.537172 110.07317 
L 253.539209 110.837926 
L 254.541246 111.442182 
L 255.543283 111.903672 
L 256.545319 112.244684 
L 257.547356 112.488679 
L 258.549393 112.657827 
L 259.55143 112.771499 
L 260.553467 112.845582 
L 261.555504 112.892424 
L 262.557541 112.921166 
L 263.559578 112.938286 
L 264.561614 112.948186 
L 265.563651 112.953746 
L 266.565688 112.956778 
L 267.567725 112.958385 
L 268.569762 112.959213 
L 269.571799 112.959626 
L 270.573836 112.959827 
L 271.575873 112.959922 
L 272.57791 112.959966 
L 273.579946 112.959986 
L 274.581983 112.959994 
L 275.58402 112.959998 
L 276.586057 112.959999 
L 277.588094 112.96 
L 278.590131 112.96 
L 279.592168 112.96 
L 280.594205 112.96 
" clip-path="url(#p393005f832)" style="fill: none; stroke: #a9678f; stroke-width: 1.5; stroke-linecap: round"/>
   </g>
   <g id="line2d_24">
    <path d="M 174.378295 112.96 
L 175.380332 112.96 
L 176.382369 112.96 
L 177.384406 112.96 
L 178.386443 112.96 
L 179.38848 112.96 
L 180.390517 112.96 
L 181.392554 112.96 
L 182.39459 112.96 
L 183.396627 112.96 
L 184.398664 112.959999 
L 185.400701 112.959996 
L 186.402738 112.959988 
L 187.404775 112.959968 
L 188.406812 112.959917 
L 189.408849 112.959792 
L 190.410886 112.959501 
L 191.412922 112.958845 
L 192.414959 112.957427 
L 193.416996 112.954476 
L 194.419033 112.948581 
L 195.42107 112.937264 
L 196.423107 112.9164 
L 197.425144 112.879473 
L 198.427181 112.816756 
L 199.429217 112.714588 
L 200.431254 112.555052 
L 201.433291 112.316444 
L 202.435328 111.974953 
L 203.437365 111.507851 
L 204.439402 110.898187 
L 205.441439 110.140507 
L 206.443476 109.246561 
L 207.445512 108.24952 
L 208.447549 107.205101 
L 209.449586 106.18836 
L 210.451623 105.28579 
L 211.45366 104.583606 
L 212.455697 104.154295 
L 213.457734 104.044313 
L 214.459771 104.265811 
L 215.461807 104.79442 
L 216.463844 105.573672 
L 217.465881 106.524923 
L 218.467918 107.560388 
L 219.469955 108.596299 
L 220.471992 109.563505 
L 221.474029 110.413811 
L 222.476066 111.121625 
L 223.478102 111.681617 
L 224.480139 112.103807 
L 225.482176 112.407712 
L 226.484213 112.616882 
L 227.48625 112.754692 
L 228.488287 112.841682 
L 229.490324 112.894328 
L 230.492361 112.924893 
L 231.494398 112.941925 
L 232.496434 112.951037 
L 233.498471 112.955719 
L 234.500508 112.958031 
L 235.502545 112.959128 
L 236.504582 112.959628 
L 237.506619 112.959847 
L 238.508656 112.959939 
L 239.510693 112.959977 
L 240.512729 112.959992 
L 241.514766 112.959997 
L 242.516803 112.959999 
L 243.51884 112.96 
L 244.520877 112.96 
L 245.522914 112.96 
L 246.524951 112.96 
L 247.526988 112.96 
L 248.529024 112.96 
L 249.531061 112.96 
L 250.533098 112.96 
L 251.535135 112.96 
L 252.537172 112.96 
L 253.539209 112.96 
L 254.541246 112.96 
L 255.543283 112.96 
L 256.545319 112.96 
L 257.547356 112.96 
L 258.549393 112.96 
L 259.55143 112.96 
L 260.553467 112.96 
L 261.555504 112.96 
L 262.557541 112.96 
L 263.559578 112.96 
L 264.561614 112.96 
L 265.563651 112.96 
L 266.565688 112.96 
L 267.567725 112.96 
L 268.569762 112.96 
L 269.571799 112.96 
L 270.573836 112.96 
L 271.575873 112.96 
L 272.57791 112.96 
L 273.579946 112.96 
L 274.581983 112.96 
L 275.58402 112.96 
L 276.586057 112.96 
L 277.588094 112.96 
L 278.590131 112.96 
L 279.592168 112.96 
L 280.594205 112.96 
" clip-path="url(#p393005f832)" style="fill: none; stroke: #2d1e3e; stroke-width: 1.5; stroke-linecap: round"/>
   </g>
   <g id="line2d_25">
    <path d="M 204.651335 112.96 
L 204.651335 20.4 
" clip-path="url(#p393005f832)" style="fill: none; stroke-dasharray: 5.55,2.4; stroke-dashoffset: 0; stroke: #808080; stroke-width: 1.5"/>
   </g>
   <g id="line2d_26">
    <path d="M 226.22328 112.96 
L 226.22328 20.4 
" clip-path="url(#p393005f832)" style="fill: none; stroke-dasharray: 5.55,2.4; stroke-dashoffset: 0; stroke: #808080; stroke-width: 1.5"/>
   </g>
   <g id="patch_10">
    <path d="M 169.0675 112.96 
L 169.0675 20.4 
" style="fill: none; stroke: #262626; stroke-width: 1.25; stroke-linejoin: miter; stroke-linecap: square"/>
   </g>
   <g id="patch_11">
    <path d="M 285.905 112.96 
L 285.905 20.4 
" style="fill: none; stroke: #262626; stroke-width: 1.25; stroke-linejoin: miter; stroke-linecap: square"/>
   </g>
   <g id="patch_12">
    <path d="M 169.0675 112.96 
L 285.905 112.96 
" style="fill: none; stroke: #262626; stroke-width: 1.25; stroke-linejoin: miter; stroke-linecap: square"/>
   </g>
   <g id="patch_13">
    <path d="M 169.0675 20.4 
L 285.905 20.4 
" style="fill: none; stroke: #262626; stroke-width: 1.25; stroke-linejoin: miter; stroke-linecap: square"/>
   </g>
   <g id="text_21">
    <text style="font-size: 8px; font-family: 'Arial'; text-anchor: middle; fill: #262626" x="227.48625" y="14.4" transform="rotate(-0 227.48625 14.4)">Anidulafungin</text>
   </g>
  </g>
  <g id="axes_3">
   <g id="patch_14">
    <path d="M 309.795 112.96 
L 426.6325 112.96 
L 426.6325 20.4 
L 309.795 20.4 
z
" style="fill: #ffffff"/>
   </g>
   <g id="matplotlib.axis_5">
    <g id="xtick_9">
     <g id="line2d_27">
      <g>
       <use xlink:href="#md7a74c09bf" x="315.105795" y="112.96" style="fill: #262626; stroke: #262626; stroke-width: 1.25"/>
      </g>
     </g>
     <g id="text_22">
      <text style="font-size: 8px; font-family: 'Arial'; text-anchor: middle; fill: #262626" x="315.105795" y="122.68625" transform="rotate(-0 315.105795 122.68625)">−2</text>
     </g>
    </g>
    <g id="xtick_10">
     <g id="line2d_28">
      <g>
       <use xlink:href="#md7a74c09bf" x="350.511098" y="112.96" style="fill: #262626; stroke: #262626; stroke-width: 1.25"/>
      </g>
     </g>
     <g id="text_23">
      <text style="font-size: 8px; font-family: 'Arial'; text-anchor: middle; fill: #262626" x="350.511098" y="122.68625" transform="rotate(-0 350.511098 122.68625)">0</text>
     </g>
    </g>
    <g id="xtick_11">
     <g id="line2d_29">
      <g>
       <use xlink:href="#md7a74c09bf" x="385.916402" y="112.96" style="fill: #262626; stroke: #262626; stroke-width: 1.25"/>
      </g>
     </g>
     <g id="text_24">
      <text style="font-size: 8px; font-family: 'Arial'; text-anchor: middle; fill: #262626" x="385.916402" y="122.68625" transform="rotate(-0 385.916402 122.68625)">2</text>
     </g>
    </g>
    <g id="xtick_12">
     <g id="line2d_30">
      <g>
       <use xlink:href="#md7a74c09bf" x="421.321705" y="112.96" style="fill: #262626; stroke: #262626; stroke-width: 1.25"/>
      </g>
     </g>
     <g id="text_25">
      <text style="font-size: 8px; font-family: 'Arial'; text-anchor: middle; fill: #262626" x="421.321705" y="122.68625" transform="rotate(-0 421.321705 122.68625)">4</text>
     </g>
    </g>
    <g id="text_26">
     <text style="font-size: 8px; font-family: 'Arial'; text-anchor: middle; fill: #262626" x="368.21375" y="134.0025" transform="rotate(-0 368.21375 134.0025)">x</text>
    </g>
   </g>
   <g id="matplotlib.axis_6">
    <g id="ytick_9">
     <g id="line2d_31">
      <g>
       <use xlink:href="#mf6a99040cb" x="309.795" y="112.96" style="fill: #262626; stroke: #262626; stroke-width: 1.25"/>
      </g>
     </g>
     <g id="text_27">
      <text style="font-size: 8px; font-family: 'Arial'; text-anchor: end; fill: #262626" x="305.795" y="115.823125" transform="rotate(-0 305.795 115.823125)">0.0</text>
     </g>
    </g>
    <g id="ytick_10">
     <g id="line2d_32">
      <g>
       <use xlink:href="#mf6a99040cb" x="309.795" y="88.046838" style="fill: #262626; stroke: #262626; stroke-width: 1.25"/>
      </g>
     </g>
     <g id="text_28">
      <text style="font-size: 8px; font-family: 'Arial'; text-anchor: end; fill: #262626" x="305.795" y="90.909963" transform="rotate(-0 305.795 90.909963)">0.5</text>
     </g>
    </g>
    <g id="ytick_11">
     <g id="line2d_33">
      <g>
       <use xlink:href="#mf6a99040cb" x="309.795" y="63.133676" style="fill: #262626; stroke: #262626; stroke-width: 1.25"/>
      </g>
     </g>
     <g id="text_29">
      <text style="font-size: 8px; font-family: 'Arial'; text-anchor: end; fill: #262626" x="305.795" y="65.996801" transform="rotate(-0 305.795 65.996801)">1.0</text>
     </g>
    </g>
    <g id="ytick_12">
     <g id="line2d_34">
      <g>
       <use xlink:href="#mf6a99040cb" x="309.795" y="38.220515" style="fill: #262626; stroke: #262626; stroke-width: 1.25"/>
      </g>
     </g>
     <g id="text_30">
      <text style="font-size: 8px; font-family: 'Arial'; text-anchor: end; fill: #262626" x="305.795" y="41.08364" transform="rotate(-0 305.795 41.08364)">1.5</text>
     </g>
    </g>
   </g>
   <g id="FillBetweenPolyCollection_7"/>
   <g id="FillBetweenPolyCollection_8"/>
   <g id="FillBetweenPolyCollection_9"/>
   <g id="patch_15">
    <path d="M 340.095047 112.96 
L 340.095047 105.613968 
L 342.339397 105.613968 
L 342.339397 83.575873 
L 344.583747 83.575873 
L 344.583747 43.172698 
L 346.828097 43.172698 
L 346.828097 54.191746 
L 349.072447 54.191746 
L 349.072447 24.807619 
L 351.316797 24.807619 
L 351.316797 94.594921 
L 353.561147 94.594921 
L 353.561147 105.613968 
L 355.805497 105.613968 
L 355.805497 101.940952 
L 358.049847 101.940952 
L 358.049847 105.613968 
L 360.294197 105.613968 
L 360.294197 105.613968 
L 362.538547 105.613968 
L 362.538547 109.286984 
L 364.782897 109.286984 
L 364.782897 105.613968 
L 367.027247 105.613968 
L 367.027247 112.96 
L 369.271597 112.96 
L 369.271597 112.96 
L 371.515947 112.96 
L 371.515947 109.286984 
L 373.760297 109.286984 
L 373.760297 109.286984 
L 376.004647 109.286984 
L 376.004647 112.96 
L 378.248997 112.96 
L 378.248997 109.286984 
L 380.493347 109.286984 
L 380.493347 109.286984 
L 382.737697 109.286984 
L 382.737697 105.613968 
L 384.982047 105.613968 
L 384.982047 112.96 
L 387.226397 112.96 
L 387.226397 112.96 
L 389.470747 112.96 
L 389.470747 105.613968 
L 391.715097 105.613968 
L 391.715097 109.286984 
L 393.959447 109.286984 
L 393.959447 105.613968 
L 396.203797 105.613968 
L 396.203797 112.96 
L 398.448147 112.96 
L 398.448147 98.267937 
L 400.692497 98.267937 
L 400.692497 105.613968 
L 402.936847 105.613968 
L 402.936847 109.286984 
L 405.181197 109.286984 
L 405.181197 101.940952 
L 407.425547 101.940952 
L 407.425547 112.96 
L 405.181197 112.96 
L 405.181197 112.96 
L 402.936847 112.96 
L 402.936847 112.96 
L 400.692497 112.96 
L 400.692497 112.96 
L 398.448147 112.96 
L 398.448147 112.96 
L 396.203797 112.96 
L 396.203797 112.96 
L 393.959447 112.96 
L 393.959447 112.96 
L 391.715097 112.96 
L 391.715097 112.96 
L 389.470747 112.96 
L 389.470747 112.96 
L 387.226397 112.96 
L 387.226397 112.96 
L 384.982047 112.96 
L 384.982047 112.96 
L 382.737697 112.96 
L 382.737697 112.96 
L 380.493347 112.96 
L 380.493347 112.96 
L 378.248997 112.96 
L 378.248997 112.96 
L 376.004647 112.96 
L 376.004647 112.96 
L 373.760297 112.96 
L 373.760297 112.96 
L 371.515947 112.96 
L 371.515947 112.96 
L 369.271597 112.96 
L 369.271597 112.96 
L 367.027247 112.96 
L 367.027247 112.96 
L 364.782897 112.96 
L 364.782897 112.96 
L 362.538547 112.96 
L 362.538547 112.96 
L 360.294197 112.96 
L 360.294197 112.96 
L 358.049847 112.96 
L 358.049847 112.96 
L 355.805497 112.96 
L 355.805497 112.96 
L 353.561147 112.96 
L 353.561147 112.96 
L 351.316797 112.96 
L 351.316797 112.96 
L 349.072447 112.96 
L 349.072447 112.96 
L 346.828097 112.96 
L 346.828097 112.96 
L 344.583747 112.96 
L 344.583747 112.96 
L 342.339397 112.96 
L 342.339397 112.96 
z
" clip-path="url(#pa4eb512539)" style="fill: #cccccc; stroke: #ffffff; stroke-linejoin: miter"/>
   </g>
   <g id="line2d_35">
    <path d="M 315.105795 112.96 
L 316.107832 112.96 
L 317.109869 112.96 
L 318.111906 112.96 
L 319.113943 112.96 
L 320.11598 112.96 
L 321.118017 112.96 
L 322.120054 112.96 
L 323.12209 112.96 
L 324.124127 112.96 
L 325.126164 112.96 
L 326.128201 112.96 
L 327.130238 112.96 
L 328.132275 112.96 
L 329.134312 112.96 
L 330.136349 112.959998 
L 331.138386 112.95999 
L 332.140422 112.959936 
L 333.142459 112.959649 
L 334.144496 112.95827 
L 335.146533 112.952368 
L 336.14857 112.929846 
L 337.150607 112.853308 
L 338.152644 112.621933 
L 339.154681 112.000694 
L 340.156717 110.522221 
L 341.158754 107.412283 
L 342.160791 101.65378 
L 343.162828 92.325041 
L 344.164865 79.233379 
L 345.166902 63.594323 
L 346.168939 48.251636 
L 347.170976 37.001079 
L 348.173012 33.109029 
L 349.175049 37.786518 
L 350.177086 49.582926 
L 351.179123 65.109911 
L 352.18116 80.606866 
L 353.183197 93.370064 
L 354.185234 102.337353 
L 355.187271 107.801594 
L 356.189307 110.716731 
L 357.191344 112.086365 
L 358.193381 112.655307 
L 359.195418 112.864835 
L 360.197455 112.933382 
L 361.199492 112.953333 
L 362.201529 112.958504 
L 363.203566 112.9597 
L 364.205602 112.959946 
L 365.207639 112.959991 
L 366.209676 112.959999 
L 367.211713 112.96 
L 368.21375 112.96 
L 369.215787 112.96 
L 370.217824 112.96 
L 371.219861 112.96 
L 372.221898 112.96 
L 373.223934 112.96 
L 374.225971 112.96 
L 375.228008 112.96 
L 376.230045 112.96 
L 377.232082 112.96 
L 378.234119 112.96 
L 379.236156 112.96 
L 380.238193 112.96 
L 381.240229 112.96 
L 382.242266 112.96 
L 383.244303 112.96 
L 384.24634 112.96 
L 385.248377 112.96 
L 386.250414 112.96 
L 387.252451 112.96 
L 388.254488 112.96 
L 389.256524 112.96 
L 390.258561 112.96 
L 391.260598 112.96 
L 392.262635 112.96 
L 393.264672 112.96 
L 394.266709 112.96 
L 395.268746 112.96 
L 396.270783 112.96 
L 397.272819 112.96 
L 398.274856 112.96 
L 399.276893 112.96 
L 400.27893 112.96 
L 401.280967 112.96 
L 402.283004 112.96 
L 403.285041 112.96 
L 404.287078 112.96 
L 405.289114 112.96 
L 406.291151 112.96 
L 407.293188 112.96 
L 408.295225 112.96 
L 409.297262 112.96 
L 410.299299 112.96 
L 411.301336 112.96 
L 412.303373 112.96 
L 413.30541 112.96 
L 414.307446 112.96 
L 415.309483 112.96 
L 416.31152 112.96 
L 417.313557 112.96 
L 418.315594 112.96 
L 419.317631 112.96 
L 420.319668 112.96 
L 421.321705 112.96 
" clip-path="url(#pa4eb512539)" style="fill: none; stroke: #edd1cb; stroke-width: 1.5; stroke-linecap: round"/>
   </g>
   <g id="line2d_36">
    <path d="M 315.105795 112.96 
L 316.107832 112.96 
L 317.109869 112.96 
L 318.111906 112.96 
L 319.113943 112.96 
L 320.11598 112.96 
L 321.118017 112.96 
L 322.120054 112.96 
L 323.12209 112.96 
L 324.124127 112.96 
L 325.126164 112.96 
L 326.128201 112.96 
L 327.130238 112.96 
L 328.132275 112.96 
L 329.134312 112.96 
L 330.136349 112.96 
L 331.138386 112.96 
L 332.140422 112.96 
L 333.142459 112.96 
L 334.144496 112.96 
L 335.146533 112.96 
L 336.14857 112.96 
L 337.150607 112.96 
L 338.152644 112.96 
L 339.154681 112.96 
L 340.156717 112.96 
L 341.158754 112.96 
L 342.160791 112.96 
L 343.162828 112.96 
L 344.164865 112.96 
L 345.166902 112.96 
L 346.168939 112.96 
L 347.170976 112.96 
L 348.173012 112.96 
L 349.175049 112.96 
L 350.177086 112.96 
L 351.179123 112.96 
L 352.18116 112.96 
L 353.183197 112.96 
L 354.185234 112.96 
L 355.187271 112.96 
L 356.189307 112.96 
L 357.191344 112.96 
L 358.193381 112.96 
L 359.195418 112.96 
L 360.197455 112.96 
L 361.199492 112.96 
L 362.201529 112.96 
L 363.203566 112.96 
L 364.205602 112.96 
L 365.207639 112.96 
L 366.209676 112.96 
L 367.211713 112.96 
L 368.21375 112.96 
L 369.215787 112.96 
L 370.217824 112.959999 
L 371.219861 112.959996 
L 372.221898 112.95999 
L 373.223934 112.959972 
L 374.225971 112.959929 
L 375.228008 112.959824 
L 376.230045 112.959579 
L 377.232082 112.959028 
L 378.234119 112.957839 
L 379.236156 112.955368 
L 380.238193 112.95043 
L 381.240229 112.940936 
L 382.242266 112.92339 
L 383.244303 112.892225 
L 384.24634 112.839041 
L 385.248377 112.751889 
L 386.250414 112.614818 
L 387.252451 112.40806 
L 388.254488 112.109196 
L 389.256524 111.695672 
L 390.258561 111.148733 
L 391.260598 110.458513 
L 392.262635 109.629521 
L 393.264672 108.685277 
L 394.266709 107.670653 
L 395.268746 106.650587 
L 396.270783 105.704478 
L 397.272819 104.916573 
L 398.274856 104.363802 
L 399.276893 104.103452 
L 400.27893 104.16339 
L 401.280967 104.537152 
L 402.283004 105.185089 
L 403.285041 106.041297 
L 404.287078 107.024645 
L 405.289114 108.051356 
L 406.291151 109.046465 
L 407.293188 109.952057 
L 408.295225 110.731242 
L 409.297262 111.367979 
L 410.299299 111.863704 
L 411.301336 112.232221 
L 412.303373 112.494238 
L 413.30541 112.672644 
L 414.307446 112.789089 
L 415.309483 112.862003 
L 416.31152 112.905831 
L 417.313557 112.931135 
L 418.315594 112.945171 
L 419.317631 112.952656 
L 420.319668 112.956494 
L 421.321705 112.958386 
" clip-path="url(#pa4eb512539)" style="fill: none; stroke: #a9678f; stroke-width: 1.5; stroke-linecap: round"/>
   </g>
   <g id="line2d_37">
    <path d="M 315.105795 112.957934 
L 316.107832 112.957202 
L 317.109869 112.956234 
L 318.111906 112.954961 
L 319.113943 112.953298 
L 320.11598 112.95114 
L 321.118017 112.948357 
L 322.120054 112.944791 
L 323.12209 112.940253 
L 324.124127 112.934515 
L 325.126164 112.927307 
L 326.128201 112.918312 
L 327.130238 112.907161 
L 328.132275 112.893429 
L 329.134312 112.876632 
L 330.136349 112.856223 
L 331.138386 112.831593 
L 332.140422 112.802072 
L 333.142459 112.766929 
L 334.144496 112.725382 
L 335.146533 112.676607 
L 336.14857 112.619745 
L 337.150607 112.553927 
L 338.152644 112.478285 
L 339.154681 112.391983 
L 340.156717 112.294239 
L 341.158754 112.184358 
L 342.160791 112.061765 
L 343.162828 111.926039 
L 344.164865 111.776947 
L 345.166902 111.614481 
L 346.168939 111.438888 
L 347.170976 111.250701 
L 348.173012 111.050759 
L 349.175049 110.840229 
L 350.177086 110.620608 
L 351.179123 110.393729 
L 352.18116 110.161741 
L 353.183197 109.927095 
L 354.185234 109.6925 
L 355.187271 109.460888 
L 356.189307 109.235346 
L 357.191344 109.019062 
L 358.193381 108.815244 
L 359.195418 108.627046 
L 360.197455 108.457489 
L 361.199492 108.309376 
L 362.201529 108.185221 
L 363.203566 108.087173 
L 364.205602 108.016956 
L 365.207639 107.975822 
L 366.209676 107.964507 
L 367.211713 107.983216 
L 368.21375 108.031611 
L 369.215787 108.108827 
L 370.217824 108.213492 
L 371.219861 108.34377 
L 372.221898 108.497417 
L 373.223934 108.671842 
L 374.225971 108.864179 
L 375.228008 109.071368 
L 376.230045 109.290234 
L 377.232082 109.517566 
L 378.234119 109.750196 
L 379.236156 109.985068 
L 380.238193 110.219301 
L 381.240229 110.450245 
L 382.242266 110.675523 
L 383.244303 110.893059 
L 384.24634 111.101104 
L 385.248377 111.298242 
L 386.250414 111.483389 
L 387.252451 111.655782 
L 388.254488 111.814963 
L 389.256524 111.960748 
L 390.258561 112.093206 
L 391.260598 112.212618 
L 392.262635 112.319447 
L 393.264672 112.414301 
L 394.266709 112.497899 
L 395.268746 112.571039 
L 396.270783 112.634567 
L 397.272819 112.689354 
L 398.274856 112.736268 
L 399.276893 112.77616 
L 400.27893 112.809846 
L 401.280967 112.838095 
L 402.283004 112.861624 
L 403.285041 112.881088 
L 404.287078 112.89708 
L 405.289114 112.910133 
L 406.291151 112.920715 
L 407.293188 112.929237 
L 408.295225 112.936056 
L 409.297262 112.941474 
L 410.299299 112.945753 
L 411.301336 112.949109 
L 412.303373 112.951724 
L 413.30541 112.95375 
L 414.307446 112.955308 
L 415.309483 112.956498 
L 416.31152 112.957403 
L 417.313557 112.958085 
L 418.315594 112.958596 
L 419.317631 112.958977 
L 420.319668 112.95926 
L 421.321705 112.959467 
" clip-path="url(#pa4eb512539)" style="fill: none; stroke: #2d1e3e; stroke-width: 1.5; stroke-linecap: round"/>
   </g>
   <g id="line2d_38">
    <path d="M 355.680209 112.96 
L 355.680209 20.4 
" clip-path="url(#pa4eb512539)" style="fill: none; stroke-dasharray: 5.55,2.4; stroke-dashoffset: 0; stroke: #808080; stroke-width: 1.5"/>
   </g>
   <g id="line2d_39">
    <path d="M 393.28925 112.96 
L 393.28925 20.4 
" clip-path="url(#pa4eb512539)" style="fill: none; stroke-dasharray: 5.55,2.4; stroke-dashoffset: 0; stroke: #808080; stroke-width: 1.5"/>
   </g>
   <g id="patch_16">
    <path d="M 309.795 112.96 
L 309.795 20.4 
" style="fill: none; stroke: #262626; stroke-width: 1.25; stroke-linejoin: miter; stroke-linecap: square"/>
   </g>
   <g id="patch_17">
    <path d="M 426.6325 112.96 
L 426.6325 20.4 
" style="fill: none; stroke: #262626; stroke-width: 1.25; stroke-linejoin: miter; stroke-linecap: square"/>
   </g>
   <g id="patch_18">
    <path d="M 309.795 112.96 
L 426.6325 112.96 
" style="fill: none; stroke: #262626; stroke-width: 1.25; stroke-linejoin: miter; stroke-linecap: square"/>
   </g>
   <g id="patch_19">
    <path d="M 309.795 20.4 
L 426.6325 20.4 
" style="fill: none; stroke: #262626; stroke-width: 1.25; stroke-linejoin: miter; stroke-linecap: square"/>
   </g>
   <g id="text_31">
    <text style="font-size: 8px; font-family: 'Arial'; text-anchor: middle; fill: #262626" x="368.21375" y="14.4" transform="rotate(-0 368.21375 14.4)">Caspofungin</text>
   </g>
  </g>
  <g id="axes_4">
   <g id="patch_20">
    <path d="M 450.5225 112.96 
L 567.36 112.96 
L 567.36 20.4 
L 450.5225 20.4 
z
" style="fill: #ffffff"/>
   </g>
   <g id="matplotlib.axis_7">
    <g id="xtick_13">
     <g id="line2d_40">
      <g>
       <use xlink:href="#md7a74c09bf" x="455.833295" y="112.96" style="fill: #262626; stroke: #262626; stroke-width: 1.25"/>
      </g>
     </g>
     <g id="text_32">
      <text style="font-size: 8px; font-family: 'Arial'; text-anchor: middle; fill: #262626" x="455.833295" y="122.68625" transform="rotate(-0 455.833295 122.68625)">−2</text>
     </g>
    </g>
    <g id="xtick_14">
     <g id="line2d_41">
      <g>
       <use xlink:href="#md7a74c09bf" x="491.238598" y="112.96" style="fill: #262626; stroke: #262626; stroke-width: 1.25"/>
      </g>
     </g>
     <g id="text_33">
      <text style="font-size: 8px; font-family: 'Arial'; text-anchor: middle; fill: #262626" x="491.238598" y="122.68625" transform="rotate(-0 491.238598 122.68625)">0</text>
     </g>
    </g>
    <g id="xtick_15">
     <g id="line2d_42">
      <g>
       <use xlink:href="#md7a74c09bf" x="526.643902" y="112.96" style="fill: #262626; stroke: #262626; stroke-width: 1.25"/>
      </g>
     </g>
     <g id="text_34">
      <text style="font-size: 8px; font-family: 'Arial'; text-anchor: middle; fill: #262626" x="526.643902" y="122.68625" transform="rotate(-0 526.643902 122.68625)">2</text>
     </g>
    </g>
    <g id="xtick_16">
     <g id="line2d_43">
      <g>
       <use xlink:href="#md7a74c09bf" x="562.049205" y="112.96" style="fill: #262626; stroke: #262626; stroke-width: 1.25"/>
      </g>
     </g>
     <g id="text_35">
      <text style="font-size: 8px; font-family: 'Arial'; text-anchor: middle; fill: #262626" x="562.049205" y="122.68625" transform="rotate(-0 562.049205 122.68625)">4</text>
     </g>
    </g>
    <g id="text_36">
     <text style="font-size: 8px; font-family: 'Arial'; text-anchor: middle; fill: #262626" x="508.94125" y="134.0025" transform="rotate(-0 508.94125 134.0025)">x</text>
    </g>
   </g>
   <g id="matplotlib.axis_8">
    <g id="ytick_13">
     <g id="line2d_44">
      <g>
       <use xlink:href="#mf6a99040cb" x="450.5225" y="112.96" style="fill: #262626; stroke: #262626; stroke-width: 1.25"/>
      </g>
     </g>
     <g id="text_37">
      <text style="font-size: 8px; font-family: 'Arial'; text-anchor: end; fill: #262626" x="446.5225" y="115.823125" transform="rotate(-0 446.5225 115.823125)">0.0</text>
     </g>
    </g>
    <g id="ytick_14">
     <g id="line2d_45">
      <g>
       <use xlink:href="#mf6a99040cb" x="450.5225" y="90.139799" style="fill: #262626; stroke: #262626; stroke-width: 1.25"/>
      </g>
     </g>
     <g id="text_38">
      <text style="font-size: 8px; font-family: 'Arial'; text-anchor: end; fill: #262626" x="446.5225" y="93.002924" transform="rotate(-0 446.5225 93.002924)">0.5</text>
     </g>
    </g>
    <g id="ytick_15">
     <g id="line2d_46">
      <g>
       <use xlink:href="#mf6a99040cb" x="450.5225" y="67.319598" style="fill: #262626; stroke: #262626; stroke-width: 1.25"/>
      </g>
     </g>
     <g id="text_39">
      <text style="font-size: 8px; font-family: 'Arial'; text-anchor: end; fill: #262626" x="446.5225" y="70.182723" transform="rotate(-0 446.5225 70.182723)">1.0</text>
     </g>
    </g>
    <g id="ytick_16">
     <g id="line2d_47">
      <g>
       <use xlink:href="#mf6a99040cb" x="450.5225" y="44.499396" style="fill: #262626; stroke: #262626; stroke-width: 1.25"/>
      </g>
     </g>
     <g id="text_40">
      <text style="font-size: 8px; font-family: 'Arial'; text-anchor: end; fill: #262626" x="446.5225" y="47.362521" transform="rotate(-0 446.5225 47.362521)">1.5</text>
     </g>
    </g>
    <g id="ytick_17">
     <g id="line2d_48">
      <g>
       <use xlink:href="#mf6a99040cb" x="450.5225" y="21.679195" style="fill: #262626; stroke: #262626; stroke-width: 1.25"/>
      </g>
     </g>
     <g id="text_41">
      <text style="font-size: 8px; font-family: 'Arial'; text-anchor: end; fill: #262626" x="446.5225" y="24.54232" transform="rotate(-0 446.5225 24.54232)">2.0</text>
     </g>
    </g>
   </g>
   <g id="FillBetweenPolyCollection_10"/>
   <g id="FillBetweenPolyCollection_11"/>
   <g id="FillBetweenPolyCollection_12"/>
   <g id="patch_21">
    <path d="M 470.565634 112.96 
L 470.565634 109.817701 
L 472.968649 109.817701 
L 472.968649 112.96 
L 475.371664 112.96 
L 475.371664 112.96 
L 477.774679 112.96 
L 477.774679 106.675402 
L 480.177695 106.675402 
L 480.177695 72.110115 
L 482.58071 72.110115 
L 482.58071 43.829425 
L 484.983725 43.829425 
L 484.983725 28.11793 
L 487.38674 28.11793 
L 487.38674 53.256321 
L 489.789755 53.256321 
L 489.789755 109.817701 
L 492.192771 109.817701 
L 492.192771 106.675402 
L 494.595786 106.675402 
L 494.595786 106.675402 
L 496.998801 106.675402 
L 496.998801 109.817701 
L 499.401816 109.817701 
L 499.401816 109.817701 
L 501.804831 109.817701 
L 501.804831 112.96 
L 504.207847 112.96 
L 504.207847 112.96 
L 506.610862 112.96 
L 506.610862 109.817701 
L 509.013877 109.817701 
L 509.013877 112.96 
L 511.416892 112.96 
L 511.416892 109.817701 
L 513.819907 109.817701 
L 513.819907 112.96 
L 516.222923 112.96 
L 516.222923 109.817701 
L 518.625938 109.817701 
L 518.625938 112.96 
L 521.028953 112.96 
L 521.028953 112.96 
L 523.431968 112.96 
L 523.431968 112.96 
L 525.834983 112.96 
L 525.834983 100.390804 
L 528.237999 100.390804 
L 528.237999 112.96 
L 530.641014 112.96 
L 530.641014 106.675402 
L 533.044029 106.675402 
L 533.044029 109.817701 
L 535.447044 109.817701 
L 535.447044 109.817701 
L 537.850059 109.817701 
L 537.850059 109.817701 
L 540.253075 109.817701 
L 540.253075 100.390804 
L 542.65609 100.390804 
L 542.65609 112.96 
L 540.253075 112.96 
L 540.253075 112.96 
L 537.850059 112.96 
L 537.850059 112.96 
L 535.447044 112.96 
L 535.447044 112.96 
L 533.044029 112.96 
L 533.044029 112.96 
L 530.641014 112.96 
L 530.641014 112.96 
L 528.237999 112.96 
L 528.237999 112.96 
L 525.834983 112.96 
L 525.834983 112.96 
L 523.431968 112.96 
L 523.431968 112.96 
L 521.028953 112.96 
L 521.028953 112.96 
L 518.625938 112.96 
L 518.625938 112.96 
L 516.222923 112.96 
L 516.222923 112.96 
L 513.819907 112.96 
L 513.819907 112.96 
L 511.416892 112.96 
L 511.416892 112.96 
L 509.013877 112.96 
L 509.013877 112.96 
L 506.610862 112.96 
L 506.610862 112.96 
L 504.207847 112.96 
L 504.207847 112.96 
L 501.804831 112.96 
L 501.804831 112.96 
L 499.401816 112.96 
L 499.401816 112.96 
L 496.998801 112.96 
L 496.998801 112.96 
L 494.595786 112.96 
L 494.595786 112.96 
L 492.192771 112.96 
L 492.192771 112.96 
L 489.789755 112.96 
L 489.789755 112.96 
L 487.38674 112.96 
L 487.38674 112.96 
L 484.983725 112.96 
L 484.983725 112.96 
L 482.58071 112.96 
L 482.58071 112.96 
L 480.177695 112.96 
L 480.177695 112.96 
L 477.774679 112.96 
L 477.774679 112.96 
L 475.371664 112.96 
L 475.371664 112.96 
L 472.968649 112.96 
L 472.968649 112.96 
z
" clip-path="url(#p360b269cf1)" style="fill: #cccccc; stroke: #ffffff; stroke-linejoin: miter"/>
   </g>
   <g id="line2d_49">
    <path d="M 455.833295 112.96 
L 456.835332 112.96 
L 457.837369 112.96 
L 458.839406 112.96 
L 459.841443 112.96 
L 460.84348 112.96 
L 461.845517 112.96 
L 462.847554 112.96 
L 463.84959 112.96 
L 464.851627 112.96 
L 465.853664 112.96 
L 466.855701 112.96 
L 467.857738 112.96 
L 468.859775 112.959998 
L 469.861812 112.959981 
L 470.863849 112.959869 
L 471.865886 112.959202 
L 472.867922 112.955734 
L 473.869959 112.939981 
L 474.871996 112.877556 
L 475.874033 112.662026 
L 476.87607 112.014842 
L 477.878107 110.328882 
L 478.880144 106.53187 
L 479.882181 99.177191 
L 480.884217 87.024206 
L 481.886254 70.127829 
L 482.888291 50.880338 
L 483.890328 33.99451 
L 484.892365 24.807619 
L 485.894402 26.594661 
L 486.896439 38.700222 
L 487.898476 56.922786 
L 488.900512 75.848531 
L 489.902549 91.390083 
L 490.904586 101.957344 
L 491.906623 108.034443 
L 492.90866 111.024818 
L 493.910697 112.292737 
L 494.912734 112.758079 
L 495.914771 112.906374 
L 496.916807 112.947501 
L 497.918844 112.957443 
L 498.920881 112.959541 
L 499.922918 112.959928 
L 500.924955 112.95999 
L 501.926992 112.959999 
L 502.929029 112.96 
L 503.931066 112.96 
L 504.933102 112.96 
L 505.935139 112.96 
L 506.937176 112.96 
L 507.939213 112.96 
L 508.94125 112.96 
L 509.943287 112.96 
L 510.945324 112.96 
L 511.947361 112.96 
L 512.949398 112.96 
L 513.951434 112.96 
L 514.953471 112.96 
L 515.955508 112.96 
L 516.957545 112.96 
L 517.959582 112.96 
L 518.961619 112.96 
L 519.963656 112.96 
L 520.965693 112.96 
L 521.967729 112.96 
L 522.969766 112.96 
L 523.971803 112.96 
L 524.97384 112.96 
L 525.975877 112.96 
L 526.977914 112.96 
L 527.979951 112.96 
L 528.981988 112.96 
L 529.984024 112.96 
L 530.986061 112.96 
L 531.988098 112.96 
L 532.990135 112.96 
L 533.992172 112.96 
L 534.994209 112.96 
L 535.996246 112.96 
L 536.998283 112.96 
L 538.000319 112.96 
L 539.002356 112.96 
L 540.004393 112.96 
L 541.00643 112.96 
L 542.008467 112.96 
L 543.010504 112.96 
L 544.012541 112.96 
L 545.014578 112.96 
L 546.016614 112.96 
L 547.018651 112.96 
L 548.020688 112.96 
L 549.022725 112.96 
L 550.024762 112.96 
L 551.026799 112.96 
L 552.028836 112.96 
L 553.030873 112.96 
L 554.03291 112.96 
L 555.034946 112.96 
L 556.036983 112.96 
L 557.03902 112.96 
L 558.041057 112.96 
L 559.043094 112.96 
L 560.045131 112.96 
L 561.047168 112.96 
L 562.049205 112.96 
" clip-path="url(#p360b269cf1)" style="fill: none; stroke: #edd1cb; stroke-width: 1.5; stroke-linecap: round"/>
   </g>
   <g id="line2d_50">
    <path d="M 455.833295 112.96 
L 456.835332 112.96 
L 457.837369 112.96 
L 458.839406 112.96 
L 459.841443 112.96 
L 460.84348 112.96 
L 461.845517 112.96 
L 462.847554 112.96 
L 463.84959 112.96 
L 464.851627 112.96 
L 465.853664 112.96 
L 466.855701 112.96 
L 467.857738 112.96 
L 468.859775 112.96 
L 469.861812 112.96 
L 470.863849 112.96 
L 471.865886 112.96 
L 472.867922 112.96 
L 473.869959 112.96 
L 474.871996 112.96 
L 475.874033 112.96 
L 476.87607 112.96 
L 477.878107 112.96 
L 478.880144 112.96 
L 479.882181 112.96 
L 480.884217 112.96 
L 481.886254 112.96 
L 482.888291 112.96 
L 483.890328 112.96 
L 484.892365 112.96 
L 485.894402 112.96 
L 486.896439 112.96 
L 487.898476 112.96 
L 488.900512 112.96 
L 489.902549 112.96 
L 490.904586 112.96 
L 491.906623 112.96 
L 492.90866 112.96 
L 493.910697 112.96 
L 494.912734 112.96 
L 495.914771 112.96 
L 496.916807 112.959999 
L 497.918844 112.959998 
L 498.920881 112.959996 
L 499.922918 112.959992 
L 500.924955 112.959982 
L 501.926992 112.959962 
L 502.929029 112.959921 
L 503.931066 112.95984 
L 504.933102 112.959682 
L 505.935139 112.959381 
L 506.937176 112.958826 
L 507.939213 112.957822 
L 508.94125 112.956053 
L 509.943287 112.95301 
L 510.945324 112.947908 
L 511.947361 112.939561 
L 512.949398 112.926247 
L 513.951434 112.905538 
L 514.953471 112.874142 
L 515.955508 112.827756 
L 516.957545 112.760986 
L 517.959582 112.667382 
L 518.961619 112.539634 
L 519.963656 112.369982 
L 520.965693 112.15088 
L 521.967729 111.875896 
L 522.969766 111.540814 
L 523.971803 111.144828 
L 524.97384 110.691668 
L 525.975877 110.190473 
L 526.977914 109.656191 
L 527.979951 109.109346 
L 528.981988 108.575055 
L 529.984024 108.081299 
L 530.986061 107.6566 
L 531.988098 107.327323 
L 532.990135 107.114986 
L 533.992172 107.033933 
L 534.994209 107.089735 
L 535.996246 107.27855 
L 536.998283 107.587569 
L 538.000319 107.996446 
L 539.002356 108.479516 
L 540.004393 109.008451 
L 541.00643 109.554978 
L 542.008467 110.093296 
L 543.010504 110.601934 
L 544.012541 111.064868 
L 545.014578 111.471897 
L 546.016614 111.81834 
L 547.018651 112.104242 
L 548.020688 112.333278 
L 549.022725 112.511554 
L 550.024762 112.646488 
L 551.026799 112.745854 
L 552.028836 112.817086 
L 553.030873 112.866814 
L 554.03291 112.900634 
L 555.034946 112.923048 
L 556.036983 112.937528 
L 557.03902 112.946648 
L 558.041057 112.952249 
L 559.043094 112.955603 
L 560.045131 112.957564 
L 561.047168 112.958681 
L 562.049205 112.959302 
" clip-path="url(#p360b269cf1)" style="fill: none; stroke: #a9678f; stroke-width: 1.5; stroke-linecap: round"/>
   </g>
   <g id="line2d_51">
    <path d="M 455.833295 112.926349 
L 456.835332 112.918133 
L 457.837369 112.9082 
L 458.839406 112.896266 
L 459.841443 112.882017 
L 460.84348 112.865111 
L 461.845517 112.84518 
L 462.847554 112.821831 
L 463.84959 112.794656 
L 464.851627 112.763233 
L 465.853664 112.727135 
L 466.855701 112.685942 
L 467.857738 112.639249 
L 468.859775 112.58668 
L 469.861812 112.527904 
L 470.863849 112.462644 
L 471.865886 112.3907 
L 472.867922 112.31196 
L 473.869959 112.226417 
L 474.871996 112.134183 
L 475.874033 112.035503 
L 476.87607 111.930766 
L 477.878107 111.820512 
L 478.880144 111.705438 
L 479.882181 111.586395 
L 480.884217 111.46439 
L 481.886254 111.340571 
L 482.888291 111.216217 
L 483.890328 111.092718 
L 484.892365 110.971551 
L 485.894402 110.854254 
L 486.896439 110.742394 
L 487.898476 110.637531 
L 488.900512 110.541186 
L 489.902549 110.454803 
L 490.904586 110.379711 
L 491.906623 110.317093 
L 492.90866 110.267955 
L 493.910697 110.233097 
L 494.912734 110.213092 
L 495.914771 110.208272 
L 496.916807 110.218716 
L 497.918844 110.244252 
L 498.920881 110.284458 
L 499.922918 110.338673 
L 500.924955 110.406019 
L 501.926992 110.485423 
L 502.929029 110.575643 
L 503.931066 110.675303 
L 504.933102 110.782927 
L 505.935139 110.896975 
L 506.937176 111.015882 
L 507.939213 111.138085 
L 508.94125 111.262068 
L 509.943287 111.386381 
L 510.945324 111.509673 
L 511.947361 111.630711 
L 512.949398 111.748399 
L 513.951434 111.861786 
L 514.953471 111.970078 
L 515.955508 112.072635 
L 516.957545 112.168974 
L 517.959582 112.258761 
L 518.961619 112.341801 
L 519.963656 112.418027 
L 520.965693 112.487487 
L 521.967729 112.550328 
L 522.969766 112.606779 
L 523.971803 112.657138 
L 524.97384 112.701757 
L 525.975877 112.741023 
L 526.977914 112.775346 
L 527.979951 112.805153 
L 528.981988 112.830868 
L 529.984024 112.852909 
L 530.986061 112.87168 
L 531.988098 112.887564 
L 532.990135 112.900921 
L 533.992172 112.912082 
L 534.994209 112.92135 
L 535.996246 112.928998 
L 536.998283 112.93527 
L 538.000319 112.940383 
L 539.002356 112.944525 
L 540.004393 112.94786 
L 541.00643 112.950529 
L 542.008467 112.952652 
L 543.010504 112.954331 
L 544.012541 112.95565 
L 545.014578 112.956681 
L 546.016614 112.957482 
L 547.018651 112.9581 
L 548.020688 112.958574 
L 549.022725 112.958936 
L 550.024762 112.95921 
L 551.026799 112.959417 
L 552.028836 112.959572 
L 553.030873 112.959688 
L 554.03291 112.959773 
L 555.034946 112.959837 
L 556.036983 112.959883 
L 557.03902 112.959916 
L 558.041057 112.959941 
L 559.043094 112.959958 
L 560.045131 112.959971 
L 561.047168 112.959979 
L 562.049205 112.959986 
" clip-path="url(#p360b269cf1)" style="fill: none; stroke: #2d1e3e; stroke-width: 1.5; stroke-linecap: round"/>
   </g>
   <g id="line2d_52">
    <path d="M 492.240504 112.96 
L 492.240504 20.4 
" clip-path="url(#p360b269cf1)" style="fill: none; stroke-dasharray: 5.55,2.4; stroke-dashoffset: 0; stroke: #808080; stroke-width: 1.5"/>
   </g>
   <g id="line2d_53">
    <path d="M 533.028109 112.96 
L 533.028109 20.4 
" clip-path="url(#p360b269cf1)" style="fill: none; stroke-dasharray: 5.55,2.4; stroke-dashoffset: 0; stroke: #808080; stroke-width: 1.5"/>
   </g>
   <g id="patch_22">
    <path d="M 450.5225 112.96 
L 450.5225 20.4 
" style="fill: none; stroke: #262626; stroke-width: 1.25; stroke-linejoin: miter; stroke-linecap: square"/>
   </g>
   <g id="patch_23">
    <path d="M 567.36 112.96 
L 567.36 20.4 
" style="fill: none; stroke: #262626; stroke-width: 1.25; stroke-linejoin: miter; stroke-linecap: square"/>
   </g>
   <g id="patch_24">
    <path d="M 450.5225 112.96 
L 567.36 112.96 
" style="fill: none; stroke: #262626; stroke-width: 1.25; stroke-linejoin: miter; stroke-linecap: square"/>
   </g>
   <g id="patch_25">
    <path d="M 450.5225 20.4 
L 567.36 20.4 
" style="fill: none; stroke: #262626; stroke-width: 1.25; stroke-linejoin: miter; stroke-linecap: square"/>
   </g>
   <g id="text_42">
    <text style="font-size: 8px; font-family: 'Arial'; text-anchor: middle; fill: #262626" x="508.94125" y="14.4" transform="rotate(-0 508.94125 14.4)">Micafungin</text>
   </g>
  </g>
 </g>
 <defs>
  <clipPath id="p70549831a4">
   <rect x="28.34" y="20.4" width="116.8375" height="92.56"/>
  </clipPath>
  <clipPath id="p393005f832">
   <rect x="169.0675" y="20.4" width="116.8375" height="92.56"/>
  </clipPath>
  <clipPath id="pa4eb512539">
   <rect x="309.795" y="20.4" width="116.8375" height="92.56"/>
  </clipPath>
  <clipPath id="p360b269cf1">
   <rect x="450.5225" y="20.4" width="116.8375" height="92.56"/>
  </clipPath>
 </defs>
</svg>
