<?xml version="1.0" encoding="utf-8" standalone="no"?>
<!DOCTYPE svg PUBLIC "-//W3C//DTD SVG 1.1//EN"
  "http://www.w3.org/Graphics/SVG/1.1/DTD/svg11.dtd">
<svg xmlns:xlink="http://www.w3.org/1999/xlink" width="576pt" height="144pt" viewBox="0 0 576 144" xmlns="http://www.w3.org/2000/svg" version="1.1">
 <metadata>
  <rdf:RDF xmlns:dc="http://purl.org/dc/elements/1.1/" xmlns:cc="http://creativecommons.org/ns#" xmlns:rdf="http://www.w3.org/1999/02/22-rdf-syntax-ns#">
   <cc:Work>
    <dc:type rdf:resource="http://purl.org/dc/dcmitype/StillImage"/>
    <dc:date>2025-12-01T14:24:35.208086</dc:date>
    <dc:format>image/svg+xml</dc:format>
    <dc:creator>
     <cc:Agent>
      <dc:title>Matplotlib v3.10.7, https://matplotlib.org/</dc:title>
     </cc:Agent>
    </dc:creator>
   </cc:Work>
  </rdf:RDF>
 </metadata>
 <defs>
  <style type="text/css">*{stroke-linejoin: round; stroke-linecap: butt}</style>
 </defs>
 <g id="figure_1">
  <g id="patch_1">
   <path d="M 0 144 
L 576 144 
L 576 0 
L 0 0 
z
" style="fill: #ffffff"/>
  </g>
  <g id="axes_1">
   <g id="patch_2">
    <path d="M 28.34 112.96 
L 141.8025 112.96 
L 141.8025 20.4 
L 28.34 20.4 
z
" style="fill: #ffffff"/>
   </g>
   <g id="matplotlib.axis_1">
    <g id="xtick_1">
     <g id="line2d_1">
      <defs>
       <path id="m830a69991d" d="M 0 0 
L 0 2 
" style="stroke: #262626; stroke-width: 1.25"/>
      </defs>
      <g>
       <use xlink:href="#m830a69991d" x="33.497386" y="112.96" style="fill: #262626; stroke: #262626; stroke-width: 1.25"/>
      </g>
     </g>
     <g id="text_1">
      <text style="font-size: 8px; font-family: 'Arial'; text-anchor: middle; fill: #262626" x="33.497386" y="122.68625" transform="rotate(-0 33.497386 122.68625)">−2</text>
     </g>
    </g>
    <g id="xtick_2">
     <g id="line2d_2">
      <g>
       <use xlink:href="#m830a69991d" x="74.756477" y="112.96" style="fill: #262626; stroke: #262626; stroke-width: 1.25"/>
      </g>
     </g>
     <g id="text_2">
      <text style="font-size: 8px; font-family: 'Arial'; text-anchor: middle; fill: #262626" x="74.756477" y="122.68625" transform="rotate(-0 74.756477 122.68625)">0</text>
     </g>
    </g>
    <g id="xtick_3">
     <g id="line2d_3">
      <g>
       <use xlink:href="#m830a69991d" x="116.015568" y="112.96" style="fill: #262626; stroke: #262626; stroke-width: 1.25"/>
      </g>
     </g>
     <g id="text_3">
      <text style="font-size: 8px; font-family: 'Arial'; text-anchor: middle; fill: #262626" x="116.015568" y="122.68625" transform="rotate(-0 116.015568 122.68625)">2</text>
     </g>
    </g>
    <g id="text_4">
     <text style="font-size: 8px; font-family: 'Arial'; text-anchor: middle; fill: #262626" x="85.07125" y="134.0025" transform="rotate(-0 85.07125 134.0025)">x</text>
    </g>
   </g>
   <g id="matplotlib.axis_2">
    <g id="ytick_1">
     <g id="line2d_4">
      <defs>
       <path id="mc62882bb82" d="M 0 0 
L -2 0 
" style="stroke: #262626; stroke-width: 1.25"/>
      </defs>
      <g>
       <use xlink:href="#mc62882bb82" x="28.34" y="112.96" style="fill: #262626; stroke: #262626; stroke-width: 1.25"/>
      </g>
     </g>
     <g id="text_5">
      <text style="font-size: 8px; font-family: 'Arial'; text-anchor: end; fill: #262626" x="24.34" y="115.823125" transform="rotate(-0 24.34 115.823125)">0</text>
     </g>
    </g>
    <g id="ytick_2">
     <g id="line2d_5">
      <g>
       <use xlink:href="#mc62882bb82" x="28.34" y="94.207501" style="fill: #262626; stroke: #262626; stroke-width: 1.25"/>
      </g>
     </g>
     <g id="text_6">
      <text style="font-size: 8px; font-family: 'Arial'; text-anchor: end; fill: #262626" x="24.34" y="97.070626" transform="rotate(-0 24.34 97.070626)">2</text>
     </g>
    </g>
    <g id="ytick_3">
     <g id="line2d_6">
      <g>
       <use xlink:href="#mc62882bb82" x="28.34" y="75.455002" style="fill: #262626; stroke: #262626; stroke-width: 1.25"/>
      </g>
     </g>
     <g id="text_7">
      <text style="font-size: 8px; font-family: 'Arial'; text-anchor: end; fill: #262626" x="24.34" y="78.318127" transform="rotate(-0 24.34 78.318127)">4</text>
     </g>
    </g>
    <g id="ytick_4">
     <g id="line2d_7">
      <g>
       <use xlink:href="#mc62882bb82" x="28.34" y="56.702502" style="fill: #262626; stroke: #262626; stroke-width: 1.25"/>
      </g>
     </g>
     <g id="text_8">
      <text style="font-size: 8px; font-family: 'Arial'; text-anchor: end; fill: #262626" x="24.34" y="59.565627" transform="rotate(-0 24.34 59.565627)">6</text>
     </g>
    </g>
    <g id="ytick_5">
     <g id="line2d_8">
      <g>
       <use xlink:href="#mc62882bb82" x="28.34" y="37.950003" style="fill: #262626; stroke: #262626; stroke-width: 1.25"/>
      </g>
     </g>
     <g id="text_9">
      <text style="font-size: 8px; font-family: 'Arial'; text-anchor: end; fill: #262626" x="24.34" y="40.813128" transform="rotate(-0 24.34 40.813128)">8</text>
     </g>
    </g>
    <g id="text_10">
     <text style="font-size: 8px; font-family: 'Arial'; text-anchor: middle; fill: #262626" x="14.2075" y="66.68" transform="rotate(-90 14.2075 66.68)">p(x)</text>
    </g>
   </g>
   <g id="FillBetweenPolyCollection_1"/>
   <g id="FillBetweenPolyCollection_2"/>
   <g id="FillBetweenPolyCollection_3"/>
   <g id="patch_3">
    <path d="M 55.096503 112.96 
L 55.096503 111.507303 
L 55.836229 111.507303 
L 55.836229 111.507303 
L 56.575956 111.507303 
L 56.575956 110.054605 
L 57.315682 110.054605 
L 57.315682 112.96 
L 58.055409 112.96 
L 58.055409 111.507303 
L 58.795136 111.507303 
L 58.795136 112.96 
L 59.534862 112.96 
L 59.534862 111.507303 
L 60.274589 111.507303 
L 60.274589 112.96 
L 61.014315 112.96 
L 61.014315 112.96 
L 61.754042 112.96 
L 61.754042 111.507303 
L 62.493768 111.507303 
L 62.493768 112.96 
L 63.233495 112.96 
L 63.233495 112.96 
L 63.973221 112.96 
L 63.973221 110.054605 
L 64.712948 110.054605 
L 64.712948 112.96 
L 65.452674 112.96 
L 65.452674 110.054605 
L 66.192401 110.054605 
L 66.192401 105.696514 
L 66.932127 105.696514 
L 66.932127 108.601908 
L 67.671854 108.601908 
L 67.671854 108.601908 
L 68.41158 108.601908 
L 68.41158 108.601908 
L 69.151307 108.601908 
L 69.151307 105.696514 
L 69.891033 105.696514 
L 69.891033 101.338422 
L 70.63076 101.338422 
L 70.63076 102.791119 
L 71.370487 102.791119 
L 71.370487 110.054605 
L 72.110213 110.054605 
L 72.110213 108.601908 
L 72.84994 108.601908 
L 72.84994 104.243816 
L 73.589666 104.243816 
L 73.589666 88.264147 
L 74.329393 88.264147 
L 74.329393 44.683229 
L 75.069119 44.683229 
L 75.069119 33.061651 
L 75.808846 33.061651 
L 75.808846 108.601908 
L 76.548572 108.601908 
L 76.548572 110.054605 
L 77.288299 110.054605 
L 77.288299 112.96 
L 76.548572 112.96 
L 76.548572 112.96 
L 75.808846 112.96 
L 75.808846 112.96 
L 75.069119 112.96 
L 75.069119 112.96 
L 74.329393 112.96 
L 74.329393 112.96 
L 73.589666 112.96 
L 73.589666 112.96 
L 72.84994 112.96 
L 72.84994 112.96 
L 72.110213 112.96 
L 72.110213 112.96 
L 71.370487 112.96 
L 71.370487 112.96 
L 70.63076 112.96 
L 70.63076 112.96 
L 69.891033 112.96 
L 69.891033 112.96 
L 69.151307 112.96 
L 69.151307 112.96 
L 68.41158 112.96 
L 68.41158 112.96 
L 67.671854 112.96 
L 67.671854 112.96 
L 66.932127 112.96 
L 66.932127 112.96 
L 66.192401 112.96 
L 66.192401 112.96 
L 65.452674 112.96 
L 65.452674 112.96 
L 64.712948 112.96 
L 64.712948 112.96 
L 63.973221 112.96 
L 63.973221 112.96 
L 63.233495 112.96 
L 63.233495 112.96 
L 62.493768 112.96 
L 62.493768 112.96 
L 61.754042 112.96 
L 61.754042 112.96 
L 61.014315 112.96 
L 61.014315 112.96 
L 60.274589 112.96 
L 60.274589 112.96 
L 59.534862 112.96 
L 59.534862 112.96 
L 58.795136 112.96 
L 58.795136 112.96 
L 58.055409 112.96 
L 58.055409 112.96 
L 57.315682 112.96 
L 57.315682 112.96 
L 56.575956 112.96 
L 56.575956 112.96 
L 55.836229 112.96 
L 55.836229 112.96 
z
" clip-path="url(#p77196f365a)" style="fill: #cccccc; stroke: #ffffff; stroke-linejoin: miter"/>
   </g>
   <g id="line2d_9">
    <path d="M 33.497386 112.96 
L 60.580868 112.889858 
L 62.309601 112.630246 
L 63.462089 112.180521 
L 64.614578 111.353808 
L 65.767066 110.074852 
L 68.648288 106.116988 
L 69.224532 105.622527 
L 69.800776 105.357786 
L 70.377021 105.349237 
L 70.953265 105.597748 
L 71.529509 106.078429 
L 72.681998 107.535936 
L 74.410731 110.025805 
L 75.563219 111.319143 
L 76.715708 112.16011 
L 77.868196 112.620087 
L 79.020685 112.834084 
L 81.325662 112.948554 
L 93.426792 112.96 
L 136.645114 112.96 
L 136.645114 112.96 
" clip-path="url(#p77196f365a)" style="fill: none; stroke: #edd1cb; stroke-width: 1.5; stroke-linecap: round"/>
   </g>
   <g id="line2d_10">
    <path d="M 33.497386 112.96 
L 53.089692 112.877147 
L 54.242181 112.646494 
L 55.394669 112.174426 
L 56.547158 111.656434 
L 57.123402 111.521259 
L 57.699646 111.527538 
L 58.852135 111.917592 
L 60.580868 112.661219 
L 61.733356 112.882408 
L 64.038334 112.95848 
L 123.967739 112.96 
L 136.645114 112.96 
L 136.645114 112.96 
" clip-path="url(#p77196f365a)" style="fill: none; stroke: #a9678f; stroke-width: 1.5; stroke-linecap: round"/>
   </g>
   <g id="line2d_11">
    <path d="M 33.497386 112.96 
L 72.681998 112.92797 
L 73.258242 111.919381 
L 73.834486 100.529571 
L 74.410731 58.367433 
L 74.986975 24.807619 
L 76.139464 101.536623 
L 76.715708 112.043243 
L 77.291952 112.93295 
L 80.173174 112.96 
L 136.645114 112.96 
L 136.645114 112.96 
" clip-path="url(#p77196f365a)" style="fill: none; stroke: #2d1e3e; stroke-width: 1.5; stroke-linecap: round"/>
   </g>
   <g id="line2d_12">
    <path d="M 73.463066 112.96 
L 73.463066 20.4 
" clip-path="url(#p77196f365a)" style="fill: none; stroke-dasharray: 5.55,2.4; stroke-dashoffset: 0; stroke: #808080; stroke-width: 1.5"/>
   </g>
   <g id="line2d_13">
    <path clip-path="url(#p77196f365a)" style="fill: none; stroke-dasharray: 5.55,2.4; stroke-dashoffset: 0; stroke: #808080; stroke-width: 1.5"/>
   </g>
   <g id="patch_4">
    <path d="M 28.34 112.96 
L 28.34 20.4 
" style="fill: none; stroke: #262626; stroke-width: 1.25; stroke-linejoin: miter; stroke-linecap: square"/>
   </g>
   <g id="patch_5">
    <path d="M 141.8025 112.96 
L 141.8025 20.4 
" style="fill: none; stroke: #262626; stroke-width: 1.25; stroke-linejoin: miter; stroke-linecap: square"/>
   </g>
   <g id="patch_6">
    <path d="M 28.34 112.96 
L 141.8025 112.96 
" style="fill: none; stroke: #262626; stroke-width: 1.25; stroke-linejoin: miter; stroke-linecap: square"/>
   </g>
   <g id="patch_7">
    <path d="M 28.34 20.4 
L 141.8025 20.4 
" style="fill: none; stroke: #262626; stroke-width: 1.25; stroke-linejoin: miter; stroke-linecap: square"/>
   </g>
   <g id="text_11">
    <text style="font-size: 8px; font-family: 'Arial'; text-anchor: middle; fill: #262626" x="85.07125" y="14.4" transform="rotate(-0 85.07125 14.4)">None</text>
   </g>
  </g>
  <g id="axes_2">
   <g id="patch_8">
    <path d="M 170.1925 112.96 
L 283.655 112.96 
L 283.655 20.4 
L 170.1925 20.4 
z
" style="fill: #ffffff"/>
   </g>
   <g id="matplotlib.axis_3">
    <g id="xtick_4">
     <g id="line2d_14">
      <g>
       <use xlink:href="#m830a69991d" x="175.349886" y="112.96" style="fill: #262626; stroke: #262626; stroke-width: 1.25"/>
      </g>
     </g>
     <g id="text_12">
      <text style="font-size: 8px; font-family: 'Arial'; text-anchor: middle; fill: #262626" x="175.349886" y="122.68625" transform="rotate(-0 175.349886 122.68625)">−2</text>
     </g>
    </g>
    <g id="xtick_5">
     <g id="line2d_15">
      <g>
       <use xlink:href="#m830a69991d" x="216.608977" y="112.96" style="fill: #262626; stroke: #262626; stroke-width: 1.25"/>
      </g>
     </g>
     <g id="text_13">
      <text style="font-size: 8px; font-family: 'Arial'; text-anchor: middle; fill: #262626" x="216.608977" y="122.68625" transform="rotate(-0 216.608977 122.68625)">0</text>
     </g>
    </g>
    <g id="xtick_6">
     <g id="line2d_16">
      <g>
       <use xlink:href="#m830a69991d" x="257.868068" y="112.96" style="fill: #262626; stroke: #262626; stroke-width: 1.25"/>
      </g>
     </g>
     <g id="text_14">
      <text style="font-size: 8px; font-family: 'Arial'; text-anchor: middle; fill: #262626" x="257.868068" y="122.68625" transform="rotate(-0 257.868068 122.68625)">2</text>
     </g>
    </g>
    <g id="text_15">
     <text style="font-size: 8px; font-family: 'Arial'; text-anchor: middle; fill: #262626" x="226.92375" y="134.0025" transform="rotate(-0 226.92375 134.0025)">x</text>
    </g>
   </g>
   <g id="matplotlib.axis_4">
    <g id="ytick_6">
     <g id="line2d_17">
      <g>
       <use xlink:href="#mc62882bb82" x="170.1925" y="112.96" style="fill: #262626; stroke: #262626; stroke-width: 1.25"/>
      </g>
     </g>
     <g id="text_16">
      <text style="font-size: 8px; font-family: 'Arial'; text-anchor: end; fill: #262626" x="166.1925" y="115.823125" transform="rotate(-0 166.1925 115.823125)">0.0</text>
     </g>
    </g>
    <g id="ytick_7">
     <g id="line2d_18">
      <g>
       <use xlink:href="#mc62882bb82" x="170.1925" y="78.180911" style="fill: #262626; stroke: #262626; stroke-width: 1.25"/>
      </g>
     </g>
     <g id="text_17">
      <text style="font-size: 8px; font-family: 'Arial'; text-anchor: end; fill: #262626" x="166.1925" y="81.044036" transform="rotate(-0 166.1925 81.044036)">0.5</text>
     </g>
    </g>
    <g id="ytick_8">
     <g id="line2d_19">
      <g>
       <use xlink:href="#mc62882bb82" x="170.1925" y="43.401823" style="fill: #262626; stroke: #262626; stroke-width: 1.25"/>
      </g>
     </g>
     <g id="text_18">
      <text style="font-size: 8px; font-family: 'Arial'; text-anchor: end; fill: #262626" x="166.1925" y="46.264948" transform="rotate(-0 166.1925 46.264948)">1.0</text>
     </g>
    </g>
   </g>
   <g id="FillBetweenPolyCollection_4"/>
   <g id="FillBetweenPolyCollection_5"/>
   <g id="FillBetweenPolyCollection_6"/>
   <g id="patch_9">
    <path d="M 202.502163 112.96 
L 202.502163 101.206349 
L 203.858672 101.206349 
L 203.858672 95.329524 
L 205.21518 95.329524 
L 205.21518 65.945397 
L 206.571689 65.945397 
L 206.571689 95.329524 
L 207.928198 95.329524 
L 207.928198 71.822222 
L 209.284706 71.822222 
L 209.284706 60.068571 
L 210.641215 60.068571 
L 210.641215 48.314921 
L 211.997724 48.314921 
L 211.997724 54.191746 
L 213.354232 54.191746 
L 213.354232 71.822222 
L 214.710741 71.822222 
L 214.710741 24.807619 
L 216.067249 24.807619 
L 216.067249 60.068571 
L 217.423758 60.068571 
L 217.423758 83.575873 
L 218.780267 83.575873 
L 218.780267 60.068571 
L 220.136775 60.068571 
L 220.136775 83.575873 
L 221.493284 83.575873 
L 221.493284 60.068571 
L 222.849793 60.068571 
L 222.849793 95.329524 
L 224.206301 95.329524 
L 224.206301 83.575873 
L 225.56281 83.575873 
L 225.56281 77.699048 
L 226.919318 77.699048 
L 226.919318 89.452698 
L 228.275827 89.452698 
L 228.275827 101.206349 
L 229.632336 101.206349 
L 229.632336 101.206349 
L 230.988844 101.206349 
L 230.988844 77.699048 
L 232.345353 77.699048 
L 232.345353 60.068571 
L 233.701861 60.068571 
L 233.701861 89.452698 
L 235.05837 89.452698 
L 235.05837 77.699048 
L 236.414879 77.699048 
L 236.414879 54.191746 
L 237.771387 54.191746 
L 237.771387 101.206349 
L 239.127896 101.206349 
L 239.127896 77.699048 
L 240.484405 77.699048 
L 240.484405 101.206349 
L 241.840913 101.206349 
L 241.840913 107.083175 
L 243.197422 107.083175 
L 243.197422 112.96 
L 241.840913 112.96 
L 241.840913 112.96 
L 240.484405 112.96 
L 240.484405 112.96 
L 239.127896 112.96 
L 239.127896 112.96 
L 237.771387 112.96 
L 237.771387 112.96 
L 236.414879 112.96 
L 236.414879 112.96 
L 235.05837 112.96 
L 235.05837 112.96 
L 233.701861 112.96 
L 233.701861 112.96 
L 232.345353 112.96 
L 232.345353 112.96 
L 230.988844 112.96 
L 230.988844 112.96 
L 229.632336 112.96 
L 229.632336 112.96 
L 228.275827 112.96 
L 228.275827 112.96 
L 226.919318 112.96 
L 226.919318 112.96 
L 225.56281 112.96 
L 225.56281 112.96 
L 224.206301 112.96 
L 224.206301 112.96 
L 222.849793 112.96 
L 222.849793 112.96 
L 221.493284 112.96 
L 221.493284 112.96 
L 220.136775 112.96 
L 220.136775 112.96 
L 218.780267 112.96 
L 218.780267 112.96 
L 217.423758 112.96 
L 217.423758 112.96 
L 216.067249 112.96 
L 216.067249 112.96 
L 214.710741 112.96 
L 214.710741 112.96 
L 213.354232 112.96 
L 213.354232 112.96 
L 211.997724 112.96 
L 211.997724 112.96 
L 210.641215 112.96 
L 210.641215 112.96 
L 209.284706 112.96 
L 209.284706 112.96 
L 207.928198 112.96 
L 207.928198 112.96 
L 206.571689 112.96 
L 206.571689 112.96 
L 205.21518 112.96 
L 205.21518 112.96 
L 203.858672 112.96 
L 203.858672 112.96 
z
" clip-path="url(#p87683d7a0f)" style="fill: #cccccc; stroke: #ffffff; stroke-linejoin: miter"/>
   </g>
   <g id="line2d_20">
    <path d="M 175.349886 112.96 
L 196.094681 112.878963 
L 197.823414 112.642706 
L 198.975902 112.237657 
L 199.552146 111.898272 
L 200.128391 111.426434 
L 200.704635 110.783239 
L 201.280879 109.923744 
L 201.857124 108.79816 
L 202.433368 107.35402 
L 203.009612 105.539433 
L 203.585856 103.307453 
L 204.738345 97.460793 
L 205.890834 89.751118 
L 207.619566 75.65079 
L 209.348299 61.703192 
L 209.924544 57.93391 
L 210.500788 54.909622 
L 211.077032 52.778814 
L 211.653276 51.649377 
L 212.229521 51.579557 
L 212.805765 52.57298 
L 213.382009 54.578334 
L 213.958254 57.493769 
L 215.110742 65.449357 
L 218.568208 93.320032 
L 219.720696 100.236348 
L 220.873185 105.272945 
L 221.449429 107.139464 
L 222.025674 108.629028 
L 222.601918 109.793154 
L 223.178162 110.684442 
L 223.754406 111.353177 
L 224.906895 112.199697 
L 226.059384 112.624508 
L 227.788116 112.873728 
L 230.669338 112.953672 
L 254.871598 112.96 
L 278.497614 112.96 
L 278.497614 112.96 
" clip-path="url(#p87683d7a0f)" style="fill: none; stroke: #edd1cb; stroke-width: 1.5; stroke-linecap: round"/>
   </g>
   <g id="line2d_21">
    <path d="M 175.349886 112.96 
L 207.043322 112.880858 
L 208.772055 112.673234 
L 209.924544 112.338562 
L 211.077032 111.701749 
L 211.653276 111.214623 
L 212.229521 110.579677 
L 212.805765 109.768408 
L 213.382009 108.752699 
L 214.534498 106.011831 
L 215.686986 102.238974 
L 216.839475 97.503845 
L 220.296941 82.150012 
L 220.873185 80.390586 
L 221.449429 79.11043 
L 222.025674 78.372344 
L 222.601918 78.213273 
L 223.178162 78.641251 
L 223.754406 79.634722 
L 224.330651 81.144343 
L 225.483139 85.401887 
L 229.516849 103.19752 
L 230.669338 106.73105 
L 231.821826 109.246627 
L 232.974315 110.891662 
L 234.126804 111.8836 
L 235.279292 112.436611 
L 236.431781 112.72222 
L 238.160514 112.895896 
L 242.194224 112.958339 
L 278.497614 112.96 
L 278.497614 112.96 
" clip-path="url(#p87683d7a0f)" style="fill: none; stroke: #a9678f; stroke-width: 1.5; stroke-linecap: round"/>
   </g>
   <g id="line2d_22">
    <path d="M 175.349886 112.96 
L 223.754406 112.877206 
L 224.906895 112.697142 
L 226.059384 112.217677 
L 226.635628 111.766122 
L 227.211872 111.095274 
L 227.788116 110.13149 
L 228.364361 108.793341 
L 228.940605 106.999181 
L 229.516849 104.678453 
L 230.093094 101.786102 
L 231.245582 94.328231 
L 234.126804 72.881507 
L 234.703048 70.173596 
L 235.279292 68.600379 
L 235.855536 68.29601 
L 236.431781 69.286816 
L 237.008025 71.487536 
L 237.584269 74.713432 
L 238.736758 83.166558 
L 240.465491 96.51362 
L 241.617979 103.399623 
L 242.194224 105.983962 
L 242.770468 108.016549 
L 243.346712 109.55796 
L 243.922956 110.686285 
L 244.499201 111.484224 
L 245.075445 112.029765 
L 246.227934 112.621468 
L 247.380422 112.850413 
L 249.685399 112.951918 
L 265.820239 112.96 
L 278.497614 112.96 
L 278.497614 112.96 
" clip-path="url(#p87683d7a0f)" style="fill: none; stroke: #2d1e3e; stroke-width: 1.5; stroke-linecap: round"/>
   </g>
   <g id="line2d_23">
    <path d="M 221.71897 112.96 
L 221.71897 20.4 
" clip-path="url(#p87683d7a0f)" style="fill: none; stroke-dasharray: 5.55,2.4; stroke-dashoffset: 0; stroke: #808080; stroke-width: 1.5"/>
   </g>
   <g id="line2d_24">
    <path d="M 227.767314 112.96 
L 227.767314 20.4 
" clip-path="url(#p87683d7a0f)" style="fill: none; stroke-dasharray: 5.55,2.4; stroke-dashoffset: 0; stroke: #808080; stroke-width: 1.5"/>
   </g>
   <g id="patch_10">
    <path d="M 170.1925 112.96 
L 170.1925 20.4 
" style="fill: none; stroke: #262626; stroke-width: 1.25; stroke-linejoin: miter; stroke-linecap: square"/>
   </g>
   <g id="patch_11">
    <path d="M 283.655 112.96 
L 283.655 20.4 
" style="fill: none; stroke: #262626; stroke-width: 1.25; stroke-linejoin: miter; stroke-linecap: square"/>
   </g>
   <g id="patch_12">
    <path d="M 170.1925 112.96 
L 283.655 112.96 
" style="fill: none; stroke: #262626; stroke-width: 1.25; stroke-linejoin: miter; stroke-linecap: square"/>
   </g>
   <g id="patch_13">
    <path d="M 170.1925 20.4 
L 283.655 20.4 
" style="fill: none; stroke: #262626; stroke-width: 1.25; stroke-linejoin: miter; stroke-linecap: square"/>
   </g>
   <g id="text_19">
    <text style="font-size: 8px; font-family: 'Arial'; text-anchor: middle; fill: #262626" x="226.92375" y="14.4" transform="rotate(-0 226.92375 14.4)">Anidulafungin</text>
   </g>
  </g>
  <g id="axes_3">
   <g id="patch_14">
    <path d="M 312.045 112.96 
L 425.5075 112.96 
L 425.5075 20.4 
L 312.045 20.4 
z
" style="fill: #ffffff"/>
   </g>
   <g id="matplotlib.axis_5">
    <g id="xtick_7">
     <g id="line2d_25">
      <g>
       <use xlink:href="#m830a69991d" x="317.202386" y="112.96" style="fill: #262626; stroke: #262626; stroke-width: 1.25"/>
      </g>
     </g>
     <g id="text_20">
      <text style="font-size: 8px; font-family: 'Arial'; text-anchor: middle; fill: #262626" x="317.202386" y="122.68625" transform="rotate(-0 317.202386 122.68625)">−2</text>
     </g>
    </g>
    <g id="xtick_8">
     <g id="line2d_26">
      <g>
       <use xlink:href="#m830a69991d" x="358.461477" y="112.96" style="fill: #262626; stroke: #262626; stroke-width: 1.25"/>
      </g>
     </g>
     <g id="text_21">
      <text style="font-size: 8px; font-family: 'Arial'; text-anchor: middle; fill: #262626" x="358.461477" y="122.68625" transform="rotate(-0 358.461477 122.68625)">0</text>
     </g>
    </g>
    <g id="xtick_9">
     <g id="line2d_27">
      <g>
       <use xlink:href="#m830a69991d" x="399.720568" y="112.96" style="fill: #262626; stroke: #262626; stroke-width: 1.25"/>
      </g>
     </g>
     <g id="text_22">
      <text style="font-size: 8px; font-family: 'Arial'; text-anchor: middle; fill: #262626" x="399.720568" y="122.68625" transform="rotate(-0 399.720568 122.68625)">2</text>
     </g>
    </g>
    <g id="text_23">
     <text style="font-size: 8px; font-family: 'Arial'; text-anchor: middle; fill: #262626" x="368.77625" y="134.0025" transform="rotate(-0 368.77625 134.0025)">x</text>
    </g>
   </g>
   <g id="matplotlib.axis_6">
    <g id="ytick_9">
     <g id="line2d_28">
      <g>
       <use xlink:href="#mc62882bb82" x="312.045" y="112.96" style="fill: #262626; stroke: #262626; stroke-width: 1.25"/>
      </g>
     </g>
     <g id="text_24">
      <text style="font-size: 8px; font-family: 'Arial'; text-anchor: end; fill: #262626" x="308.045" y="115.823125" transform="rotate(-0 308.045 115.823125)">0.0</text>
     </g>
    </g>
    <g id="ytick_10">
     <g id="line2d_29">
      <g>
       <use xlink:href="#mc62882bb82" x="312.045" y="82.109555" style="fill: #262626; stroke: #262626; stroke-width: 1.25"/>
      </g>
     </g>
     <g id="text_25">
      <text style="font-size: 8px; font-family: 'Arial'; text-anchor: end; fill: #262626" x="308.045" y="84.97268" transform="rotate(-0 308.045 84.97268)">0.5</text>
     </g>
    </g>
    <g id="ytick_11">
     <g id="line2d_30">
      <g>
       <use xlink:href="#mc62882bb82" x="312.045" y="51.25911" style="fill: #262626; stroke: #262626; stroke-width: 1.25"/>
      </g>
     </g>
     <g id="text_26">
      <text style="font-size: 8px; font-family: 'Arial'; text-anchor: end; fill: #262626" x="308.045" y="54.122235" transform="rotate(-0 308.045 54.122235)">1.0</text>
     </g>
    </g>
    <g id="ytick_12">
     <g id="line2d_31">
      <g>
       <use xlink:href="#mc62882bb82" x="312.045" y="20.408666" style="fill: #262626; stroke: #262626; stroke-width: 1.25"/>
      </g>
     </g>
     <g id="text_27">
      <text style="font-size: 8px; font-family: 'Arial'; text-anchor: end; fill: #262626" x="308.045" y="23.271791" transform="rotate(-0 308.045 23.271791)">1.5</text>
     </g>
    </g>
   </g>
   <g id="FillBetweenPolyCollection_7"/>
   <g id="FillBetweenPolyCollection_8"/>
   <g id="FillBetweenPolyCollection_9"/>
   <g id="patch_15">
    <path d="M 347.875618 112.96 
L 347.875618 108.320401 
L 349.39977 108.320401 
L 349.39977 108.320401 
L 350.923921 108.320401 
L 350.923921 94.401604 
L 352.448073 94.401604 
L 352.448073 89.762005 
L 353.972224 89.762005 
L 353.972224 38.726416 
L 355.496376 38.726416 
L 355.496376 24.807619 
L 357.020527 24.807619 
L 357.020527 57.284812 
L 358.544679 57.284812 
L 358.544679 38.726416 
L 360.06883 38.726416 
L 360.06883 52.645213 
L 361.592982 52.645213 
L 361.592982 57.284812 
L 363.117133 57.284812 
L 363.117133 75.843208 
L 364.641285 75.843208 
L 364.641285 85.122406 
L 366.165436 85.122406 
L 366.165436 89.762005 
L 367.689588 89.762005 
L 367.689588 94.401604 
L 369.213739 94.401604 
L 369.213739 89.762005 
L 370.737891 89.762005 
L 370.737891 103.680802 
L 372.262042 103.680802 
L 372.262042 85.122406 
L 373.786194 85.122406 
L 373.786194 103.680802 
L 375.310345 103.680802 
L 375.310345 103.680802 
L 376.834496 103.680802 
L 376.834496 99.041203 
L 378.358648 99.041203 
L 378.358648 112.96 
L 379.882799 112.96 
L 379.882799 99.041203 
L 381.406951 99.041203 
L 381.406951 112.96 
L 382.931102 112.96 
L 382.931102 85.122406 
L 384.455254 85.122406 
L 384.455254 89.762005 
L 385.979405 89.762005 
L 385.979405 99.041203 
L 387.503557 99.041203 
L 387.503557 57.284812 
L 389.027708 57.284812 
L 389.027708 89.762005 
L 390.55186 89.762005 
L 390.55186 99.041203 
L 392.076011 99.041203 
L 392.076011 108.320401 
L 393.600163 108.320401 
L 393.600163 112.96 
L 392.076011 112.96 
L 392.076011 112.96 
L 390.55186 112.96 
L 390.55186 112.96 
L 389.027708 112.96 
L 389.027708 112.96 
L 387.503557 112.96 
L 387.503557 112.96 
L 385.979405 112.96 
L 385.979405 112.96 
L 384.455254 112.96 
L 384.455254 112.96 
L 382.931102 112.96 
L 382.931102 112.96 
L 381.406951 112.96 
L 381.406951 112.96 
L 379.882799 112.96 
L 379.882799 112.96 
L 378.358648 112.96 
L 378.358648 112.96 
L 376.834496 112.96 
L 376.834496 112.96 
L 375.310345 112.96 
L 375.310345 112.96 
L 373.786194 112.96 
L 373.786194 112.96 
L 372.262042 112.96 
L 372.262042 112.96 
L 370.737891 112.96 
L 370.737891 112.96 
L 369.213739 112.96 
L 369.213739 112.96 
L 367.689588 112.96 
L 367.689588 112.96 
L 366.165436 112.96 
L 366.165436 112.96 
L 364.641285 112.96 
L 364.641285 112.96 
L 363.117133 112.96 
L 363.117133 112.96 
L 361.592982 112.96 
L 361.592982 112.96 
L 360.06883 112.96 
L 360.06883 112.96 
L 358.544679 112.96 
L 358.544679 112.96 
L 357.020527 112.96 
L 357.020527 112.96 
L 355.496376 112.96 
L 355.496376 112.96 
L 353.972224 112.96 
L 353.972224 112.96 
L 352.448073 112.96 
L 352.448073 112.96 
L 350.923921 112.96 
L 350.923921 112.96 
L 349.39977 112.96 
L 349.39977 112.96 
z
" clip-path="url(#p0e8078d85e)" style="fill: #cccccc; stroke: #ffffff; stroke-linejoin: miter"/>
   </g>
   <g id="line2d_32">
    <path d="M 317.202386 112.96 
L 344.285868 112.892272 
L 345.438356 112.749194 
L 346.590845 112.365982 
L 347.167089 111.999367 
L 347.743334 111.444644 
L 348.319578 110.628305 
L 348.895822 109.460319 
L 349.472066 107.836286 
L 350.048311 105.642865 
L 350.624555 102.76712 
L 351.200799 99.109913 
L 352.353288 89.226446 
L 353.505776 76.141007 
L 355.810754 47.211366 
L 356.386998 41.536731 
L 356.963242 37.278031 
L 357.539486 34.735132 
L 358.115731 34.092701 
L 358.691975 35.398034 
L 359.268219 38.555301 
L 359.844464 43.337177 
L 360.996952 56.381256 
L 363.301929 85.236171 
L 364.454418 96.243266 
L 365.030662 100.454527 
L 365.606906 103.834671 
L 366.183151 106.464739 
L 366.759395 108.450333 
L 367.335639 109.905839 
L 367.911884 110.942381 
L 368.488128 111.659872 
L 369.064372 112.142791 
L 370.216861 112.660342 
L 371.369349 112.860524 
L 373.674326 112.951866 
L 390.385411 112.96 
L 420.350114 112.96 
L 420.350114 112.96 
" clip-path="url(#p0e8078d85e)" style="fill: none; stroke: #edd1cb; stroke-width: 1.5; stroke-linecap: round"/>
   </g>
   <g id="line2d_33">
    <path d="M 317.202386 112.96 
L 376.555548 112.890551 
L 377.708036 112.710274 
L 378.284281 112.51194 
L 378.860525 112.185197 
L 379.436769 111.668697 
L 380.013014 110.885814 
L 380.589258 109.748933 
L 381.165502 108.168922 
L 381.741746 106.070316 
L 382.317991 103.411224 
L 383.470479 96.539316 
L 385.199212 84.878298 
L 385.775456 81.766413 
L 386.351701 79.564384 
L 386.927945 78.50154 
L 387.504189 78.692335 
L 388.080434 80.116047 
L 388.656678 82.620489 
L 389.809166 89.782764 
L 391.537899 101.224324 
L 392.690388 106.760114 
L 393.266632 108.696219 
L 393.842876 110.133895 
L 394.419121 111.154639 
L 394.995365 111.848468 
L 395.571609 112.300428 
L 396.724098 112.752083 
L 398.452831 112.932094 
L 403.639029 112.959991 
L 420.350114 112.96 
L 420.350114 112.96 
" clip-path="url(#p0e8078d85e)" style="fill: none; stroke: #a9678f; stroke-width: 1.5; stroke-linecap: round"/>
   </g>
   <g id="line2d_34">
    <path d="M 317.202386 112.96 
L 351.777044 112.864605 
L 354.082021 112.603086 
L 355.234509 112.315598 
L 356.386998 111.848779 
L 357.539486 111.129824 
L 358.691975 110.081043 
L 359.844464 108.634595 
L 360.996952 106.753198 
L 362.149441 104.45335 
L 363.878174 100.437607 
L 366.183151 95.104765 
L 367.335639 93.058815 
L 367.911884 92.308377 
L 368.488128 91.77435 
L 369.064372 91.474682 
L 369.640616 91.419581 
L 370.216861 91.610933 
L 370.793105 92.0422 
L 371.369349 92.698785 
L 372.521838 94.59455 
L 373.674326 97.060364 
L 377.131792 105.128573 
L 378.284281 107.318112 
L 379.436769 109.077982 
L 380.589258 110.408826 
L 381.741746 111.358702 
L 382.894235 112.000039 
L 384.046724 112.410352 
L 385.775456 112.741514 
L 388.080434 112.905627 
L 393.266632 112.958785 
L 420.350114 112.96 
L 420.350114 112.96 
" clip-path="url(#p0e8078d85e)" style="fill: none; stroke: #2d1e3e; stroke-width: 1.5; stroke-linecap: round"/>
   </g>
   <g id="line2d_35">
    <path d="M 366.889602 112.96 
L 366.889602 20.4 
" clip-path="url(#p0e8078d85e)" style="fill: none; stroke-dasharray: 5.55,2.4; stroke-dashoffset: 0; stroke: #808080; stroke-width: 1.5"/>
   </g>
   <g id="line2d_36">
    <path d="M 379.058098 112.96 
L 379.058098 20.4 
" clip-path="url(#p0e8078d85e)" style="fill: none; stroke-dasharray: 5.55,2.4; stroke-dashoffset: 0; stroke: #808080; stroke-width: 1.5"/>
   </g>
   <g id="patch_16">
    <path d="M 312.045 112.96 
L 312.045 20.4 
" style="fill: none; stroke: #262626; stroke-width: 1.25; stroke-linejoin: miter; stroke-linecap: square"/>
   </g>
   <g id="patch_17">
    <path d="M 425.5075 112.96 
L 425.5075 20.4 
" style="fill: none; stroke: #262626; stroke-width: 1.25; stroke-linejoin: miter; stroke-linecap: square"/>
   </g>
   <g id="patch_18">
    <path d="M 312.045 112.96 
L 425.5075 112.96 
" style="fill: none; stroke: #262626; stroke-width: 1.25; stroke-linejoin: miter; stroke-linecap: square"/>
   </g>
   <g id="patch_19">
    <path d="M 312.045 20.4 
L 425.5075 20.4 
" style="fill: none; stroke: #262626; stroke-width: 1.25; stroke-linejoin: miter; stroke-linecap: square"/>
   </g>
   <g id="text_28">
    <text style="font-size: 8px; font-family: 'Arial'; text-anchor: middle; fill: #262626" x="368.77625" y="14.4" transform="rotate(-0 368.77625 14.4)">Caspofungin</text>
   </g>
  </g>
  <g id="axes_4">
   <g id="patch_20">
    <path d="M 453.8975 112.96 
L 567.36 112.96 
L 567.36 20.4 
L 453.8975 20.4 
z
" style="fill: #ffffff"/>
   </g>
   <g id="matplotlib.axis_7">
    <g id="xtick_10">
     <g id="line2d_37">
      <g>
       <use xlink:href="#m830a69991d" x="459.054886" y="112.96" style="fill: #262626; stroke: #262626; stroke-width: 1.25"/>
      </g>
     </g>
     <g id="text_29">
      <text style="font-size: 8px; font-family: 'Arial'; text-anchor: middle; fill: #262626" x="459.054886" y="122.68625" transform="rotate(-0 459.054886 122.68625)">−2</text>
     </g>
    </g>
    <g id="xtick_11">
     <g id="line2d_38">
      <g>
       <use xlink:href="#m830a69991d" x="500.313977" y="112.96" style="fill: #262626; stroke: #262626; stroke-width: 1.25"/>
      </g>
     </g>
     <g id="text_30">
      <text style="font-size: 8px; font-family: 'Arial'; text-anchor: middle; fill: #262626" x="500.313977" y="122.68625" transform="rotate(-0 500.313977 122.68625)">0</text>
     </g>
    </g>
    <g id="xtick_12">
     <g id="line2d_39">
      <g>
       <use xlink:href="#m830a69991d" x="541.573068" y="112.96" style="fill: #262626; stroke: #262626; stroke-width: 1.25"/>
      </g>
     </g>
     <g id="text_31">
      <text style="font-size: 8px; font-family: 'Arial'; text-anchor: middle; fill: #262626" x="541.573068" y="122.68625" transform="rotate(-0 541.573068 122.68625)">2</text>
     </g>
    </g>
    <g id="text_32">
     <text style="font-size: 8px; font-family: 'Arial'; text-anchor: middle; fill: #262626" x="510.62875" y="134.0025" transform="rotate(-0 510.62875 134.0025)">x</text>
    </g>
   </g>
   <g id="matplotlib.axis_8">
    <g id="ytick_13">
     <g id="line2d_40">
      <g>
       <use xlink:href="#mc62882bb82" x="453.8975" y="112.96" style="fill: #262626; stroke: #262626; stroke-width: 1.25"/>
      </g>
     </g>
     <g id="text_33">
      <text style="font-size: 8px; font-family: 'Arial'; text-anchor: end; fill: #262626" x="449.8975" y="115.823125" transform="rotate(-0 449.8975 115.823125)">0.0</text>
     </g>
    </g>
    <g id="ytick_14">
     <g id="line2d_41">
      <g>
       <use xlink:href="#mc62882bb82" x="453.8975" y="86.940829" style="fill: #262626; stroke: #262626; stroke-width: 1.25"/>
      </g>
     </g>
     <g id="text_34">
      <text style="font-size: 8px; font-family: 'Arial'; text-anchor: end; fill: #262626" x="449.8975" y="89.803954" transform="rotate(-0 449.8975 89.803954)">0.5</text>
     </g>
    </g>
    <g id="ytick_15">
     <g id="line2d_42">
      <g>
       <use xlink:href="#mc62882bb82" x="453.8975" y="60.921658" style="fill: #262626; stroke: #262626; stroke-width: 1.25"/>
      </g>
     </g>
     <g id="text_35">
      <text style="font-size: 8px; font-family: 'Arial'; text-anchor: end; fill: #262626" x="449.8975" y="63.784783" transform="rotate(-0 449.8975 63.784783)">1.0</text>
     </g>
    </g>
    <g id="ytick_16">
     <g id="line2d_43">
      <g>
       <use xlink:href="#mc62882bb82" x="453.8975" y="34.902487" style="fill: #262626; stroke: #262626; stroke-width: 1.25"/>
      </g>
     </g>
     <g id="text_36">
      <text style="font-size: 8px; font-family: 'Arial'; text-anchor: end; fill: #262626" x="449.8975" y="37.765612" transform="rotate(-0 449.8975 37.765612)">1.5</text>
     </g>
    </g>
   </g>
   <g id="FillBetweenPolyCollection_10"/>
   <g id="FillBetweenPolyCollection_11"/>
   <g id="FillBetweenPolyCollection_12"/>
   <g id="patch_21">
    <path d="M 489.423147 112.96 
L 489.423147 92.021917 
L 491.132197 92.021917 
L 491.132197 105.980639 
L 492.841248 105.980639 
L 492.841248 46.656072 
L 494.550299 46.656072 
L 494.550299 39.676711 
L 496.259349 39.676711 
L 496.259349 25.717989 
L 497.9684 25.717989 
L 497.9684 43.166392 
L 499.677451 43.166392 
L 499.677451 46.656072 
L 501.386502 46.656072 
L 501.386502 46.656072 
L 503.095552 46.656072 
L 503.095552 92.021917 
L 504.804603 92.021917 
L 504.804603 92.021917 
L 506.513654 92.021917 
L 506.513654 99.001278 
L 508.222704 99.001278 
L 508.222704 109.47032 
L 509.931755 109.47032 
L 509.931755 105.980639 
L 511.640806 105.980639 
L 511.640806 105.980639 
L 513.349857 105.980639 
L 513.349857 102.490959 
L 515.058907 102.490959 
L 515.058907 109.47032 
L 516.767958 109.47032 
L 516.767958 105.980639 
L 518.477009 105.980639 
L 518.477009 105.980639 
L 520.186059 105.980639 
L 520.186059 109.47032 
L 521.89511 109.47032 
L 521.89511 109.47032 
L 523.604161 109.47032 
L 523.604161 109.47032 
L 525.313212 109.47032 
L 525.313212 102.490959 
L 527.022262 102.490959 
L 527.022262 112.96 
L 528.731313 112.96 
L 528.731313 105.980639 
L 530.440364 105.980639 
L 530.440364 109.47032 
L 532.149414 109.47032 
L 532.149414 105.980639 
L 533.858465 105.980639 
L 533.858465 112.96 
L 535.567516 112.96 
L 535.567516 99.001278 
L 537.276567 99.001278 
L 537.276567 105.980639 
L 538.985617 105.980639 
L 538.985617 102.490959 
L 540.694668 102.490959 
L 540.694668 112.96 
L 538.985617 112.96 
L 538.985617 112.96 
L 537.276567 112.96 
L 537.276567 112.96 
L 535.567516 112.96 
L 535.567516 112.96 
L 533.858465 112.96 
L 533.858465 112.96 
L 532.149414 112.96 
L 532.149414 112.96 
L 530.440364 112.96 
L 530.440364 112.96 
L 528.731313 112.96 
L 528.731313 112.96 
L 527.022262 112.96 
L 527.022262 112.96 
L 525.313212 112.96 
L 525.313212 112.96 
L 523.604161 112.96 
L 523.604161 112.96 
L 521.89511 112.96 
L 521.89511 112.96 
L 520.186059 112.96 
L 520.186059 112.96 
L 518.477009 112.96 
L 518.477009 112.96 
L 516.767958 112.96 
L 516.767958 112.96 
L 515.058907 112.96 
L 515.058907 112.96 
L 513.349857 112.96 
L 513.349857 112.96 
L 511.640806 112.96 
L 511.640806 112.96 
L 509.931755 112.96 
L 509.931755 112.96 
L 508.222704 112.96 
L 508.222704 112.96 
L 506.513654 112.96 
L 506.513654 112.96 
L 504.804603 112.96 
L 504.804603 112.96 
L 503.095552 112.96 
L 503.095552 112.96 
L 501.386502 112.96 
L 501.386502 112.96 
L 499.677451 112.96 
L 499.677451 112.96 
L 497.9684 112.96 
L 497.9684 112.96 
L 496.259349 112.96 
L 496.259349 112.96 
L 494.550299 112.96 
L 494.550299 112.96 
L 492.841248 112.96 
L 492.841248 112.96 
L 491.132197 112.96 
L 491.132197 112.96 
z
" clip-path="url(#ped01dea818)" style="fill: #cccccc; stroke: #ffffff; stroke-linejoin: miter"/>
   </g>
   <g id="line2d_44">
    <path d="M 459.054886 112.96 
L 483.833391 112.885055 
L 484.985879 112.735954 
L 486.138368 112.349145 
L 486.714612 111.985589 
L 487.290856 111.441035 
L 487.867101 110.646042 
L 488.443345 109.515192 
L 489.019589 107.948397 
L 489.595834 105.834911 
L 490.172078 103.060668 
L 490.748322 99.51925 
L 491.324566 95.126231 
L 492.477055 83.658603 
L 493.629544 69.052216 
L 495.934521 38.165128 
L 496.510765 32.290496 
L 497.087009 27.934548 
L 497.663254 25.382912 
L 498.239498 24.807619 
L 498.815742 26.247923 
L 499.391986 29.60587 
L 499.968231 34.657315 
L 501.120719 48.471585 
L 503.425696 79.776993 
L 504.578185 92.227832 
L 505.730674 101.146416 
L 506.306918 104.345042 
L 506.883162 106.82059 
L 507.459406 108.684351 
L 508.035651 110.05009 
L 508.611895 111.024652 
L 509.188139 111.702116 
L 509.764384 112.161042 
L 510.916872 112.659187 
L 512.069361 112.856705 
L 514.374338 112.95076 
L 529.356689 112.96 
L 562.202614 112.96 
L 562.202614 112.96 
" clip-path="url(#ped01dea818)" style="fill: none; stroke: #edd1cb; stroke-width: 1.5; stroke-linecap: round"/>
   </g>
   <g id="line2d_45">
    <path d="M 459.054886 112.96 
L 517.831804 112.854256 
L 520.136781 112.626472 
L 521.865514 112.25833 
L 523.594246 111.625598 
L 525.322979 110.666005 
L 527.051712 109.39507 
L 531.085422 106.22606 
L 532.237911 105.659692 
L 533.390399 105.392971 
L 534.542888 105.460681 
L 535.695376 105.853915 
L 536.847865 106.521996 
L 538.576598 107.856209 
L 541.457819 110.190785 
L 543.186552 111.282851 
L 544.915285 112.041796 
L 546.644018 112.505578 
L 548.948995 112.807965 
L 552.406461 112.938986 
L 562.202614 112.959991 
L 562.202614 112.959991 
" clip-path="url(#ped01dea818)" style="fill: none; stroke: #a9678f; stroke-width: 1.5; stroke-linecap: round"/>
   </g>
   <g id="line2d_46">
    <path d="M 459.054886 112.96 
L 492.477055 112.855368 
L 495.358276 112.634783 
L 497.663254 112.249317 
L 499.391986 111.772841 
L 501.120719 111.097531 
L 502.849452 110.215791 
L 505.154429 108.786869 
L 508.611895 106.611246 
L 510.340628 105.832729 
L 511.493116 105.525137 
L 512.645605 105.417583 
L 513.798094 105.51892 
L 514.950582 105.820804 
L 516.679315 106.592646 
L 518.984292 108.001928 
L 522.441758 110.196225 
L 524.170491 111.081898 
L 525.899224 111.761375 
L 527.627956 112.241552 
L 529.932934 112.63068 
L 532.814155 112.853826 
L 537.424109 112.947922 
L 559.897636 112.96 
L 562.202614 112.96 
L 562.202614 112.96 
" clip-path="url(#ped01dea818)" style="fill: none; stroke: #2d1e3e; stroke-width: 1.5; stroke-linecap: round"/>
   </g>
   <g id="line2d_47">
    <path d="M 508.080002 112.96 
L 508.080002 20.4 
" clip-path="url(#ped01dea818)" style="fill: none; stroke-dasharray: 5.55,2.4; stroke-dashoffset: 0; stroke: #808080; stroke-width: 1.5"/>
   </g>
   <g id="line2d_48">
    <path d="M 520.226845 112.96 
L 520.226845 20.4 
" clip-path="url(#ped01dea818)" style="fill: none; stroke-dasharray: 5.55,2.4; stroke-dashoffset: 0; stroke: #808080; stroke-width: 1.5"/>
   </g>
   <g id="patch_22">
    <path d="M 453.8975 112.96 
L 453.8975 20.4 
" style="fill: none; stroke: #262626; stroke-width: 1.25; stroke-linejoin: miter; stroke-linecap: square"/>
   </g>
   <g id="patch_23">
    <path d="M 567.36 112.96 
L 567.36 20.4 
" style="fill: none; stroke: #262626; stroke-width: 1.25; stroke-linejoin: miter; stroke-linecap: square"/>
   </g>
   <g id="patch_24">
    <path d="M 453.8975 112.96 
L 567.36 112.96 
" style="fill: none; stroke: #262626; stroke-width: 1.25; stroke-linejoin: miter; stroke-linecap: square"/>
   </g>
   <g id="patch_25">
    <path d="M 453.8975 20.4 
L 567.36 20.4 
" style="fill: none; stroke: #262626; stroke-width: 1.25; stroke-linejoin: miter; stroke-linecap: square"/>
   </g>
   <g id="text_37">
    <text style="font-size: 8px; font-family: 'Arial'; text-anchor: middle; fill: #262626" x="510.62875" y="14.4" transform="rotate(-0 510.62875 14.4)">Micafungin</text>
   </g>
  </g>
 </g>
 <defs>
  <clipPath id="p77196f365a">
   <rect x="28.34" y="20.4" width="113.4625" height="92.56"/>
  </clipPath>
  <clipPath id="p87683d7a0f">
   <rect x="170.1925" y="20.4" width="113.4625" height="92.56"/>
  </clipPath>
  <clipPath id="p0e8078d85e">
   <rect x="312.045" y="20.4" width="113.4625" height="92.56"/>
  </clipPath>
  <clipPath id="ped01dea818">
   <rect x="453.8975" y="20.4" width="113.4625" height="92.56"/>
  </clipPath>
 </defs>
</svg>
