<?xml version="1.0" encoding="utf-8" standalone="no"?>
<!DOCTYPE svg PUBLIC "-//W3C//DTD SVG 1.1//EN"
  "http://www.w3.org/Graphics/SVG/1.1/DTD/svg11.dtd">
<svg xmlns:xlink="http://www.w3.org/1999/xlink" width="576pt" height="144pt" viewBox="0 0 576 144" xmlns="http://www.w3.org/2000/svg" version="1.1">
 <metadata>
  <rdf:RDF xmlns:dc="http://purl.org/dc/elements/1.1/" xmlns:cc="http://creativecommons.org/ns#" xmlns:rdf="http://www.w3.org/1999/02/22-rdf-syntax-ns#">
   <cc:Work>
    <dc:type rdf:resource="http://purl.org/dc/dcmitype/StillImage"/>
    <dc:date>2025-11-24T14:52:01.422297</dc:date>
    <dc:format>image/svg+xml</dc:format>
    <dc:creator>
     <cc:Agent>
      <dc:title>Matplotlib v3.10.7, https://matplotlib.org/</dc:title>
     </cc:Agent>
    </dc:creator>
   </cc:Work>
  </rdf:RDF>
 </metadata>
 <defs>
  <style type="text/css">*{stroke-linejoin: round; stroke-linecap: butt}</style>
 </defs>
 <g id="figure_1">
  <g id="patch_1">
   <path d="M 0 144 
L 576 144 
L 576 0 
L 0 0 
z
" style="fill: #ffffff"/>
  </g>
  <g id="axes_1">
   <g id="patch_2">
    <path d="M 32.75 112.96 
L 148.485 112.96 
L 148.485 20.4 
L 32.75 20.4 
z
" style="fill: #ffffff"/>
   </g>
   <g id="matplotlib.axis_1">
    <g id="xtick_1">
     <g id="line2d_1">
      <defs>
       <path id="m660ef4e360" d="M 0 0 
L 0 2 
" style="stroke: #262626; stroke-width: 1.25"/>
      </defs>
      <g>
       <use xlink:href="#m660ef4e360" x="38.010682" y="112.96" style="fill: #262626; stroke: #262626; stroke-width: 1.25"/>
      </g>
     </g>
     <g id="text_1">
      <text style="font-size: 8px; font-family: 'Arial'; text-anchor: middle; fill: #262626" x="38.010682" y="122.68625" transform="rotate(-0 38.010682 122.68625)">−2</text>
     </g>
    </g>
    <g id="xtick_2">
     <g id="line2d_2">
      <g>
       <use xlink:href="#m660ef4e360" x="80.096136" y="112.96" style="fill: #262626; stroke: #262626; stroke-width: 1.25"/>
      </g>
     </g>
     <g id="text_2">
      <text style="font-size: 8px; font-family: 'Arial'; text-anchor: middle; fill: #262626" x="80.096136" y="122.68625" transform="rotate(-0 80.096136 122.68625)">0</text>
     </g>
    </g>
    <g id="xtick_3">
     <g id="line2d_3">
      <g>
       <use xlink:href="#m660ef4e360" x="122.181591" y="112.96" style="fill: #262626; stroke: #262626; stroke-width: 1.25"/>
      </g>
     </g>
     <g id="text_3">
      <text style="font-size: 8px; font-family: 'Arial'; text-anchor: middle; fill: #262626" x="122.181591" y="122.68625" transform="rotate(-0 122.181591 122.68625)">2</text>
     </g>
    </g>
    <g id="text_4">
     <text style="font-size: 8px; font-family: 'Arial'; text-anchor: middle; fill: #262626" x="90.6175" y="134.0025" transform="rotate(-0 90.6175 134.0025)">x</text>
    </g>
   </g>
   <g id="matplotlib.axis_2">
    <g id="ytick_1">
     <g id="line2d_4">
      <defs>
       <path id="m40f25869f5" d="M 0 0 
L -2 0 
" style="stroke: #262626; stroke-width: 1.25"/>
      </defs>
      <g>
       <use xlink:href="#m40f25869f5" x="32.75" y="112.96" style="fill: #262626; stroke: #262626; stroke-width: 1.25"/>
      </g>
     </g>
     <g id="text_5">
      <text style="font-size: 8px; font-family: 'Arial'; text-anchor: end; fill: #262626" x="28.75" y="115.823125" transform="rotate(-0 28.75 115.823125)">0.0</text>
     </g>
    </g>
    <g id="ytick_2">
     <g id="line2d_5">
      <g>
       <use xlink:href="#m40f25869f5" x="32.75" y="94.238324" style="fill: #262626; stroke: #262626; stroke-width: 1.25"/>
      </g>
     </g>
     <g id="text_6">
      <text style="font-size: 8px; font-family: 'Arial'; text-anchor: end; fill: #262626" x="28.75" y="97.101449" transform="rotate(-0 28.75 97.101449)">2.5</text>
     </g>
    </g>
    <g id="ytick_3">
     <g id="line2d_6">
      <g>
       <use xlink:href="#m40f25869f5" x="32.75" y="75.516648" style="fill: #262626; stroke: #262626; stroke-width: 1.25"/>
      </g>
     </g>
     <g id="text_7">
      <text style="font-size: 8px; font-family: 'Arial'; text-anchor: end; fill: #262626" x="28.75" y="78.379773" transform="rotate(-0 28.75 78.379773)">5.0</text>
     </g>
    </g>
    <g id="ytick_4">
     <g id="line2d_7">
      <g>
       <use xlink:href="#m40f25869f5" x="32.75" y="56.794973" style="fill: #262626; stroke: #262626; stroke-width: 1.25"/>
      </g>
     </g>
     <g id="text_8">
      <text style="font-size: 8px; font-family: 'Arial'; text-anchor: end; fill: #262626" x="28.75" y="59.658098" transform="rotate(-0 28.75 59.658098)">7.5</text>
     </g>
    </g>
    <g id="ytick_5">
     <g id="line2d_8">
      <g>
       <use xlink:href="#m40f25869f5" x="32.75" y="38.073297" style="fill: #262626; stroke: #262626; stroke-width: 1.25"/>
      </g>
     </g>
     <g id="text_9">
      <text style="font-size: 8px; font-family: 'Arial'; text-anchor: end; fill: #262626" x="28.75" y="40.936422" transform="rotate(-0 28.75 40.936422)">10.0</text>
     </g>
    </g>
    <g id="text_10">
     <text style="font-size: 8px; font-family: 'Arial'; text-anchor: middle; fill: #262626" x="7.4975" y="66.68" transform="rotate(-90 7.4975 66.68)">p(x)</text>
    </g>
   </g>
   <g id="FillBetweenPolyCollection_1"/>
   <g id="FillBetweenPolyCollection_2"/>
   <g id="FillBetweenPolyCollection_3"/>
   <g id="patch_3">
    <path d="M 57.722762 112.96 
L 57.722762 111.884971 
L 58.574995 111.884971 
L 58.574995 112.96 
L 59.427227 112.96 
L 59.427227 112.96 
L 60.27946 112.96 
L 60.27946 112.96 
L 61.131692 112.96 
L 61.131692 112.96 
L 61.983925 112.96 
L 61.983925 112.96 
L 62.836157 112.96 
L 62.836157 112.96 
L 63.68839 112.96 
L 63.68839 112.96 
L 64.540622 112.96 
L 64.540622 112.96 
L 65.392855 112.96 
L 65.392855 112.96 
L 66.245087 112.96 
L 66.245087 112.96 
L 67.09732 112.96 
L 67.09732 112.96 
L 67.949552 112.96 
L 67.949552 112.96 
L 68.801785 112.96 
L 68.801785 111.884971 
L 69.654017 111.884971 
L 69.654017 112.96 
L 70.50625 112.96 
L 70.50625 112.96 
L 71.358482 112.96 
L 71.358482 111.884971 
L 72.210715 111.884971 
L 72.210715 109.734913 
L 73.062948 109.734913 
L 73.062948 110.809942 
L 73.91518 110.809942 
L 73.91518 110.809942 
L 74.767413 110.809942 
L 74.767413 110.809942 
L 75.619645 110.809942 
L 75.619645 110.809942 
L 76.471878 110.809942 
L 76.471878 111.884971 
L 77.32411 111.884971 
L 77.32411 111.884971 
L 78.176343 111.884971 
L 78.176343 105.434797 
L 79.028575 105.434797 
L 79.028575 77.484042 
L 79.880808 77.484042 
L 79.880808 24.807619 
L 80.73304 24.807619 
L 80.73304 83.934216 
L 81.585273 83.934216 
L 81.585273 107.584855 
L 82.437505 107.584855 
L 82.437505 110.809942 
L 83.289738 110.809942 
L 83.289738 112.96 
L 82.437505 112.96 
L 82.437505 112.96 
L 81.585273 112.96 
L 81.585273 112.96 
L 80.73304 112.96 
L 80.73304 112.96 
L 79.880808 112.96 
L 79.880808 112.96 
L 79.028575 112.96 
L 79.028575 112.96 
L 78.176343 112.96 
L 78.176343 112.96 
L 77.32411 112.96 
L 77.32411 112.96 
L 76.471878 112.96 
L 76.471878 112.96 
L 75.619645 112.96 
L 75.619645 112.96 
L 74.767413 112.96 
L 74.767413 112.96 
L 73.91518 112.96 
L 73.91518 112.96 
L 73.062948 112.96 
L 73.062948 112.96 
L 72.210715 112.96 
L 72.210715 112.96 
L 71.358482 112.96 
L 71.358482 112.96 
L 70.50625 112.96 
L 70.50625 112.96 
L 69.654017 112.96 
L 69.654017 112.96 
L 68.801785 112.96 
L 68.801785 112.96 
L 67.949552 112.96 
L 67.949552 112.96 
L 67.09732 112.96 
L 67.09732 112.96 
L 66.245087 112.96 
L 66.245087 112.96 
L 65.392855 112.96 
L 65.392855 112.96 
L 64.540622 112.96 
L 64.540622 112.96 
L 63.68839 112.96 
L 63.68839 112.96 
L 62.836157 112.96 
L 62.836157 112.96 
L 61.983925 112.96 
L 61.983925 112.96 
L 61.131692 112.96 
L 61.131692 112.96 
L 60.27946 112.96 
L 60.27946 112.96 
L 59.427227 112.96 
L 59.427227 112.96 
L 58.574995 112.96 
L 58.574995 112.96 
z
" clip-path="url(#p47efb65bd9)" style="fill: #cccccc; stroke: #ffffff; stroke-linejoin: miter"/>
   </g>
   <g id="line2d_9">
    <path d="M 38.010682 112.96 
L 77.388885 112.934964 
L 78.004169 112.427461 
L 78.619454 107.482352 
L 79.234738 85.714907 
L 79.850023 47.430944 
L 80.465307 36.746663 
L 81.695876 101.303197 
L 82.31116 111.42704 
L 82.926445 112.862516 
L 84.157014 112.959955 
L 143.224318 112.96 
L 143.224318 112.96 
" clip-path="url(#p47efb65bd9)" style="fill: none; stroke: #edd1cb; stroke-width: 1.5; stroke-linecap: round"/>
   </g>
   <g id="line2d_10">
    <path d="M 38.010682 112.96 
L 68.159619 112.887305 
L 69.390187 112.700682 
L 70.620756 112.262722 
L 72.46661 111.150327 
L 73.697178 110.559581 
L 74.312463 110.473448 
L 74.927747 110.559954 
L 76.158316 111.151169 
L 78.004169 112.263371 
L 79.234738 112.701003 
L 80.465307 112.887417 
L 82.926445 112.957559 
L 127.226923 112.96 
L 143.224318 112.96 
L 143.224318 112.96 
" clip-path="url(#p47efb65bd9)" style="fill: none; stroke: #a9678f; stroke-width: 1.5; stroke-linecap: round"/>
   </g>
   <g id="line2d_11">
    <path d="M 38.010682 112.96 
L 57.084499 112.96 
L 57.699783 103.391633 
L 58.315068 112.96 
L 143.224318 112.96 
L 143.224318 112.96 
" clip-path="url(#p47efb65bd9)" style="fill: none; stroke: #2d1e3e; stroke-width: 1.5; stroke-linecap: round"/>
   </g>
   <g id="line2d_12">
    <path d="M 78.451828 112.96 
L 78.451828 20.4 
" clip-path="url(#p47efb65bd9)" style="fill: none; stroke-dasharray: 5.55,2.4; stroke-dashoffset: 0; stroke: #808080; stroke-width: 1.5"/>
   </g>
   <g id="line2d_13">
    <path clip-path="url(#p47efb65bd9)" style="fill: none; stroke-dasharray: 5.55,2.4; stroke-dashoffset: 0; stroke: #808080; stroke-width: 1.5"/>
   </g>
   <g id="patch_4">
    <path d="M 32.75 112.96 
L 32.75 20.4 
" style="fill: none; stroke: #262626; stroke-width: 1.25; stroke-linejoin: miter; stroke-linecap: square"/>
   </g>
   <g id="patch_5">
    <path d="M 148.485 112.96 
L 148.485 20.4 
" style="fill: none; stroke: #262626; stroke-width: 1.25; stroke-linejoin: miter; stroke-linecap: square"/>
   </g>
   <g id="patch_6">
    <path d="M 32.75 112.96 
L 148.485 112.96 
" style="fill: none; stroke: #262626; stroke-width: 1.25; stroke-linejoin: miter; stroke-linecap: square"/>
   </g>
   <g id="patch_7">
    <path d="M 32.75 20.4 
L 148.485 20.4 
" style="fill: none; stroke: #262626; stroke-width: 1.25; stroke-linejoin: miter; stroke-linecap: square"/>
   </g>
   <g id="text_11">
    <text style="font-size: 8px; font-family: 'Arial'; text-anchor: middle; fill: #262626" x="90.6175" y="14.4" transform="rotate(-0 90.6175 14.4)">None</text>
   </g>
  </g>
  <g id="axes_2">
   <g id="patch_8">
    <path d="M 172.375 112.96 
L 288.11 112.96 
L 288.11 20.4 
L 172.375 20.4 
z
" style="fill: #ffffff"/>
   </g>
   <g id="matplotlib.axis_3">
    <g id="xtick_4">
     <g id="line2d_14">
      <g>
       <use xlink:href="#m660ef4e360" x="177.635682" y="112.96" style="fill: #262626; stroke: #262626; stroke-width: 1.25"/>
      </g>
     </g>
     <g id="text_12">
      <text style="font-size: 8px; font-family: 'Arial'; text-anchor: middle; fill: #262626" x="177.635682" y="122.68625" transform="rotate(-0 177.635682 122.68625)">−2</text>
     </g>
    </g>
    <g id="xtick_5">
     <g id="line2d_15">
      <g>
       <use xlink:href="#m660ef4e360" x="219.721136" y="112.96" style="fill: #262626; stroke: #262626; stroke-width: 1.25"/>
      </g>
     </g>
     <g id="text_13">
      <text style="font-size: 8px; font-family: 'Arial'; text-anchor: middle; fill: #262626" x="219.721136" y="122.68625" transform="rotate(-0 219.721136 122.68625)">0</text>
     </g>
    </g>
    <g id="xtick_6">
     <g id="line2d_16">
      <g>
       <use xlink:href="#m660ef4e360" x="261.806591" y="112.96" style="fill: #262626; stroke: #262626; stroke-width: 1.25"/>
      </g>
     </g>
     <g id="text_14">
      <text style="font-size: 8px; font-family: 'Arial'; text-anchor: middle; fill: #262626" x="261.806591" y="122.68625" transform="rotate(-0 261.806591 122.68625)">2</text>
     </g>
    </g>
    <g id="text_15">
     <text style="font-size: 8px; font-family: 'Arial'; text-anchor: middle; fill: #262626" x="230.2425" y="134.0025" transform="rotate(-0 230.2425 134.0025)">x</text>
    </g>
   </g>
   <g id="matplotlib.axis_4">
    <g id="ytick_6">
     <g id="line2d_17">
      <g>
       <use xlink:href="#m40f25869f5" x="172.375" y="112.96" style="fill: #262626; stroke: #262626; stroke-width: 1.25"/>
      </g>
     </g>
     <g id="text_16">
      <text style="font-size: 8px; font-family: 'Arial'; text-anchor: end; fill: #262626" x="168.375" y="115.823125" transform="rotate(-0 168.375 115.823125)">0.0</text>
     </g>
    </g>
    <g id="ytick_7">
     <g id="line2d_18">
      <g>
       <use xlink:href="#m40f25869f5" x="172.375" y="92.062282" style="fill: #262626; stroke: #262626; stroke-width: 1.25"/>
      </g>
     </g>
     <g id="text_17">
      <text style="font-size: 8px; font-family: 'Arial'; text-anchor: end; fill: #262626" x="168.375" y="94.925407" transform="rotate(-0 168.375 94.925407)">0.5</text>
     </g>
    </g>
    <g id="ytick_8">
     <g id="line2d_19">
      <g>
       <use xlink:href="#m40f25869f5" x="172.375" y="71.164563" style="fill: #262626; stroke: #262626; stroke-width: 1.25"/>
      </g>
     </g>
     <g id="text_18">
      <text style="font-size: 8px; font-family: 'Arial'; text-anchor: end; fill: #262626" x="168.375" y="74.027688" transform="rotate(-0 168.375 74.027688)">1.0</text>
     </g>
    </g>
    <g id="ytick_9">
     <g id="line2d_20">
      <g>
       <use xlink:href="#m40f25869f5" x="172.375" y="50.266845" style="fill: #262626; stroke: #262626; stroke-width: 1.25"/>
      </g>
     </g>
     <g id="text_19">
      <text style="font-size: 8px; font-family: 'Arial'; text-anchor: end; fill: #262626" x="168.375" y="53.12997" transform="rotate(-0 168.375 53.12997)">1.5</text>
     </g>
    </g>
    <g id="ytick_10">
     <g id="line2d_21">
      <g>
       <use xlink:href="#m40f25869f5" x="172.375" y="29.369126" style="fill: #262626; stroke: #262626; stroke-width: 1.25"/>
      </g>
     </g>
     <g id="text_20">
      <text style="font-size: 8px; font-family: 'Arial'; text-anchor: end; fill: #262626" x="168.375" y="32.232251" transform="rotate(-0 168.375 32.232251)">2.0</text>
     </g>
    </g>
   </g>
   <g id="FillBetweenPolyCollection_4"/>
   <g id="FillBetweenPolyCollection_5"/>
   <g id="FillBetweenPolyCollection_6"/>
   <g id="patch_9">
    <path d="M 205.048014 112.96 
L 205.048014 104.843854 
L 206.938066 104.843854 
L 206.938066 112.96 
L 208.828118 112.96 
L 208.828118 104.843854 
L 210.718171 104.843854 
L 210.718171 94.022325 
L 212.608223 94.022325 
L 212.608223 96.727707 
L 214.498275 96.727707 
L 214.498275 80.495414 
L 216.388328 80.495414 
L 216.388328 80.495414 
L 218.27838 80.495414 
L 218.27838 85.906178 
L 220.168432 85.906178 
L 220.168432 91.316943 
L 222.058484 91.316943 
L 222.058484 88.611561 
L 223.948537 88.611561 
L 223.948537 96.727707 
L 225.838589 96.727707 
L 225.838589 104.843854 
L 227.728641 104.843854 
L 227.728641 110.254618 
L 229.618694 110.254618 
L 229.618694 107.549236 
L 231.508746 107.549236 
L 231.508746 107.549236 
L 233.398798 107.549236 
L 233.398798 104.843854 
L 235.288851 104.843854 
L 235.288851 110.254618 
L 237.178903 110.254618 
L 237.178903 104.843854 
L 239.068955 104.843854 
L 239.068955 104.843854 
L 240.959008 104.843854 
L 240.959008 110.254618 
L 242.84906 110.254618 
L 242.84906 110.254618 
L 244.739112 110.254618 
L 244.739112 110.254618 
L 246.629165 110.254618 
L 246.629165 104.843854 
L 248.519217 104.843854 
L 248.519217 104.843854 
L 250.409269 104.843854 
L 250.409269 104.843854 
L 252.299322 104.843854 
L 252.299322 94.022325 
L 254.189374 94.022325 
L 254.189374 102.138471 
L 256.079426 102.138471 
L 256.079426 85.906178 
L 257.969479 85.906178 
L 257.969479 29.093153 
L 259.859531 29.093153 
L 259.859531 75.08465 
L 261.749583 75.08465 
L 261.749583 112.96 
L 259.859531 112.96 
L 259.859531 112.96 
L 257.969479 112.96 
L 257.969479 112.96 
L 256.079426 112.96 
L 256.079426 112.96 
L 254.189374 112.96 
L 254.189374 112.96 
L 252.299322 112.96 
L 252.299322 112.96 
L 250.409269 112.96 
L 250.409269 112.96 
L 248.519217 112.96 
L 248.519217 112.96 
L 246.629165 112.96 
L 246.629165 112.96 
L 244.739112 112.96 
L 244.739112 112.96 
L 242.84906 112.96 
L 242.84906 112.96 
L 240.959008 112.96 
L 240.959008 112.96 
L 239.068955 112.96 
L 239.068955 112.96 
L 237.178903 112.96 
L 237.178903 112.96 
L 235.288851 112.96 
L 235.288851 112.96 
L 233.398798 112.96 
L 233.398798 112.96 
L 231.508746 112.96 
L 231.508746 112.96 
L 229.618694 112.96 
L 229.618694 112.96 
L 227.728641 112.96 
L 227.728641 112.96 
L 225.838589 112.96 
L 225.838589 112.96 
L 223.948537 112.96 
L 223.948537 112.96 
L 222.058484 112.96 
L 222.058484 112.96 
L 220.168432 112.96 
L 220.168432 112.96 
L 218.27838 112.96 
L 218.27838 112.96 
L 216.388328 112.96 
L 216.388328 112.96 
L 214.498275 112.96 
L 214.498275 112.96 
L 212.608223 112.96 
L 212.608223 112.96 
L 210.718171 112.96 
L 210.718171 112.96 
L 208.828118 112.96 
L 208.828118 112.96 
L 206.938066 112.96 
L 206.938066 112.96 
z
" clip-path="url(#pb924ba5518)" style="fill: #cccccc; stroke: #ffffff; stroke-linejoin: miter"/>
   </g>
   <g id="line2d_22">
    <path d="M 177.635682 112.96 
L 199.785921 112.849074 
L 201.631774 112.637762 
L 202.862343 112.343626 
L 204.092912 111.83841 
L 205.323481 111.018459 
L 206.55405 109.76271 
L 207.784619 107.951125 
L 209.015187 105.495147 
L 210.245756 102.376603 
L 212.09161 96.69005 
L 214.552747 88.720095 
L 215.783316 85.507145 
L 216.3986 84.286093 
L 217.013885 83.382127 
L 217.629169 82.828017 
L 218.244454 82.644188 
L 218.859738 82.837474 
L 219.475023 83.400691 
L 220.090307 84.313083 
L 220.705591 85.541595 
L 221.93616 88.765707 
L 223.782014 94.696907 
L 225.627867 100.638542 
L 226.858436 104.0552 
L 228.089005 106.837778 
L 229.319573 108.955791 
L 230.550142 110.468578 
L 231.780711 111.48531 
L 233.01128 112.12962 
L 234.241849 112.515189 
L 236.087702 112.801189 
L 239.164124 112.937767 
L 249.623959 112.959997 
L 282.849318 112.96 
L 282.849318 112.96 
" clip-path="url(#pb924ba5518)" style="fill: none; stroke: #edd1cb; stroke-width: 1.5; stroke-linecap: round"/>
   </g>
   <g id="line2d_23">
    <path d="M 177.635682 112.96 
L 254.546235 112.923866 
L 255.161519 112.699143 
L 255.776804 111.547379 
L 256.392088 107.221627 
L 257.007372 95.473973 
L 257.622657 72.990122 
L 258.237941 44.424783 
L 258.853226 24.807619 
L 259.46851 27.906224 
L 260.083795 51.400874 
L 260.699079 79.538143 
L 261.314363 99.348437 
L 261.929648 108.801615 
L 262.544932 112.007027 
L 263.160217 112.796177 
L 263.775501 112.938874 
L 267.467208 112.96 
L 282.849318 112.96 
L 282.849318 112.96 
" clip-path="url(#pb924ba5518)" style="fill: none; stroke: #a9678f; stroke-width: 1.5; stroke-linecap: round"/>
   </g>
   <g id="line2d_24">
    <path d="M 177.635682 112.96 
L 221.320876 112.856585 
L 225.012582 112.61867 
L 227.47372 112.276673 
L 229.934858 111.699144 
L 231.780711 111.067872 
L 233.626564 110.247856 
L 236.087702 108.878635 
L 242.855831 104.713168 
L 244.701684 103.983346 
L 245.932253 103.700276 
L 247.162822 103.60105 
L 248.39339 103.691664 
L 249.623959 103.96664 
L 251.469813 104.686291 
L 253.315666 105.689639 
L 257.007372 108.067847 
L 259.46851 109.567469 
L 261.929648 110.791648 
L 263.775501 111.490764 
L 266.236639 112.145828 
L 268.697776 112.544163 
L 271.774199 112.799906 
L 276.696474 112.933332 
L 282.849318 112.958206 
L 282.849318 112.958206 
" clip-path="url(#pb924ba5518)" style="fill: none; stroke: #2d1e3e; stroke-width: 1.5; stroke-linecap: round"/>
   </g>
   <g id="line2d_25">
    <path d="M 231.71043 112.96 
L 231.71043 20.4 
" clip-path="url(#pb924ba5518)" style="fill: none; stroke-dasharray: 5.55,2.4; stroke-dashoffset: 0; stroke: #808080; stroke-width: 1.5"/>
   </g>
   <g id="line2d_26">
    <path d="M 256.571144 112.96 
L 256.571144 20.4 
" clip-path="url(#pb924ba5518)" style="fill: none; stroke-dasharray: 5.55,2.4; stroke-dashoffset: 0; stroke: #808080; stroke-width: 1.5"/>
   </g>
   <g id="patch_10">
    <path d="M 172.375 112.96 
L 172.375 20.4 
" style="fill: none; stroke: #262626; stroke-width: 1.25; stroke-linejoin: miter; stroke-linecap: square"/>
   </g>
   <g id="patch_11">
    <path d="M 288.11 112.96 
L 288.11 20.4 
" style="fill: none; stroke: #262626; stroke-width: 1.25; stroke-linejoin: miter; stroke-linecap: square"/>
   </g>
   <g id="patch_12">
    <path d="M 172.375 112.96 
L 288.11 112.96 
" style="fill: none; stroke: #262626; stroke-width: 1.25; stroke-linejoin: miter; stroke-linecap: square"/>
   </g>
   <g id="patch_13">
    <path d="M 172.375 20.4 
L 288.11 20.4 
" style="fill: none; stroke: #262626; stroke-width: 1.25; stroke-linejoin: miter; stroke-linecap: square"/>
   </g>
   <g id="text_21">
    <text style="font-size: 8px; font-family: 'Arial'; text-anchor: middle; fill: #262626" x="230.2425" y="14.4" transform="rotate(-0 230.2425 14.4)">Anidulafungin</text>
   </g>
  </g>
  <g id="axes_3">
   <g id="patch_14">
    <path d="M 312 112.96 
L 427.735 112.96 
L 427.735 20.4 
L 312 20.4 
z
" style="fill: #ffffff"/>
   </g>
   <g id="matplotlib.axis_5">
    <g id="xtick_7">
     <g id="line2d_27">
      <g>
       <use xlink:href="#m660ef4e360" x="317.260682" y="112.96" style="fill: #262626; stroke: #262626; stroke-width: 1.25"/>
      </g>
     </g>
     <g id="text_22">
      <text style="font-size: 8px; font-family: 'Arial'; text-anchor: middle; fill: #262626" x="317.260682" y="122.68625" transform="rotate(-0 317.260682 122.68625)">−2</text>
     </g>
    </g>
    <g id="xtick_8">
     <g id="line2d_28">
      <g>
       <use xlink:href="#m660ef4e360" x="359.346136" y="112.96" style="fill: #262626; stroke: #262626; stroke-width: 1.25"/>
      </g>
     </g>
     <g id="text_23">
      <text style="font-size: 8px; font-family: 'Arial'; text-anchor: middle; fill: #262626" x="359.346136" y="122.68625" transform="rotate(-0 359.346136 122.68625)">0</text>
     </g>
    </g>
    <g id="xtick_9">
     <g id="line2d_29">
      <g>
       <use xlink:href="#m660ef4e360" x="401.431591" y="112.96" style="fill: #262626; stroke: #262626; stroke-width: 1.25"/>
      </g>
     </g>
     <g id="text_24">
      <text style="font-size: 8px; font-family: 'Arial'; text-anchor: middle; fill: #262626" x="401.431591" y="122.68625" transform="rotate(-0 401.431591 122.68625)">2</text>
     </g>
    </g>
    <g id="text_25">
     <text style="font-size: 8px; font-family: 'Arial'; text-anchor: middle; fill: #262626" x="369.8675" y="134.0025" transform="rotate(-0 369.8675 134.0025)">x</text>
    </g>
   </g>
   <g id="matplotlib.axis_6">
    <g id="ytick_11">
     <g id="line2d_30">
      <g>
       <use xlink:href="#m40f25869f5" x="312" y="112.96" style="fill: #262626; stroke: #262626; stroke-width: 1.25"/>
      </g>
     </g>
     <g id="text_26">
      <text style="font-size: 8px; font-family: 'Arial'; text-anchor: end; fill: #262626" x="308" y="115.823125" transform="rotate(-0 308 115.823125)">0.0</text>
     </g>
    </g>
    <g id="ytick_12">
     <g id="line2d_31">
      <g>
       <use xlink:href="#m40f25869f5" x="312" y="91.683177" style="fill: #262626; stroke: #262626; stroke-width: 1.25"/>
      </g>
     </g>
     <g id="text_27">
      <text style="font-size: 8px; font-family: 'Arial'; text-anchor: end; fill: #262626" x="308" y="94.546302" transform="rotate(-0 308 94.546302)">0.5</text>
     </g>
    </g>
    <g id="ytick_13">
     <g id="line2d_32">
      <g>
       <use xlink:href="#m40f25869f5" x="312" y="70.406355" style="fill: #262626; stroke: #262626; stroke-width: 1.25"/>
      </g>
     </g>
     <g id="text_28">
      <text style="font-size: 8px; font-family: 'Arial'; text-anchor: end; fill: #262626" x="308" y="73.26948" transform="rotate(-0 308 73.26948)">1.0</text>
     </g>
    </g>
    <g id="ytick_14">
     <g id="line2d_33">
      <g>
       <use xlink:href="#m40f25869f5" x="312" y="49.129532" style="fill: #262626; stroke: #262626; stroke-width: 1.25"/>
      </g>
     </g>
     <g id="text_29">
      <text style="font-size: 8px; font-family: 'Arial'; text-anchor: end; fill: #262626" x="308" y="51.992657" transform="rotate(-0 308 51.992657)">1.5</text>
     </g>
    </g>
    <g id="ytick_15">
     <g id="line2d_34">
      <g>
       <use xlink:href="#m40f25869f5" x="312" y="27.852709" style="fill: #262626; stroke: #262626; stroke-width: 1.25"/>
      </g>
     </g>
     <g id="text_30">
      <text style="font-size: 8px; font-family: 'Arial'; text-anchor: end; fill: #262626" x="308" y="30.715834" transform="rotate(-0 308 30.715834)">2.0</text>
     </g>
    </g>
   </g>
   <g id="FillBetweenPolyCollection_7"/>
   <g id="FillBetweenPolyCollection_8"/>
   <g id="FillBetweenPolyCollection_9"/>
   <g id="patch_15">
    <path d="M 347.291711 112.96 
L 347.291711 104.144762 
L 349.063441 104.144762 
L 349.063441 107.083175 
L 350.835171 107.083175 
L 350.835171 104.144762 
L 352.606901 104.144762 
L 352.606901 104.144762 
L 354.378631 104.144762 
L 354.378631 95.329524 
L 356.150361 95.329524 
L 356.150361 89.452698 
L 357.922091 89.452698 
L 357.922091 63.006984 
L 359.693821 63.006984 
L 359.693821 74.760635 
L 361.465551 74.760635 
L 361.465551 89.452698 
L 363.237281 89.452698 
L 363.237281 98.267937 
L 365.009012 98.267937 
L 365.009012 98.267937 
L 366.780742 98.267937 
L 366.780742 104.144762 
L 368.552472 104.144762 
L 368.552472 107.083175 
L 370.324202 107.083175 
L 370.324202 110.021587 
L 372.095932 110.021587 
L 372.095932 112.96 
L 373.867662 112.96 
L 373.867662 110.021587 
L 375.639392 110.021587 
L 375.639392 112.96 
L 377.411122 112.96 
L 377.411122 107.083175 
L 379.182852 107.083175 
L 379.182852 101.206349 
L 380.954582 101.206349 
L 380.954582 110.021587 
L 382.726312 110.021587 
L 382.726312 112.96 
L 384.498042 112.96 
L 384.498042 110.021587 
L 386.269772 110.021587 
L 386.269772 107.083175 
L 388.041503 107.083175 
L 388.041503 92.391111 
L 389.813233 92.391111 
L 389.813233 110.021587 
L 391.584963 110.021587 
L 391.584963 110.021587 
L 393.356693 110.021587 
L 393.356693 74.760635 
L 395.128423 74.760635 
L 395.128423 80.63746 
L 396.900153 80.63746 
L 396.900153 24.807619 
L 398.671883 24.807619 
L 398.671883 57.130159 
L 400.443613 57.130159 
L 400.443613 112.96 
L 398.671883 112.96 
L 398.671883 112.96 
L 396.900153 112.96 
L 396.900153 112.96 
L 395.128423 112.96 
L 395.128423 112.96 
L 393.356693 112.96 
L 393.356693 112.96 
L 391.584963 112.96 
L 391.584963 112.96 
L 389.813233 112.96 
L 389.813233 112.96 
L 388.041503 112.96 
L 388.041503 112.96 
L 386.269772 112.96 
L 386.269772 112.96 
L 384.498042 112.96 
L 384.498042 112.96 
L 382.726312 112.96 
L 382.726312 112.96 
L 380.954582 112.96 
L 380.954582 112.96 
L 379.182852 112.96 
L 379.182852 112.96 
L 377.411122 112.96 
L 377.411122 112.96 
L 375.639392 112.96 
L 375.639392 112.96 
L 373.867662 112.96 
L 373.867662 112.96 
L 372.095932 112.96 
L 372.095932 112.96 
L 370.324202 112.96 
L 370.324202 112.96 
L 368.552472 112.96 
L 368.552472 112.96 
L 366.780742 112.96 
L 366.780742 112.96 
L 365.009012 112.96 
L 365.009012 112.96 
L 363.237281 112.96 
L 363.237281 112.96 
L 361.465551 112.96 
L 361.465551 112.96 
L 359.693821 112.96 
L 359.693821 112.96 
L 357.922091 112.96 
L 357.922091 112.96 
L 356.150361 112.96 
L 356.150361 112.96 
L 354.378631 112.96 
L 354.378631 112.96 
L 352.606901 112.96 
L 352.606901 112.96 
L 350.835171 112.96 
L 350.835171 112.96 
L 349.063441 112.96 
L 349.063441 112.96 
z
" clip-path="url(#p860ded310e)" style="fill: #cccccc; stroke: #ffffff; stroke-linejoin: miter"/>
   </g>
   <g id="line2d_35">
    <path d="M 317.260682 112.96 
L 367.714005 112.850381 
L 370.175142 112.649193 
L 372.020995 112.34209 
L 373.866849 111.827086 
L 375.712702 111.044389 
L 377.558555 109.972857 
L 380.019693 108.197609 
L 382.480831 106.385169 
L 383.7114 105.640637 
L 384.941968 105.099782 
L 386.172537 104.817299 
L 387.403106 104.822799 
L 388.633675 105.115701 
L 389.864244 105.665326 
L 391.710097 106.845202 
L 396.632372 110.388711 
L 398.478226 111.358226 
L 400.324079 112.039784 
L 402.169932 112.472453 
L 404.63107 112.775715 
L 408.322776 112.927304 
L 418.167327 112.959933 
L 422.474318 112.959998 
L 422.474318 112.959998 
" clip-path="url(#p860ded310e)" style="fill: none; stroke: #edd1cb; stroke-width: 1.5; stroke-linecap: round"/>
   </g>
   <g id="line2d_36">
    <path d="M 317.260682 112.96 
L 391.094813 112.862747 
L 391.710097 112.625533 
L 392.325381 111.945124 
L 392.940666 110.243054 
L 393.55595 106.542624 
L 394.171235 99.586588 
L 394.786519 88.371316 
L 396.632372 40.871776 
L 397.247657 32.646117 
L 397.862941 34.014891 
L 398.478226 44.495074 
L 400.324079 91.895714 
L 400.939363 101.89063 
L 401.554648 107.827755 
L 402.169932 110.860576 
L 402.785217 112.202293 
L 403.400501 112.718726 
L 404.015785 112.892216 
L 405.861639 112.959291 
L 422.474318 112.96 
L 422.474318 112.96 
" clip-path="url(#p860ded310e)" style="fill: none; stroke: #a9678f; stroke-width: 1.5; stroke-linecap: round"/>
   </g>
   <g id="line2d_37">
    <path d="M 317.260682 112.96 
L 342.487343 112.859858 
L 344.333196 112.62622 
L 345.563765 112.270907 
L 346.794334 111.623099 
L 348.024903 110.52261 
L 348.640187 109.744753 
L 349.870756 107.619938 
L 351.101325 104.625447 
L 352.331894 100.735743 
L 354.177747 93.635175 
L 356.0236 86.397559 
L 357.254169 82.577411 
L 357.869454 81.214678 
L 358.484738 80.302289 
L 359.100023 79.881731 
L 359.715307 79.97239 
L 360.330591 80.570073 
L 360.945876 81.647328 
L 361.56116 83.155536 
L 362.791729 87.187484 
L 367.09872 103.462074 
L 368.329289 106.750981 
L 369.559858 109.145643 
L 370.790427 110.757967 
L 372.020995 111.765378 
L 373.251564 112.350966 
L 374.482133 112.66822 
L 376.327986 112.873888 
L 380.019693 112.95507 
L 415.090905 112.96 
L 422.474318 112.96 
L 422.474318 112.96 
" clip-path="url(#p860ded310e)" style="fill: none; stroke: #2d1e3e; stroke-width: 1.5; stroke-linecap: round"/>
   </g>
   <g id="line2d_38">
    <path d="M 371.804456 112.96 
L 371.804456 20.4 
" clip-path="url(#p860ded310e)" style="fill: none; stroke-dasharray: 5.55,2.4; stroke-dashoffset: 0; stroke: #808080; stroke-width: 1.5"/>
   </g>
   <g id="line2d_39">
    <path d="M 392.645641 112.96 
L 392.645641 20.4 
" clip-path="url(#p860ded310e)" style="fill: none; stroke-dasharray: 5.55,2.4; stroke-dashoffset: 0; stroke: #808080; stroke-width: 1.5"/>
   </g>
   <g id="patch_16">
    <path d="M 312 112.96 
L 312 20.4 
" style="fill: none; stroke: #262626; stroke-width: 1.25; stroke-linejoin: miter; stroke-linecap: square"/>
   </g>
   <g id="patch_17">
    <path d="M 427.735 112.96 
L 427.735 20.4 
" style="fill: none; stroke: #262626; stroke-width: 1.25; stroke-linejoin: miter; stroke-linecap: square"/>
   </g>
   <g id="patch_18">
    <path d="M 312 112.96 
L 427.735 112.96 
" style="fill: none; stroke: #262626; stroke-width: 1.25; stroke-linejoin: miter; stroke-linecap: square"/>
   </g>
   <g id="patch_19">
    <path d="M 312 20.4 
L 427.735 20.4 
" style="fill: none; stroke: #262626; stroke-width: 1.25; stroke-linejoin: miter; stroke-linecap: square"/>
   </g>
   <g id="text_31">
    <text style="font-size: 8px; font-family: 'Arial'; text-anchor: middle; fill: #262626" x="369.8675" y="14.4" transform="rotate(-0 369.8675 14.4)">Caspofungin</text>
   </g>
  </g>
  <g id="axes_4">
   <g id="patch_20">
    <path d="M 451.625 112.96 
L 567.36 112.96 
L 567.36 20.4 
L 451.625 20.4 
z
" style="fill: #ffffff"/>
   </g>
   <g id="matplotlib.axis_7">
    <g id="xtick_10">
     <g id="line2d_40">
      <g>
       <use xlink:href="#m660ef4e360" x="456.885682" y="112.96" style="fill: #262626; stroke: #262626; stroke-width: 1.25"/>
      </g>
     </g>
     <g id="text_32">
      <text style="font-size: 8px; font-family: 'Arial'; text-anchor: middle; fill: #262626" x="456.885682" y="122.68625" transform="rotate(-0 456.885682 122.68625)">−2</text>
     </g>
    </g>
    <g id="xtick_11">
     <g id="line2d_41">
      <g>
       <use xlink:href="#m660ef4e360" x="498.971136" y="112.96" style="fill: #262626; stroke: #262626; stroke-width: 1.25"/>
      </g>
     </g>
     <g id="text_33">
      <text style="font-size: 8px; font-family: 'Arial'; text-anchor: middle; fill: #262626" x="498.971136" y="122.68625" transform="rotate(-0 498.971136 122.68625)">0</text>
     </g>
    </g>
    <g id="xtick_12">
     <g id="line2d_42">
      <g>
       <use xlink:href="#m660ef4e360" x="541.056591" y="112.96" style="fill: #262626; stroke: #262626; stroke-width: 1.25"/>
      </g>
     </g>
     <g id="text_34">
      <text style="font-size: 8px; font-family: 'Arial'; text-anchor: middle; fill: #262626" x="541.056591" y="122.68625" transform="rotate(-0 541.056591 122.68625)">2</text>
     </g>
    </g>
    <g id="text_35">
     <text style="font-size: 8px; font-family: 'Arial'; text-anchor: middle; fill: #262626" x="509.4925" y="134.0025" transform="rotate(-0 509.4925 134.0025)">x</text>
    </g>
   </g>
   <g id="matplotlib.axis_8">
    <g id="ytick_16">
     <g id="line2d_43">
      <g>
       <use xlink:href="#m40f25869f5" x="451.625" y="112.96" style="fill: #262626; stroke: #262626; stroke-width: 1.25"/>
      </g>
     </g>
     <g id="text_36">
      <text style="font-size: 8px; font-family: 'Arial'; text-anchor: end; fill: #262626" x="447.625" y="115.823125" transform="rotate(-0 447.625 115.823125)">0.0</text>
     </g>
    </g>
    <g id="ytick_17">
     <g id="line2d_44">
      <g>
       <use xlink:href="#m40f25869f5" x="451.625" y="88.387387" style="fill: #262626; stroke: #262626; stroke-width: 1.25"/>
      </g>
     </g>
     <g id="text_37">
      <text style="font-size: 8px; font-family: 'Arial'; text-anchor: end; fill: #262626" x="447.625" y="91.250512" transform="rotate(-0 447.625 91.250512)">0.5</text>
     </g>
    </g>
    <g id="ytick_18">
     <g id="line2d_45">
      <g>
       <use xlink:href="#m40f25869f5" x="451.625" y="63.814775" style="fill: #262626; stroke: #262626; stroke-width: 1.25"/>
      </g>
     </g>
     <g id="text_38">
      <text style="font-size: 8px; font-family: 'Arial'; text-anchor: end; fill: #262626" x="447.625" y="66.6779" transform="rotate(-0 447.625 66.6779)">1.0</text>
     </g>
    </g>
    <g id="ytick_19">
     <g id="line2d_46">
      <g>
       <use xlink:href="#m40f25869f5" x="451.625" y="39.242162" style="fill: #262626; stroke: #262626; stroke-width: 1.25"/>
      </g>
     </g>
     <g id="text_39">
      <text style="font-size: 8px; font-family: 'Arial'; text-anchor: end; fill: #262626" x="447.625" y="42.105287" transform="rotate(-0 447.625 42.105287)">1.5</text>
     </g>
    </g>
   </g>
   <g id="FillBetweenPolyCollection_10"/>
   <g id="FillBetweenPolyCollection_11"/>
   <g id="FillBetweenPolyCollection_12"/>
   <g id="patch_21">
    <path d="M 484.473031 112.96 
L 484.473031 97.807275 
L 486.456997 97.807275 
L 486.456997 109.929455 
L 488.440963 109.929455 
L 488.440963 103.868365 
L 490.424929 103.868365 
L 490.424929 100.83782 
L 492.408894 100.83782 
L 492.408894 64.471281 
L 494.39286 64.471281 
L 494.39286 70.532371 
L 496.376826 70.532371 
L 496.376826 73.562916 
L 498.360792 73.562916 
L 498.360792 94.77673 
L 500.344758 94.77673 
L 500.344758 79.624006 
L 502.328723 79.624006 
L 502.328723 97.807275 
L 504.312689 97.807275 
L 504.312689 106.89891 
L 506.296655 106.89891 
L 506.296655 97.807275 
L 508.280621 97.807275 
L 508.280621 106.89891 
L 510.264587 106.89891 
L 510.264587 109.929455 
L 512.248552 109.929455 
L 512.248552 106.89891 
L 514.232518 106.89891 
L 514.232518 100.83782 
L 516.216484 100.83782 
L 516.216484 112.96 
L 518.20045 112.96 
L 518.20045 109.929455 
L 520.184416 109.929455 
L 520.184416 103.868365 
L 522.168381 103.868365 
L 522.168381 106.89891 
L 524.152347 106.89891 
L 524.152347 109.929455 
L 526.136313 109.929455 
L 526.136313 100.83782 
L 528.120279 100.83782 
L 528.120279 94.77673 
L 530.104245 94.77673 
L 530.104245 100.83782 
L 532.08821 100.83782 
L 532.08821 106.89891 
L 534.072176 106.89891 
L 534.072176 103.868365 
L 536.056142 103.868365 
L 536.056142 91.746186 
L 538.040108 91.746186 
L 538.040108 97.807275 
L 540.024074 97.807275 
L 540.024074 58.410191 
L 542.008039 58.410191 
L 542.008039 46.288012 
L 543.992005 46.288012 
L 543.992005 112.96 
L 542.008039 112.96 
L 542.008039 112.96 
L 540.024074 112.96 
L 540.024074 112.96 
L 538.040108 112.96 
L 538.040108 112.96 
L 536.056142 112.96 
L 536.056142 112.96 
L 534.072176 112.96 
L 534.072176 112.96 
L 532.08821 112.96 
L 532.08821 112.96 
L 530.104245 112.96 
L 530.104245 112.96 
L 528.120279 112.96 
L 528.120279 112.96 
L 526.136313 112.96 
L 526.136313 112.96 
L 524.152347 112.96 
L 524.152347 112.96 
L 522.168381 112.96 
L 522.168381 112.96 
L 520.184416 112.96 
L 520.184416 112.96 
L 518.20045 112.96 
L 518.20045 112.96 
L 516.216484 112.96 
L 516.216484 112.96 
L 514.232518 112.96 
L 514.232518 112.96 
L 512.248552 112.96 
L 512.248552 112.96 
L 510.264587 112.96 
L 510.264587 112.96 
L 508.280621 112.96 
L 508.280621 112.96 
L 506.296655 112.96 
L 506.296655 112.96 
L 504.312689 112.96 
L 504.312689 112.96 
L 502.328723 112.96 
L 502.328723 112.96 
L 500.344758 112.96 
L 500.344758 112.96 
L 498.360792 112.96 
L 498.360792 112.96 
L 496.376826 112.96 
L 496.376826 112.96 
L 494.39286 112.96 
L 494.39286 112.96 
L 492.408894 112.96 
L 492.408894 112.96 
L 490.424929 112.96 
L 490.424929 112.96 
L 488.440963 112.96 
L 488.440963 112.96 
L 486.456997 112.96 
L 486.456997 112.96 
z
" clip-path="url(#p62699c6b87)" style="fill: #cccccc; stroke: #ffffff; stroke-linejoin: miter"/>
   </g>
   <g id="line2d_47">
    <path d="M 456.885682 112.96 
L 476.574783 112.878384 
L 479.035921 112.640453 
L 480.26649 112.367456 
L 481.497059 111.907768 
L 482.727628 111.170603 
L 483.958196 110.045886 
L 485.188765 108.415243 
L 486.419334 106.172353 
L 487.649903 103.251943 
L 488.880472 99.663117 
L 490.726325 93.306747 
L 493.187463 84.522188 
L 494.418032 80.902199 
L 495.033316 79.470847 
L 495.6486 78.352063 
L 496.263885 77.58077 
L 496.879169 77.181498 
L 497.494454 77.167087 
L 498.109738 77.538002 
L 498.725023 78.282309 
L 499.340307 79.376311 
L 500.570876 82.46784 
L 501.801445 86.447393 
L 506.108436 101.402541 
L 507.339005 104.689217 
L 508.569573 107.291928 
L 509.800142 109.240123 
L 511.030711 110.622099 
L 512.26128 111.552889 
L 513.491849 112.148974 
L 514.722418 112.512343 
L 516.568271 112.790734 
L 519.644693 112.933045 
L 528.873959 112.959979 
L 562.099318 112.96 
L 562.099318 112.96 
" clip-path="url(#p62699c6b87)" style="fill: none; stroke: #edd1cb; stroke-width: 1.5; stroke-linecap: round"/>
   </g>
   <g id="line2d_48">
    <path d="M 456.885682 112.96 
L 538.103226 112.874867 
L 538.71851 112.298251 
L 539.333795 109.36202 
L 539.949079 99.276548 
L 540.564363 76.559791 
L 541.179648 45.229647 
L 541.794932 24.807619 
L 542.410217 32.707973 
L 543.640785 90.197828 
L 544.25607 105.868315 
L 544.871354 111.414545 
L 545.486639 112.724422 
L 546.101923 112.934882 
L 549.178345 112.96 
L 562.099318 112.96 
L 562.099318 112.96 
" clip-path="url(#p62699c6b87)" style="fill: none; stroke: #a9678f; stroke-width: 1.5; stroke-linecap: round"/>
   </g>
   <g id="line2d_49">
    <path d="M 456.885682 112.96 
L 503.032014 112.87048 
L 506.72372 112.635772 
L 509.184858 112.27282 
L 511.030711 111.818763 
L 512.876564 111.153655 
L 514.722418 110.235134 
L 516.568271 109.042498 
L 518.414124 107.592241 
L 521.490546 104.806101 
L 523.951684 102.611855 
L 525.797537 101.26164 
L 527.028106 100.599582 
L 528.258675 100.176165 
L 529.489244 100.017772 
L 530.719813 100.134428 
L 531.950381 100.518741 
L 533.18095 101.146685 
L 535.026804 102.458952 
L 537.487941 104.631502 
L 541.179648 107.948513 
L 543.025501 109.34302 
L 544.871354 110.47203 
L 546.717208 111.328962 
L 548.563061 111.940933 
L 551.024199 112.454905 
L 553.485336 112.730161 
L 557.177043 112.899897 
L 562.099318 112.952548 
L 562.099318 112.952548 
" clip-path="url(#p62699c6b87)" style="fill: none; stroke: #2d1e3e; stroke-width: 1.5; stroke-linecap: round"/>
   </g>
   <g id="line2d_50">
    <path d="M 511.498232 112.96 
L 511.498232 20.4 
" clip-path="url(#p62699c6b87)" style="fill: none; stroke-dasharray: 5.55,2.4; stroke-dashoffset: 0; stroke: #808080; stroke-width: 1.5"/>
   </g>
   <g id="line2d_51">
    <path d="M 539.635693 112.96 
L 539.635693 20.4 
" clip-path="url(#p62699c6b87)" style="fill: none; stroke-dasharray: 5.55,2.4; stroke-dashoffset: 0; stroke: #808080; stroke-width: 1.5"/>
   </g>
   <g id="patch_22">
    <path d="M 451.625 112.96 
L 451.625 20.4 
" style="fill: none; stroke: #262626; stroke-width: 1.25; stroke-linejoin: miter; stroke-linecap: square"/>
   </g>
   <g id="patch_23">
    <path d="M 567.36 112.96 
L 567.36 20.4 
" style="fill: none; stroke: #262626; stroke-width: 1.25; stroke-linejoin: miter; stroke-linecap: square"/>
   </g>
   <g id="patch_24">
    <path d="M 451.625 112.96 
L 567.36 112.96 
" style="fill: none; stroke: #262626; stroke-width: 1.25; stroke-linejoin: miter; stroke-linecap: square"/>
   </g>
   <g id="patch_25">
    <path d="M 451.625 20.4 
L 567.36 20.4 
" style="fill: none; stroke: #262626; stroke-width: 1.25; stroke-linejoin: miter; stroke-linecap: square"/>
   </g>
   <g id="text_40">
    <text style="font-size: 8px; font-family: 'Arial'; text-anchor: middle; fill: #262626" x="509.4925" y="14.4" transform="rotate(-0 509.4925 14.4)">Micafungin</text>
   </g>
  </g>
 </g>
 <defs>
  <clipPath id="p47efb65bd9">
   <rect x="32.75" y="20.4" width="115.735" height="92.56"/>
  </clipPath>
  <clipPath id="pb924ba5518">
   <rect x="172.375" y="20.4" width="115.735" height="92.56"/>
  </clipPath>
  <clipPath id="p860ded310e">
   <rect x="312" y="20.4" width="115.735" height="92.56"/>
  </clipPath>
  <clipPath id="p62699c6b87">
   <rect x="451.625" y="20.4" width="115.735" height="92.56"/>
  </clipPath>
 </defs>
</svg>
