<?xml version="1.0" encoding="utf-8" standalone="no"?>
<!DOCTYPE svg PUBLIC "-//W3C//DTD SVG 1.1//EN"
  "http://www.w3.org/Graphics/SVG/1.1/DTD/svg11.dtd">
<svg xmlns:xlink="http://www.w3.org/1999/xlink" width="720pt" height="144pt" viewBox="0 0 720 144" xmlns="http://www.w3.org/2000/svg" version="1.1">
 <metadata>
  <rdf:RDF xmlns:dc="http://purl.org/dc/elements/1.1/" xmlns:cc="http://creativecommons.org/ns#" xmlns:rdf="http://www.w3.org/1999/02/22-rdf-syntax-ns#">
   <cc:Work>
    <dc:type rdf:resource="http://purl.org/dc/dcmitype/StillImage"/>
    <dc:date>2025-11-28T16:09:10.108947</dc:date>
    <dc:format>image/svg+xml</dc:format>
    <dc:creator>
     <cc:Agent>
      <dc:title>Matplotlib v3.10.7, https://matplotlib.org/</dc:title>
     </cc:Agent>
    </dc:creator>
   </cc:Work>
  </rdf:RDF>
 </metadata>
 <defs>
  <style type="text/css">*{stroke-linejoin: round; stroke-linecap: butt}</style>
 </defs>
 <g id="figure_1">
  <g id="patch_1">
   <path d="M 0 144 
L 720 144 
L 720 0 
L 0 0 
z
" style="fill: #ffffff"/>
  </g>
  <g id="axes_1">
   <g id="patch_2">
    <path d="M 32.75 112.96 
L 149.36 112.96 
L 149.36 20.4 
L 32.75 20.4 
z
" style="fill: #ffffff"/>
   </g>
   <g id="matplotlib.axis_1">
    <g id="xtick_1">
     <g id="line2d_1">
      <defs>
       <path id="m27254b8fed" d="M 0 0 
L 0 2 
" style="stroke: #262626; stroke-width: 1.25"/>
      </defs>
      <g>
       <use xlink:href="#m27254b8fed" x="38.050455" y="112.96" style="fill: #262626; stroke: #262626; stroke-width: 1.25"/>
      </g>
     </g>
     <g id="text_1">
      <text style="font-size: 8px; font-family: 'Arial'; text-anchor: middle; fill: #262626" x="38.050455" y="122.68625" transform="rotate(-0 38.050455 122.68625)">−2</text>
     </g>
    </g>
    <g id="xtick_2">
     <g id="line2d_2">
      <g>
       <use xlink:href="#m27254b8fed" x="80.454091" y="112.96" style="fill: #262626; stroke: #262626; stroke-width: 1.25"/>
      </g>
     </g>
     <g id="text_2">
      <text style="font-size: 8px; font-family: 'Arial'; text-anchor: middle; fill: #262626" x="80.454091" y="122.68625" transform="rotate(-0 80.454091 122.68625)">0</text>
     </g>
    </g>
    <g id="xtick_3">
     <g id="line2d_3">
      <g>
       <use xlink:href="#m27254b8fed" x="122.857727" y="112.96" style="fill: #262626; stroke: #262626; stroke-width: 1.25"/>
      </g>
     </g>
     <g id="text_3">
      <text style="font-size: 8px; font-family: 'Arial'; text-anchor: middle; fill: #262626" x="122.857727" y="122.68625" transform="rotate(-0 122.857727 122.68625)">2</text>
     </g>
    </g>
    <g id="text_4">
     <text style="font-size: 8px; font-family: 'Arial'; text-anchor: middle; fill: #262626" x="91.055" y="134.0025" transform="rotate(-0 91.055 134.0025)">x</text>
    </g>
   </g>
   <g id="matplotlib.axis_2">
    <g id="ytick_1">
     <g id="line2d_4">
      <defs>
       <path id="m2743935fca" d="M 0 0 
L -2 0 
" style="stroke: #262626; stroke-width: 1.25"/>
      </defs>
      <g>
       <use xlink:href="#m2743935fca" x="32.75" y="112.96" style="fill: #262626; stroke: #262626; stroke-width: 1.25"/>
      </g>
     </g>
     <g id="text_5">
      <text style="font-size: 8px; font-family: 'Arial'; text-anchor: end; fill: #262626" x="28.75" y="115.823125" transform="rotate(-0 28.75 115.823125)">0</text>
     </g>
    </g>
    <g id="ytick_2">
     <g id="line2d_5">
      <g>
       <use xlink:href="#m2743935fca" x="32.75" y="81.686466" style="fill: #262626; stroke: #262626; stroke-width: 1.25"/>
      </g>
     </g>
     <g id="text_6">
      <text style="font-size: 8px; font-family: 'Arial'; text-anchor: end; fill: #262626" x="28.75" y="84.549591" transform="rotate(-0 28.75 84.549591)">10</text>
     </g>
    </g>
    <g id="ytick_3">
     <g id="line2d_6">
      <g>
       <use xlink:href="#m2743935fca" x="32.75" y="50.412932" style="fill: #262626; stroke: #262626; stroke-width: 1.25"/>
      </g>
     </g>
     <g id="text_7">
      <text style="font-size: 8px; font-family: 'Arial'; text-anchor: end; fill: #262626" x="28.75" y="53.276057" transform="rotate(-0 28.75 53.276057)">20</text>
     </g>
    </g>
    <g id="text_8">
     <text style="font-size: 8px; font-family: 'Arial'; text-anchor: middle; fill: #262626" x="14.16875" y="66.68" transform="rotate(-90 14.16875 66.68)">p(x)</text>
    </g>
   </g>
   <g id="FillBetweenPolyCollection_1"/>
   <g id="FillBetweenPolyCollection_2"/>
   <g id="FillBetweenPolyCollection_3"/>
   <g id="patch_3">
    <path d="M 78.56027 112.96 
L 78.56027 105.294576 
L 78.70688 105.294576 
L 78.70688 112.96 
L 78.853489 112.96 
L 78.853489 112.96 
L 79.000099 112.96 
L 79.000099 105.294576 
L 79.146708 105.294576 
L 79.146708 112.96 
L 79.293318 112.96 
L 79.293318 109.127288 
L 79.439927 109.127288 
L 79.439927 112.96 
L 79.586536 112.96 
L 79.586536 109.127288 
L 79.733146 109.127288 
L 79.733146 105.294576 
L 79.879755 105.294576 
L 79.879755 70.800166 
L 80.026365 70.800166 
L 80.026365 82.298302 
L 80.172974 82.298302 
L 80.172974 36.305756 
L 80.319583 36.305756 
L 80.319583 24.807619 
L 80.466193 24.807619 
L 80.466193 43.97118 
L 80.612802 43.97118 
L 80.612802 63.134741 
L 80.759412 63.134741 
L 80.759412 93.796439 
L 80.906021 93.796439 
L 80.906021 101.461863 
L 81.05263 101.461863 
L 81.05263 101.461863 
L 81.19924 101.461863 
L 81.19924 112.96 
L 81.345849 112.96 
L 81.345849 112.96 
L 81.492459 112.96 
L 81.492459 105.294576 
L 81.639068 105.294576 
L 81.639068 112.96 
L 81.785678 112.96 
L 81.785678 109.127288 
L 81.932287 109.127288 
L 81.932287 109.127288 
L 82.078896 109.127288 
L 82.078896 112.96 
L 82.225506 112.96 
L 82.225506 112.96 
L 82.372115 112.96 
L 82.372115 109.127288 
L 82.518725 109.127288 
L 82.518725 112.96 
L 82.665334 112.96 
L 82.665334 112.96 
L 82.811943 112.96 
L 82.811943 109.127288 
L 82.958553 109.127288 
L 82.958553 112.96 
L 82.811943 112.96 
L 82.811943 112.96 
L 82.665334 112.96 
L 82.665334 112.96 
L 82.518725 112.96 
L 82.518725 112.96 
L 82.372115 112.96 
L 82.372115 112.96 
L 82.225506 112.96 
L 82.225506 112.96 
L 82.078896 112.96 
L 82.078896 112.96 
L 81.932287 112.96 
L 81.932287 112.96 
L 81.785678 112.96 
L 81.785678 112.96 
L 81.639068 112.96 
L 81.639068 112.96 
L 81.492459 112.96 
L 81.492459 112.96 
L 81.345849 112.96 
L 81.345849 112.96 
L 81.19924 112.96 
L 81.19924 112.96 
L 81.05263 112.96 
L 81.05263 112.96 
L 80.906021 112.96 
L 80.906021 112.96 
L 80.759412 112.96 
L 80.759412 112.96 
L 80.612802 112.96 
L 80.612802 112.96 
L 80.466193 112.96 
L 80.466193 112.96 
L 80.319583 112.96 
L 80.319583 112.96 
L 80.172974 112.96 
L 80.172974 112.96 
L 80.026365 112.96 
L 80.026365 112.96 
L 79.879755 112.96 
L 79.879755 112.96 
L 79.733146 112.96 
L 79.733146 112.96 
L 79.586536 112.96 
L 79.586536 112.96 
L 79.439927 112.96 
L 79.439927 112.96 
L 79.293318 112.96 
L 79.293318 112.96 
L 79.146708 112.96 
L 79.146708 112.96 
L 79.000099 112.96 
L 79.000099 112.96 
L 78.853489 112.96 
L 78.853489 112.96 
L 78.70688 112.96 
L 78.70688 112.96 
z
" clip-path="url(#pe170f0f7b4)" style="fill: #cccccc; stroke: #ffffff; stroke-linejoin: miter"/>
   </g>
   <g id="line2d_7">
    <path d="M 38.050455 112.96 
L 38.956515 112.96 
L 39.862576 112.96 
L 40.768636 112.96 
L 41.674697 112.96 
L 42.580758 112.96 
L 43.486818 112.96 
L 44.392879 112.96 
L 45.298939 112.96 
L 46.205 112.96 
L 47.111061 112.96 
L 48.017121 112.96 
L 48.923182 112.96 
L 49.829242 112.96 
L 50.735303 112.96 
L 51.641364 112.96 
L 52.547424 112.96 
L 53.453485 112.96 
L 54.359545 112.96 
L 55.265606 112.96 
L 56.171667 112.96 
L 57.077727 112.96 
L 57.983788 112.96 
L 58.889848 112.96 
L 59.795909 112.96 
L 60.70197 112.96 
L 61.60803 112.96 
L 62.514091 112.96 
L 63.420152 112.96 
L 64.326212 112.96 
L 65.232273 112.96 
L 66.138333 112.96 
L 67.044394 112.96 
L 67.950455 112.96 
L 68.856515 112.96 
L 69.762576 112.96 
L 70.668636 112.96 
L 71.574697 112.96 
L 72.480758 112.96 
L 73.386818 112.96 
L 74.292879 112.96 
L 75.198939 112.96 
L 76.105 112.96 
L 77.011061 112.96 
L 77.917121 112.96 
L 78.823182 112.959997 
L 79.729242 109.068553 
L 80.635303 62.61525 
L 81.541364 112.953518 
L 82.447424 112.96 
L 83.353485 112.96 
L 84.259545 112.96 
L 85.165606 112.96 
L 86.071667 112.96 
L 86.977727 112.96 
L 87.883788 112.96 
L 88.789848 112.96 
L 89.695909 112.96 
L 90.60197 112.96 
L 91.50803 112.96 
L 92.414091 112.96 
L 93.320152 112.96 
L 94.226212 112.96 
L 95.132273 112.96 
L 96.038333 112.96 
L 96.944394 112.96 
L 97.850455 112.96 
L 98.756515 112.96 
L 99.662576 112.96 
L 100.568636 112.96 
L 101.474697 112.96 
L 102.380758 112.96 
L 103.286818 112.96 
L 104.192879 112.96 
L 105.098939 112.96 
L 106.005 112.96 
L 106.911061 112.96 
L 107.817121 112.96 
L 108.723182 112.96 
L 109.629242 112.96 
L 110.535303 112.96 
L 111.441364 112.96 
L 112.347424 112.96 
L 113.253485 112.96 
L 114.159545 112.96 
L 115.065606 112.96 
L 115.971667 112.96 
L 116.877727 112.96 
L 117.783788 112.96 
L 118.689848 112.96 
L 119.595909 112.96 
L 120.50197 112.96 
L 121.40803 112.96 
L 122.314091 112.96 
L 123.220152 112.96 
L 124.126212 112.96 
L 125.032273 112.96 
L 125.938333 112.96 
L 126.844394 112.96 
L 127.750455 112.96 
L 128.656515 112.96 
L 129.562576 112.96 
L 130.468636 112.96 
L 131.374697 112.96 
L 132.280758 112.96 
L 133.186818 112.96 
L 134.092879 112.96 
L 134.998939 112.96 
L 135.905 112.96 
L 136.811061 112.96 
L 137.717121 112.96 
L 138.623182 112.96 
L 139.529242 112.96 
L 140.435303 112.96 
L 141.341364 112.96 
L 142.247424 112.96 
L 143.153485 112.96 
L 144.059545 112.96 
" clip-path="url(#pe170f0f7b4)" style="fill: none; stroke: #edd1cb; stroke-width: 1.5; stroke-linecap: round"/>
   </g>
   <g id="line2d_8">
    <path d="M 38.050455 112.96 
L 38.956515 112.96 
L 39.862576 112.96 
L 40.768636 112.96 
L 41.674697 112.96 
L 42.580758 112.96 
L 43.486818 112.96 
L 44.392879 112.96 
L 45.298939 112.96 
L 46.205 112.96 
L 47.111061 112.96 
L 48.017121 112.96 
L 48.923182 112.96 
L 49.829242 112.96 
L 50.735303 112.96 
L 51.641364 112.96 
L 52.547424 112.96 
L 53.453485 112.96 
L 54.359545 112.96 
L 55.265606 112.96 
L 56.171667 112.96 
L 57.077727 112.96 
L 57.983788 112.96 
L 58.889848 112.96 
L 59.795909 112.96 
L 60.70197 112.96 
L 61.60803 112.96 
L 62.514091 112.96 
L 63.420152 112.96 
L 64.326212 112.96 
L 65.232273 112.96 
L 66.138333 112.96 
L 67.044394 112.96 
L 67.950455 112.96 
L 68.856515 112.96 
L 69.762576 112.96 
L 70.668636 112.96 
L 71.574697 112.96 
L 72.480758 112.96 
L 73.386818 112.96 
L 74.292879 112.96 
L 75.198939 112.96 
L 76.105 112.96 
L 77.011061 112.959999 
L 77.917121 112.959776 
L 78.823182 112.943395 
L 79.729242 112.61835 
L 80.635303 111.011421 
L 81.541364 109.879299 
L 82.447424 111.609866 
L 83.353485 112.795979 
L 84.259545 112.954476 
L 85.165606 112.959948 
L 86.071667 112.96 
L 86.977727 112.96 
L 87.883788 112.96 
L 88.789848 112.96 
L 89.695909 112.96 
L 90.60197 112.96 
L 91.50803 112.96 
L 92.414091 112.96 
L 93.320152 112.96 
L 94.226212 112.96 
L 95.132273 112.96 
L 96.038333 112.96 
L 96.944394 112.96 
L 97.850455 112.96 
L 98.756515 112.96 
L 99.662576 112.96 
L 100.568636 112.96 
L 101.474697 112.96 
L 102.380758 112.96 
L 103.286818 112.96 
L 104.192879 112.96 
L 105.098939 112.96 
L 106.005 112.96 
L 106.911061 112.96 
L 107.817121 112.96 
L 108.723182 112.96 
L 109.629242 112.96 
L 110.535303 112.96 
L 111.441364 112.96 
L 112.347424 112.96 
L 113.253485 112.96 
L 114.159545 112.96 
L 115.065606 112.96 
L 115.971667 112.96 
L 116.877727 112.96 
L 117.783788 112.96 
L 118.689848 112.96 
L 119.595909 112.96 
L 120.50197 112.96 
L 121.40803 112.96 
L 122.314091 112.96 
L 123.220152 112.96 
L 124.126212 112.96 
L 125.032273 112.96 
L 125.938333 112.96 
L 126.844394 112.96 
L 127.750455 112.96 
L 128.656515 112.96 
L 129.562576 112.96 
L 130.468636 112.96 
L 131.374697 112.96 
L 132.280758 112.96 
L 133.186818 112.96 
L 134.092879 112.96 
L 134.998939 112.96 
L 135.905 112.96 
L 136.811061 112.96 
L 137.717121 112.96 
L 138.623182 112.96 
L 139.529242 112.96 
L 140.435303 112.96 
L 141.341364 112.96 
L 142.247424 112.96 
L 143.153485 112.96 
L 144.059545 112.96 
" clip-path="url(#pe170f0f7b4)" style="fill: none; stroke: #a9678f; stroke-width: 1.5; stroke-linecap: round"/>
   </g>
   <g id="line2d_9">
    <path d="M 38.050455 112.96 
L 38.956515 112.96 
L 39.862576 112.96 
L 40.768636 112.96 
L 41.674697 112.96 
L 42.580758 112.96 
L 43.486818 112.96 
L 44.392879 112.96 
L 45.298939 112.96 
L 46.205 112.96 
L 47.111061 112.96 
L 48.017121 112.96 
L 48.923182 112.96 
L 49.829242 112.96 
L 50.735303 112.96 
L 51.641364 112.96 
L 52.547424 112.96 
L 53.453485 112.96 
L 54.359545 112.96 
L 55.265606 112.96 
L 56.171667 112.96 
L 57.077727 112.96 
L 57.983788 112.96 
L 58.889848 112.96 
L 59.795909 112.96 
L 60.70197 112.96 
L 61.60803 112.96 
L 62.514091 112.96 
L 63.420152 112.96 
L 64.326212 112.96 
L 65.232273 112.96 
L 66.138333 112.96 
L 67.044394 112.96 
L 67.950455 112.96 
L 68.856515 112.96 
L 69.762576 112.96 
L 70.668636 112.96 
L 71.574697 112.96 
L 72.480758 112.96 
L 73.386818 112.96 
L 74.292879 112.96 
L 75.198939 112.96 
L 76.105 112.959964 
L 77.011061 112.954646 
L 77.917121 112.764853 
L 78.823182 111.204142 
L 79.729242 109.059935 
L 80.635303 110.821501 
L 81.541364 112.670532 
L 82.447424 112.950327 
L 83.353485 112.95992 
L 84.259545 112.96 
L 85.165606 112.96 
L 86.071667 112.96 
L 86.977727 112.96 
L 87.883788 112.96 
L 88.789848 112.96 
L 89.695909 112.96 
L 90.60197 112.96 
L 91.50803 112.96 
L 92.414091 112.96 
L 93.320152 112.96 
L 94.226212 112.96 
L 95.132273 112.96 
L 96.038333 112.96 
L 96.944394 112.96 
L 97.850455 112.96 
L 98.756515 112.96 
L 99.662576 112.96 
L 100.568636 112.96 
L 101.474697 112.96 
L 102.380758 112.96 
L 103.286818 112.96 
L 104.192879 112.96 
L 105.098939 112.96 
L 106.005 112.96 
L 106.911061 112.96 
L 107.817121 112.96 
L 108.723182 112.96 
L 109.629242 112.96 
L 110.535303 112.96 
L 111.441364 112.96 
L 112.347424 112.96 
L 113.253485 112.96 
L 114.159545 112.96 
L 115.065606 112.96 
L 115.971667 112.96 
L 116.877727 112.96 
L 117.783788 112.96 
L 118.689848 112.96 
L 119.595909 112.96 
L 120.50197 112.96 
L 121.40803 112.96 
L 122.314091 112.96 
L 123.220152 112.96 
L 124.126212 112.96 
L 125.032273 112.96 
L 125.938333 112.96 
L 126.844394 112.96 
L 127.750455 112.96 
L 128.656515 112.96 
L 129.562576 112.96 
L 130.468636 112.96 
L 131.374697 112.96 
L 132.280758 112.96 
L 133.186818 112.96 
L 134.092879 112.96 
L 134.998939 112.96 
L 135.905 112.96 
L 136.811061 112.96 
L 137.717121 112.96 
L 138.623182 112.96 
L 139.529242 112.96 
L 140.435303 112.96 
L 141.341364 112.96 
L 142.247424 112.96 
L 143.153485 112.96 
L 144.059545 112.96 
" clip-path="url(#pe170f0f7b4)" style="fill: none; stroke: #2d1e3e; stroke-width: 1.5; stroke-linecap: round"/>
   </g>
   <g id="line2d_10">
    <path d="M 79.282574 112.96 
L 79.282574 20.4 
" clip-path="url(#pe170f0f7b4)" style="fill: none; stroke-dasharray: 5.55,2.4; stroke-dashoffset: 0; stroke: #808080; stroke-width: 1.5"/>
   </g>
   <g id="line2d_11">
    <path clip-path="url(#pe170f0f7b4)" style="fill: none; stroke-dasharray: 5.55,2.4; stroke-dashoffset: 0; stroke: #808080; stroke-width: 1.5"/>
   </g>
   <g id="patch_4">
    <path d="M 32.75 112.96 
L 32.75 20.4 
" style="fill: none; stroke: #262626; stroke-width: 1.25; stroke-linejoin: miter; stroke-linecap: square"/>
   </g>
   <g id="patch_5">
    <path d="M 149.36 112.96 
L 149.36 20.4 
" style="fill: none; stroke: #262626; stroke-width: 1.25; stroke-linejoin: miter; stroke-linecap: square"/>
   </g>
   <g id="patch_6">
    <path d="M 32.75 112.96 
L 149.36 112.96 
" style="fill: none; stroke: #262626; stroke-width: 1.25; stroke-linejoin: miter; stroke-linecap: square"/>
   </g>
   <g id="patch_7">
    <path d="M 32.75 20.4 
L 149.36 20.4 
" style="fill: none; stroke: #262626; stroke-width: 1.25; stroke-linejoin: miter; stroke-linecap: square"/>
   </g>
   <g id="text_9">
    <text style="font-size: 8px; font-family: 'Arial'; text-anchor: middle; fill: #262626" x="91.055" y="14.4" transform="rotate(-0 91.055 14.4)">None</text>
   </g>
  </g>
  <g id="axes_2">
   <g id="patch_8">
    <path d="M 173.25 112.96 
L 289.86 112.96 
L 289.86 20.4 
L 173.25 20.4 
z
" style="fill: #ffffff"/>
   </g>
   <g id="matplotlib.axis_3">
    <g id="xtick_4">
     <g id="line2d_12">
      <g>
       <use xlink:href="#m27254b8fed" x="178.550455" y="112.96" style="fill: #262626; stroke: #262626; stroke-width: 1.25"/>
      </g>
     </g>
     <g id="text_10">
      <text style="font-size: 8px; font-family: 'Arial'; text-anchor: middle; fill: #262626" x="178.550455" y="122.68625" transform="rotate(-0 178.550455 122.68625)">−2</text>
     </g>
    </g>
    <g id="xtick_5">
     <g id="line2d_13">
      <g>
       <use xlink:href="#m27254b8fed" x="220.954091" y="112.96" style="fill: #262626; stroke: #262626; stroke-width: 1.25"/>
      </g>
     </g>
     <g id="text_11">
      <text style="font-size: 8px; font-family: 'Arial'; text-anchor: middle; fill: #262626" x="220.954091" y="122.68625" transform="rotate(-0 220.954091 122.68625)">0</text>
     </g>
    </g>
    <g id="xtick_6">
     <g id="line2d_14">
      <g>
       <use xlink:href="#m27254b8fed" x="263.357727" y="112.96" style="fill: #262626; stroke: #262626; stroke-width: 1.25"/>
      </g>
     </g>
     <g id="text_12">
      <text style="font-size: 8px; font-family: 'Arial'; text-anchor: middle; fill: #262626" x="263.357727" y="122.68625" transform="rotate(-0 263.357727 122.68625)">2</text>
     </g>
    </g>
    <g id="text_13">
     <text style="font-size: 8px; font-family: 'Arial'; text-anchor: middle; fill: #262626" x="231.555" y="134.0025" transform="rotate(-0 231.555 134.0025)">x</text>
    </g>
   </g>
   <g id="matplotlib.axis_4">
    <g id="ytick_4">
     <g id="line2d_15">
      <g>
       <use xlink:href="#m2743935fca" x="173.25" y="112.96" style="fill: #262626; stroke: #262626; stroke-width: 1.25"/>
      </g>
     </g>
     <g id="text_14">
      <text style="font-size: 8px; font-family: 'Arial'; text-anchor: end; fill: #262626" x="169.25" y="115.823125" transform="rotate(-0 169.25 115.823125)">0</text>
     </g>
    </g>
    <g id="ytick_5">
     <g id="line2d_16">
      <g>
       <use xlink:href="#m2743935fca" x="173.25" y="93.013164" style="fill: #262626; stroke: #262626; stroke-width: 1.25"/>
      </g>
     </g>
     <g id="text_15">
      <text style="font-size: 8px; font-family: 'Arial'; text-anchor: end; fill: #262626" x="169.25" y="95.876289" transform="rotate(-0 169.25 95.876289)">2</text>
     </g>
    </g>
    <g id="ytick_6">
     <g id="line2d_17">
      <g>
       <use xlink:href="#m2743935fca" x="173.25" y="73.066327" style="fill: #262626; stroke: #262626; stroke-width: 1.25"/>
      </g>
     </g>
     <g id="text_16">
      <text style="font-size: 8px; font-family: 'Arial'; text-anchor: end; fill: #262626" x="169.25" y="75.929452" transform="rotate(-0 169.25 75.929452)">4</text>
     </g>
    </g>
    <g id="ytick_7">
     <g id="line2d_18">
      <g>
       <use xlink:href="#m2743935fca" x="173.25" y="53.119491" style="fill: #262626; stroke: #262626; stroke-width: 1.25"/>
      </g>
     </g>
     <g id="text_17">
      <text style="font-size: 8px; font-family: 'Arial'; text-anchor: end; fill: #262626" x="169.25" y="55.982616" transform="rotate(-0 169.25 55.982616)">6</text>
     </g>
    </g>
    <g id="ytick_8">
     <g id="line2d_19">
      <g>
       <use xlink:href="#m2743935fca" x="173.25" y="33.172654" style="fill: #262626; stroke: #262626; stroke-width: 1.25"/>
      </g>
     </g>
     <g id="text_18">
      <text style="font-size: 8px; font-family: 'Arial'; text-anchor: end; fill: #262626" x="169.25" y="36.035779" transform="rotate(-0 169.25 36.035779)">8</text>
     </g>
    </g>
   </g>
   <g id="FillBetweenPolyCollection_4"/>
   <g id="FillBetweenPolyCollection_5"/>
   <g id="FillBetweenPolyCollection_6"/>
   <g id="patch_9">
    <path d="M 204.192872 112.96 
L 204.192872 107.27275 
L 204.82305 107.27275 
L 204.82305 110.116375 
L 205.453227 110.116375 
L 205.453227 112.96 
L 206.083404 112.96 
L 206.083404 101.585499 
L 206.713582 101.585499 
L 206.713582 107.27275 
L 207.343759 107.27275 
L 207.343759 110.116375 
L 207.973936 110.116375 
L 207.973936 112.96 
L 208.604114 112.96 
L 208.604114 110.116375 
L 209.234291 110.116375 
L 209.234291 110.116375 
L 209.864468 110.116375 
L 209.864468 112.96 
L 210.494646 112.96 
L 210.494646 112.96 
L 211.124823 112.96 
L 211.124823 110.116375 
L 211.755 110.116375 
L 211.755 112.96 
L 212.385177 112.96 
L 212.385177 110.116375 
L 213.015355 110.116375 
L 213.015355 112.96 
L 213.645532 112.96 
L 213.645532 112.96 
L 214.275709 112.96 
L 214.275709 112.96 
L 214.905887 112.96 
L 214.905887 112.96 
L 215.536064 112.96 
L 215.536064 101.585499 
L 216.166241 101.585499 
L 216.166241 110.116375 
L 216.796419 110.116375 
L 216.796419 107.27275 
L 217.426596 107.27275 
L 217.426596 101.585499 
L 218.056773 101.585499 
L 218.056773 112.96 
L 218.686951 112.96 
L 218.686951 95.898249 
L 219.317128 95.898249 
L 219.317128 64.618372 
L 219.947305 64.618372 
L 219.947305 36.18212 
L 220.577483 36.18212 
L 220.577483 24.807619 
L 221.20766 24.807619 
L 221.20766 87.367373 
L 221.837837 87.367373 
L 221.837837 110.116375 
L 222.468015 110.116375 
L 222.468015 107.27275 
L 223.098192 107.27275 
L 223.098192 112.96 
L 222.468015 112.96 
L 222.468015 112.96 
L 221.837837 112.96 
L 221.837837 112.96 
L 221.20766 112.96 
L 221.20766 112.96 
L 220.577483 112.96 
L 220.577483 112.96 
L 219.947305 112.96 
L 219.947305 112.96 
L 219.317128 112.96 
L 219.317128 112.96 
L 218.686951 112.96 
L 218.686951 112.96 
L 218.056773 112.96 
L 218.056773 112.96 
L 217.426596 112.96 
L 217.426596 112.96 
L 216.796419 112.96 
L 216.796419 112.96 
L 216.166241 112.96 
L 216.166241 112.96 
L 215.536064 112.96 
L 215.536064 112.96 
L 214.905887 112.96 
L 214.905887 112.96 
L 214.275709 112.96 
L 214.275709 112.96 
L 213.645532 112.96 
L 213.645532 112.96 
L 213.015355 112.96 
L 213.015355 112.96 
L 212.385177 112.96 
L 212.385177 112.96 
L 211.755 112.96 
L 211.755 112.96 
L 211.124823 112.96 
L 211.124823 112.96 
L 210.494646 112.96 
L 210.494646 112.96 
L 209.864468 112.96 
L 209.864468 112.96 
L 209.234291 112.96 
L 209.234291 112.96 
L 208.604114 112.96 
L 208.604114 112.96 
L 207.973936 112.96 
L 207.973936 112.96 
L 207.343759 112.96 
L 207.343759 112.96 
L 206.713582 112.96 
L 206.713582 112.96 
L 206.083404 112.96 
L 206.083404 112.96 
L 205.453227 112.96 
L 205.453227 112.96 
L 204.82305 112.96 
L 204.82305 112.96 
z
" clip-path="url(#pa4df5f91e5)" style="fill: #cccccc; stroke: #ffffff; stroke-linejoin: miter"/>
   </g>
   <g id="line2d_20">
    <path d="M 178.550455 112.96 
L 179.456515 112.96 
L 180.362576 112.96 
L 181.268636 112.96 
L 182.174697 112.96 
L 183.080758 112.96 
L 183.986818 112.96 
L 184.892879 112.96 
L 185.798939 112.96 
L 186.705 112.96 
L 187.611061 112.96 
L 188.517121 112.96 
L 189.423182 112.96 
L 190.329242 112.96 
L 191.235303 112.96 
L 192.141364 112.96 
L 193.047424 112.96 
L 193.953485 112.96 
L 194.859545 112.96 
L 195.765606 112.96 
L 196.671667 112.96 
L 197.577727 112.96 
L 198.483788 112.96 
L 199.389848 112.96 
L 200.295909 112.96 
L 201.20197 112.96 
L 202.10803 112.96 
L 203.014091 112.96 
L 203.920152 112.96 
L 204.826212 112.96 
L 205.732273 112.96 
L 206.638333 112.96 
L 207.544394 112.96 
L 208.450455 112.96 
L 209.356515 112.96 
L 210.262576 112.96 
L 211.168636 112.96 
L 212.074697 112.96 
L 212.980758 112.96 
L 213.886818 112.96 
L 214.792879 112.96 
L 215.698939 112.959999 
L 216.605 112.959602 
L 217.511061 112.89498 
L 218.417121 110.229676 
L 219.323182 83.486219 
L 220.229242 31.168268 
L 221.135303 54.610807 
L 222.041364 102.2593 
L 222.947424 112.455523 
L 223.853485 112.953886 
L 224.759545 112.959981 
L 225.665606 112.96 
L 226.571667 112.96 
L 227.477727 112.96 
L 228.383788 112.96 
L 229.289848 112.96 
L 230.195909 112.96 
L 231.10197 112.96 
L 232.00803 112.96 
L 232.914091 112.96 
L 233.820152 112.96 
L 234.726212 112.96 
L 235.632273 112.96 
L 236.538333 112.96 
L 237.444394 112.96 
L 238.350455 112.96 
L 239.256515 112.96 
L 240.162576 112.96 
L 241.068636 112.96 
L 241.974697 112.96 
L 242.880758 112.96 
L 243.786818 112.96 
L 244.692879 112.96 
L 245.598939 112.96 
L 246.505 112.96 
L 247.411061 112.96 
L 248.317121 112.96 
L 249.223182 112.96 
L 250.129242 112.96 
L 251.035303 112.96 
L 251.941364 112.96 
L 252.847424 112.96 
L 253.753485 112.96 
L 254.659545 112.96 
L 255.565606 112.96 
L 256.471667 112.96 
L 257.377727 112.96 
L 258.283788 112.96 
L 259.189848 112.96 
L 260.095909 112.96 
L 261.00197 112.96 
L 261.90803 112.96 
L 262.814091 112.96 
L 263.720152 112.96 
L 264.626212 112.96 
L 265.532273 112.96 
L 266.438333 112.96 
L 267.344394 112.96 
L 268.250455 112.96 
L 269.156515 112.96 
L 270.062576 112.96 
L 270.968636 112.96 
L 271.874697 112.96 
L 272.780758 112.96 
L 273.686818 112.96 
L 274.592879 112.96 
L 275.498939 112.96 
L 276.405 112.96 
L 277.311061 112.96 
L 278.217121 112.96 
L 279.123182 112.96 
L 280.029242 112.96 
L 280.935303 112.96 
L 281.841364 112.96 
L 282.747424 112.96 
L 283.653485 112.96 
L 284.559545 112.96 
" clip-path="url(#pa4df5f91e5)" style="fill: none; stroke: #edd1cb; stroke-width: 1.5; stroke-linecap: round"/>
   </g>
   <g id="line2d_21">
    <path d="M 178.550455 112.96 
L 179.456515 112.96 
L 180.362576 112.96 
L 181.268636 112.96 
L 182.174697 112.96 
L 183.080758 112.96 
L 183.986818 112.96 
L 184.892879 112.96 
L 185.798939 112.96 
L 186.705 112.96 
L 187.611061 112.96 
L 188.517121 112.96 
L 189.423182 112.96 
L 190.329242 112.96 
L 191.235303 112.96 
L 192.141364 112.96 
L 193.047424 112.96 
L 193.953485 112.959999 
L 194.859545 112.959995 
L 195.765606 112.959968 
L 196.671667 112.959814 
L 197.577727 112.959062 
L 198.483788 112.955896 
L 199.389848 112.944426 
L 200.295909 112.908747 
L 201.20197 112.813736 
L 202.10803 112.598045 
L 203.014091 112.183268 
L 203.920152 111.514601 
L 204.826212 110.627597 
L 205.732273 109.696235 
L 206.638333 108.999648 
L 207.544394 108.792765 
L 208.450455 109.157566 
L 209.356515 109.951328 
L 210.262576 110.895631 
L 211.168636 111.731714 
L 212.074697 112.32626 
L 212.980758 112.676455 
L 213.886818 112.84999 
L 214.792879 112.922988 
L 215.698939 112.949202 
L 216.605 112.957268 
L 217.511061 112.959401 
L 218.417121 112.959886 
L 219.323182 112.959981 
L 220.229242 112.959997 
L 221.135303 112.96 
L 222.041364 112.96 
L 222.947424 112.96 
L 223.853485 112.96 
L 224.759545 112.96 
L 225.665606 112.96 
L 226.571667 112.96 
L 227.477727 112.96 
L 228.383788 112.96 
L 229.289848 112.96 
L 230.195909 112.96 
L 231.10197 112.96 
L 232.00803 112.96 
L 232.914091 112.96 
L 233.820152 112.96 
L 234.726212 112.96 
L 235.632273 112.96 
L 236.538333 112.96 
L 237.444394 112.96 
L 238.350455 112.96 
L 239.256515 112.96 
L 240.162576 112.96 
L 241.068636 112.96 
L 241.974697 112.96 
L 242.880758 112.96 
L 243.786818 112.96 
L 244.692879 112.96 
L 245.598939 112.96 
L 246.505 112.96 
L 247.411061 112.96 
L 248.317121 112.96 
L 249.223182 112.96 
L 250.129242 112.96 
L 251.035303 112.96 
L 251.941364 112.96 
L 252.847424 112.96 
L 253.753485 112.96 
L 254.659545 112.96 
L 255.565606 112.96 
L 256.471667 112.96 
L 257.377727 112.96 
L 258.283788 112.96 
L 259.189848 112.96 
L 260.095909 112.96 
L 261.00197 112.96 
L 261.90803 112.96 
L 262.814091 112.96 
L 263.720152 112.96 
L 264.626212 112.96 
L 265.532273 112.96 
L 266.438333 112.96 
L 267.344394 112.96 
L 268.250455 112.96 
L 269.156515 112.96 
L 270.062576 112.96 
L 270.968636 112.96 
L 271.874697 112.96 
L 272.780758 112.96 
L 273.686818 112.96 
L 274.592879 112.96 
L 275.498939 112.96 
L 276.405 112.96 
L 277.311061 112.96 
L 278.217121 112.96 
L 279.123182 112.96 
L 280.029242 112.96 
L 280.935303 112.96 
L 281.841364 112.96 
L 282.747424 112.96 
L 283.653485 112.96 
L 284.559545 112.96 
" clip-path="url(#pa4df5f91e5)" style="fill: none; stroke: #a9678f; stroke-width: 1.5; stroke-linecap: round"/>
   </g>
   <g id="line2d_22">
    <path d="M 178.550455 112.96 
L 179.456515 112.96 
L 180.362576 112.96 
L 181.268636 112.96 
L 182.174697 112.96 
L 183.080758 112.96 
L 183.986818 112.96 
L 184.892879 112.96 
L 185.798939 112.96 
L 186.705 112.96 
L 187.611061 112.96 
L 188.517121 112.96 
L 189.423182 112.96 
L 190.329242 112.96 
L 191.235303 112.96 
L 192.141364 112.96 
L 193.047424 112.96 
L 193.953485 112.96 
L 194.859545 112.96 
L 195.765606 112.96 
L 196.671667 112.96 
L 197.577727 112.96 
L 198.483788 112.96 
L 199.389848 112.96 
L 200.295909 112.96 
L 201.20197 112.96 
L 202.10803 112.96 
L 203.014091 112.96 
L 203.920152 112.96 
L 204.826212 112.96 
L 205.732273 112.96 
L 206.638333 112.96 
L 207.544394 112.96 
L 208.450455 112.96 
L 209.356515 112.96 
L 210.262576 112.96 
L 211.168636 112.96 
L 212.074697 112.959994 
L 212.980758 112.959233 
L 213.886818 112.923696 
L 214.792879 112.339557 
L 215.698939 109.133111 
L 216.605 104.441049 
L 217.511061 106.115803 
L 218.417121 110.975482 
L 219.323182 112.752325 
L 220.229242 112.952157 
L 221.135303 112.959893 
L 222.041364 112.959999 
L 222.947424 112.96 
L 223.853485 112.96 
L 224.759545 112.96 
L 225.665606 112.96 
L 226.571667 112.96 
L 227.477727 112.96 
L 228.383788 112.96 
L 229.289848 112.96 
L 230.195909 112.96 
L 231.10197 112.96 
L 232.00803 112.96 
L 232.914091 112.96 
L 233.820152 112.96 
L 234.726212 112.96 
L 235.632273 112.96 
L 236.538333 112.96 
L 237.444394 112.96 
L 238.350455 112.96 
L 239.256515 112.96 
L 240.162576 112.96 
L 241.068636 112.96 
L 241.974697 112.96 
L 242.880758 112.96 
L 243.786818 112.96 
L 244.692879 112.96 
L 245.598939 112.96 
L 246.505 112.96 
L 247.411061 112.96 
L 248.317121 112.96 
L 249.223182 112.96 
L 250.129242 112.96 
L 251.035303 112.96 
L 251.941364 112.96 
L 252.847424 112.96 
L 253.753485 112.96 
L 254.659545 112.96 
L 255.565606 112.96 
L 256.471667 112.96 
L 257.377727 112.96 
L 258.283788 112.96 
L 259.189848 112.96 
L 260.095909 112.96 
L 261.00197 112.96 
L 261.90803 112.96 
L 262.814091 112.96 
L 263.720152 112.96 
L 264.626212 112.96 
L 265.532273 112.96 
L 266.438333 112.96 
L 267.344394 112.96 
L 268.250455 112.96 
L 269.156515 112.96 
L 270.062576 112.96 
L 270.968636 112.96 
L 271.874697 112.96 
L 272.780758 112.96 
L 273.686818 112.96 
L 274.592879 112.96 
L 275.498939 112.96 
L 276.405 112.96 
L 277.311061 112.96 
L 278.217121 112.96 
L 279.123182 112.96 
L 280.029242 112.96 
L 280.935303 112.96 
L 281.841364 112.96 
L 282.747424 112.96 
L 283.653485 112.96 
L 284.559545 112.96 
" clip-path="url(#pa4df5f91e5)" style="fill: none; stroke: #2d1e3e; stroke-width: 1.5; stroke-linecap: round"/>
   </g>
   <g id="line2d_23">
    <path d="M 218.513478 112.96 
L 218.513478 20.4 
" clip-path="url(#pa4df5f91e5)" style="fill: none; stroke-dasharray: 5.55,2.4; stroke-dashoffset: 0; stroke: #808080; stroke-width: 1.5"/>
   </g>
   <g id="line2d_24">
    <path clip-path="url(#pa4df5f91e5)" style="fill: none; stroke-dasharray: 5.55,2.4; stroke-dashoffset: 0; stroke: #808080; stroke-width: 1.5"/>
   </g>
   <g id="patch_10">
    <path d="M 173.25 112.96 
L 173.25 20.4 
" style="fill: none; stroke: #262626; stroke-width: 1.25; stroke-linejoin: miter; stroke-linecap: square"/>
   </g>
   <g id="patch_11">
    <path d="M 289.86 112.96 
L 289.86 20.4 
" style="fill: none; stroke: #262626; stroke-width: 1.25; stroke-linejoin: miter; stroke-linecap: square"/>
   </g>
   <g id="patch_12">
    <path d="M 173.25 112.96 
L 289.86 112.96 
" style="fill: none; stroke: #262626; stroke-width: 1.25; stroke-linejoin: miter; stroke-linecap: square"/>
   </g>
   <g id="patch_13">
    <path d="M 173.25 20.4 
L 289.86 20.4 
" style="fill: none; stroke: #262626; stroke-width: 1.25; stroke-linejoin: miter; stroke-linecap: square"/>
   </g>
   <g id="text_19">
    <text style="font-size: 8px; font-family: 'Arial'; text-anchor: middle; fill: #262626" x="231.555" y="14.4" transform="rotate(-0 231.555 14.4)">Dox</text>
   </g>
  </g>
  <g id="axes_3">
   <g id="patch_14">
    <path d="M 313.75 112.96 
L 430.36 112.96 
L 430.36 20.4 
L 313.75 20.4 
z
" style="fill: #ffffff"/>
   </g>
   <g id="matplotlib.axis_5">
    <g id="xtick_7">
     <g id="line2d_25">
      <g>
       <use xlink:href="#m27254b8fed" x="319.050455" y="112.96" style="fill: #262626; stroke: #262626; stroke-width: 1.25"/>
      </g>
     </g>
     <g id="text_20">
      <text style="font-size: 8px; font-family: 'Arial'; text-anchor: middle; fill: #262626" x="319.050455" y="122.68625" transform="rotate(-0 319.050455 122.68625)">−2</text>
     </g>
    </g>
    <g id="xtick_8">
     <g id="line2d_26">
      <g>
       <use xlink:href="#m27254b8fed" x="361.454091" y="112.96" style="fill: #262626; stroke: #262626; stroke-width: 1.25"/>
      </g>
     </g>
     <g id="text_21">
      <text style="font-size: 8px; font-family: 'Arial'; text-anchor: middle; fill: #262626" x="361.454091" y="122.68625" transform="rotate(-0 361.454091 122.68625)">0</text>
     </g>
    </g>
    <g id="xtick_9">
     <g id="line2d_27">
      <g>
       <use xlink:href="#m27254b8fed" x="403.857727" y="112.96" style="fill: #262626; stroke: #262626; stroke-width: 1.25"/>
      </g>
     </g>
     <g id="text_22">
      <text style="font-size: 8px; font-family: 'Arial'; text-anchor: middle; fill: #262626" x="403.857727" y="122.68625" transform="rotate(-0 403.857727 122.68625)">2</text>
     </g>
    </g>
    <g id="text_23">
     <text style="font-size: 8px; font-family: 'Arial'; text-anchor: middle; fill: #262626" x="372.055" y="134.0025" transform="rotate(-0 372.055 134.0025)">x</text>
    </g>
   </g>
   <g id="matplotlib.axis_6">
    <g id="ytick_9">
     <g id="line2d_28">
      <g>
       <use xlink:href="#m2743935fca" x="313.75" y="112.96" style="fill: #262626; stroke: #262626; stroke-width: 1.25"/>
      </g>
     </g>
     <g id="text_24">
      <text style="font-size: 8px; font-family: 'Arial'; text-anchor: end; fill: #262626" x="309.75" y="115.823125" transform="rotate(-0 309.75 115.823125)">0.0</text>
     </g>
    </g>
    <g id="ytick_10">
     <g id="line2d_29">
      <g>
       <use xlink:href="#m2743935fca" x="313.75" y="93.69926" style="fill: #262626; stroke: #262626; stroke-width: 1.25"/>
      </g>
     </g>
     <g id="text_25">
      <text style="font-size: 8px; font-family: 'Arial'; text-anchor: end; fill: #262626" x="309.75" y="96.562385" transform="rotate(-0 309.75 96.562385)">0.5</text>
     </g>
    </g>
    <g id="ytick_11">
     <g id="line2d_30">
      <g>
       <use xlink:href="#m2743935fca" x="313.75" y="74.438521" style="fill: #262626; stroke: #262626; stroke-width: 1.25"/>
      </g>
     </g>
     <g id="text_26">
      <text style="font-size: 8px; font-family: 'Arial'; text-anchor: end; fill: #262626" x="309.75" y="77.301646" transform="rotate(-0 309.75 77.301646)">1.0</text>
     </g>
    </g>
    <g id="ytick_12">
     <g id="line2d_31">
      <g>
       <use xlink:href="#m2743935fca" x="313.75" y="55.177781" style="fill: #262626; stroke: #262626; stroke-width: 1.25"/>
      </g>
     </g>
     <g id="text_27">
      <text style="font-size: 8px; font-family: 'Arial'; text-anchor: end; fill: #262626" x="309.75" y="58.040906" transform="rotate(-0 309.75 58.040906)">1.5</text>
     </g>
    </g>
    <g id="ytick_13">
     <g id="line2d_32">
      <g>
       <use xlink:href="#m2743935fca" x="313.75" y="35.917042" style="fill: #262626; stroke: #262626; stroke-width: 1.25"/>
      </g>
     </g>
     <g id="text_28">
      <text style="font-size: 8px; font-family: 'Arial'; text-anchor: end; fill: #262626" x="309.75" y="38.780167" transform="rotate(-0 309.75 38.780167)">2.0</text>
     </g>
    </g>
   </g>
   <g id="FillBetweenPolyCollection_7"/>
   <g id="FillBetweenPolyCollection_8"/>
   <g id="FillBetweenPolyCollection_9"/>
   <g id="patch_15">
    <path d="M 352.505983 112.96 
L 352.505983 109.433905 
L 354.468891 109.433905 
L 354.468891 105.90781 
L 356.4318 105.90781 
L 356.4318 60.068571 
L 358.394708 60.068571 
L 358.394708 24.807619 
L 360.357616 24.807619 
L 360.357616 42.438095 
L 362.320525 42.438095 
L 362.320525 63.594667 
L 364.283433 63.594667 
L 364.283433 67.120762 
L 366.246341 67.120762 
L 366.246341 84.751238 
L 368.20925 84.751238 
L 368.20925 105.90781 
L 370.172158 105.90781 
L 370.172158 102.381714 
L 372.135066 102.381714 
L 372.135066 102.381714 
L 374.097974 102.381714 
L 374.097974 109.433905 
L 376.060883 109.433905 
L 376.060883 109.433905 
L 378.023791 109.433905 
L 378.023791 112.96 
L 379.986699 112.96 
L 379.986699 105.90781 
L 381.949608 105.90781 
L 381.949608 105.90781 
L 383.912516 105.90781 
L 383.912516 109.433905 
L 385.875424 109.433905 
L 385.875424 112.96 
L 387.838333 112.96 
L 387.838333 109.433905 
L 389.801241 109.433905 
L 389.801241 112.96 
L 391.764149 112.96 
L 391.764149 109.433905 
L 393.727058 109.433905 
L 393.727058 112.96 
L 395.689966 112.96 
L 395.689966 109.433905 
L 397.652874 109.433905 
L 397.652874 109.433905 
L 399.615783 109.433905 
L 399.615783 112.96 
L 401.578691 112.96 
L 401.578691 112.96 
L 403.541599 112.96 
L 403.541599 112.96 
L 405.504508 112.96 
L 405.504508 112.96 
L 407.467416 112.96 
L 407.467416 112.96 
L 409.430324 112.96 
L 409.430324 109.433905 
L 411.393233 109.433905 
L 411.393233 112.96 
L 409.430324 112.96 
L 409.430324 112.96 
L 407.467416 112.96 
L 407.467416 112.96 
L 405.504508 112.96 
L 405.504508 112.96 
L 403.541599 112.96 
L 403.541599 112.96 
L 401.578691 112.96 
L 401.578691 112.96 
L 399.615783 112.96 
L 399.615783 112.96 
L 397.652874 112.96 
L 397.652874 112.96 
L 395.689966 112.96 
L 395.689966 112.96 
L 393.727058 112.96 
L 393.727058 112.96 
L 391.764149 112.96 
L 391.764149 112.96 
L 389.801241 112.96 
L 389.801241 112.96 
L 387.838333 112.96 
L 387.838333 112.96 
L 385.875424 112.96 
L 385.875424 112.96 
L 383.912516 112.96 
L 383.912516 112.96 
L 381.949608 112.96 
L 381.949608 112.96 
L 379.986699 112.96 
L 379.986699 112.96 
L 378.023791 112.96 
L 378.023791 112.96 
L 376.060883 112.96 
L 376.060883 112.96 
L 374.097974 112.96 
L 374.097974 112.96 
L 372.135066 112.96 
L 372.135066 112.96 
L 370.172158 112.96 
L 370.172158 112.96 
L 368.20925 112.96 
L 368.20925 112.96 
L 366.246341 112.96 
L 366.246341 112.96 
L 364.283433 112.96 
L 364.283433 112.96 
L 362.320525 112.96 
L 362.320525 112.96 
L 360.357616 112.96 
L 360.357616 112.96 
L 358.394708 112.96 
L 358.394708 112.96 
L 356.4318 112.96 
L 356.4318 112.96 
L 354.468891 112.96 
L 354.468891 112.96 
z
" clip-path="url(#p5eefb28fa7)" style="fill: #cccccc; stroke: #ffffff; stroke-linejoin: miter"/>
   </g>
   <g id="line2d_33">
    <path d="M 319.050455 112.96 
L 319.956515 112.96 
L 320.862576 112.96 
L 321.768636 112.96 
L 322.674697 112.96 
L 323.580758 112.96 
L 324.486818 112.96 
L 325.392879 112.96 
L 326.298939 112.96 
L 327.205 112.96 
L 328.111061 112.96 
L 329.017121 112.96 
L 329.923182 112.96 
L 330.829242 112.96 
L 331.735303 112.96 
L 332.641364 112.96 
L 333.547424 112.96 
L 334.453485 112.96 
L 335.359545 112.96 
L 336.265606 112.96 
L 337.171667 112.96 
L 338.077727 112.96 
L 338.983788 112.96 
L 339.889848 112.96 
L 340.795909 112.96 
L 341.70197 112.96 
L 342.60803 112.96 
L 343.514091 112.959999 
L 344.420152 112.959995 
L 345.326212 112.959971 
L 346.232273 112.959835 
L 347.138333 112.959173 
L 348.044394 112.956266 
L 348.950455 112.944838 
L 349.856515 112.904656 
L 350.762576 112.778382 
L 351.668636 112.424172 
L 352.574697 111.538764 
L 353.480758 109.570926 
L 354.386818 105.69442 
L 355.292879 98.956583 
L 356.198939 88.695451 
L 357.105 75.160605 
L 358.011061 60.021464 
L 358.917121 46.304889 
L 359.823182 37.50823 
L 360.729242 36.174387 
L 361.635303 42.707024 
L 362.541364 55.173811 
L 363.447424 70.227547 
L 364.353485 84.55034 
L 365.259545 95.979569 
L 366.165606 103.835568 
L 367.071667 108.552043 
L 367.977727 111.045553 
L 368.883788 112.212478 
L 369.789848 112.697591 
L 370.695909 112.877185 
L 371.60197 112.936503 
L 372.50803 112.954006 
L 373.414091 112.958626 
L 374.320152 112.959717 
L 375.226212 112.959947 
L 376.132273 112.959991 
L 377.038333 112.959999 
L 377.944394 112.96 
L 378.850455 112.96 
L 379.756515 112.96 
L 380.662576 112.96 
L 381.568636 112.96 
L 382.474697 112.96 
L 383.380758 112.96 
L 384.286818 112.96 
L 385.192879 112.96 
L 386.098939 112.96 
L 387.005 112.96 
L 387.911061 112.96 
L 388.817121 112.96 
L 389.723182 112.96 
L 390.629242 112.96 
L 391.535303 112.96 
L 392.441364 112.96 
L 393.347424 112.96 
L 394.253485 112.96 
L 395.159545 112.96 
L 396.065606 112.96 
L 396.971667 112.96 
L 397.877727 112.96 
L 398.783788 112.96 
L 399.689848 112.96 
L 400.595909 112.96 
L 401.50197 112.96 
L 402.40803 112.96 
L 403.314091 112.96 
L 404.220152 112.96 
L 405.126212 112.96 
L 406.032273 112.96 
L 406.938333 112.96 
L 407.844394 112.96 
L 408.750455 112.96 
L 409.656515 112.96 
L 410.562576 112.96 
L 411.468636 112.96 
L 412.374697 112.96 
L 413.280758 112.96 
L 414.186818 112.96 
L 415.092879 112.96 
L 415.998939 112.96 
L 416.905 112.96 
L 417.811061 112.96 
L 418.717121 112.96 
L 419.623182 112.96 
L 420.529242 112.96 
L 421.435303 112.96 
L 422.341364 112.96 
L 423.247424 112.96 
L 424.153485 112.96 
L 425.059545 112.96 
" clip-path="url(#p5eefb28fa7)" style="fill: none; stroke: #edd1cb; stroke-width: 1.5; stroke-linecap: round"/>
   </g>
   <g id="line2d_34">
    <path d="M 319.050455 112.96 
L 319.956515 112.96 
L 320.862576 112.96 
L 321.768636 112.96 
L 322.674697 112.959999 
L 323.580758 112.959999 
L 324.486818 112.959998 
L 325.392879 112.959997 
L 326.298939 112.959996 
L 327.205 112.959994 
L 328.111061 112.959991 
L 329.017121 112.959987 
L 329.923182 112.959981 
L 330.829242 112.959972 
L 331.735303 112.959959 
L 332.641364 112.959941 
L 333.547424 112.959915 
L 334.453485 112.959878 
L 335.359545 112.959826 
L 336.265606 112.959754 
L 337.171667 112.959654 
L 338.077727 112.959517 
L 338.983788 112.95933 
L 339.889848 112.959076 
L 340.795909 112.958734 
L 341.70197 112.958276 
L 342.60803 112.957667 
L 343.514091 112.956863 
L 344.420152 112.955807 
L 345.326212 112.954431 
L 346.232273 112.95265 
L 347.138333 112.95036 
L 348.044394 112.947435 
L 348.950455 112.943725 
L 349.856515 112.93905 
L 350.762576 112.933201 
L 351.668636 112.925933 
L 352.574697 112.916963 
L 353.480758 112.905971 
L 354.386818 112.892594 
L 355.292879 112.876429 
L 356.198939 112.857035 
L 357.105 112.83393 
L 358.011061 112.806603 
L 358.917121 112.774516 
L 359.823182 112.737116 
L 360.729242 112.693845 
L 361.635303 112.644156 
L 362.541364 112.587527 
L 363.447424 112.523483 
L 364.353485 112.451617 
L 365.259545 112.371612 
L 366.165606 112.283263 
L 367.071667 112.186501 
L 367.977727 112.081416 
L 368.883788 111.968277 
L 369.789848 111.84755 
L 370.695909 111.719906 
L 371.60197 111.586237 
L 372.50803 111.447649 
L 373.414091 111.305461 
L 374.320152 111.161192 
L 375.226212 111.016538 
L 376.132273 110.873344 
L 377.038333 110.733569 
L 377.944394 110.599245 
L 378.850455 110.472425 
L 379.756515 110.355137 
L 380.662576 110.249327 
L 381.568636 110.156808 
L 382.474697 110.079207 
L 383.380758 110.017918 
L 384.286818 109.974061 
L 385.192879 109.948447 
L 386.098939 109.941552 
L 387.005 109.953506 
L 387.911061 109.984086 
L 388.817121 110.032722 
L 389.723182 110.098517 
L 390.629242 110.180276 
L 391.535303 110.276536 
L 392.441364 110.385616 
L 393.347424 110.505662 
L 394.253485 110.634701 
L 395.159545 110.770692 
L 396.065606 110.911583 
L 396.971667 111.055358 
L 397.877727 111.200084 
L 398.783788 111.343954 
L 399.689848 111.485315 
L 400.595909 111.622702 
L 401.50197 111.754851 
L 402.40803 111.880714 
L 403.314091 111.999459 
L 404.220152 112.11047 
L 405.126212 112.213336 
L 406.032273 112.307839 
L 406.938333 112.393932 
L 407.844394 112.471724 
L 408.750455 112.541452 
L 409.656515 112.603459 
L 410.562576 112.658174 
L 411.468636 112.706086 
L 412.374697 112.747724 
L 413.280758 112.78364 
L 414.186818 112.814394 
L 415.092879 112.840534 
L 415.998939 112.862592 
L 416.905 112.881073 
L 417.811061 112.896446 
L 418.717121 112.909144 
L 419.623182 112.919559 
L 420.529242 112.928041 
L 421.435303 112.934902 
L 422.341364 112.940413 
L 423.247424 112.944809 
L 424.153485 112.948292 
L 425.059545 112.951033 
" clip-path="url(#p5eefb28fa7)" style="fill: none; stroke: #a9678f; stroke-width: 1.5; stroke-linecap: round"/>
   </g>
   <g id="line2d_35">
    <path d="M 319.050455 112.96 
L 319.956515 112.96 
L 320.862576 112.96 
L 321.768636 112.96 
L 322.674697 112.96 
L 323.580758 112.96 
L 324.486818 112.96 
L 325.392879 112.96 
L 326.298939 112.96 
L 327.205 112.96 
L 328.111061 112.96 
L 329.017121 112.96 
L 329.923182 112.96 
L 330.829242 112.96 
L 331.735303 112.96 
L 332.641364 112.96 
L 333.547424 112.96 
L 334.453485 112.96 
L 335.359545 112.96 
L 336.265606 112.96 
L 337.171667 112.96 
L 338.077727 112.96 
L 338.983788 112.96 
L 339.889848 112.96 
L 340.795909 112.96 
L 341.70197 112.96 
L 342.60803 112.959999 
L 343.514091 112.959998 
L 344.420152 112.959993 
L 345.326212 112.959977 
L 346.232273 112.95993 
L 347.138333 112.959794 
L 348.044394 112.959426 
L 348.950455 112.958472 
L 349.856515 112.956129 
L 350.762576 112.950655 
L 351.668636 112.938505 
L 352.574697 112.912891 
L 353.480758 112.86163 
L 354.386818 112.764287 
L 355.292879 112.588995 
L 356.198939 112.289903 
L 357.105 111.806827 
L 358.011061 111.069178 
L 358.917121 110.006033 
L 359.823182 108.562967 
L 360.729242 106.723902 
L 361.635303 104.533153 
L 362.541364 102.110333 
L 363.447424 99.650348 
L 364.353485 97.403351 
L 365.259545 95.63535 
L 366.165606 94.57719 
L 367.071667 94.375178 
L 367.977727 95.057901 
L 368.883788 96.529585 
L 369.789848 98.592137 
L 370.695909 100.988878 
L 371.60197 103.456653 
L 372.50803 105.771846 
L 373.414091 107.779673 
L 374.320152 109.4029 
L 375.226212 110.632799 
L 376.132273 111.509322 
L 377.038333 112.098397 
L 377.944394 112.472424 
L 378.850455 112.697109 
L 379.756515 112.824945 
L 380.662576 112.893894 
L 381.568636 112.92917 
L 382.474697 112.946301 
L 383.380758 112.9542 
L 384.286818 112.95766 
L 385.192879 112.959101 
L 386.098939 112.959671 
L 387.005 112.959885 
L 387.911061 112.959962 
L 388.817121 112.959988 
L 389.723182 112.959996 
L 390.629242 112.959999 
L 391.535303 112.96 
L 392.441364 112.96 
L 393.347424 112.96 
L 394.253485 112.96 
L 395.159545 112.96 
L 396.065606 112.96 
L 396.971667 112.96 
L 397.877727 112.96 
L 398.783788 112.96 
L 399.689848 112.96 
L 400.595909 112.96 
L 401.50197 112.96 
L 402.40803 112.96 
L 403.314091 112.96 
L 404.220152 112.96 
L 405.126212 112.96 
L 406.032273 112.96 
L 406.938333 112.96 
L 407.844394 112.96 
L 408.750455 112.96 
L 409.656515 112.96 
L 410.562576 112.96 
L 411.468636 112.96 
L 412.374697 112.96 
L 413.280758 112.96 
L 414.186818 112.96 
L 415.092879 112.96 
L 415.998939 112.96 
L 416.905 112.96 
L 417.811061 112.96 
L 418.717121 112.96 
L 419.623182 112.96 
L 420.529242 112.96 
L 421.435303 112.96 
L 422.341364 112.96 
L 423.247424 112.96 
L 424.153485 112.96 
L 425.059545 112.96 
" clip-path="url(#p5eefb28fa7)" style="fill: none; stroke: #2d1e3e; stroke-width: 1.5; stroke-linecap: round"/>
   </g>
   <g id="line2d_36">
    <path d="M 366.645914 112.96 
L 366.645914 20.4 
" clip-path="url(#p5eefb28fa7)" style="fill: none; stroke-dasharray: 5.55,2.4; stroke-dashoffset: 0; stroke: #808080; stroke-width: 1.5"/>
   </g>
   <g id="line2d_37">
    <path d="M 375.456216 112.96 
L 375.456216 20.4 
" clip-path="url(#p5eefb28fa7)" style="fill: none; stroke-dasharray: 5.55,2.4; stroke-dashoffset: 0; stroke: #808080; stroke-width: 1.5"/>
   </g>
   <g id="patch_16">
    <path d="M 313.75 112.96 
L 313.75 20.4 
" style="fill: none; stroke: #262626; stroke-width: 1.25; stroke-linejoin: miter; stroke-linecap: square"/>
   </g>
   <g id="patch_17">
    <path d="M 430.36 112.96 
L 430.36 20.4 
" style="fill: none; stroke: #262626; stroke-width: 1.25; stroke-linejoin: miter; stroke-linecap: square"/>
   </g>
   <g id="patch_18">
    <path d="M 313.75 112.96 
L 430.36 112.96 
" style="fill: none; stroke: #262626; stroke-width: 1.25; stroke-linejoin: miter; stroke-linecap: square"/>
   </g>
   <g id="patch_19">
    <path d="M 313.75 20.4 
L 430.36 20.4 
" style="fill: none; stroke: #262626; stroke-width: 1.25; stroke-linejoin: miter; stroke-linecap: square"/>
   </g>
   <g id="text_29">
    <text style="font-size: 8px; font-family: 'Arial'; text-anchor: middle; fill: #262626" x="372.055" y="14.4" transform="rotate(-0 372.055 14.4)">Anidulafungin</text>
   </g>
  </g>
  <g id="axes_4">
   <g id="patch_20">
    <path d="M 454.25 112.96 
L 570.86 112.96 
L 570.86 20.4 
L 454.25 20.4 
z
" style="fill: #ffffff"/>
   </g>
   <g id="matplotlib.axis_7">
    <g id="xtick_10">
     <g id="line2d_38">
      <g>
       <use xlink:href="#m27254b8fed" x="459.550455" y="112.96" style="fill: #262626; stroke: #262626; stroke-width: 1.25"/>
      </g>
     </g>
     <g id="text_30">
      <text style="font-size: 8px; font-family: 'Arial'; text-anchor: middle; fill: #262626" x="459.550455" y="122.68625" transform="rotate(-0 459.550455 122.68625)">−2</text>
     </g>
    </g>
    <g id="xtick_11">
     <g id="line2d_39">
      <g>
       <use xlink:href="#m27254b8fed" x="501.954091" y="112.96" style="fill: #262626; stroke: #262626; stroke-width: 1.25"/>
      </g>
     </g>
     <g id="text_31">
      <text style="font-size: 8px; font-family: 'Arial'; text-anchor: middle; fill: #262626" x="501.954091" y="122.68625" transform="rotate(-0 501.954091 122.68625)">0</text>
     </g>
    </g>
    <g id="xtick_12">
     <g id="line2d_40">
      <g>
       <use xlink:href="#m27254b8fed" x="544.357727" y="112.96" style="fill: #262626; stroke: #262626; stroke-width: 1.25"/>
      </g>
     </g>
     <g id="text_32">
      <text style="font-size: 8px; font-family: 'Arial'; text-anchor: middle; fill: #262626" x="544.357727" y="122.68625" transform="rotate(-0 544.357727 122.68625)">2</text>
     </g>
    </g>
    <g id="text_33">
     <text style="font-size: 8px; font-family: 'Arial'; text-anchor: middle; fill: #262626" x="512.555" y="134.0025" transform="rotate(-0 512.555 134.0025)">x</text>
    </g>
   </g>
   <g id="matplotlib.axis_8">
    <g id="ytick_14">
     <g id="line2d_41">
      <g>
       <use xlink:href="#m2743935fca" x="454.25" y="112.96" style="fill: #262626; stroke: #262626; stroke-width: 1.25"/>
      </g>
     </g>
     <g id="text_34">
      <text style="font-size: 8px; font-family: 'Arial'; text-anchor: end; fill: #262626" x="450.25" y="115.823125" transform="rotate(-0 450.25 115.823125)">0</text>
     </g>
    </g>
    <g id="ytick_15">
     <g id="line2d_42">
      <g>
       <use xlink:href="#m2743935fca" x="454.25" y="81.052401" style="fill: #262626; stroke: #262626; stroke-width: 1.25"/>
      </g>
     </g>
     <g id="text_35">
      <text style="font-size: 8px; font-family: 'Arial'; text-anchor: end; fill: #262626" x="450.25" y="83.915526" transform="rotate(-0 450.25 83.915526)">1</text>
     </g>
    </g>
    <g id="ytick_16">
     <g id="line2d_43">
      <g>
       <use xlink:href="#m2743935fca" x="454.25" y="49.144803" style="fill: #262626; stroke: #262626; stroke-width: 1.25"/>
      </g>
     </g>
     <g id="text_36">
      <text style="font-size: 8px; font-family: 'Arial'; text-anchor: end; fill: #262626" x="450.25" y="52.007928" transform="rotate(-0 450.25 52.007928)">2</text>
     </g>
    </g>
   </g>
   <g id="FillBetweenPolyCollection_10"/>
   <g id="FillBetweenPolyCollection_11"/>
   <g id="FillBetweenPolyCollection_12"/>
   <g id="patch_21">
    <path d="M 495.705928 112.96 
L 495.705928 85.83619 
L 497.396853 85.83619 
L 497.396853 62.102857 
L 499.087779 62.102857 
L 499.087779 24.807619 
L 500.778705 24.807619 
L 500.778705 55.321905 
L 502.46963 55.321905 
L 502.46963 72.274286 
L 504.160556 72.274286 
L 504.160556 89.226667 
L 505.851482 89.226667 
L 505.851482 106.179048 
L 507.542407 106.179048 
L 507.542407 96.007619 
L 509.233333 96.007619 
L 509.233333 102.788571 
L 510.924259 102.788571 
L 510.924259 102.788571 
L 512.615184 102.788571 
L 512.615184 112.96 
L 514.30611 112.96 
L 514.30611 106.179048 
L 515.997036 106.179048 
L 515.997036 109.569524 
L 517.687962 109.569524 
L 517.687962 109.569524 
L 519.378887 109.569524 
L 519.378887 112.96 
L 521.069813 112.96 
L 521.069813 106.179048 
L 522.760739 106.179048 
L 522.760739 112.96 
L 524.451664 112.96 
L 524.451664 96.007619 
L 526.14259 96.007619 
L 526.14259 109.569524 
L 527.833516 109.569524 
L 527.833516 109.569524 
L 529.524441 109.569524 
L 529.524441 109.569524 
L 531.215367 109.569524 
L 531.215367 109.569524 
L 532.906293 109.569524 
L 532.906293 109.569524 
L 534.597218 109.569524 
L 534.597218 109.569524 
L 536.288144 109.569524 
L 536.288144 112.96 
L 537.97907 112.96 
L 537.97907 112.96 
L 539.669995 112.96 
L 539.669995 106.179048 
L 541.360921 106.179048 
L 541.360921 112.96 
L 543.051847 112.96 
L 543.051847 112.96 
L 544.742772 112.96 
L 544.742772 109.569524 
L 546.433698 109.569524 
L 546.433698 112.96 
L 544.742772 112.96 
L 544.742772 112.96 
L 543.051847 112.96 
L 543.051847 112.96 
L 541.360921 112.96 
L 541.360921 112.96 
L 539.669995 112.96 
L 539.669995 112.96 
L 537.97907 112.96 
L 537.97907 112.96 
L 536.288144 112.96 
L 536.288144 112.96 
L 534.597218 112.96 
L 534.597218 112.96 
L 532.906293 112.96 
L 532.906293 112.96 
L 531.215367 112.96 
L 531.215367 112.96 
L 529.524441 112.96 
L 529.524441 112.96 
L 527.833516 112.96 
L 527.833516 112.96 
L 526.14259 112.96 
L 526.14259 112.96 
L 524.451664 112.96 
L 524.451664 112.96 
L 522.760739 112.96 
L 522.760739 112.96 
L 521.069813 112.96 
L 521.069813 112.96 
L 519.378887 112.96 
L 519.378887 112.96 
L 517.687962 112.96 
L 517.687962 112.96 
L 515.997036 112.96 
L 515.997036 112.96 
L 514.30611 112.96 
L 514.30611 112.96 
L 512.615184 112.96 
L 512.615184 112.96 
L 510.924259 112.96 
L 510.924259 112.96 
L 509.233333 112.96 
L 509.233333 112.96 
L 507.542407 112.96 
L 507.542407 112.96 
L 505.851482 112.96 
L 505.851482 112.96 
L 504.160556 112.96 
L 504.160556 112.96 
L 502.46963 112.96 
L 502.46963 112.96 
L 500.778705 112.96 
L 500.778705 112.96 
L 499.087779 112.96 
L 499.087779 112.96 
L 497.396853 112.96 
L 497.396853 112.96 
z
" clip-path="url(#p9de4814295)" style="fill: #cccccc; stroke: #ffffff; stroke-linejoin: miter"/>
   </g>
   <g id="line2d_44">
    <path d="M 459.550455 112.96 
L 460.456515 112.96 
L 461.362576 112.96 
L 462.268636 112.96 
L 463.174697 112.96 
L 464.080758 112.96 
L 464.986818 112.96 
L 465.892879 112.96 
L 466.798939 112.96 
L 467.705 112.96 
L 468.611061 112.96 
L 469.517121 112.96 
L 470.423182 112.96 
L 471.329242 112.96 
L 472.235303 112.96 
L 473.141364 112.96 
L 474.047424 112.96 
L 474.953485 112.96 
L 475.859545 112.96 
L 476.765606 112.96 
L 477.671667 112.96 
L 478.577727 112.96 
L 479.483788 112.96 
L 480.389848 112.96 
L 481.295909 112.96 
L 482.20197 112.96 
L 483.10803 112.96 
L 484.014091 112.96 
L 484.920152 112.96 
L 485.826212 112.96 
L 486.732273 112.96 
L 487.638333 112.959994 
L 488.544394 112.959945 
L 489.450455 112.959546 
L 490.356515 112.956837 
L 491.262576 112.941401 
L 492.168636 112.867694 
L 493.074697 112.573419 
L 493.980758 111.593746 
L 494.886818 108.885258 
L 495.792879 102.704747 
L 496.698939 91.17937 
L 497.605 73.923374 
L 498.511061 53.919246 
L 499.417121 37.605483 
L 500.323182 31.799545 
L 501.229242 39.193797 
L 502.135303 56.381925 
L 503.041364 76.340139 
L 503.947424 92.958481 
L 504.853485 103.740931 
L 505.759545 109.374176 
L 506.665606 111.783021 
L 507.571667 112.633994 
L 508.477727 112.883799 
L 509.383788 112.944969 
L 510.289848 112.957498 
L 511.195909 112.959649 
L 512.10197 112.959958 
L 513.00803 112.959996 
L 513.914091 112.96 
L 514.820152 112.96 
L 515.726212 112.96 
L 516.632273 112.96 
L 517.538333 112.96 
L 518.444394 112.96 
L 519.350455 112.96 
L 520.256515 112.96 
L 521.162576 112.96 
L 522.068636 112.96 
L 522.974697 112.96 
L 523.880758 112.96 
L 524.786818 112.96 
L 525.692879 112.96 
L 526.598939 112.96 
L 527.505 112.96 
L 528.411061 112.96 
L 529.317121 112.96 
L 530.223182 112.96 
L 531.129242 112.96 
L 532.035303 112.96 
L 532.941364 112.96 
L 533.847424 112.96 
L 534.753485 112.96 
L 535.659545 112.96 
L 536.565606 112.96 
L 537.471667 112.96 
L 538.377727 112.96 
L 539.283788 112.96 
L 540.189848 112.96 
L 541.095909 112.96 
L 542.00197 112.96 
L 542.90803 112.96 
L 543.814091 112.96 
L 544.720152 112.96 
L 545.626212 112.96 
L 546.532273 112.96 
L 547.438333 112.96 
L 548.344394 112.96 
L 549.250455 112.96 
L 550.156515 112.96 
L 551.062576 112.96 
L 551.968636 112.96 
L 552.874697 112.96 
L 553.780758 112.96 
L 554.686818 112.96 
L 555.592879 112.96 
L 556.498939 112.96 
L 557.405 112.96 
L 558.311061 112.96 
L 559.217121 112.96 
L 560.123182 112.96 
L 561.029242 112.96 
L 561.935303 112.96 
L 562.841364 112.96 
L 563.747424 112.96 
L 564.653485 112.96 
L 565.559545 112.96 
" clip-path="url(#p9de4814295)" style="fill: none; stroke: #edd1cb; stroke-width: 1.5; stroke-linecap: round"/>
   </g>
   <g id="line2d_45">
    <path d="M 459.550455 112.96 
L 460.456515 112.96 
L 461.362576 112.96 
L 462.268636 112.96 
L 463.174697 112.96 
L 464.080758 112.96 
L 464.986818 112.96 
L 465.892879 112.96 
L 466.798939 112.96 
L 467.705 112.96 
L 468.611061 112.96 
L 469.517121 112.96 
L 470.423182 112.96 
L 471.329242 112.96 
L 472.235303 112.96 
L 473.141364 112.96 
L 474.047424 112.96 
L 474.953485 112.96 
L 475.859545 112.959999 
L 476.765606 112.959999 
L 477.671667 112.959998 
L 478.577727 112.959997 
L 479.483788 112.959995 
L 480.389848 112.959992 
L 481.295909 112.959987 
L 482.20197 112.959978 
L 483.10803 112.959964 
L 484.014091 112.959942 
L 484.920152 112.959907 
L 485.826212 112.959851 
L 486.732273 112.959765 
L 487.638333 112.959634 
L 488.544394 112.959434 
L 489.450455 112.959134 
L 490.356515 112.958689 
L 491.262576 112.958034 
L 492.168636 112.957083 
L 493.074697 112.955714 
L 493.980758 112.953767 
L 494.886818 112.951028 
L 495.792879 112.947215 
L 496.698939 112.941966 
L 497.605 112.934818 
L 498.511061 112.925192 
L 499.417121 112.912374 
L 500.323182 112.895494 
L 501.229242 112.873513 
L 502.135303 112.845213 
L 503.041364 112.809193 
L 503.947424 112.763871 
L 504.853485 112.707506 
L 505.759545 112.638227 
L 506.665606 112.554082 
L 507.571667 112.453106 
L 508.477727 112.333407 
L 509.383788 112.193267 
L 510.289848 112.031264 
L 511.195909 111.846397 
L 512.10197 111.638222 
L 513.00803 111.406982 
L 513.914091 111.153723 
L 514.820152 110.880389 
L 515.726212 110.589883 
L 516.632273 110.286087 
L 517.538333 109.973829 
L 518.444394 109.6588 
L 519.350455 109.347408 
L 520.256515 109.046585 
L 521.162576 108.763543 
L 522.068636 108.505495 
L 522.974697 108.279351 
L 523.880758 108.091418 
L 524.786818 107.947102 
L 525.692879 107.850657 
L 526.598939 107.804971 
L 527.505 107.811424 
L 528.411061 107.869822 
L 529.317121 107.978402 
L 530.223182 108.133923 
L 531.129242 108.331826 
L 532.035303 108.566456 
L 532.941364 108.83133 
L 533.847424 109.119434 
L 534.753485 109.423528 
L 535.659545 109.736446 
L 536.565606 110.051362 
L 537.471667 110.362029 
L 538.377727 110.662959 
L 539.283788 110.949551 
L 540.189848 111.218164 
L 541.095909 111.466135 
L 542.00197 111.691749 
L 542.90803 111.894167 
L 543.814091 112.073329 
L 544.720152 112.229826 
L 545.626212 112.364777 
L 546.532273 112.479689 
L 547.438333 112.576332 
L 548.344394 112.656625 
L 549.250455 112.722539 
L 550.156515 112.77601 
L 551.062576 112.81888 
L 551.968636 112.852855 
L 552.874697 112.879473 
L 553.780758 112.900089 
L 554.686818 112.915878 
L 555.592879 112.927834 
L 556.498939 112.936787 
L 557.405 112.943417 
L 558.311061 112.948274 
L 559.217121 112.951791 
L 560.123182 112.954312 
L 561.029242 112.956098 
L 561.935303 112.957351 
L 562.841364 112.958219 
L 563.747424 112.958815 
L 564.653485 112.95922 
L 565.559545 112.959491 
" clip-path="url(#p9de4814295)" style="fill: none; stroke: #a9678f; stroke-width: 1.5; stroke-linecap: round"/>
   </g>
   <g id="line2d_46">
    <path d="M 459.550455 112.96 
L 460.456515 112.96 
L 461.362576 112.96 
L 462.268636 112.96 
L 463.174697 112.96 
L 464.080758 112.96 
L 464.986818 112.96 
L 465.892879 112.96 
L 466.798939 112.96 
L 467.705 112.96 
L 468.611061 112.96 
L 469.517121 112.96 
L 470.423182 112.96 
L 471.329242 112.96 
L 472.235303 112.96 
L 473.141364 112.96 
L 474.047424 112.96 
L 474.953485 112.96 
L 475.859545 112.96 
L 476.765606 112.96 
L 477.671667 112.96 
L 478.577727 112.96 
L 479.483788 112.96 
L 480.389848 112.96 
L 481.295909 112.96 
L 482.20197 112.96 
L 483.10803 112.96 
L 484.014091 112.96 
L 484.920152 112.96 
L 485.826212 112.96 
L 486.732273 112.96 
L 487.638333 112.959999 
L 488.544394 112.959994 
L 489.450455 112.959977 
L 490.356515 112.959918 
L 491.262576 112.959723 
L 492.168636 112.959124 
L 493.074697 112.957401 
L 493.980758 112.952778 
L 494.886818 112.941204 
L 495.792879 112.914185 
L 496.698939 112.855404 
L 497.605 112.736341 
L 498.511061 112.512059 
L 499.417121 112.119732 
L 500.323182 111.483689 
L 501.229242 110.530587 
L 502.135303 109.215549 
L 503.041364 107.55447 
L 503.947424 105.651107 
L 504.853485 103.703896 
L 505.759545 101.980865 
L 506.665606 100.762487 
L 507.571667 100.267777 
L 508.477727 100.590066 
L 509.383788 101.668273 
L 510.289848 103.305793 
L 511.195909 105.228992 
L 512.10197 107.161457 
L 513.00803 108.886526 
L 513.914091 110.279757 
L 514.820152 111.308241 
L 515.726212 112.006584 
L 516.632273 112.444556 
L 517.538333 112.698998 
L 518.444394 112.836214 
L 519.350455 112.905013 
L 520.256515 112.937122 
L 521.162576 112.951085 
L 522.068636 112.956746 
L 522.974697 112.958888 
L 523.880758 112.959644 
L 524.786818 112.959893 
L 525.692879 112.95997 
L 526.598939 112.959992 
L 527.505 112.959998 
L 528.411061 112.96 
L 529.317121 112.96 
L 530.223182 112.96 
L 531.129242 112.96 
L 532.035303 112.96 
L 532.941364 112.96 
L 533.847424 112.96 
L 534.753485 112.96 
L 535.659545 112.96 
L 536.565606 112.96 
L 537.471667 112.96 
L 538.377727 112.96 
L 539.283788 112.96 
L 540.189848 112.96 
L 541.095909 112.96 
L 542.00197 112.96 
L 542.90803 112.96 
L 543.814091 112.96 
L 544.720152 112.96 
L 545.626212 112.96 
L 546.532273 112.96 
L 547.438333 112.96 
L 548.344394 112.96 
L 549.250455 112.96 
L 550.156515 112.96 
L 551.062576 112.96 
L 551.968636 112.96 
L 552.874697 112.96 
L 553.780758 112.96 
L 554.686818 112.96 
L 555.592879 112.96 
L 556.498939 112.96 
L 557.405 112.96 
L 558.311061 112.96 
L 559.217121 112.96 
L 560.123182 112.96 
L 561.029242 112.96 
L 561.935303 112.96 
L 562.841364 112.96 
L 563.747424 112.96 
L 564.653485 112.96 
L 565.559545 112.96 
" clip-path="url(#p9de4814295)" style="fill: none; stroke: #2d1e3e; stroke-width: 1.5; stroke-linecap: round"/>
   </g>
   <g id="line2d_47">
    <path d="M 505.563321 112.96 
L 505.563321 20.4 
" clip-path="url(#p9de4814295)" style="fill: none; stroke-dasharray: 5.55,2.4; stroke-dashoffset: 0; stroke: #808080; stroke-width: 1.5"/>
   </g>
   <g id="line2d_48">
    <path d="M 514.201057 112.96 
L 514.201057 20.4 
" clip-path="url(#p9de4814295)" style="fill: none; stroke-dasharray: 5.55,2.4; stroke-dashoffset: 0; stroke: #808080; stroke-width: 1.5"/>
   </g>
   <g id="patch_22">
    <path d="M 454.25 112.96 
L 454.25 20.4 
" style="fill: none; stroke: #262626; stroke-width: 1.25; stroke-linejoin: miter; stroke-linecap: square"/>
   </g>
   <g id="patch_23">
    <path d="M 570.86 112.96 
L 570.86 20.4 
" style="fill: none; stroke: #262626; stroke-width: 1.25; stroke-linejoin: miter; stroke-linecap: square"/>
   </g>
   <g id="patch_24">
    <path d="M 454.25 112.96 
L 570.86 112.96 
" style="fill: none; stroke: #262626; stroke-width: 1.25; stroke-linejoin: miter; stroke-linecap: square"/>
   </g>
   <g id="patch_25">
    <path d="M 454.25 20.4 
L 570.86 20.4 
" style="fill: none; stroke: #262626; stroke-width: 1.25; stroke-linejoin: miter; stroke-linecap: square"/>
   </g>
   <g id="text_37">
    <text style="font-size: 8px; font-family: 'Arial'; text-anchor: middle; fill: #262626" x="512.555" y="14.4" transform="rotate(-0 512.555 14.4)">Caspofungin</text>
   </g>
  </g>
  <g id="axes_5">
   <g id="patch_26">
    <path d="M 594.75 112.96 
L 711.36 112.96 
L 711.36 20.4 
L 594.75 20.4 
z
" style="fill: #ffffff"/>
   </g>
   <g id="matplotlib.axis_9">
    <g id="xtick_13">
     <g id="line2d_49">
      <g>
       <use xlink:href="#m27254b8fed" x="600.050455" y="112.96" style="fill: #262626; stroke: #262626; stroke-width: 1.25"/>
      </g>
     </g>
     <g id="text_38">
      <text style="font-size: 8px; font-family: 'Arial'; text-anchor: middle; fill: #262626" x="600.050455" y="122.68625" transform="rotate(-0 600.050455 122.68625)">−2</text>
     </g>
    </g>
    <g id="xtick_14">
     <g id="line2d_50">
      <g>
       <use xlink:href="#m27254b8fed" x="642.454091" y="112.96" style="fill: #262626; stroke: #262626; stroke-width: 1.25"/>
      </g>
     </g>
     <g id="text_39">
      <text style="font-size: 8px; font-family: 'Arial'; text-anchor: middle; fill: #262626" x="642.454091" y="122.68625" transform="rotate(-0 642.454091 122.68625)">0</text>
     </g>
    </g>
    <g id="xtick_15">
     <g id="line2d_51">
      <g>
       <use xlink:href="#m27254b8fed" x="684.857727" y="112.96" style="fill: #262626; stroke: #262626; stroke-width: 1.25"/>
      </g>
     </g>
     <g id="text_40">
      <text style="font-size: 8px; font-family: 'Arial'; text-anchor: middle; fill: #262626" x="684.857727" y="122.68625" transform="rotate(-0 684.857727 122.68625)">2</text>
     </g>
    </g>
    <g id="text_41">
     <text style="font-size: 8px; font-family: 'Arial'; text-anchor: middle; fill: #262626" x="653.055" y="134.0025" transform="rotate(-0 653.055 134.0025)">x</text>
    </g>
   </g>
   <g id="matplotlib.axis_10">
    <g id="ytick_17">
     <g id="line2d_52">
      <g>
       <use xlink:href="#m2743935fca" x="594.75" y="112.96" style="fill: #262626; stroke: #262626; stroke-width: 1.25"/>
      </g>
     </g>
     <g id="text_42">
      <text style="font-size: 8px; font-family: 'Arial'; text-anchor: end; fill: #262626" x="590.75" y="115.823125" transform="rotate(-0 590.75 115.823125)">0.0</text>
     </g>
    </g>
    <g id="ytick_18">
     <g id="line2d_53">
      <g>
       <use xlink:href="#m2743935fca" x="594.75" y="92.274891" style="fill: #262626; stroke: #262626; stroke-width: 1.25"/>
      </g>
     </g>
     <g id="text_43">
      <text style="font-size: 8px; font-family: 'Arial'; text-anchor: end; fill: #262626" x="590.75" y="95.138016" transform="rotate(-0 590.75 95.138016)">0.5</text>
     </g>
    </g>
    <g id="ytick_19">
     <g id="line2d_54">
      <g>
       <use xlink:href="#m2743935fca" x="594.75" y="71.589781" style="fill: #262626; stroke: #262626; stroke-width: 1.25"/>
      </g>
     </g>
     <g id="text_44">
      <text style="font-size: 8px; font-family: 'Arial'; text-anchor: end; fill: #262626" x="590.75" y="74.452906" transform="rotate(-0 590.75 74.452906)">1.0</text>
     </g>
    </g>
    <g id="ytick_20">
     <g id="line2d_55">
      <g>
       <use xlink:href="#m2743935fca" x="594.75" y="50.904672" style="fill: #262626; stroke: #262626; stroke-width: 1.25"/>
      </g>
     </g>
     <g id="text_45">
      <text style="font-size: 8px; font-family: 'Arial'; text-anchor: end; fill: #262626" x="590.75" y="53.767797" transform="rotate(-0 590.75 53.767797)">1.5</text>
     </g>
    </g>
    <g id="ytick_21">
     <g id="line2d_56">
      <g>
       <use xlink:href="#m2743935fca" x="594.75" y="30.219562" style="fill: #262626; stroke: #262626; stroke-width: 1.25"/>
      </g>
     </g>
     <g id="text_46">
      <text style="font-size: 8px; font-family: 'Arial'; text-anchor: end; fill: #262626" x="590.75" y="33.082687" transform="rotate(-0 590.75 33.082687)">2.0</text>
     </g>
    </g>
   </g>
   <g id="FillBetweenPolyCollection_13"/>
   <g id="FillBetweenPolyCollection_14"/>
   <g id="FillBetweenPolyCollection_15"/>
   <g id="patch_27">
    <path d="M 631.456236 112.96 
L 631.456236 100.939221 
L 633.311337 100.939221 
L 633.311337 104.946147 
L 635.166438 104.946147 
L 635.166438 80.904589 
L 637.021539 80.904589 
L 637.021539 24.807619 
L 638.87664 24.807619 
L 638.87664 36.828398 
L 640.731741 36.828398 
L 640.731741 64.876883 
L 642.586842 64.876883 
L 642.586842 72.890736 
L 644.441943 72.890736 
L 644.441943 92.925368 
L 646.297044 92.925368 
L 646.297044 88.918442 
L 648.152145 88.918442 
L 648.152145 108.953074 
L 650.007246 108.953074 
L 650.007246 96.932294 
L 651.862347 96.932294 
L 651.862347 100.939221 
L 653.717448 100.939221 
L 653.717448 104.946147 
L 655.572549 104.946147 
L 655.572549 112.96 
L 657.42765 112.96 
L 657.42765 112.96 
L 659.282751 112.96 
L 659.282751 112.96 
L 661.137852 112.96 
L 661.137852 108.953074 
L 662.992953 108.953074 
L 662.992953 104.946147 
L 664.848054 104.946147 
L 664.848054 112.96 
L 666.703155 112.96 
L 666.703155 104.946147 
L 668.558256 104.946147 
L 668.558256 100.939221 
L 670.413357 100.939221 
L 670.413357 108.953074 
L 672.268458 108.953074 
L 672.268458 96.932294 
L 674.123559 96.932294 
L 674.123559 100.939221 
L 675.97866 100.939221 
L 675.97866 108.953074 
L 677.83376 108.953074 
L 677.83376 112.96 
L 679.688861 112.96 
L 679.688861 108.953074 
L 681.543962 108.953074 
L 681.543962 108.953074 
L 683.399063 108.953074 
L 683.399063 112.96 
L 685.254164 112.96 
L 685.254164 104.946147 
L 687.109265 104.946147 
L 687.109265 112.96 
L 685.254164 112.96 
L 685.254164 112.96 
L 683.399063 112.96 
L 683.399063 112.96 
L 681.543962 112.96 
L 681.543962 112.96 
L 679.688861 112.96 
L 679.688861 112.96 
L 677.83376 112.96 
L 677.83376 112.96 
L 675.97866 112.96 
L 675.97866 112.96 
L 674.123559 112.96 
L 674.123559 112.96 
L 672.268458 112.96 
L 672.268458 112.96 
L 670.413357 112.96 
L 670.413357 112.96 
L 668.558256 112.96 
L 668.558256 112.96 
L 666.703155 112.96 
L 666.703155 112.96 
L 664.848054 112.96 
L 664.848054 112.96 
L 662.992953 112.96 
L 662.992953 112.96 
L 661.137852 112.96 
L 661.137852 112.96 
L 659.282751 112.96 
L 659.282751 112.96 
L 657.42765 112.96 
L 657.42765 112.96 
L 655.572549 112.96 
L 655.572549 112.96 
L 653.717448 112.96 
L 653.717448 112.96 
L 651.862347 112.96 
L 651.862347 112.96 
L 650.007246 112.96 
L 650.007246 112.96 
L 648.152145 112.96 
L 648.152145 112.96 
L 646.297044 112.96 
L 646.297044 112.96 
L 644.441943 112.96 
L 644.441943 112.96 
L 642.586842 112.96 
L 642.586842 112.96 
L 640.731741 112.96 
L 640.731741 112.96 
L 638.87664 112.96 
L 638.87664 112.96 
L 637.021539 112.96 
L 637.021539 112.96 
L 635.166438 112.96 
L 635.166438 112.96 
L 633.311337 112.96 
L 633.311337 112.96 
z
" clip-path="url(#p6f248d2627)" style="fill: #cccccc; stroke: #ffffff; stroke-linejoin: miter"/>
   </g>
   <g id="line2d_57">
    <path d="M 600.050455 112.96 
L 600.956515 112.96 
L 601.862576 112.96 
L 602.768636 112.96 
L 603.674697 112.96 
L 604.580758 112.96 
L 605.486818 112.96 
L 606.392879 112.96 
L 607.298939 112.96 
L 608.205 112.96 
L 609.111061 112.96 
L 610.017121 112.96 
L 610.923182 112.96 
L 611.829242 112.96 
L 612.735303 112.96 
L 613.641364 112.96 
L 614.547424 112.96 
L 615.453485 112.96 
L 616.359545 112.96 
L 617.265606 112.96 
L 618.171667 112.96 
L 619.077727 112.96 
L 619.983788 112.96 
L 620.889848 112.96 
L 621.795909 112.959999 
L 622.70197 112.959993 
L 623.60803 112.959963 
L 624.514091 112.959814 
L 625.420152 112.95914 
L 626.326212 112.956394 
L 627.232273 112.946269 
L 628.138333 112.912508 
L 629.044394 112.810787 
L 629.950455 112.53414 
L 630.856515 111.855923 
L 631.762576 110.359801 
L 632.668636 107.397273 
L 633.574697 102.149572 
L 634.480758 93.875884 
L 635.386818 82.356207 
L 636.292879 68.378725 
L 637.198939 53.966558 
L 638.105 42.046486 
L 639.011061 35.526604 
L 639.917121 36.152854 
L 640.823182 43.753167 
L 641.729242 56.313857 
L 642.635303 70.842194 
L 643.541364 84.513086 
L 644.447424 95.506658 
L 645.353485 103.232616 
L 646.259545 108.035212 
L 647.165606 110.695079 
L 648.071667 112.013779 
L 648.977727 112.600908 
L 649.883788 112.836208 
L 650.789848 112.921234 
L 651.695909 112.948972 
L 652.60197 112.95715 
L 653.50803 112.959331 
L 654.414091 112.959857 
L 655.320152 112.959972 
L 656.226212 112.959995 
L 657.132273 112.959999 
L 658.038333 112.96 
L 658.944394 112.96 
L 659.850455 112.96 
L 660.756515 112.96 
L 661.662576 112.96 
L 662.568636 112.96 
L 663.474697 112.96 
L 664.380758 112.96 
L 665.286818 112.96 
L 666.192879 112.96 
L 667.098939 112.96 
L 668.005 112.96 
L 668.911061 112.96 
L 669.817121 112.96 
L 670.723182 112.96 
L 671.629242 112.96 
L 672.535303 112.96 
L 673.441364 112.96 
L 674.347424 112.96 
L 675.253485 112.96 
L 676.159545 112.96 
L 677.065606 112.96 
L 677.971667 112.96 
L 678.877727 112.96 
L 679.783788 112.96 
L 680.689848 112.96 
L 681.595909 112.96 
L 682.50197 112.96 
L 683.40803 112.96 
L 684.314091 112.96 
L 685.220152 112.96 
L 686.126212 112.96 
L 687.032273 112.96 
L 687.938333 112.96 
L 688.844394 112.96 
L 689.750455 112.96 
L 690.656515 112.96 
L 691.562576 112.96 
L 692.468636 112.96 
L 693.374697 112.96 
L 694.280758 112.96 
L 695.186818 112.96 
L 696.092879 112.96 
L 696.998939 112.96 
L 697.905 112.96 
L 698.811061 112.96 
L 699.717121 112.96 
L 700.623182 112.96 
L 701.529242 112.96 
L 702.435303 112.96 
L 703.341364 112.96 
L 704.247424 112.96 
L 705.153485 112.96 
L 706.059545 112.96 
" clip-path="url(#p6f248d2627)" style="fill: none; stroke: #edd1cb; stroke-width: 1.5; stroke-linecap: round"/>
   </g>
   <g id="line2d_58">
    <path d="M 600.050455 112.96 
L 600.956515 112.96 
L 601.862576 112.96 
L 602.768636 112.96 
L 603.674697 112.96 
L 604.580758 112.96 
L 605.486818 112.96 
L 606.392879 112.96 
L 607.298939 112.96 
L 608.205 112.96 
L 609.111061 112.96 
L 610.017121 112.96 
L 610.923182 112.96 
L 611.829242 112.96 
L 612.735303 112.96 
L 613.641364 112.96 
L 614.547424 112.96 
L 615.453485 112.96 
L 616.359545 112.96 
L 617.265606 112.96 
L 618.171667 112.96 
L 619.077727 112.96 
L 619.983788 112.96 
L 620.889848 112.96 
L 621.795909 112.96 
L 622.70197 112.96 
L 623.60803 112.96 
L 624.514091 112.96 
L 625.420152 112.96 
L 626.326212 112.96 
L 627.232273 112.96 
L 628.138333 112.96 
L 629.044394 112.96 
L 629.950455 112.96 
L 630.856515 112.96 
L 631.762576 112.96 
L 632.668636 112.96 
L 633.574697 112.959999 
L 634.480758 112.959999 
L 635.386818 112.959998 
L 636.292879 112.959995 
L 637.198939 112.95999 
L 638.105 112.95998 
L 639.011061 112.95996 
L 639.917121 112.959924 
L 640.823182 112.959857 
L 641.729242 112.959736 
L 642.635303 112.959519 
L 643.541364 112.95914 
L 644.447424 112.958491 
L 645.353485 112.957396 
L 646.259545 112.955586 
L 647.165606 112.952648 
L 648.071667 112.947969 
L 648.977727 112.940656 
L 649.883788 112.929442 
L 650.789848 112.91257 
L 651.695909 112.887668 
L 652.60197 112.851619 
L 653.50803 112.800441 
L 654.414091 112.729199 
L 655.320152 112.63198 
L 656.226212 112.501955 
L 657.132273 112.331563 
L 658.038333 112.112846 
L 658.944394 111.83796 
L 659.850455 111.499839 
L 660.756515 111.093022 
L 661.662576 110.614563 
L 662.568636 110.064961 
L 663.474697 109.448997 
L 664.380758 108.776361 
L 665.286818 108.06195 
L 666.192879 107.325721 
L 667.098939 106.592051 
L 668.005 105.888575 
L 668.911061 105.244564 
L 669.817121 104.688962 
L 670.723182 104.248243 
L 671.629242 103.944339 
L 672.535303 103.792826 
L 673.441364 103.801602 
L 674.347424 103.970207 
L 675.253485 104.289863 
L 676.159545 104.744229 
L 677.065606 105.310786 
L 677.971667 105.962685 
L 678.877727 106.670847 
L 679.783788 107.406088 
L 680.689848 108.141056 
L 681.595909 108.851806 
L 682.50197 109.518909 
L 683.40803 110.128038 
L 684.314091 110.670056 
L 685.220152 111.140683 
L 686.126212 111.539838 
L 687.032273 111.870785 
L 687.938333 112.139204 
L 688.844394 112.35228 
L 689.750455 112.517903 
L 690.656515 112.644007 
L 691.562576 112.738086 
L 692.468636 112.806878 
L 693.374697 112.856191 
L 694.280758 112.890852 
L 695.186818 112.914745 
L 696.092879 112.930899 
L 696.998939 112.941614 
L 697.905 112.948586 
L 698.811061 112.953039 
L 699.717121 112.955828 
L 700.623182 112.957544 
L 701.529242 112.958579 
L 702.435303 112.959192 
L 703.341364 112.959549 
L 704.247424 112.959752 
L 705.153485 112.959867 
L 706.059545 112.959929 
" clip-path="url(#p6f248d2627)" style="fill: none; stroke: #a9678f; stroke-width: 1.5; stroke-linecap: round"/>
   </g>
   <g id="line2d_59">
    <path d="M 600.050455 112.96 
L 600.956515 112.96 
L 601.862576 112.96 
L 602.768636 112.96 
L 603.674697 112.96 
L 604.580758 112.96 
L 605.486818 112.96 
L 606.392879 112.96 
L 607.298939 112.96 
L 608.205 112.96 
L 609.111061 112.96 
L 610.017121 112.96 
L 610.923182 112.96 
L 611.829242 112.96 
L 612.735303 112.96 
L 613.641364 112.96 
L 614.547424 112.96 
L 615.453485 112.96 
L 616.359545 112.96 
L 617.265606 112.96 
L 618.171667 112.96 
L 619.077727 112.96 
L 619.983788 112.96 
L 620.889848 112.96 
L 621.795909 112.96 
L 622.70197 112.96 
L 623.60803 112.96 
L 624.514091 112.96 
L 625.420152 112.96 
L 626.326212 112.96 
L 627.232273 112.96 
L 628.138333 112.959998 
L 629.044394 112.959993 
L 629.950455 112.959973 
L 630.856515 112.959906 
L 631.762576 112.959693 
L 632.668636 112.959057 
L 633.574697 112.957274 
L 634.480758 112.952585 
L 635.386818 112.941032 
L 636.292879 112.914357 
L 637.198939 112.856691 
L 638.105 112.740052 
L 639.011061 112.519529 
L 639.917121 112.130285 
L 640.823182 111.489869 
L 641.729242 110.509814 
L 642.635303 109.118885 
L 643.541364 107.295899 
L 644.447424 105.103661 
L 645.353485 102.709976 
L 646.259545 100.381032 
L 647.165606 98.439532 
L 648.071667 97.193632 
L 648.977727 96.857319 
L 649.883788 97.490362 
L 650.789848 98.980952 
L 651.695909 101.077974 
L 652.60197 103.460104 
L 653.50803 105.815651 
L 654.414091 107.906154 
L 655.320152 109.597233 
L 656.226212 110.855316 
L 657.132273 111.720939 
L 658.038333 112.273858 
L 658.944394 112.602603 
L 659.850455 112.784893 
L 660.756515 112.879301 
L 661.662576 112.925017 
L 662.568636 112.945736 
L 663.474697 112.954529 
L 664.380758 112.958026 
L 665.286818 112.95933 
L 666.192879 112.959786 
L 667.098939 112.959936 
L 668.005 112.959982 
L 668.911061 112.959995 
L 669.817121 112.959999 
L 670.723182 112.96 
L 671.629242 112.96 
L 672.535303 112.96 
L 673.441364 112.96 
L 674.347424 112.96 
L 675.253485 112.96 
L 676.159545 112.96 
L 677.065606 112.96 
L 677.971667 112.96 
L 678.877727 112.96 
L 679.783788 112.96 
L 680.689848 112.96 
L 681.595909 112.96 
L 682.50197 112.96 
L 683.40803 112.96 
L 684.314091 112.96 
L 685.220152 112.96 
L 686.126212 112.96 
L 687.032273 112.96 
L 687.938333 112.96 
L 688.844394 112.96 
L 689.750455 112.96 
L 690.656515 112.96 
L 691.562576 112.96 
L 692.468636 112.96 
L 693.374697 112.96 
L 694.280758 112.96 
L 695.186818 112.96 
L 696.092879 112.96 
L 696.998939 112.96 
L 697.905 112.96 
L 698.811061 112.96 
L 699.717121 112.96 
L 700.623182 112.96 
L 701.529242 112.96 
L 702.435303 112.96 
L 703.341364 112.96 
L 704.247424 112.96 
L 705.153485 112.96 
L 706.059545 112.96 
" clip-path="url(#p6f248d2627)" style="fill: none; stroke: #2d1e3e; stroke-width: 1.5; stroke-linecap: round"/>
   </g>
   <g id="line2d_60">
    <path d="M 646.67287 112.96 
L 646.67287 20.4 
" clip-path="url(#p6f248d2627)" style="fill: none; stroke-dasharray: 5.55,2.4; stroke-dashoffset: 0; stroke: #808080; stroke-width: 1.5"/>
   </g>
   <g id="line2d_61">
    <path d="M 657.309198 112.96 
L 657.309198 20.4 
" clip-path="url(#p6f248d2627)" style="fill: none; stroke-dasharray: 5.55,2.4; stroke-dashoffset: 0; stroke: #808080; stroke-width: 1.5"/>
   </g>
   <g id="patch_28">
    <path d="M 594.75 112.96 
L 594.75 20.4 
" style="fill: none; stroke: #262626; stroke-width: 1.25; stroke-linejoin: miter; stroke-linecap: square"/>
   </g>
   <g id="patch_29">
    <path d="M 711.36 112.96 
L 711.36 20.4 
" style="fill: none; stroke: #262626; stroke-width: 1.25; stroke-linejoin: miter; stroke-linecap: square"/>
   </g>
   <g id="patch_30">
    <path d="M 594.75 112.96 
L 711.36 112.96 
" style="fill: none; stroke: #262626; stroke-width: 1.25; stroke-linejoin: miter; stroke-linecap: square"/>
   </g>
   <g id="patch_31">
    <path d="M 594.75 20.4 
L 711.36 20.4 
" style="fill: none; stroke: #262626; stroke-width: 1.25; stroke-linejoin: miter; stroke-linecap: square"/>
   </g>
   <g id="text_47">
    <text style="font-size: 8px; font-family: 'Arial'; text-anchor: middle; fill: #262626" x="653.055" y="14.4" transform="rotate(-0 653.055 14.4)">Micafungin</text>
   </g>
  </g>
 </g>
 <defs>
  <clipPath id="pe170f0f7b4">
   <rect x="32.75" y="20.4" width="116.61" height="92.56"/>
  </clipPath>
  <clipPath id="pa4df5f91e5">
   <rect x="173.25" y="20.4" width="116.61" height="92.56"/>
  </clipPath>
  <clipPath id="p5eefb28fa7">
   <rect x="313.75" y="20.4" width="116.61" height="92.56"/>
  </clipPath>
  <clipPath id="p9de4814295">
   <rect x="454.25" y="20.4" width="116.61" height="92.56"/>
  </clipPath>
  <clipPath id="p6f248d2627">
   <rect x="594.75" y="20.4" width="116.61" height="92.56"/>
  </clipPath>
 </defs>
</svg>
