<?xml version="1.0" encoding="utf-8" standalone="no"?>
<!DOCTYPE svg PUBLIC "-//W3C//DTD SVG 1.1//EN"
  "http://www.w3.org/Graphics/SVG/1.1/DTD/svg11.dtd">
<svg xmlns:xlink="http://www.w3.org/1999/xlink" width="720pt" height="144pt" viewBox="0 0 720 144" xmlns="http://www.w3.org/2000/svg" version="1.1">
 <metadata>
  <rdf:RDF xmlns:dc="http://purl.org/dc/elements/1.1/" xmlns:cc="http://creativecommons.org/ns#" xmlns:rdf="http://www.w3.org/1999/02/22-rdf-syntax-ns#">
   <cc:Work>
    <dc:type rdf:resource="http://purl.org/dc/dcmitype/StillImage"/>
    <dc:date>2025-11-28T16:08:57.495739</dc:date>
    <dc:format>image/svg+xml</dc:format>
    <dc:creator>
     <cc:Agent>
      <dc:title>Matplotlib v3.10.7, https://matplotlib.org/</dc:title>
     </cc:Agent>
    </dc:creator>
   </cc:Work>
  </rdf:RDF>
 </metadata>
 <defs>
  <style type="text/css">*{stroke-linejoin: round; stroke-linecap: butt}</style>
 </defs>
 <g id="figure_1">
  <g id="patch_1">
   <path d="M 0 144 
L 720 144 
L 720 0 
L 0 0 
z
" style="fill: #ffffff"/>
  </g>
  <g id="axes_1">
   <g id="patch_2">
    <path d="M 39.5 112.96 
L 151.232 112.96 
L 151.232 20.4 
L 39.5 20.4 
z
" style="fill: #ffffff"/>
   </g>
   <g id="matplotlib.axis_1">
    <g id="xtick_1">
     <g id="line2d_1">
      <defs>
       <path id="mef35442ee0" d="M 0 0 
L 0 2 
" style="stroke: #262626; stroke-width: 1.25"/>
      </defs>
      <g>
       <use xlink:href="#mef35442ee0" x="44.578727" y="112.96" style="fill: #262626; stroke: #262626; stroke-width: 1.25"/>
      </g>
     </g>
     <g id="text_1">
      <text style="font-size: 8px; font-family: 'Arial'; text-anchor: middle; fill: #262626" x="44.578727" y="122.68625" transform="rotate(-0 44.578727 122.68625)">−2</text>
     </g>
    </g>
    <g id="xtick_2">
     <g id="line2d_2">
      <g>
       <use xlink:href="#mef35442ee0" x="85.208545" y="112.96" style="fill: #262626; stroke: #262626; stroke-width: 1.25"/>
      </g>
     </g>
     <g id="text_2">
      <text style="font-size: 8px; font-family: 'Arial'; text-anchor: middle; fill: #262626" x="85.208545" y="122.68625" transform="rotate(-0 85.208545 122.68625)">0</text>
     </g>
    </g>
    <g id="xtick_3">
     <g id="line2d_3">
      <g>
       <use xlink:href="#mef35442ee0" x="125.838364" y="112.96" style="fill: #262626; stroke: #262626; stroke-width: 1.25"/>
      </g>
     </g>
     <g id="text_3">
      <text style="font-size: 8px; font-family: 'Arial'; text-anchor: middle; fill: #262626" x="125.838364" y="122.68625" transform="rotate(-0 125.838364 122.68625)">2</text>
     </g>
    </g>
    <g id="text_4">
     <text style="font-size: 8px; font-family: 'Arial'; text-anchor: middle; fill: #262626" x="95.366" y="134.0025" transform="rotate(-0 95.366 134.0025)">x</text>
    </g>
   </g>
   <g id="matplotlib.axis_2">
    <g id="ytick_1">
     <g id="line2d_4">
      <defs>
       <path id="m7af71d9fb1" d="M 0 0 
L -2 0 
" style="stroke: #262626; stroke-width: 1.25"/>
      </defs>
      <g>
       <use xlink:href="#m7af71d9fb1" x="39.5" y="112.96" style="fill: #262626; stroke: #262626; stroke-width: 1.25"/>
      </g>
     </g>
     <g id="text_5">
      <text style="font-size: 8px; font-family: 'Arial'; text-anchor: end; fill: #262626" x="35.5" y="115.823125" transform="rotate(-0 35.5 115.823125)">0</text>
     </g>
    </g>
    <g id="ytick_2">
     <g id="line2d_5">
      <g>
       <use xlink:href="#m7af71d9fb1" x="39.5" y="83.485954" style="fill: #262626; stroke: #262626; stroke-width: 1.25"/>
      </g>
     </g>
     <g id="text_6">
      <text style="font-size: 8px; font-family: 'Arial'; text-anchor: end; fill: #262626" x="35.5" y="86.349079" transform="rotate(-0 35.5 86.349079)">10</text>
     </g>
    </g>
    <g id="ytick_3">
     <g id="line2d_6">
      <g>
       <use xlink:href="#m7af71d9fb1" x="39.5" y="54.011907" style="fill: #262626; stroke: #262626; stroke-width: 1.25"/>
      </g>
     </g>
     <g id="text_7">
      <text style="font-size: 8px; font-family: 'Arial'; text-anchor: end; fill: #262626" x="35.5" y="56.875032" transform="rotate(-0 35.5 56.875032)">20</text>
     </g>
    </g>
    <g id="ytick_4">
     <g id="line2d_7">
      <g>
       <use xlink:href="#m7af71d9fb1" x="39.5" y="24.537861" style="fill: #262626; stroke: #262626; stroke-width: 1.25"/>
      </g>
     </g>
     <g id="text_8">
      <text style="font-size: 8px; font-family: 'Arial'; text-anchor: end; fill: #262626" x="35.5" y="27.400986" transform="rotate(-0 35.5 27.400986)">30</text>
     </g>
    </g>
    <g id="text_9">
     <text style="font-size: 8px; font-family: 'Arial'; text-anchor: middle; fill: #262626" x="20.91875" y="66.68" transform="rotate(-90 20.91875 66.68)">p(x)</text>
    </g>
   </g>
   <g id="FillBetweenPolyCollection_1"/>
   <g id="FillBetweenPolyCollection_2"/>
   <g id="FillBetweenPolyCollection_3"/>
   <g id="patch_3">
    <path d="M 83.192628 112.96 
L 83.192628 104.144762 
L 83.299595 104.144762 
L 83.299595 112.96 
L 83.406561 112.96 
L 83.406561 112.96 
L 83.513527 112.96 
L 83.513527 112.96 
L 83.620494 112.96 
L 83.620494 108.552381 
L 83.72746 108.552381 
L 83.72746 108.552381 
L 83.834426 108.552381 
L 83.834426 112.96 
L 83.941392 112.96 
L 83.941392 108.552381 
L 84.048359 108.552381 
L 84.048359 99.737143 
L 84.155325 99.737143 
L 84.155325 108.552381 
L 84.262291 108.552381 
L 84.262291 99.737143 
L 84.369258 99.737143 
L 84.369258 104.144762 
L 84.476224 104.144762 
L 84.476224 108.552381 
L 84.58319 108.552381 
L 84.58319 90.921905 
L 84.690156 90.921905 
L 84.690156 82.106667 
L 84.797123 82.106667 
L 84.797123 82.106667 
L 84.904089 82.106667 
L 84.904089 46.845714 
L 85.011055 46.845714 
L 85.011055 42.438095 
L 85.118021 42.438095 
L 85.118021 24.807619 
L 85.224988 24.807619 
L 85.224988 46.845714 
L 85.331954 46.845714 
L 85.331954 55.660952 
L 85.43892 55.660952 
L 85.43892 86.514286 
L 85.545887 86.514286 
L 85.545887 104.144762 
L 85.652853 104.144762 
L 85.652853 108.552381 
L 85.759819 108.552381 
L 85.759819 99.737143 
L 85.866785 99.737143 
L 85.866785 108.552381 
L 85.973752 108.552381 
L 85.973752 112.96 
L 86.080718 112.96 
L 86.080718 112.96 
L 86.187684 112.96 
L 86.187684 112.96 
L 86.29465 112.96 
L 86.29465 108.552381 
L 86.401617 108.552381 
L 86.401617 112.96 
L 86.29465 112.96 
L 86.29465 112.96 
L 86.187684 112.96 
L 86.187684 112.96 
L 86.080718 112.96 
L 86.080718 112.96 
L 85.973752 112.96 
L 85.973752 112.96 
L 85.866785 112.96 
L 85.866785 112.96 
L 85.759819 112.96 
L 85.759819 112.96 
L 85.652853 112.96 
L 85.652853 112.96 
L 85.545887 112.96 
L 85.545887 112.96 
L 85.43892 112.96 
L 85.43892 112.96 
L 85.331954 112.96 
L 85.331954 112.96 
L 85.224988 112.96 
L 85.224988 112.96 
L 85.118021 112.96 
L 85.118021 112.96 
L 85.011055 112.96 
L 85.011055 112.96 
L 84.904089 112.96 
L 84.904089 112.96 
L 84.797123 112.96 
L 84.797123 112.96 
L 84.690156 112.96 
L 84.690156 112.96 
L 84.58319 112.96 
L 84.58319 112.96 
L 84.476224 112.96 
L 84.476224 112.96 
L 84.369258 112.96 
L 84.369258 112.96 
L 84.262291 112.96 
L 84.262291 112.96 
L 84.155325 112.96 
L 84.155325 112.96 
L 84.048359 112.96 
L 84.048359 112.96 
L 83.941392 112.96 
L 83.941392 112.96 
L 83.834426 112.96 
L 83.834426 112.96 
L 83.72746 112.96 
L 83.72746 112.96 
L 83.620494 112.96 
L 83.620494 112.96 
L 83.513527 112.96 
L 83.513527 112.96 
L 83.406561 112.96 
L 83.406561 112.96 
L 83.299595 112.96 
L 83.299595 112.96 
z
" clip-path="url(#p76edd09bf9)" style="fill: #cccccc; stroke: #ffffff; stroke-linejoin: miter"/>
   </g>
   <g id="line2d_8">
    <path d="M 44.578727 112.96 
L 45.384874 112.96 
L 46.191022 112.96 
L 46.997169 112.96 
L 47.803316 112.96 
L 48.609463 112.96 
L 49.41561 112.96 
L 50.221758 112.96 
L 51.027905 112.96 
L 51.834052 112.96 
L 52.640199 112.96 
L 53.446346 112.96 
L 54.252494 112.96 
L 55.058641 112.96 
L 55.864788 112.96 
L 56.670935 112.96 
L 57.477082 112.96 
L 58.283229 112.96 
L 59.089377 112.96 
L 59.895524 112.96 
L 60.701671 112.96 
L 61.507818 112.96 
L 62.313965 112.96 
L 63.120113 112.96 
L 63.92626 112.96 
L 64.732407 112.96 
L 65.538554 112.96 
L 66.344701 112.96 
L 67.150848 112.96 
L 67.956996 112.96 
L 68.763143 112.96 
L 69.56929 112.96 
L 70.375437 112.96 
L 71.181584 112.96 
L 71.987732 112.96 
L 72.793879 112.96 
L 73.600026 112.96 
L 74.406173 112.96 
L 75.21232 112.96 
L 76.018468 112.96 
L 76.824615 112.96 
L 77.630762 112.96 
L 78.436909 112.96 
L 79.243056 112.96 
L 80.049203 112.96 
L 80.855351 112.96 
L 81.661498 112.96 
L 82.467645 112.96 
L 83.273792 112.96 
L 84.079939 112.958905 
L 84.886087 76.210797 
L 85.692234 110.491914 
L 86.498381 112.96 
L 87.304528 112.96 
L 88.110675 112.96 
L 88.916823 112.96 
L 89.72297 112.96 
L 90.529117 112.96 
L 91.335264 112.96 
L 92.141411 112.96 
L 92.947558 112.96 
L 93.753706 112.96 
L 94.559853 112.96 
L 95.366 112.96 
L 96.172147 112.96 
L 96.978294 112.96 
L 97.784442 112.96 
L 98.590589 112.96 
L 99.396736 112.96 
L 100.202883 112.96 
L 101.00903 112.96 
L 101.815177 112.96 
L 102.621325 112.96 
L 103.427472 112.96 
L 104.233619 112.96 
L 105.039766 112.96 
L 105.845913 112.96 
L 106.652061 112.96 
L 107.458208 112.96 
L 108.264355 112.96 
L 109.070502 112.96 
L 109.876649 112.96 
L 110.682797 112.96 
L 111.488944 112.96 
L 112.295091 112.96 
L 113.101238 112.96 
L 113.907385 112.96 
L 114.713532 112.96 
L 115.51968 112.96 
L 116.325827 112.96 
L 117.131974 112.96 
L 117.938121 112.96 
L 118.744268 112.96 
L 119.550416 112.96 
L 120.356563 112.96 
L 121.16271 112.96 
L 121.968857 112.96 
L 122.775004 112.96 
L 123.581152 112.96 
L 124.387299 112.96 
L 125.193446 112.96 
L 125.999593 112.96 
L 126.80574 112.96 
L 127.611887 112.96 
L 128.418035 112.96 
L 129.224182 112.96 
L 130.030329 112.96 
L 130.836476 112.96 
L 131.642623 112.96 
L 132.448771 112.96 
L 133.254918 112.96 
L 134.061065 112.96 
L 134.867212 112.96 
L 135.673359 112.96 
L 136.479506 112.96 
L 137.285654 112.96 
L 138.091801 112.96 
L 138.897948 112.96 
L 139.704095 112.96 
L 140.510242 112.96 
L 141.31639 112.96 
L 142.122537 112.96 
L 142.928684 112.96 
L 143.734831 112.96 
L 144.540978 112.96 
L 145.347126 112.96 
L 146.153273 112.96 
" clip-path="url(#p76edd09bf9)" style="fill: none; stroke: #edd1cb; stroke-width: 1.5; stroke-linecap: round"/>
   </g>
   <g id="line2d_9">
    <path d="M 44.578727 112.96 
L 45.384874 112.96 
L 46.191022 112.96 
L 46.997169 112.96 
L 47.803316 112.96 
L 48.609463 112.96 
L 49.41561 112.96 
L 50.221758 112.96 
L 51.027905 112.96 
L 51.834052 112.96 
L 52.640199 112.96 
L 53.446346 112.96 
L 54.252494 112.96 
L 55.058641 112.96 
L 55.864788 112.96 
L 56.670935 112.96 
L 57.477082 112.96 
L 58.283229 112.96 
L 59.089377 112.96 
L 59.895524 112.96 
L 60.701671 112.96 
L 61.507818 112.96 
L 62.313965 112.96 
L 63.120113 112.96 
L 63.92626 112.96 
L 64.732407 112.96 
L 65.538554 112.96 
L 66.344701 112.96 
L 67.150848 112.96 
L 67.956996 112.96 
L 68.763143 112.96 
L 69.56929 112.96 
L 70.375437 112.96 
L 71.181584 112.96 
L 71.987732 112.96 
L 72.793879 112.96 
L 73.600026 112.96 
L 74.406173 112.96 
L 75.21232 112.96 
L 76.018468 112.96 
L 76.824615 112.96 
L 77.630762 112.96 
L 78.436909 112.96 
L 79.243056 112.96 
L 80.049203 112.96 
L 80.855351 112.96 
L 81.661498 112.959958 
L 82.467645 112.936805 
L 83.273792 111.726624 
L 84.079939 106.627098 
L 84.886087 109.820043 
L 85.692234 112.809666 
L 86.498381 112.959305 
L 87.304528 112.96 
L 88.110675 112.96 
L 88.916823 112.96 
L 89.72297 112.96 
L 90.529117 112.96 
L 91.335264 112.96 
L 92.141411 112.96 
L 92.947558 112.96 
L 93.753706 112.96 
L 94.559853 112.96 
L 95.366 112.96 
L 96.172147 112.96 
L 96.978294 112.96 
L 97.784442 112.96 
L 98.590589 112.96 
L 99.396736 112.96 
L 100.202883 112.96 
L 101.00903 112.96 
L 101.815177 112.96 
L 102.621325 112.96 
L 103.427472 112.96 
L 104.233619 112.96 
L 105.039766 112.96 
L 105.845913 112.96 
L 106.652061 112.96 
L 107.458208 112.96 
L 108.264355 112.96 
L 109.070502 112.96 
L 109.876649 112.96 
L 110.682797 112.96 
L 111.488944 112.96 
L 112.295091 112.96 
L 113.101238 112.96 
L 113.907385 112.96 
L 114.713532 112.96 
L 115.51968 112.96 
L 116.325827 112.96 
L 117.131974 112.96 
L 117.938121 112.96 
L 118.744268 112.96 
L 119.550416 112.96 
L 120.356563 112.96 
L 121.16271 112.96 
L 121.968857 112.96 
L 122.775004 112.96 
L 123.581152 112.96 
L 124.387299 112.96 
L 125.193446 112.96 
L 125.999593 112.96 
L 126.80574 112.96 
L 127.611887 112.96 
L 128.418035 112.96 
L 129.224182 112.96 
L 130.030329 112.96 
L 130.836476 112.96 
L 131.642623 112.96 
L 132.448771 112.96 
L 133.254918 112.96 
L 134.061065 112.96 
L 134.867212 112.96 
L 135.673359 112.96 
L 136.479506 112.96 
L 137.285654 112.96 
L 138.091801 112.96 
L 138.897948 112.96 
L 139.704095 112.96 
L 140.510242 112.96 
L 141.31639 112.96 
L 142.122537 112.96 
L 142.928684 112.96 
L 143.734831 112.96 
L 144.540978 112.96 
L 145.347126 112.96 
L 146.153273 112.96 
" clip-path="url(#p76edd09bf9)" style="fill: none; stroke: #a9678f; stroke-width: 1.5; stroke-linecap: round"/>
   </g>
   <g id="line2d_10">
    <path d="M 44.578727 112.96 
L 45.384874 112.96 
L 46.191022 112.96 
L 46.997169 112.96 
L 47.803316 112.96 
L 48.609463 112.96 
L 49.41561 112.96 
L 50.221758 112.96 
L 51.027905 112.96 
L 51.834052 112.96 
L 52.640199 112.96 
L 53.446346 112.96 
L 54.252494 112.96 
L 55.058641 112.96 
L 55.864788 112.96 
L 56.670935 112.96 
L 57.477082 112.96 
L 58.283229 112.96 
L 59.089377 112.96 
L 59.895524 112.96 
L 60.701671 112.96 
L 61.507818 112.96 
L 62.313965 112.96 
L 63.120113 112.96 
L 63.92626 112.96 
L 64.732407 112.96 
L 65.538554 112.96 
L 66.344701 112.96 
L 67.150848 112.96 
L 67.956996 112.96 
L 68.763143 112.96 
L 69.56929 112.96 
L 70.375437 112.96 
L 71.181584 112.96 
L 71.987732 112.96 
L 72.793879 112.96 
L 73.600026 112.96 
L 74.406173 112.96 
L 75.21232 112.96 
L 76.018468 112.96 
L 76.824615 112.96 
L 77.630762 112.96 
L 78.436909 112.96 
L 79.243056 112.96 
L 80.049203 112.96 
L 80.855351 112.96 
L 81.661498 112.96 
L 82.467645 112.96 
L 83.273792 112.959658 
L 84.079939 112.639368 
L 84.886087 103.603345 
L 85.692234 104.473398 
L 86.498381 112.720753 
L 87.304528 112.95979 
L 88.110675 112.96 
L 88.916823 112.96 
L 89.72297 112.96 
L 90.529117 112.96 
L 91.335264 112.96 
L 92.141411 112.96 
L 92.947558 112.96 
L 93.753706 112.96 
L 94.559853 112.96 
L 95.366 112.96 
L 96.172147 112.96 
L 96.978294 112.96 
L 97.784442 112.96 
L 98.590589 112.96 
L 99.396736 112.96 
L 100.202883 112.96 
L 101.00903 112.96 
L 101.815177 112.96 
L 102.621325 112.96 
L 103.427472 112.96 
L 104.233619 112.96 
L 105.039766 112.96 
L 105.845913 112.96 
L 106.652061 112.96 
L 107.458208 112.96 
L 108.264355 112.96 
L 109.070502 112.96 
L 109.876649 112.96 
L 110.682797 112.96 
L 111.488944 112.96 
L 112.295091 112.96 
L 113.101238 112.96 
L 113.907385 112.96 
L 114.713532 112.96 
L 115.51968 112.96 
L 116.325827 112.96 
L 117.131974 112.96 
L 117.938121 112.96 
L 118.744268 112.96 
L 119.550416 112.96 
L 120.356563 112.96 
L 121.16271 112.96 
L 121.968857 112.96 
L 122.775004 112.96 
L 123.581152 112.96 
L 124.387299 112.96 
L 125.193446 112.96 
L 125.999593 112.96 
L 126.80574 112.96 
L 127.611887 112.96 
L 128.418035 112.96 
L 129.224182 112.96 
L 130.030329 112.96 
L 130.836476 112.96 
L 131.642623 112.96 
L 132.448771 112.96 
L 133.254918 112.96 
L 134.061065 112.96 
L 134.867212 112.96 
L 135.673359 112.96 
L 136.479506 112.96 
L 137.285654 112.96 
L 138.091801 112.96 
L 138.897948 112.96 
L 139.704095 112.96 
L 140.510242 112.96 
L 141.31639 112.96 
L 142.122537 112.96 
L 142.928684 112.96 
L 143.734831 112.96 
L 144.540978 112.96 
L 145.347126 112.96 
L 146.153273 112.96 
" clip-path="url(#p76edd09bf9)" style="fill: none; stroke: #2d1e3e; stroke-width: 1.5; stroke-linecap: round"/>
   </g>
   <g id="line2d_11">
    <path d="M 84.431216 112.96 
L 84.431216 20.4 
" clip-path="url(#p76edd09bf9)" style="fill: none; stroke-dasharray: 5.55,2.4; stroke-dashoffset: 0; stroke: #808080; stroke-width: 1.5"/>
   </g>
   <g id="line2d_12">
    <path clip-path="url(#p76edd09bf9)" style="fill: none; stroke-dasharray: 5.55,2.4; stroke-dashoffset: 0; stroke: #808080; stroke-width: 1.5"/>
   </g>
   <g id="patch_4">
    <path d="M 39.5 112.96 
L 39.5 20.4 
" style="fill: none; stroke: #262626; stroke-width: 1.25; stroke-linejoin: miter; stroke-linecap: square"/>
   </g>
   <g id="patch_5">
    <path d="M 151.232 112.96 
L 151.232 20.4 
" style="fill: none; stroke: #262626; stroke-width: 1.25; stroke-linejoin: miter; stroke-linecap: square"/>
   </g>
   <g id="patch_6">
    <path d="M 39.5 112.96 
L 151.232 112.96 
" style="fill: none; stroke: #262626; stroke-width: 1.25; stroke-linejoin: miter; stroke-linecap: square"/>
   </g>
   <g id="patch_7">
    <path d="M 39.5 20.4 
L 151.232 20.4 
" style="fill: none; stroke: #262626; stroke-width: 1.25; stroke-linejoin: miter; stroke-linecap: square"/>
   </g>
   <g id="text_10">
    <text style="font-size: 8px; font-family: 'Arial'; text-anchor: middle; fill: #262626" x="95.366" y="14.4" transform="rotate(-0 95.366 14.4)">None</text>
   </g>
  </g>
  <g id="axes_2">
   <g id="patch_8">
    <path d="M 179.532 112.96 
L 291.264 112.96 
L 291.264 20.4 
L 179.532 20.4 
z
" style="fill: #ffffff"/>
   </g>
   <g id="matplotlib.axis_3">
    <g id="xtick_4">
     <g id="line2d_13">
      <g>
       <use xlink:href="#mef35442ee0" x="184.610727" y="112.96" style="fill: #262626; stroke: #262626; stroke-width: 1.25"/>
      </g>
     </g>
     <g id="text_11">
      <text style="font-size: 8px; font-family: 'Arial'; text-anchor: middle; fill: #262626" x="184.610727" y="122.68625" transform="rotate(-0 184.610727 122.68625)">−2</text>
     </g>
    </g>
    <g id="xtick_5">
     <g id="line2d_14">
      <g>
       <use xlink:href="#mef35442ee0" x="225.240545" y="112.96" style="fill: #262626; stroke: #262626; stroke-width: 1.25"/>
      </g>
     </g>
     <g id="text_12">
      <text style="font-size: 8px; font-family: 'Arial'; text-anchor: middle; fill: #262626" x="225.240545" y="122.68625" transform="rotate(-0 225.240545 122.68625)">0</text>
     </g>
    </g>
    <g id="xtick_6">
     <g id="line2d_15">
      <g>
       <use xlink:href="#mef35442ee0" x="265.870364" y="112.96" style="fill: #262626; stroke: #262626; stroke-width: 1.25"/>
      </g>
     </g>
     <g id="text_13">
      <text style="font-size: 8px; font-family: 'Arial'; text-anchor: middle; fill: #262626" x="265.870364" y="122.68625" transform="rotate(-0 265.870364 122.68625)">2</text>
     </g>
    </g>
    <g id="text_14">
     <text style="font-size: 8px; font-family: 'Arial'; text-anchor: middle; fill: #262626" x="235.398" y="134.0025" transform="rotate(-0 235.398 134.0025)">x</text>
    </g>
   </g>
   <g id="matplotlib.axis_4">
    <g id="ytick_5">
     <g id="line2d_16">
      <g>
       <use xlink:href="#m7af71d9fb1" x="179.532" y="112.96" style="fill: #262626; stroke: #262626; stroke-width: 1.25"/>
      </g>
     </g>
     <g id="text_15">
      <text style="font-size: 8px; font-family: 'Arial'; text-anchor: end; fill: #262626" x="175.532" y="115.823125" transform="rotate(-0 175.532 115.823125)">0</text>
     </g>
    </g>
    <g id="ytick_6">
     <g id="line2d_17">
      <g>
       <use xlink:href="#m7af71d9fb1" x="179.532" y="78.03888" style="fill: #262626; stroke: #262626; stroke-width: 1.25"/>
      </g>
     </g>
     <g id="text_16">
      <text style="font-size: 8px; font-family: 'Arial'; text-anchor: end; fill: #262626" x="175.532" y="80.902005" transform="rotate(-0 175.532 80.902005)">5</text>
     </g>
    </g>
    <g id="ytick_7">
     <g id="line2d_18">
      <g>
       <use xlink:href="#m7af71d9fb1" x="179.532" y="43.11776" style="fill: #262626; stroke: #262626; stroke-width: 1.25"/>
      </g>
     </g>
     <g id="text_17">
      <text style="font-size: 8px; font-family: 'Arial'; text-anchor: end; fill: #262626" x="175.532" y="45.980885" transform="rotate(-0 175.532 45.980885)">10</text>
     </g>
    </g>
   </g>
   <g id="FillBetweenPolyCollection_4"/>
   <g id="FillBetweenPolyCollection_5"/>
   <g id="FillBetweenPolyCollection_6"/>
   <g id="patch_9">
    <path d="M 208.82802 112.96 
L 208.82802 107.336191 
L 209.423984 107.336191 
L 209.423984 109.210794 
L 210.019948 109.210794 
L 210.019948 105.461588 
L 210.615912 105.461588 
L 210.615912 111.085397 
L 211.211876 111.085397 
L 211.211876 112.96 
L 211.80784 112.96 
L 211.80784 112.96 
L 212.403804 112.96 
L 212.403804 112.96 
L 212.999768 112.96 
L 212.999768 112.96 
L 213.595732 112.96 
L 213.595732 112.96 
L 214.191696 112.96 
L 214.191696 112.96 
L 214.78766 112.96 
L 214.78766 112.96 
L 215.383624 112.96 
L 215.383624 112.96 
L 215.979588 112.96 
L 215.979588 112.96 
L 216.575552 112.96 
L 216.575552 112.96 
L 217.171516 112.96 
L 217.171516 112.96 
L 217.76748 112.96 
L 217.76748 109.210794 
L 218.363444 109.210794 
L 218.363444 112.96 
L 218.959408 112.96 
L 218.959408 112.96 
L 219.555372 112.96 
L 219.555372 112.96 
L 220.151336 112.96 
L 220.151336 112.96 
L 220.7473 112.96 
L 220.7473 107.336191 
L 221.343264 107.336191 
L 221.343264 111.085397 
L 221.939228 111.085397 
L 221.939228 109.210794 
L 222.535192 109.210794 
L 222.535192 99.837779 
L 223.131156 99.837779 
L 223.131156 97.963176 
L 223.72712 97.963176 
L 223.72712 92.339368 
L 224.323084 92.339368 
L 224.323084 56.721912 
L 224.919048 56.721912 
L 224.919048 34.226676 
L 225.515012 34.226676 
L 225.515012 99.837779 
L 226.110976 99.837779 
L 226.110976 105.461588 
L 226.70694 105.461588 
L 226.70694 112.96 
L 226.110976 112.96 
L 226.110976 112.96 
L 225.515012 112.96 
L 225.515012 112.96 
L 224.919048 112.96 
L 224.919048 112.96 
L 224.323084 112.96 
L 224.323084 112.96 
L 223.72712 112.96 
L 223.72712 112.96 
L 223.131156 112.96 
L 223.131156 112.96 
L 222.535192 112.96 
L 222.535192 112.96 
L 221.939228 112.96 
L 221.939228 112.96 
L 221.343264 112.96 
L 221.343264 112.96 
L 220.7473 112.96 
L 220.7473 112.96 
L 220.151336 112.96 
L 220.151336 112.96 
L 219.555372 112.96 
L 219.555372 112.96 
L 218.959408 112.96 
L 218.959408 112.96 
L 218.363444 112.96 
L 218.363444 112.96 
L 217.76748 112.96 
L 217.76748 112.96 
L 217.171516 112.96 
L 217.171516 112.96 
L 216.575552 112.96 
L 216.575552 112.96 
L 215.979588 112.96 
L 215.979588 112.96 
L 215.383624 112.96 
L 215.383624 112.96 
L 214.78766 112.96 
L 214.78766 112.96 
L 214.191696 112.96 
L 214.191696 112.96 
L 213.595732 112.96 
L 213.595732 112.96 
L 212.999768 112.96 
L 212.999768 112.96 
L 212.403804 112.96 
L 212.403804 112.96 
L 211.80784 112.96 
L 211.80784 112.96 
L 211.211876 112.96 
L 211.211876 112.96 
L 210.615912 112.96 
L 210.615912 112.96 
L 210.019948 112.96 
L 210.019948 112.96 
L 209.423984 112.96 
L 209.423984 112.96 
z
" clip-path="url(#p0c564c9870)" style="fill: #cccccc; stroke: #ffffff; stroke-linejoin: miter"/>
   </g>
   <g id="line2d_19">
    <path d="M 184.610727 112.96 
L 185.416874 112.96 
L 186.223022 112.96 
L 187.029169 112.96 
L 187.835316 112.96 
L 188.641463 112.96 
L 189.44761 112.96 
L 190.253758 112.96 
L 191.059905 112.96 
L 191.866052 112.96 
L 192.672199 112.96 
L 193.478346 112.96 
L 194.284494 112.96 
L 195.090641 112.96 
L 195.896788 112.96 
L 196.702935 112.96 
L 197.509082 112.96 
L 198.315229 112.96 
L 199.121377 112.96 
L 199.927524 112.96 
L 200.733671 112.96 
L 201.539818 112.96 
L 202.345965 112.96 
L 203.152113 112.96 
L 203.95826 112.96 
L 204.764407 112.96 
L 205.570554 112.96 
L 206.376701 112.96 
L 207.182848 112.96 
L 207.988996 112.96 
L 208.795143 112.96 
L 209.60129 112.96 
L 210.407437 112.96 
L 211.213584 112.96 
L 212.019732 112.96 
L 212.825879 112.96 
L 213.632026 112.96 
L 214.438173 112.96 
L 215.24432 112.96 
L 216.050468 112.96 
L 216.856615 112.96 
L 217.662762 112.96 
L 218.468909 112.96 
L 219.275056 112.96 
L 220.081203 112.96 
L 220.887351 112.96 
L 221.693498 112.96 
L 222.499645 112.96 
L 223.305792 112.946818 
L 224.111939 103.905903 
L 224.918087 24.807619 
L 225.724234 100.793841 
L 226.530381 112.936199 
L 227.336528 112.959999 
L 228.142675 112.96 
L 228.948823 112.96 
L 229.75497 112.96 
L 230.561117 112.96 
L 231.367264 112.96 
L 232.173411 112.96 
L 232.979558 112.96 
L 233.785706 112.96 
L 234.591853 112.96 
L 235.398 112.96 
L 236.204147 112.96 
L 237.010294 112.96 
L 237.816442 112.96 
L 238.622589 112.96 
L 239.428736 112.96 
L 240.234883 112.96 
L 241.04103 112.96 
L 241.847177 112.96 
L 242.653325 112.96 
L 243.459472 112.96 
L 244.265619 112.96 
L 245.071766 112.96 
L 245.877913 112.96 
L 246.684061 112.96 
L 247.490208 112.96 
L 248.296355 112.96 
L 249.102502 112.96 
L 249.908649 112.96 
L 250.714797 112.96 
L 251.520944 112.96 
L 252.327091 112.96 
L 253.133238 112.96 
L 253.939385 112.96 
L 254.745532 112.96 
L 255.55168 112.96 
L 256.357827 112.96 
L 257.163974 112.96 
L 257.970121 112.96 
L 258.776268 112.96 
L 259.582416 112.96 
L 260.388563 112.96 
L 261.19471 112.96 
L 262.000857 112.96 
L 262.807004 112.96 
L 263.613152 112.96 
L 264.419299 112.96 
L 265.225446 112.96 
L 266.031593 112.96 
L 266.83774 112.96 
L 267.643887 112.96 
L 268.450035 112.96 
L 269.256182 112.96 
L 270.062329 112.96 
L 270.868476 112.96 
L 271.674623 112.96 
L 272.480771 112.96 
L 273.286918 112.96 
L 274.093065 112.96 
L 274.899212 112.96 
L 275.705359 112.96 
L 276.511506 112.96 
L 277.317654 112.96 
L 278.123801 112.96 
L 278.929948 112.96 
L 279.736095 112.96 
L 280.542242 112.96 
L 281.34839 112.96 
L 282.154537 112.96 
L 282.960684 112.96 
L 283.766831 112.96 
L 284.572978 112.96 
L 285.379126 112.96 
L 286.185273 112.96 
" clip-path="url(#p0c564c9870)" style="fill: none; stroke: #edd1cb; stroke-width: 1.5; stroke-linecap: round"/>
   </g>
   <g id="line2d_20">
    <path d="M 184.610727 112.96 
L 185.416874 112.96 
L 186.223022 112.96 
L 187.029169 112.96 
L 187.835316 112.96 
L 188.641463 112.96 
L 189.44761 112.96 
L 190.253758 112.96 
L 191.059905 112.96 
L 191.866052 112.96 
L 192.672199 112.96 
L 193.478346 112.96 
L 194.284494 112.96 
L 195.090641 112.96 
L 195.896788 112.96 
L 196.702935 112.96 
L 197.509082 112.96 
L 198.315229 112.96 
L 199.121377 112.96 
L 199.927524 112.96 
L 200.733671 112.96 
L 201.539818 112.96 
L 202.345965 112.96 
L 203.152113 112.96 
L 203.95826 112.96 
L 204.764407 112.96 
L 205.570554 112.96 
L 206.376701 112.959991 
L 207.182848 112.95772 
L 207.988996 112.820946 
L 208.795143 111.010269 
L 209.60129 106.675076 
L 210.407437 108.302424 
L 211.213584 112.166486 
L 212.019732 112.92892 
L 212.825879 112.95972 
L 213.632026 112.959999 
L 214.438173 112.96 
L 215.24432 112.96 
L 216.050468 112.96 
L 216.856615 112.96 
L 217.662762 112.96 
L 218.468909 112.96 
L 219.275056 112.96 
L 220.081203 112.96 
L 220.887351 112.96 
L 221.693498 112.96 
L 222.499645 112.96 
L 223.305792 112.96 
L 224.111939 112.96 
L 224.918087 112.96 
L 225.724234 112.96 
L 226.530381 112.96 
L 227.336528 112.96 
L 228.142675 112.96 
L 228.948823 112.96 
L 229.75497 112.96 
L 230.561117 112.96 
L 231.367264 112.96 
L 232.173411 112.96 
L 232.979558 112.96 
L 233.785706 112.96 
L 234.591853 112.96 
L 235.398 112.96 
L 236.204147 112.96 
L 237.010294 112.96 
L 237.816442 112.96 
L 238.622589 112.96 
L 239.428736 112.96 
L 240.234883 112.96 
L 241.04103 112.96 
L 241.847177 112.96 
L 242.653325 112.96 
L 243.459472 112.96 
L 244.265619 112.96 
L 245.071766 112.96 
L 245.877913 112.96 
L 246.684061 112.96 
L 247.490208 112.96 
L 248.296355 112.96 
L 249.102502 112.96 
L 249.908649 112.96 
L 250.714797 112.96 
L 251.520944 112.96 
L 252.327091 112.96 
L 253.133238 112.96 
L 253.939385 112.96 
L 254.745532 112.96 
L 255.55168 112.96 
L 256.357827 112.96 
L 257.163974 112.96 
L 257.970121 112.96 
L 258.776268 112.96 
L 259.582416 112.96 
L 260.388563 112.96 
L 261.19471 112.96 
L 262.000857 112.96 
L 262.807004 112.96 
L 263.613152 112.96 
L 264.419299 112.96 
L 265.225446 112.96 
L 266.031593 112.96 
L 266.83774 112.96 
L 267.643887 112.96 
L 268.450035 112.96 
L 269.256182 112.96 
L 270.062329 112.96 
L 270.868476 112.96 
L 271.674623 112.96 
L 272.480771 112.96 
L 273.286918 112.96 
L 274.093065 112.96 
L 274.899212 112.96 
L 275.705359 112.96 
L 276.511506 112.96 
L 277.317654 112.96 
L 278.123801 112.96 
L 278.929948 112.96 
L 279.736095 112.96 
L 280.542242 112.96 
L 281.34839 112.96 
L 282.154537 112.96 
L 282.960684 112.96 
L 283.766831 112.96 
L 284.572978 112.96 
L 285.379126 112.96 
L 286.185273 112.96 
" clip-path="url(#p0c564c9870)" style="fill: none; stroke: #a9678f; stroke-width: 1.5; stroke-linecap: round"/>
   </g>
   <g id="line2d_21">
    <path d="M 184.610727 112.96 
L 185.416874 112.96 
L 186.223022 112.96 
L 187.029169 112.96 
L 187.835316 112.96 
L 188.641463 112.96 
L 189.44761 112.96 
L 190.253758 112.96 
L 191.059905 112.96 
L 191.866052 112.96 
L 192.672199 112.96 
L 193.478346 112.96 
L 194.284494 112.96 
L 195.090641 112.96 
L 195.896788 112.96 
L 196.702935 112.96 
L 197.509082 112.96 
L 198.315229 112.96 
L 199.121377 112.96 
L 199.927524 112.96 
L 200.733671 112.96 
L 201.539818 112.96 
L 202.345965 112.96 
L 203.152113 112.96 
L 203.95826 112.96 
L 204.764407 112.96 
L 205.570554 112.96 
L 206.376701 112.96 
L 207.182848 112.96 
L 207.988996 112.96 
L 208.795143 112.96 
L 209.60129 112.96 
L 210.407437 112.96 
L 211.213584 112.96 
L 212.019732 112.96 
L 212.825879 112.959999 
L 213.632026 112.959986 
L 214.438173 112.959883 
L 215.24432 112.959201 
L 216.050468 112.955431 
L 216.856615 112.938165 
L 217.662762 112.872812 
L 218.468909 112.669106 
L 219.275056 112.149055 
L 220.081203 111.071023 
L 220.887351 109.283451 
L 221.693498 106.980947 
L 222.499645 104.835383 
L 223.305792 103.735312 
L 224.111939 104.208573 
L 224.918087 106.022797 
L 225.724234 108.365182 
L 226.530381 110.417092 
L 227.336528 111.784098 
L 228.142675 112.50565 
L 228.948823 112.813314 
L 229.75497 112.92043 
L 230.561117 112.951081 
L 231.367264 112.95832 
L 232.173411 112.959736 
L 232.979558 112.959965 
L 233.785706 112.959996 
L 234.591853 112.96 
L 235.398 112.96 
L 236.204147 112.96 
L 237.010294 112.96 
L 237.816442 112.96 
L 238.622589 112.96 
L 239.428736 112.96 
L 240.234883 112.96 
L 241.04103 112.96 
L 241.847177 112.96 
L 242.653325 112.96 
L 243.459472 112.96 
L 244.265619 112.96 
L 245.071766 112.96 
L 245.877913 112.96 
L 246.684061 112.96 
L 247.490208 112.96 
L 248.296355 112.96 
L 249.102502 112.96 
L 249.908649 112.96 
L 250.714797 112.96 
L 251.520944 112.96 
L 252.327091 112.96 
L 253.133238 112.96 
L 253.939385 112.96 
L 254.745532 112.96 
L 255.55168 112.96 
L 256.357827 112.96 
L 257.163974 112.96 
L 257.970121 112.96 
L 258.776268 112.96 
L 259.582416 112.96 
L 260.388563 112.96 
L 261.19471 112.96 
L 262.000857 112.96 
L 262.807004 112.96 
L 263.613152 112.96 
L 264.419299 112.96 
L 265.225446 112.96 
L 266.031593 112.96 
L 266.83774 112.96 
L 267.643887 112.96 
L 268.450035 112.96 
L 269.256182 112.96 
L 270.062329 112.96 
L 270.868476 112.96 
L 271.674623 112.96 
L 272.480771 112.96 
L 273.286918 112.96 
L 274.093065 112.96 
L 274.899212 112.96 
L 275.705359 112.96 
L 276.511506 112.96 
L 277.317654 112.96 
L 278.123801 112.96 
L 278.929948 112.96 
L 279.736095 112.96 
L 280.542242 112.96 
L 281.34839 112.96 
L 282.154537 112.96 
L 282.960684 112.96 
L 283.766831 112.96 
L 284.572978 112.96 
L 285.379126 112.96 
L 286.185273 112.96 
" clip-path="url(#p0c564c9870)" style="fill: none; stroke: #2d1e3e; stroke-width: 1.5; stroke-linecap: round"/>
   </g>
   <g id="line2d_22">
    <path d="M 223.985059 112.96 
L 223.985059 20.4 
" clip-path="url(#p0c564c9870)" style="fill: none; stroke-dasharray: 5.55,2.4; stroke-dashoffset: 0; stroke: #808080; stroke-width: 1.5"/>
   </g>
   <g id="line2d_23">
    <path clip-path="url(#p0c564c9870)" style="fill: none; stroke-dasharray: 5.55,2.4; stroke-dashoffset: 0; stroke: #808080; stroke-width: 1.5"/>
   </g>
   <g id="patch_10">
    <path d="M 179.532 112.96 
L 179.532 20.4 
" style="fill: none; stroke: #262626; stroke-width: 1.25; stroke-linejoin: miter; stroke-linecap: square"/>
   </g>
   <g id="patch_11">
    <path d="M 291.264 112.96 
L 291.264 20.4 
" style="fill: none; stroke: #262626; stroke-width: 1.25; stroke-linejoin: miter; stroke-linecap: square"/>
   </g>
   <g id="patch_12">
    <path d="M 179.532 112.96 
L 291.264 112.96 
" style="fill: none; stroke: #262626; stroke-width: 1.25; stroke-linejoin: miter; stroke-linecap: square"/>
   </g>
   <g id="patch_13">
    <path d="M 179.532 20.4 
L 291.264 20.4 
" style="fill: none; stroke: #262626; stroke-width: 1.25; stroke-linejoin: miter; stroke-linecap: square"/>
   </g>
   <g id="text_18">
    <text style="font-size: 8px; font-family: 'Arial'; text-anchor: middle; fill: #262626" x="235.398" y="14.4" transform="rotate(-0 235.398 14.4)">Dox</text>
   </g>
  </g>
  <g id="axes_3">
   <g id="patch_14">
    <path d="M 319.564 112.96 
L 431.296 112.96 
L 431.296 20.4 
L 319.564 20.4 
z
" style="fill: #ffffff"/>
   </g>
   <g id="matplotlib.axis_5">
    <g id="xtick_7">
     <g id="line2d_24">
      <g>
       <use xlink:href="#mef35442ee0" x="324.642727" y="112.96" style="fill: #262626; stroke: #262626; stroke-width: 1.25"/>
      </g>
     </g>
     <g id="text_19">
      <text style="font-size: 8px; font-family: 'Arial'; text-anchor: middle; fill: #262626" x="324.642727" y="122.68625" transform="rotate(-0 324.642727 122.68625)">−2</text>
     </g>
    </g>
    <g id="xtick_8">
     <g id="line2d_25">
      <g>
       <use xlink:href="#mef35442ee0" x="365.272545" y="112.96" style="fill: #262626; stroke: #262626; stroke-width: 1.25"/>
      </g>
     </g>
     <g id="text_20">
      <text style="font-size: 8px; font-family: 'Arial'; text-anchor: middle; fill: #262626" x="365.272545" y="122.68625" transform="rotate(-0 365.272545 122.68625)">0</text>
     </g>
    </g>
    <g id="xtick_9">
     <g id="line2d_26">
      <g>
       <use xlink:href="#mef35442ee0" x="405.902364" y="112.96" style="fill: #262626; stroke: #262626; stroke-width: 1.25"/>
      </g>
     </g>
     <g id="text_21">
      <text style="font-size: 8px; font-family: 'Arial'; text-anchor: middle; fill: #262626" x="405.902364" y="122.68625" transform="rotate(-0 405.902364 122.68625)">2</text>
     </g>
    </g>
    <g id="text_22">
     <text style="font-size: 8px; font-family: 'Arial'; text-anchor: middle; fill: #262626" x="375.43" y="134.0025" transform="rotate(-0 375.43 134.0025)">x</text>
    </g>
   </g>
   <g id="matplotlib.axis_6">
    <g id="ytick_8">
     <g id="line2d_27">
      <g>
       <use xlink:href="#m7af71d9fb1" x="319.564" y="112.96" style="fill: #262626; stroke: #262626; stroke-width: 1.25"/>
      </g>
     </g>
     <g id="text_23">
      <text style="font-size: 8px; font-family: 'Arial'; text-anchor: end; fill: #262626" x="315.564" y="115.823125" transform="rotate(-0 315.564 115.823125)">0.0</text>
     </g>
    </g>
    <g id="ytick_9">
     <g id="line2d_28">
      <g>
       <use xlink:href="#m7af71d9fb1" x="319.564" y="93.940317" style="fill: #262626; stroke: #262626; stroke-width: 1.25"/>
      </g>
     </g>
     <g id="text_24">
      <text style="font-size: 8px; font-family: 'Arial'; text-anchor: end; fill: #262626" x="315.564" y="96.803442" transform="rotate(-0 315.564 96.803442)">0.5</text>
     </g>
    </g>
    <g id="ytick_10">
     <g id="line2d_29">
      <g>
       <use xlink:href="#m7af71d9fb1" x="319.564" y="74.920633" style="fill: #262626; stroke: #262626; stroke-width: 1.25"/>
      </g>
     </g>
     <g id="text_25">
      <text style="font-size: 8px; font-family: 'Arial'; text-anchor: end; fill: #262626" x="315.564" y="77.783758" transform="rotate(-0 315.564 77.783758)">1.0</text>
     </g>
    </g>
    <g id="ytick_11">
     <g id="line2d_30">
      <g>
       <use xlink:href="#m7af71d9fb1" x="319.564" y="55.90095" style="fill: #262626; stroke: #262626; stroke-width: 1.25"/>
      </g>
     </g>
     <g id="text_26">
      <text style="font-size: 8px; font-family: 'Arial'; text-anchor: end; fill: #262626" x="315.564" y="58.764075" transform="rotate(-0 315.564 58.764075)">1.5</text>
     </g>
    </g>
    <g id="ytick_12">
     <g id="line2d_31">
      <g>
       <use xlink:href="#m7af71d9fb1" x="319.564" y="36.881266" style="fill: #262626; stroke: #262626; stroke-width: 1.25"/>
      </g>
     </g>
     <g id="text_27">
      <text style="font-size: 8px; font-family: 'Arial'; text-anchor: end; fill: #262626" x="315.564" y="39.744391" transform="rotate(-0 315.564 39.744391)">2.0</text>
     </g>
    </g>
   </g>
   <g id="FillBetweenPolyCollection_7"/>
   <g id="FillBetweenPolyCollection_8"/>
   <g id="FillBetweenPolyCollection_9"/>
   <g id="patch_15">
    <path d="M 359.998041 112.96 
L 359.998041 68.699354 
L 361.3728 68.699354 
L 361.3728 50.995095 
L 362.747559 50.995095 
L 362.747559 28.864772 
L 364.122319 28.864772 
L 364.122319 33.290837 
L 365.497078 33.290837 
L 365.497078 42.142966 
L 366.871838 42.142966 
L 366.871838 90.829677 
L 368.246597 90.829677 
L 368.246597 68.699354 
L 369.621356 68.699354 
L 369.621356 90.829677 
L 370.996116 90.829677 
L 370.996116 104.107871 
L 372.370875 104.107871 
L 372.370875 108.533935 
L 373.745634 108.533935 
L 373.745634 99.681806 
L 375.120394 99.681806 
L 375.120394 108.533935 
L 376.495153 108.533935 
L 376.495153 99.681806 
L 377.869913 99.681806 
L 377.869913 108.533935 
L 379.244672 108.533935 
L 379.244672 112.96 
L 380.619431 112.96 
L 380.619431 108.533935 
L 381.994191 108.533935 
L 381.994191 104.107871 
L 383.36895 104.107871 
L 383.36895 108.533935 
L 384.743709 108.533935 
L 384.743709 112.96 
L 386.118469 112.96 
L 386.118469 108.533935 
L 387.493228 108.533935 
L 387.493228 104.107871 
L 388.867988 104.107871 
L 388.867988 112.96 
L 390.242747 112.96 
L 390.242747 104.107871 
L 391.617506 104.107871 
L 391.617506 108.533935 
L 392.992266 108.533935 
L 392.992266 104.107871 
L 394.367025 104.107871 
L 394.367025 112.96 
L 395.741784 112.96 
L 395.741784 108.533935 
L 397.116544 108.533935 
L 397.116544 104.107871 
L 398.491303 104.107871 
L 398.491303 108.533935 
L 399.866063 108.533935 
L 399.866063 99.681806 
L 401.240822 99.681806 
L 401.240822 112.96 
L 399.866063 112.96 
L 399.866063 112.96 
L 398.491303 112.96 
L 398.491303 112.96 
L 397.116544 112.96 
L 397.116544 112.96 
L 395.741784 112.96 
L 395.741784 112.96 
L 394.367025 112.96 
L 394.367025 112.96 
L 392.992266 112.96 
L 392.992266 112.96 
L 391.617506 112.96 
L 391.617506 112.96 
L 390.242747 112.96 
L 390.242747 112.96 
L 388.867988 112.96 
L 388.867988 112.96 
L 387.493228 112.96 
L 387.493228 112.96 
L 386.118469 112.96 
L 386.118469 112.96 
L 384.743709 112.96 
L 384.743709 112.96 
L 383.36895 112.96 
L 383.36895 112.96 
L 381.994191 112.96 
L 381.994191 112.96 
L 380.619431 112.96 
L 380.619431 112.96 
L 379.244672 112.96 
L 379.244672 112.96 
L 377.869913 112.96 
L 377.869913 112.96 
L 376.495153 112.96 
L 376.495153 112.96 
L 375.120394 112.96 
L 375.120394 112.96 
L 373.745634 112.96 
L 373.745634 112.96 
L 372.370875 112.96 
L 372.370875 112.96 
L 370.996116 112.96 
L 370.996116 112.96 
L 369.621356 112.96 
L 369.621356 112.96 
L 368.246597 112.96 
L 368.246597 112.96 
L 366.871838 112.96 
L 366.871838 112.96 
L 365.497078 112.96 
L 365.497078 112.96 
L 364.122319 112.96 
L 364.122319 112.96 
L 362.747559 112.96 
L 362.747559 112.96 
L 361.3728 112.96 
L 361.3728 112.96 
z
" clip-path="url(#p64b570c357)" style="fill: #cccccc; stroke: #ffffff; stroke-linejoin: miter"/>
   </g>
   <g id="line2d_32">
    <path d="M 324.642727 112.96 
L 325.448874 112.96 
L 326.255022 112.96 
L 327.061169 112.96 
L 327.867316 112.96 
L 328.673463 112.96 
L 329.47961 112.96 
L 330.285758 112.96 
L 331.091905 112.96 
L 331.898052 112.96 
L 332.704199 112.96 
L 333.510346 112.96 
L 334.316494 112.96 
L 335.122641 112.96 
L 335.928788 112.96 
L 336.734935 112.96 
L 337.541082 112.96 
L 338.347229 112.96 
L 339.153377 112.96 
L 339.959524 112.96 
L 340.765671 112.96 
L 341.571818 112.96 
L 342.377965 112.96 
L 343.184113 112.96 
L 343.99026 112.96 
L 344.796407 112.96 
L 345.602554 112.96 
L 346.408701 112.96 
L 347.214848 112.96 
L 348.020996 112.96 
L 348.827143 112.96 
L 349.63329 112.959998 
L 350.439437 112.959988 
L 351.245584 112.959933 
L 352.051732 112.95965 
L 352.857879 112.958362 
L 353.664026 112.95307 
L 354.470173 112.933537 
L 355.27632 112.868774 
L 356.082468 112.676088 
L 356.888615 112.16232 
L 357.694762 110.936725 
L 358.500909 108.327003 
L 359.307056 103.382546 
L 360.113203 95.086108 
L 360.919351 82.845952 
L 361.725498 67.156343 
L 362.531645 50.065575 
L 363.337792 34.994022 
L 364.143939 25.707256 
L 364.950087 24.807619 
L 365.756234 32.55742 
L 366.562381 46.755592 
L 367.368528 63.746436 
L 368.174675 79.933412 
L 368.980823 92.951083 
L 369.78697 102.016293 
L 370.593117 107.556361 
L 371.399264 110.551264 
L 372.205411 111.990667 
L 373.011558 112.607842 
L 373.817706 112.8445 
L 374.623853 112.925801 
L 375.43 112.950858 
L 376.236147 112.957794 
L 377.042294 112.959519 
L 377.848442 112.959905 
L 378.654589 112.959983 
L 379.460736 112.959997 
L 380.266883 112.96 
L 381.07303 112.96 
L 381.879177 112.96 
L 382.685325 112.96 
L 383.491472 112.96 
L 384.297619 112.96 
L 385.103766 112.96 
L 385.909913 112.96 
L 386.716061 112.96 
L 387.522208 112.96 
L 388.328355 112.96 
L 389.134502 112.96 
L 389.940649 112.96 
L 390.746797 112.96 
L 391.552944 112.96 
L 392.359091 112.96 
L 393.165238 112.96 
L 393.971385 112.96 
L 394.777532 112.96 
L 395.58368 112.96 
L 396.389827 112.96 
L 397.195974 112.96 
L 398.002121 112.96 
L 398.808268 112.96 
L 399.614416 112.96 
L 400.420563 112.96 
L 401.22671 112.96 
L 402.032857 112.96 
L 402.839004 112.96 
L 403.645152 112.96 
L 404.451299 112.96 
L 405.257446 112.96 
L 406.063593 112.96 
L 406.86974 112.96 
L 407.675887 112.96 
L 408.482035 112.96 
L 409.288182 112.96 
L 410.094329 112.96 
L 410.900476 112.96 
L 411.706623 112.96 
L 412.512771 112.96 
L 413.318918 112.96 
L 414.125065 112.96 
L 414.931212 112.96 
L 415.737359 112.96 
L 416.543506 112.96 
L 417.349654 112.96 
L 418.155801 112.96 
L 418.961948 112.96 
L 419.768095 112.96 
L 420.574242 112.96 
L 421.38039 112.96 
L 422.186537 112.96 
L 422.992684 112.96 
L 423.798831 112.96 
L 424.604978 112.96 
L 425.411126 112.96 
L 426.217273 112.96 
" clip-path="url(#p64b570c357)" style="fill: none; stroke: #edd1cb; stroke-width: 1.5; stroke-linecap: round"/>
   </g>
   <g id="line2d_33">
    <path d="M 324.642727 112.96 
L 325.448874 112.96 
L 326.255022 112.96 
L 327.061169 112.96 
L 327.867316 112.96 
L 328.673463 112.96 
L 329.47961 112.96 
L 330.285758 112.96 
L 331.091905 112.96 
L 331.898052 112.96 
L 332.704199 112.96 
L 333.510346 112.96 
L 334.316494 112.96 
L 335.122641 112.96 
L 335.928788 112.96 
L 336.734935 112.96 
L 337.541082 112.96 
L 338.347229 112.96 
L 339.153377 112.96 
L 339.959524 112.96 
L 340.765671 112.96 
L 341.571818 112.96 
L 342.377965 112.96 
L 343.184113 112.96 
L 343.99026 112.96 
L 344.796407 112.96 
L 345.602554 112.96 
L 346.408701 112.96 
L 347.214848 112.96 
L 348.020996 112.96 
L 348.827143 112.96 
L 349.63329 112.96 
L 350.439437 112.96 
L 351.245584 112.96 
L 352.051732 112.96 
L 352.857879 112.96 
L 353.664026 112.96 
L 354.470173 112.96 
L 355.27632 112.96 
L 356.082468 112.96 
L 356.888615 112.96 
L 357.694762 112.96 
L 358.500909 112.96 
L 359.307056 112.96 
L 360.113203 112.96 
L 360.919351 112.96 
L 361.725498 112.96 
L 362.531645 112.96 
L 363.337792 112.959999 
L 364.143939 112.959999 
L 364.950087 112.959997 
L 365.756234 112.959993 
L 366.562381 112.959984 
L 367.368528 112.959966 
L 368.174675 112.959929 
L 368.980823 112.959856 
L 369.78697 112.959716 
L 370.593117 112.95945 
L 371.399264 112.958958 
L 372.205411 112.958071 
L 373.011558 112.956508 
L 373.817706 112.953817 
L 374.623853 112.949295 
L 375.43 112.941875 
L 376.236147 112.929987 
L 377.042294 112.911401 
L 377.848442 112.883042 
L 378.654589 112.840826 
L 379.460736 112.779525 
L 380.266883 112.692727 
L 381.07303 112.572922 
L 381.879177 112.411792 
L 382.685325 112.200729 
L 383.491472 111.931622 
L 384.297619 111.597889 
L 385.103766 111.195683 
L 385.909913 110.725166 
L 386.716061 110.19167 
L 387.522208 109.606526 
L 388.328355 108.987388 
L 389.134502 108.357841 
L 389.940649 107.746236 
L 390.746797 107.183757 
L 391.552944 106.701883 
L 392.359091 106.329501 
L 393.165238 106.090058 
L 393.971385 105.999121 
L 394.777532 106.062695 
L 395.58368 106.276576 
L 396.389827 106.626805 
L 397.195974 107.091178 
L 398.002121 107.641572 
L 398.808268 108.246756 
L 399.614416 108.875294 
L 400.420563 109.498169 
L 401.22671 110.090836 
L 402.032857 110.634539 
L 402.839004 111.116824 
L 403.645152 111.531339 
L 404.451299 111.877082 
L 405.257446 112.157276 
L 406.063593 112.37811 
L 406.86974 112.547503 
L 407.675887 112.674041 
L 408.482035 112.766139 
L 409.288182 112.831476 
L 410.094329 112.876674 
L 410.900476 112.90717 
L 411.706623 112.927244 
L 412.512771 112.940139 
L 413.318918 112.948224 
L 414.125065 112.953172 
L 414.931212 112.956128 
L 415.737359 112.957853 
L 416.543506 112.958836 
L 417.349654 112.959382 
L 418.155801 112.95968 
L 418.961948 112.959838 
L 419.768095 112.959919 
L 420.574242 112.959961 
L 421.38039 112.959981 
L 422.186537 112.959991 
L 422.992684 112.959996 
L 423.798831 112.959998 
L 424.604978 112.959999 
L 425.411126 112.96 
L 426.217273 112.96 
" clip-path="url(#p64b570c357)" style="fill: none; stroke: #a9678f; stroke-width: 1.5; stroke-linecap: round"/>
   </g>
   <g id="line2d_34">
    <path d="M 324.642727 112.96 
L 325.448874 112.96 
L 326.255022 112.96 
L 327.061169 112.96 
L 327.867316 112.96 
L 328.673463 112.96 
L 329.47961 112.96 
L 330.285758 112.96 
L 331.091905 112.96 
L 331.898052 112.96 
L 332.704199 112.96 
L 333.510346 112.96 
L 334.316494 112.96 
L 335.122641 112.96 
L 335.928788 112.96 
L 336.734935 112.96 
L 337.541082 112.96 
L 338.347229 112.96 
L 339.153377 112.96 
L 339.959524 112.96 
L 340.765671 112.96 
L 341.571818 112.96 
L 342.377965 112.96 
L 343.184113 112.96 
L 343.99026 112.96 
L 344.796407 112.959999 
L 345.602554 112.959998 
L 346.408701 112.959996 
L 347.214848 112.959991 
L 348.020996 112.959979 
L 348.827143 112.959955 
L 349.63329 112.959906 
L 350.439437 112.959807 
L 351.245584 112.959614 
L 352.051732 112.959242 
L 352.857879 112.958549 
L 353.664026 112.957284 
L 354.470173 112.955036 
L 355.27632 112.951135 
L 356.082468 112.944536 
L 356.888615 112.933646 
L 357.694762 112.916126 
L 358.500909 112.888643 
L 359.307056 112.846628 
L 360.113203 112.784033 
L 360.919351 112.693186 
L 361.725498 112.564782 
L 362.531645 112.388105 
L 363.337792 112.15156 
L 364.143939 111.843571 
L 364.950087 111.453857 
L 365.756234 110.975036 
L 366.562381 110.404411 
L 367.368528 109.745741 
L 368.174675 109.010678 
L 368.980823 108.219591 
L 369.78697 107.40146 
L 370.593117 106.59267 
L 371.399264 105.834659 
L 372.205411 105.170572 
L 373.011558 104.641267 
L 373.817706 104.281184 
L 374.623853 104.114641 
L 375.43 104.15312 
L 376.236147 104.393954 
L 377.042294 104.820638 
L 377.848442 105.404695 
L 378.654589 106.108821 
L 379.460736 106.890816 
L 380.266883 107.707731 
L 381.07303 108.519669 
L 381.879177 109.292794 
L 382.685325 110.001259 
L 383.491472 110.62799 
L 384.297619 111.164418 
L 385.103766 111.609384 
L 385.909913 111.967546 
L 386.716061 112.247573 
L 387.522208 112.4604 
L 388.328355 112.617741 
L 389.134502 112.730945 
L 389.940649 112.810246 
L 390.746797 112.864354 
L 391.552944 112.900323 
L 392.359091 112.923625 
L 393.165238 112.938341 
L 393.971385 112.947401 
L 394.777532 112.952841 
L 395.58368 112.956026 
L 396.389827 112.957845 
L 397.195974 112.958858 
L 398.002121 112.959409 
L 398.808268 112.959701 
L 399.614416 112.959852 
L 400.420563 112.959929 
L 401.22671 112.959966 
L 402.032857 112.959985 
L 402.839004 112.959993 
L 403.645152 112.959997 
L 404.451299 112.959999 
L 405.257446 112.959999 
L 406.063593 112.96 
L 406.86974 112.96 
L 407.675887 112.96 
L 408.482035 112.96 
L 409.288182 112.96 
L 410.094329 112.96 
L 410.900476 112.96 
L 411.706623 112.96 
L 412.512771 112.96 
L 413.318918 112.96 
L 414.125065 112.96 
L 414.931212 112.96 
L 415.737359 112.96 
L 416.543506 112.96 
L 417.349654 112.96 
L 418.155801 112.96 
L 418.961948 112.96 
L 419.768095 112.96 
L 420.574242 112.96 
L 421.38039 112.96 
L 422.186537 112.96 
L 422.992684 112.96 
L 423.798831 112.96 
L 424.604978 112.96 
L 425.411126 112.96 
L 426.217273 112.96 
" clip-path="url(#p64b570c357)" style="fill: none; stroke: #2d1e3e; stroke-width: 1.5; stroke-linecap: round"/>
   </g>
   <g id="line2d_35">
    <path d="M 370.788561 112.96 
L 370.788561 20.4 
" clip-path="url(#p64b570c357)" style="fill: none; stroke-dasharray: 5.55,2.4; stroke-dashoffset: 0; stroke: #808080; stroke-width: 1.5"/>
   </g>
   <g id="line2d_36">
    <path d="M 382.033851 112.96 
L 382.033851 20.4 
" clip-path="url(#p64b570c357)" style="fill: none; stroke-dasharray: 5.55,2.4; stroke-dashoffset: 0; stroke: #808080; stroke-width: 1.5"/>
   </g>
   <g id="patch_16">
    <path d="M 319.564 112.96 
L 319.564 20.4 
" style="fill: none; stroke: #262626; stroke-width: 1.25; stroke-linejoin: miter; stroke-linecap: square"/>
   </g>
   <g id="patch_17">
    <path d="M 431.296 112.96 
L 431.296 20.4 
" style="fill: none; stroke: #262626; stroke-width: 1.25; stroke-linejoin: miter; stroke-linecap: square"/>
   </g>
   <g id="patch_18">
    <path d="M 319.564 112.96 
L 431.296 112.96 
" style="fill: none; stroke: #262626; stroke-width: 1.25; stroke-linejoin: miter; stroke-linecap: square"/>
   </g>
   <g id="patch_19">
    <path d="M 319.564 20.4 
L 431.296 20.4 
" style="fill: none; stroke: #262626; stroke-width: 1.25; stroke-linejoin: miter; stroke-linecap: square"/>
   </g>
   <g id="text_28">
    <text style="font-size: 8px; font-family: 'Arial'; text-anchor: middle; fill: #262626" x="375.43" y="14.4" transform="rotate(-0 375.43 14.4)">Anidulafungin</text>
   </g>
  </g>
  <g id="axes_4">
   <g id="patch_20">
    <path d="M 459.596 112.96 
L 571.328 112.96 
L 571.328 20.4 
L 459.596 20.4 
z
" style="fill: #ffffff"/>
   </g>
   <g id="matplotlib.axis_7">
    <g id="xtick_10">
     <g id="line2d_37">
      <g>
       <use xlink:href="#mef35442ee0" x="464.674727" y="112.96" style="fill: #262626; stroke: #262626; stroke-width: 1.25"/>
      </g>
     </g>
     <g id="text_29">
      <text style="font-size: 8px; font-family: 'Arial'; text-anchor: middle; fill: #262626" x="464.674727" y="122.68625" transform="rotate(-0 464.674727 122.68625)">−2</text>
     </g>
    </g>
    <g id="xtick_11">
     <g id="line2d_38">
      <g>
       <use xlink:href="#mef35442ee0" x="505.304545" y="112.96" style="fill: #262626; stroke: #262626; stroke-width: 1.25"/>
      </g>
     </g>
     <g id="text_30">
      <text style="font-size: 8px; font-family: 'Arial'; text-anchor: middle; fill: #262626" x="505.304545" y="122.68625" transform="rotate(-0 505.304545 122.68625)">0</text>
     </g>
    </g>
    <g id="xtick_12">
     <g id="line2d_39">
      <g>
       <use xlink:href="#mef35442ee0" x="545.934364" y="112.96" style="fill: #262626; stroke: #262626; stroke-width: 1.25"/>
      </g>
     </g>
     <g id="text_31">
      <text style="font-size: 8px; font-family: 'Arial'; text-anchor: middle; fill: #262626" x="545.934364" y="122.68625" transform="rotate(-0 545.934364 122.68625)">2</text>
     </g>
    </g>
    <g id="text_32">
     <text style="font-size: 8px; font-family: 'Arial'; text-anchor: middle; fill: #262626" x="515.462" y="134.0025" transform="rotate(-0 515.462 134.0025)">x</text>
    </g>
   </g>
   <g id="matplotlib.axis_8">
    <g id="ytick_13">
     <g id="line2d_40">
      <g>
       <use xlink:href="#m7af71d9fb1" x="459.596" y="112.96" style="fill: #262626; stroke: #262626; stroke-width: 1.25"/>
      </g>
     </g>
     <g id="text_33">
      <text style="font-size: 8px; font-family: 'Arial'; text-anchor: end; fill: #262626" x="455.596" y="115.823125" transform="rotate(-0 455.596 115.823125)">0</text>
     </g>
    </g>
    <g id="ytick_14">
     <g id="line2d_41">
      <g>
       <use xlink:href="#m7af71d9fb1" x="459.596" y="84.818534" style="fill: #262626; stroke: #262626; stroke-width: 1.25"/>
      </g>
     </g>
     <g id="text_34">
      <text style="font-size: 8px; font-family: 'Arial'; text-anchor: end; fill: #262626" x="455.596" y="87.681659" transform="rotate(-0 455.596 87.681659)">1</text>
     </g>
    </g>
    <g id="ytick_15">
     <g id="line2d_42">
      <g>
       <use xlink:href="#m7af71d9fb1" x="459.596" y="56.677068" style="fill: #262626; stroke: #262626; stroke-width: 1.25"/>
      </g>
     </g>
     <g id="text_35">
      <text style="font-size: 8px; font-family: 'Arial'; text-anchor: end; fill: #262626" x="455.596" y="59.540193" transform="rotate(-0 455.596 59.540193)">2</text>
     </g>
    </g>
    <g id="ytick_16">
     <g id="line2d_43">
      <g>
       <use xlink:href="#m7af71d9fb1" x="459.596" y="28.535602" style="fill: #262626; stroke: #262626; stroke-width: 1.25"/>
      </g>
     </g>
     <g id="text_36">
      <text style="font-size: 8px; font-family: 'Arial'; text-anchor: end; fill: #262626" x="455.596" y="31.398727" transform="rotate(-0 455.596 31.398727)">3</text>
     </g>
    </g>
   </g>
   <g id="FillBetweenPolyCollection_10"/>
   <g id="FillBetweenPolyCollection_11"/>
   <g id="FillBetweenPolyCollection_12"/>
   <g id="patch_21">
    <path d="M 498.879245 112.96 
L 498.879245 105.90781 
L 500.155871 105.90781 
L 500.155871 105.90781 
L 501.432498 105.90781 
L 501.432498 91.803429 
L 502.709124 91.803429 
L 502.709124 24.807619 
L 503.985751 24.807619 
L 503.985751 49.490286 
L 505.262377 49.490286 
L 505.262377 49.490286 
L 506.539004 49.490286 
L 506.539004 88.277333 
L 507.81563 88.277333 
L 507.81563 88.277333 
L 509.092257 88.277333 
L 509.092257 102.381714 
L 510.368883 102.381714 
L 510.368883 95.329524 
L 511.64551 95.329524 
L 511.64551 109.433905 
L 512.922136 109.433905 
L 512.922136 98.855619 
L 514.198762 98.855619 
L 514.198762 102.381714 
L 515.475389 102.381714 
L 515.475389 112.96 
L 516.752015 112.96 
L 516.752015 109.433905 
L 518.028642 109.433905 
L 518.028642 98.855619 
L 519.305268 98.855619 
L 519.305268 112.96 
L 520.581895 112.96 
L 520.581895 109.433905 
L 521.858521 109.433905 
L 521.858521 109.433905 
L 523.135148 109.433905 
L 523.135148 112.96 
L 524.411774 112.96 
L 524.411774 109.433905 
L 525.688401 109.433905 
L 525.688401 112.96 
L 526.965027 112.96 
L 526.965027 105.90781 
L 528.241654 105.90781 
L 528.241654 109.433905 
L 529.51828 109.433905 
L 529.51828 102.381714 
L 530.794906 102.381714 
L 530.794906 98.855619 
L 532.071533 98.855619 
L 532.071533 102.381714 
L 533.348159 102.381714 
L 533.348159 112.96 
L 534.624786 112.96 
L 534.624786 105.90781 
L 535.901412 105.90781 
L 535.901412 102.381714 
L 537.178039 102.381714 
L 537.178039 112.96 
L 535.901412 112.96 
L 535.901412 112.96 
L 534.624786 112.96 
L 534.624786 112.96 
L 533.348159 112.96 
L 533.348159 112.96 
L 532.071533 112.96 
L 532.071533 112.96 
L 530.794906 112.96 
L 530.794906 112.96 
L 529.51828 112.96 
L 529.51828 112.96 
L 528.241654 112.96 
L 528.241654 112.96 
L 526.965027 112.96 
L 526.965027 112.96 
L 525.688401 112.96 
L 525.688401 112.96 
L 524.411774 112.96 
L 524.411774 112.96 
L 523.135148 112.96 
L 523.135148 112.96 
L 521.858521 112.96 
L 521.858521 112.96 
L 520.581895 112.96 
L 520.581895 112.96 
L 519.305268 112.96 
L 519.305268 112.96 
L 518.028642 112.96 
L 518.028642 112.96 
L 516.752015 112.96 
L 516.752015 112.96 
L 515.475389 112.96 
L 515.475389 112.96 
L 514.198762 112.96 
L 514.198762 112.96 
L 512.922136 112.96 
L 512.922136 112.96 
L 511.64551 112.96 
L 511.64551 112.96 
L 510.368883 112.96 
L 510.368883 112.96 
L 509.092257 112.96 
L 509.092257 112.96 
L 507.81563 112.96 
L 507.81563 112.96 
L 506.539004 112.96 
L 506.539004 112.96 
L 505.262377 112.96 
L 505.262377 112.96 
L 503.985751 112.96 
L 503.985751 112.96 
L 502.709124 112.96 
L 502.709124 112.96 
L 501.432498 112.96 
L 501.432498 112.96 
L 500.155871 112.96 
L 500.155871 112.96 
z
" clip-path="url(#pf5563b0cbd)" style="fill: #cccccc; stroke: #ffffff; stroke-linejoin: miter"/>
   </g>
   <g id="line2d_44">
    <path d="M 464.674727 112.96 
L 465.480874 112.96 
L 466.287022 112.96 
L 467.093169 112.96 
L 467.899316 112.96 
L 468.705463 112.96 
L 469.51161 112.96 
L 470.317758 112.96 
L 471.123905 112.96 
L 471.930052 112.96 
L 472.736199 112.96 
L 473.542346 112.96 
L 474.348494 112.96 
L 475.154641 112.96 
L 475.960788 112.96 
L 476.766935 112.96 
L 477.573082 112.96 
L 478.379229 112.96 
L 479.185377 112.96 
L 479.991524 112.96 
L 480.797671 112.96 
L 481.603818 112.96 
L 482.409965 112.96 
L 483.216113 112.96 
L 484.02226 112.96 
L 484.828407 112.96 
L 485.634554 112.96 
L 486.440701 112.96 
L 487.246848 112.96 
L 488.052996 112.96 
L 488.859143 112.96 
L 489.66529 112.96 
L 490.471437 112.96 
L 491.277584 112.96 
L 492.083732 112.96 
L 492.889879 112.959999 
L 493.696026 112.959992 
L 494.502173 112.959923 
L 495.30832 112.95936 
L 496.114468 112.955525 
L 496.920615 112.933779 
L 497.726762 112.831304 
L 498.532909 112.430872 
L 499.339056 111.137609 
L 500.145203 107.702155 
L 500.951351 100.252527 
L 501.757498 87.232599 
L 502.563645 69.326718 
L 503.369792 50.969506 
L 504.175939 39.183581 
L 504.982087 39.407861 
L 505.788234 51.533143 
L 506.594381 69.985925 
L 507.400528 87.775111 
L 508.206675 100.596006 
L 509.012823 107.87533 
L 509.81897 111.208331 
L 510.625117 112.454494 
L 511.431264 112.837796 
L 512.237411 112.935252 
L 513.043558 112.955802 
L 513.849706 112.959403 
L 514.655853 112.959929 
L 515.462 112.959993 
L 516.268147 112.959999 
L 517.074294 112.96 
L 517.880442 112.96 
L 518.686589 112.96 
L 519.492736 112.96 
L 520.298883 112.96 
L 521.10503 112.96 
L 521.911177 112.96 
L 522.717325 112.96 
L 523.523472 112.96 
L 524.329619 112.96 
L 525.135766 112.96 
L 525.941913 112.96 
L 526.748061 112.96 
L 527.554208 112.96 
L 528.360355 112.96 
L 529.166502 112.96 
L 529.972649 112.96 
L 530.778797 112.96 
L 531.584944 112.96 
L 532.391091 112.96 
L 533.197238 112.96 
L 534.003385 112.96 
L 534.809532 112.96 
L 535.61568 112.96 
L 536.421827 112.96 
L 537.227974 112.96 
L 538.034121 112.96 
L 538.840268 112.96 
L 539.646416 112.96 
L 540.452563 112.96 
L 541.25871 112.96 
L 542.064857 112.96 
L 542.871004 112.96 
L 543.677152 112.96 
L 544.483299 112.96 
L 545.289446 112.96 
L 546.095593 112.96 
L 546.90174 112.96 
L 547.707887 112.96 
L 548.514035 112.96 
L 549.320182 112.96 
L 550.126329 112.96 
L 550.932476 112.96 
L 551.738623 112.96 
L 552.544771 112.96 
L 553.350918 112.96 
L 554.157065 112.96 
L 554.963212 112.96 
L 555.769359 112.96 
L 556.575506 112.96 
L 557.381654 112.96 
L 558.187801 112.96 
L 558.993948 112.96 
L 559.800095 112.96 
L 560.606242 112.96 
L 561.41239 112.96 
L 562.218537 112.96 
L 563.024684 112.96 
L 563.830831 112.96 
L 564.636978 112.96 
L 565.443126 112.96 
L 566.249273 112.96 
" clip-path="url(#pf5563b0cbd)" style="fill: none; stroke: #edd1cb; stroke-width: 1.5; stroke-linecap: round"/>
   </g>
   <g id="line2d_45">
    <path d="M 464.674727 112.96 
L 465.480874 112.96 
L 466.287022 112.96 
L 467.093169 112.96 
L 467.899316 112.96 
L 468.705463 112.96 
L 469.51161 112.96 
L 470.317758 112.96 
L 471.123905 112.96 
L 471.930052 112.96 
L 472.736199 112.96 
L 473.542346 112.96 
L 474.348494 112.96 
L 475.154641 112.96 
L 475.960788 112.96 
L 476.766935 112.96 
L 477.573082 112.96 
L 478.379229 112.96 
L 479.185377 112.96 
L 479.991524 112.96 
L 480.797671 112.96 
L 481.603818 112.96 
L 482.409965 112.96 
L 483.216113 112.96 
L 484.02226 112.96 
L 484.828407 112.96 
L 485.634554 112.96 
L 486.440701 112.96 
L 487.246848 112.96 
L 488.052996 112.96 
L 488.859143 112.96 
L 489.66529 112.96 
L 490.471437 112.96 
L 491.277584 112.96 
L 492.083732 112.96 
L 492.889879 112.96 
L 493.696026 112.96 
L 494.502173 112.96 
L 495.30832 112.96 
L 496.114468 112.96 
L 496.920615 112.96 
L 497.726762 112.96 
L 498.532909 112.96 
L 499.339056 112.96 
L 500.145203 112.96 
L 500.951351 112.96 
L 501.757498 112.96 
L 502.563645 112.96 
L 503.369792 112.96 
L 504.175939 112.96 
L 504.982087 112.96 
L 505.788234 112.96 
L 506.594381 112.96 
L 507.400528 112.96 
L 508.206675 112.96 
L 509.012823 112.96 
L 509.81897 112.96 
L 510.625117 112.96 
L 511.431264 112.96 
L 512.237411 112.96 
L 513.043558 112.96 
L 513.849706 112.96 
L 514.655853 112.959998 
L 515.462 112.959993 
L 516.268147 112.959972 
L 517.074294 112.959899 
L 517.880442 112.95966 
L 518.686589 112.958925 
L 519.492736 112.956826 
L 520.298883 112.951243 
L 521.10503 112.937417 
L 521.911177 112.905575 
L 522.717325 112.837422 
L 523.523472 112.701993 
L 524.329619 112.452484 
L 525.135766 112.027028 
L 525.941913 111.35717 
L 526.748061 110.386604 
L 527.554208 109.098765 
L 528.360355 107.545654 
L 529.166502 105.864777 
L 529.972649 104.270669 
L 530.778797 103.014951 
L 531.584944 102.32279 
L 532.391091 102.32717 
L 533.197238 103.027233 
L 534.003385 104.288547 
L 534.809532 105.885206 
L 535.61568 107.565689 
L 536.421827 109.116221 
L 537.227974 110.400347 
L 538.034121 111.367043 
L 538.840268 112.033539 
L 539.646416 112.45644 
L 540.452563 112.704215 
L 541.25871 112.838578 
L 542.064857 112.906133 
L 542.871004 112.937667 
L 543.677152 112.951347 
L 544.483299 112.956867 
L 545.289446 112.95894 
L 546.095593 112.959665 
L 546.90174 112.959901 
L 547.707887 112.959973 
L 548.514035 112.959993 
L 549.320182 112.959998 
L 550.126329 112.96 
L 550.932476 112.96 
L 551.738623 112.96 
L 552.544771 112.96 
L 553.350918 112.96 
L 554.157065 112.96 
L 554.963212 112.96 
L 555.769359 112.96 
L 556.575506 112.96 
L 557.381654 112.96 
L 558.187801 112.96 
L 558.993948 112.96 
L 559.800095 112.96 
L 560.606242 112.96 
L 561.41239 112.96 
L 562.218537 112.96 
L 563.024684 112.96 
L 563.830831 112.96 
L 564.636978 112.96 
L 565.443126 112.96 
L 566.249273 112.96 
" clip-path="url(#pf5563b0cbd)" style="fill: none; stroke: #a9678f; stroke-width: 1.5; stroke-linecap: round"/>
   </g>
   <g id="line2d_46">
    <path d="M 464.674727 112.96 
L 465.480874 112.96 
L 466.287022 112.96 
L 467.093169 112.96 
L 467.899316 112.96 
L 468.705463 112.96 
L 469.51161 112.96 
L 470.317758 112.96 
L 471.123905 112.96 
L 471.930052 112.96 
L 472.736199 112.96 
L 473.542346 112.96 
L 474.348494 112.96 
L 475.154641 112.96 
L 475.960788 112.96 
L 476.766935 112.96 
L 477.573082 112.96 
L 478.379229 112.96 
L 479.185377 112.96 
L 479.991524 112.96 
L 480.797671 112.96 
L 481.603818 112.96 
L 482.409965 112.96 
L 483.216113 112.96 
L 484.02226 112.96 
L 484.828407 112.959999 
L 485.634554 112.959998 
L 486.440701 112.959995 
L 487.246848 112.959988 
L 488.052996 112.959971 
L 488.859143 112.959935 
L 489.66529 112.959859 
L 490.471437 112.9597 
L 491.277584 112.959377 
L 492.083732 112.958743 
L 492.889879 112.957528 
L 493.696026 112.955266 
L 494.502173 112.95117 
L 495.30832 112.943959 
L 496.114468 112.931618 
L 496.920615 112.911092 
L 497.726762 112.877918 
L 498.532909 112.825831 
L 499.339056 112.746404 
L 500.145203 112.628819 
L 500.951351 112.459882 
L 501.757498 112.224449 
L 502.563645 111.906374 
L 503.369792 111.490079 
L 504.175939 110.962738 
L 504.982087 110.316923 
L 505.788234 109.553422 
L 506.594381 108.683776 
L 507.400528 107.731992 
L 508.206675 106.734909 
L 509.012823 105.740804 
L 509.81897 104.806096 
L 510.625117 103.99034 
L 511.431264 103.350074 
L 512.237411 102.932382 
L 513.043558 102.769179 
L 513.849706 102.873181 
L 514.655853 103.23627 
L 515.462 103.830536 
L 516.268147 104.61183 
L 517.074294 105.525172 
L 517.880442 106.51112 
L 518.686589 107.512073 
L 519.492736 108.477587 
L 520.298883 109.368084 
L 521.10503 110.15667 
L 521.911177 110.829136 
L 522.717325 111.382494 
L 523.523472 111.822582 
L 524.329619 112.161265 
L 525.135766 112.413716 
L 525.941913 112.596111 
L 526.748061 112.723924 
L 527.554208 112.810834 
L 528.360355 112.868205 
L 529.166502 112.904982 
L 529.972649 112.927884 
L 530.778797 112.941741 
L 531.584944 112.94989 
L 532.391091 112.954548 
L 533.197238 112.957136 
L 534.003385 112.958535 
L 534.809532 112.95927 
L 535.61568 112.959646 
L 536.421827 112.959833 
L 537.227974 112.959923 
L 538.034121 112.959965 
L 538.840268 112.959985 
L 539.646416 112.959994 
L 540.452563 112.959997 
L 541.25871 112.959999 
L 542.064857 112.96 
L 542.871004 112.96 
L 543.677152 112.96 
L 544.483299 112.96 
L 545.289446 112.96 
L 546.095593 112.96 
L 546.90174 112.96 
L 547.707887 112.96 
L 548.514035 112.96 
L 549.320182 112.96 
L 550.126329 112.96 
L 550.932476 112.96 
L 551.738623 112.96 
L 552.544771 112.96 
L 553.350918 112.96 
L 554.157065 112.96 
L 554.963212 112.96 
L 555.769359 112.96 
L 556.575506 112.96 
L 557.381654 112.96 
L 558.187801 112.96 
L 558.993948 112.96 
L 559.800095 112.96 
L 560.606242 112.96 
L 561.41239 112.96 
L 562.218537 112.96 
L 563.024684 112.96 
L 563.830831 112.96 
L 564.636978 112.96 
L 565.443126 112.96 
L 566.249273 112.96 
" clip-path="url(#pf5563b0cbd)" style="fill: none; stroke: #2d1e3e; stroke-width: 1.5; stroke-linecap: round"/>
   </g>
   <g id="line2d_47">
    <path d="M 509.180707 112.96 
L 509.180707 20.4 
" clip-path="url(#pf5563b0cbd)" style="fill: none; stroke-dasharray: 5.55,2.4; stroke-dashoffset: 0; stroke: #808080; stroke-width: 1.5"/>
   </g>
   <g id="line2d_48">
    <path d="M 523.522066 112.96 
L 523.522066 20.4 
" clip-path="url(#pf5563b0cbd)" style="fill: none; stroke-dasharray: 5.55,2.4; stroke-dashoffset: 0; stroke: #808080; stroke-width: 1.5"/>
   </g>
   <g id="patch_22">
    <path d="M 459.596 112.96 
L 459.596 20.4 
" style="fill: none; stroke: #262626; stroke-width: 1.25; stroke-linejoin: miter; stroke-linecap: square"/>
   </g>
   <g id="patch_23">
    <path d="M 571.328 112.96 
L 571.328 20.4 
" style="fill: none; stroke: #262626; stroke-width: 1.25; stroke-linejoin: miter; stroke-linecap: square"/>
   </g>
   <g id="patch_24">
    <path d="M 459.596 112.96 
L 571.328 112.96 
" style="fill: none; stroke: #262626; stroke-width: 1.25; stroke-linejoin: miter; stroke-linecap: square"/>
   </g>
   <g id="patch_25">
    <path d="M 459.596 20.4 
L 571.328 20.4 
" style="fill: none; stroke: #262626; stroke-width: 1.25; stroke-linejoin: miter; stroke-linecap: square"/>
   </g>
   <g id="text_37">
    <text style="font-size: 8px; font-family: 'Arial'; text-anchor: middle; fill: #262626" x="515.462" y="14.4" transform="rotate(-0 515.462 14.4)">Caspofungin</text>
   </g>
  </g>
  <g id="axes_5">
   <g id="patch_26">
    <path d="M 599.628 112.96 
L 711.36 112.96 
L 711.36 20.4 
L 599.628 20.4 
z
" style="fill: #ffffff"/>
   </g>
   <g id="matplotlib.axis_9">
    <g id="xtick_13">
     <g id="line2d_49">
      <g>
       <use xlink:href="#mef35442ee0" x="604.706727" y="112.96" style="fill: #262626; stroke: #262626; stroke-width: 1.25"/>
      </g>
     </g>
     <g id="text_38">
      <text style="font-size: 8px; font-family: 'Arial'; text-anchor: middle; fill: #262626" x="604.706727" y="122.68625" transform="rotate(-0 604.706727 122.68625)">−2</text>
     </g>
    </g>
    <g id="xtick_14">
     <g id="line2d_50">
      <g>
       <use xlink:href="#mef35442ee0" x="645.336545" y="112.96" style="fill: #262626; stroke: #262626; stroke-width: 1.25"/>
      </g>
     </g>
     <g id="text_39">
      <text style="font-size: 8px; font-family: 'Arial'; text-anchor: middle; fill: #262626" x="645.336545" y="122.68625" transform="rotate(-0 645.336545 122.68625)">0</text>
     </g>
    </g>
    <g id="xtick_15">
     <g id="line2d_51">
      <g>
       <use xlink:href="#mef35442ee0" x="685.966364" y="112.96" style="fill: #262626; stroke: #262626; stroke-width: 1.25"/>
      </g>
     </g>
     <g id="text_40">
      <text style="font-size: 8px; font-family: 'Arial'; text-anchor: middle; fill: #262626" x="685.966364" y="122.68625" transform="rotate(-0 685.966364 122.68625)">2</text>
     </g>
    </g>
    <g id="text_41">
     <text style="font-size: 8px; font-family: 'Arial'; text-anchor: middle; fill: #262626" x="655.494" y="134.0025" transform="rotate(-0 655.494 134.0025)">x</text>
    </g>
   </g>
   <g id="matplotlib.axis_10">
    <g id="ytick_17">
     <g id="line2d_52">
      <g>
       <use xlink:href="#m7af71d9fb1" x="599.628" y="112.96" style="fill: #262626; stroke: #262626; stroke-width: 1.25"/>
      </g>
     </g>
     <g id="text_42">
      <text style="font-size: 8px; font-family: 'Arial'; text-anchor: end; fill: #262626" x="595.628" y="115.823125" transform="rotate(-0 595.628 115.823125)">0.0</text>
     </g>
    </g>
    <g id="ytick_18">
     <g id="line2d_53">
      <g>
       <use xlink:href="#m7af71d9fb1" x="599.628" y="93.277959" style="fill: #262626; stroke: #262626; stroke-width: 1.25"/>
      </g>
     </g>
     <g id="text_43">
      <text style="font-size: 8px; font-family: 'Arial'; text-anchor: end; fill: #262626" x="595.628" y="96.141084" transform="rotate(-0 595.628 96.141084)">0.5</text>
     </g>
    </g>
    <g id="ytick_19">
     <g id="line2d_54">
      <g>
       <use xlink:href="#m7af71d9fb1" x="599.628" y="73.595918" style="fill: #262626; stroke: #262626; stroke-width: 1.25"/>
      </g>
     </g>
     <g id="text_44">
      <text style="font-size: 8px; font-family: 'Arial'; text-anchor: end; fill: #262626" x="595.628" y="76.459043" transform="rotate(-0 595.628 76.459043)">1.0</text>
     </g>
    </g>
    <g id="ytick_20">
     <g id="line2d_55">
      <g>
       <use xlink:href="#m7af71d9fb1" x="599.628" y="53.913878" style="fill: #262626; stroke: #262626; stroke-width: 1.25"/>
      </g>
     </g>
     <g id="text_45">
      <text style="font-size: 8px; font-family: 'Arial'; text-anchor: end; fill: #262626" x="595.628" y="56.777003" transform="rotate(-0 595.628 56.777003)">1.5</text>
     </g>
    </g>
    <g id="ytick_21">
     <g id="line2d_56">
      <g>
       <use xlink:href="#m7af71d9fb1" x="599.628" y="34.231837" style="fill: #262626; stroke: #262626; stroke-width: 1.25"/>
      </g>
     </g>
     <g id="text_46">
      <text style="font-size: 8px; font-family: 'Arial'; text-anchor: end; fill: #262626" x="595.628" y="37.094962" transform="rotate(-0 595.628 37.094962)">2.0</text>
     </g>
    </g>
   </g>
   <g id="FillBetweenPolyCollection_13"/>
   <g id="FillBetweenPolyCollection_14"/>
   <g id="FillBetweenPolyCollection_15"/>
   <g id="patch_27">
    <path d="M 640.913614 112.96 
L 640.913614 90.921905 
L 642.056485 90.921905 
L 642.056485 63.374286 
L 643.199356 63.374286 
L 643.199356 57.864762 
L 644.342227 57.864762 
L 644.342227 24.807619 
L 645.485098 24.807619 
L 645.485098 74.393333 
L 646.627969 74.393333 
L 646.627969 96.431429 
L 647.77084 96.431429 
L 647.77084 96.431429 
L 648.913711 96.431429 
L 648.913711 85.412381 
L 650.056582 85.412381 
L 650.056582 79.902857 
L 651.199453 79.902857 
L 651.199453 101.940952 
L 652.342324 101.940952 
L 652.342324 101.940952 
L 653.485195 101.940952 
L 653.485195 101.940952 
L 654.628066 101.940952 
L 654.628066 90.921905 
L 655.770937 90.921905 
L 655.770937 101.940952 
L 656.913808 101.940952 
L 656.913808 85.412381 
L 658.05668 85.412381 
L 658.05668 101.940952 
L 659.199551 101.940952 
L 659.199551 85.412381 
L 660.342422 85.412381 
L 660.342422 112.96 
L 661.485293 112.96 
L 661.485293 96.431429 
L 662.628164 96.431429 
L 662.628164 101.940952 
L 663.771035 101.940952 
L 663.771035 90.921905 
L 664.913906 90.921905 
L 664.913906 101.940952 
L 666.056777 101.940952 
L 666.056777 90.921905 
L 667.199648 90.921905 
L 667.199648 85.412381 
L 668.342519 85.412381 
L 668.342519 96.431429 
L 669.48539 96.431429 
L 669.48539 90.921905 
L 670.628261 90.921905 
L 670.628261 79.902857 
L 671.771132 79.902857 
L 671.771132 101.940952 
L 672.914003 101.940952 
L 672.914003 101.940952 
L 674.056874 101.940952 
L 674.056874 96.431429 
L 675.199745 96.431429 
L 675.199745 112.96 
L 674.056874 112.96 
L 674.056874 112.96 
L 672.914003 112.96 
L 672.914003 112.96 
L 671.771132 112.96 
L 671.771132 112.96 
L 670.628261 112.96 
L 670.628261 112.96 
L 669.48539 112.96 
L 669.48539 112.96 
L 668.342519 112.96 
L 668.342519 112.96 
L 667.199648 112.96 
L 667.199648 112.96 
L 666.056777 112.96 
L 666.056777 112.96 
L 664.913906 112.96 
L 664.913906 112.96 
L 663.771035 112.96 
L 663.771035 112.96 
L 662.628164 112.96 
L 662.628164 112.96 
L 661.485293 112.96 
L 661.485293 112.96 
L 660.342422 112.96 
L 660.342422 112.96 
L 659.199551 112.96 
L 659.199551 112.96 
L 658.05668 112.96 
L 658.05668 112.96 
L 656.913808 112.96 
L 656.913808 112.96 
L 655.770937 112.96 
L 655.770937 112.96 
L 654.628066 112.96 
L 654.628066 112.96 
L 653.485195 112.96 
L 653.485195 112.96 
L 652.342324 112.96 
L 652.342324 112.96 
L 651.199453 112.96 
L 651.199453 112.96 
L 650.056582 112.96 
L 650.056582 112.96 
L 648.913711 112.96 
L 648.913711 112.96 
L 647.77084 112.96 
L 647.77084 112.96 
L 646.627969 112.96 
L 646.627969 112.96 
L 645.485098 112.96 
L 645.485098 112.96 
L 644.342227 112.96 
L 644.342227 112.96 
L 643.199356 112.96 
L 643.199356 112.96 
L 642.056485 112.96 
L 642.056485 112.96 
z
" clip-path="url(#peac5aa5086)" style="fill: #cccccc; stroke: #ffffff; stroke-linejoin: miter"/>
   </g>
   <g id="line2d_57">
    <path d="M 604.706727 112.96 
L 605.512874 112.96 
L 606.319022 112.96 
L 607.125169 112.96 
L 607.931316 112.96 
L 608.737463 112.96 
L 609.54361 112.96 
L 610.349758 112.96 
L 611.155905 112.96 
L 611.962052 112.96 
L 612.768199 112.96 
L 613.574346 112.96 
L 614.380494 112.96 
L 615.186641 112.96 
L 615.992788 112.96 
L 616.798935 112.96 
L 617.605082 112.96 
L 618.411229 112.96 
L 619.217377 112.96 
L 620.023524 112.96 
L 620.829671 112.96 
L 621.635818 112.96 
L 622.441965 112.96 
L 623.248113 112.96 
L 624.05426 112.96 
L 624.860407 112.96 
L 625.666554 112.96 
L 626.472701 112.96 
L 627.278848 112.96 
L 628.084996 112.96 
L 628.891143 112.96 
L 629.69729 112.96 
L 630.503437 112.96 
L 631.309584 112.96 
L 632.115732 112.96 
L 632.921879 112.96 
L 633.728026 112.96 
L 634.534173 112.959997 
L 635.34032 112.959961 
L 636.146468 112.959543 
L 636.952615 112.95577 
L 637.758762 112.928876 
L 638.564909 112.777887 
L 639.371056 112.112633 
L 640.177203 109.824612 
L 640.983351 103.734263 
L 641.789498 91.372584 
L 642.595645 72.791088 
L 643.401792 53.521301 
L 644.207939 43.017953 
L 645.014087 47.511878 
L 645.820234 64.258105 
L 646.626381 84.14064 
L 647.432528 99.398347 
L 648.238675 107.885062 
L 649.044823 111.449785 
L 649.85097 112.602615 
L 650.657117 112.892745 
L 651.463264 112.949935 
L 652.269411 112.958802 
L 653.075558 112.959887 
L 653.881706 112.959991 
L 654.687853 112.959999 
L 655.494 112.96 
L 656.300147 112.96 
L 657.106294 112.96 
L 657.912442 112.96 
L 658.718589 112.96 
L 659.524736 112.96 
L 660.330883 112.96 
L 661.13703 112.96 
L 661.943177 112.96 
L 662.749325 112.96 
L 663.555472 112.96 
L 664.361619 112.96 
L 665.167766 112.96 
L 665.973913 112.96 
L 666.780061 112.96 
L 667.586208 112.96 
L 668.392355 112.96 
L 669.198502 112.96 
L 670.004649 112.96 
L 670.810797 112.96 
L 671.616944 112.96 
L 672.423091 112.96 
L 673.229238 112.96 
L 674.035385 112.96 
L 674.841532 112.96 
L 675.64768 112.96 
L 676.453827 112.96 
L 677.259974 112.96 
L 678.066121 112.96 
L 678.872268 112.96 
L 679.678416 112.96 
L 680.484563 112.96 
L 681.29071 112.96 
L 682.096857 112.96 
L 682.903004 112.96 
L 683.709152 112.96 
L 684.515299 112.96 
L 685.321446 112.96 
L 686.127593 112.96 
L 686.93374 112.96 
L 687.739887 112.96 
L 688.546035 112.96 
L 689.352182 112.96 
L 690.158329 112.96 
L 690.964476 112.96 
L 691.770623 112.96 
L 692.576771 112.96 
L 693.382918 112.96 
L 694.189065 112.96 
L 694.995212 112.96 
L 695.801359 112.96 
L 696.607506 112.96 
L 697.413654 112.96 
L 698.219801 112.96 
L 699.025948 112.96 
L 699.832095 112.96 
L 700.638242 112.96 
L 701.44439 112.96 
L 702.250537 112.96 
L 703.056684 112.96 
L 703.862831 112.96 
L 704.668978 112.96 
L 705.475126 112.96 
L 706.281273 112.96 
" clip-path="url(#peac5aa5086)" style="fill: none; stroke: #edd1cb; stroke-width: 1.5; stroke-linecap: round"/>
   </g>
   <g id="line2d_58">
    <path d="M 604.706727 112.96 
L 605.512874 112.96 
L 606.319022 112.96 
L 607.125169 112.96 
L 607.931316 112.96 
L 608.737463 112.96 
L 609.54361 112.96 
L 610.349758 112.96 
L 611.155905 112.96 
L 611.962052 112.96 
L 612.768199 112.96 
L 613.574346 112.96 
L 614.380494 112.96 
L 615.186641 112.96 
L 615.992788 112.96 
L 616.798935 112.96 
L 617.605082 112.96 
L 618.411229 112.96 
L 619.217377 112.96 
L 620.023524 112.96 
L 620.829671 112.96 
L 621.635818 112.96 
L 622.441965 112.96 
L 623.248113 112.96 
L 624.05426 112.96 
L 624.860407 112.96 
L 625.666554 112.96 
L 626.472701 112.96 
L 627.278848 112.96 
L 628.084996 112.96 
L 628.891143 112.96 
L 629.69729 112.96 
L 630.503437 112.96 
L 631.309584 112.96 
L 632.115732 112.96 
L 632.921879 112.96 
L 633.728026 112.96 
L 634.534173 112.96 
L 635.34032 112.96 
L 636.146468 112.96 
L 636.952615 112.96 
L 637.758762 112.96 
L 638.564909 112.96 
L 639.371056 112.96 
L 640.177203 112.96 
L 640.983351 112.96 
L 641.789498 112.96 
L 642.595645 112.96 
L 643.401792 112.96 
L 644.207939 112.96 
L 645.014087 112.96 
L 645.820234 112.96 
L 646.626381 112.96 
L 647.432528 112.96 
L 648.238675 112.959999 
L 649.044823 112.959996 
L 649.85097 112.959986 
L 650.657117 112.959955 
L 651.463264 112.959858 
L 652.269411 112.959577 
L 653.075558 112.958799 
L 653.881706 112.956764 
L 654.687853 112.951725 
L 655.494 112.939909 
L 656.300147 112.913687 
L 657.106294 112.858648 
L 657.912442 112.749422 
L 658.718589 112.544628 
L 659.524736 112.182134 
L 660.330883 111.577017 
L 661.13703 110.625614 
L 661.943177 109.219129 
L 662.749325 107.268629 
L 663.555472 104.739369 
L 664.361619 101.687052 
L 665.167766 98.283786 
L 665.973913 94.82011 
L 666.780061 91.673738 
L 667.586208 89.24581 
L 668.392355 87.878051 
L 669.198502 87.774046 
L 670.004649 88.949586 
L 670.810797 91.228734 
L 671.616944 94.286982 
L 672.423091 97.726906 
L 673.229238 101.162069 
L 674.035385 104.285035 
L 674.841532 106.90417 
L 675.64768 108.946495 
L 676.453827 110.434671 
L 677.259974 111.451462 
L 678.066121 112.104463 
L 678.872268 112.499356 
L 679.678416 112.72453 
L 680.484563 112.845725 
L 681.29071 112.907349 
L 682.096857 112.936969 
L 682.903004 112.950436 
L 683.709152 112.956229 
L 684.515299 112.958588 
L 685.321446 112.959498 
L 686.127593 112.959831 
L 686.93374 112.959946 
L 687.739887 112.959984 
L 688.546035 112.959995 
L 689.352182 112.959999 
L 690.158329 112.96 
L 690.964476 112.96 
L 691.770623 112.96 
L 692.576771 112.96 
L 693.382918 112.96 
L 694.189065 112.96 
L 694.995212 112.96 
L 695.801359 112.96 
L 696.607506 112.96 
L 697.413654 112.96 
L 698.219801 112.96 
L 699.025948 112.96 
L 699.832095 112.96 
L 700.638242 112.96 
L 701.44439 112.96 
L 702.250537 112.96 
L 703.056684 112.96 
L 703.862831 112.96 
L 704.668978 112.96 
L 705.475126 112.96 
L 706.281273 112.96 
" clip-path="url(#peac5aa5086)" style="fill: none; stroke: #a9678f; stroke-width: 1.5; stroke-linecap: round"/>
   </g>
   <g id="line2d_59">
    <path d="M 604.706727 112.96 
L 605.512874 112.96 
L 606.319022 112.96 
L 607.125169 112.96 
L 607.931316 112.96 
L 608.737463 112.96 
L 609.54361 112.96 
L 610.349758 112.96 
L 611.155905 112.96 
L 611.962052 112.96 
L 612.768199 112.96 
L 613.574346 112.96 
L 614.380494 112.96 
L 615.186641 112.96 
L 615.992788 112.96 
L 616.798935 112.96 
L 617.605082 112.96 
L 618.411229 112.96 
L 619.217377 112.96 
L 620.023524 112.96 
L 620.829671 112.96 
L 621.635818 112.96 
L 622.441965 112.96 
L 623.248113 112.959999 
L 624.05426 112.959998 
L 624.860407 112.959995 
L 625.666554 112.959988 
L 626.472701 112.959974 
L 627.278848 112.959944 
L 628.084996 112.959881 
L 628.891143 112.959752 
L 629.69729 112.959498 
L 630.503437 112.959004 
L 631.309584 112.958068 
L 632.115732 112.95634 
L 632.921879 112.95322 
L 633.728026 112.947725 
L 634.534173 112.938278 
L 635.34032 112.922426 
L 636.146468 112.896469 
L 636.952615 112.855002 
L 637.758762 112.790379 
L 638.564909 112.692158 
L 639.371056 112.54659 
L 640.177203 112.336286 
L 640.983351 112.040204 
L 641.789498 111.634134 
L 642.595645 111.091859 
L 643.401792 110.387107 
L 644.207939 109.496337 
L 645.014087 108.402238 
L 645.820234 107.097681 
L 646.626381 105.589629 
L 647.432528 103.902442 
L 648.238675 102.07985 
L 649.044823 100.185009 
L 649.85097 98.298166 
L 650.657117 96.511816 
L 651.463264 94.923612 
L 652.269411 93.627717 
L 653.075558 92.705633 
L 653.881706 92.217735 
L 654.687853 92.196735 
L 655.494 92.644053 
L 656.300147 93.529658 
L 657.106294 94.795402 
L 657.912442 96.361337 
L 658.718589 98.134056 
L 659.524736 100.015848 
L 660.330883 101.913447 
L 661.13703 103.745284 
L 661.943177 105.446556 
L 662.749325 106.971775 
L 663.555472 108.294919 
L 664.361619 109.407597 
L 665.167766 110.315844 
L 665.973913 111.036226 
L 666.780061 111.591884 
L 667.586208 112.008971 
L 668.392355 112.3138 
L 669.198502 112.530818 
L 670.004649 112.681376 
L 670.810797 112.783194 
L 671.616944 112.850333 
L 672.423091 112.893509 
L 673.229238 112.920596 
L 674.035385 112.937174 
L 674.841532 112.947075 
L 675.64768 112.952847 
L 676.453827 112.95613 
L 677.259974 112.957954 
L 678.066121 112.958942 
L 678.872268 112.959466 
L 679.678416 112.959736 
L 680.484563 112.959873 
L 681.29071 112.95994 
L 682.096857 112.959972 
L 682.903004 112.959987 
L 683.709152 112.959994 
L 684.515299 112.959998 
L 685.321446 112.959999 
L 686.127593 112.96 
L 686.93374 112.96 
L 687.739887 112.96 
L 688.546035 112.96 
L 689.352182 112.96 
L 690.158329 112.96 
L 690.964476 112.96 
L 691.770623 112.96 
L 692.576771 112.96 
L 693.382918 112.96 
L 694.189065 112.96 
L 694.995212 112.96 
L 695.801359 112.96 
L 696.607506 112.96 
L 697.413654 112.96 
L 698.219801 112.96 
L 699.025948 112.96 
L 699.832095 112.96 
L 700.638242 112.96 
L 701.44439 112.96 
L 702.250537 112.96 
L 703.056684 112.96 
L 703.862831 112.96 
L 704.668978 112.96 
L 705.475126 112.96 
L 706.281273 112.96 
" clip-path="url(#peac5aa5086)" style="fill: none; stroke: #2d1e3e; stroke-width: 1.5; stroke-linecap: round"/>
   </g>
   <g id="line2d_60">
    <path d="M 648.210836 112.96 
L 648.210836 20.4 
" clip-path="url(#peac5aa5086)" style="fill: none; stroke-dasharray: 5.55,2.4; stroke-dashoffset: 0; stroke: #808080; stroke-width: 1.5"/>
   </g>
   <g id="line2d_61">
    <path d="M 660.82547 112.96 
L 660.82547 20.4 
" clip-path="url(#peac5aa5086)" style="fill: none; stroke-dasharray: 5.55,2.4; stroke-dashoffset: 0; stroke: #808080; stroke-width: 1.5"/>
   </g>
   <g id="patch_28">
    <path d="M 599.628 112.96 
L 599.628 20.4 
" style="fill: none; stroke: #262626; stroke-width: 1.25; stroke-linejoin: miter; stroke-linecap: square"/>
   </g>
   <g id="patch_29">
    <path d="M 711.36 112.96 
L 711.36 20.4 
" style="fill: none; stroke: #262626; stroke-width: 1.25; stroke-linejoin: miter; stroke-linecap: square"/>
   </g>
   <g id="patch_30">
    <path d="M 599.628 112.96 
L 711.36 112.96 
" style="fill: none; stroke: #262626; stroke-width: 1.25; stroke-linejoin: miter; stroke-linecap: square"/>
   </g>
   <g id="patch_31">
    <path d="M 599.628 20.4 
L 711.36 20.4 
" style="fill: none; stroke: #262626; stroke-width: 1.25; stroke-linejoin: miter; stroke-linecap: square"/>
   </g>
   <g id="text_47">
    <text style="font-size: 8px; font-family: 'Arial'; text-anchor: middle; fill: #262626" x="655.494" y="14.4" transform="rotate(-0 655.494 14.4)">Micafungin</text>
   </g>
  </g>
 </g>
 <defs>
  <clipPath id="p76edd09bf9">
   <rect x="39.5" y="20.4" width="111.732" height="92.56"/>
  </clipPath>
  <clipPath id="p0c564c9870">
   <rect x="179.532" y="20.4" width="111.732" height="92.56"/>
  </clipPath>
  <clipPath id="p64b570c357">
   <rect x="319.564" y="20.4" width="111.732" height="92.56"/>
  </clipPath>
  <clipPath id="pf5563b0cbd">
   <rect x="459.596" y="20.4" width="111.732" height="92.56"/>
  </clipPath>
  <clipPath id="peac5aa5086">
   <rect x="599.628" y="20.4" width="111.732" height="92.56"/>
  </clipPath>
 </defs>
</svg>
